{
 "accessors": [
  {
   "bufferView": 0,
   "componentType": 5126,
   "count": 8,
   "max": [
    14,
    3,
    12
   ],
   "min": [
    -14,
    0,
    -12
   ],
   "type": "VEC3"
  },
  {
   "bufferView": 1,
   "componentType": 5123,
   "count": 36,
   "type": "SCALAR"
  }
 ],
 "asset": {
  "generator": "DarkArisenO3DE placeholder prop + DarkArisenO3DE frame conversion",
  "version": "2.0"
 },
 "bufferViews": [
  {
   "buffer": 0,
   "byteLength": 96,
   "byteOffset": 0
  },
  {
   "buffer": 0,
   "byteLength": 72,
   "byteOffset": 96
  }
 ],
 "buffers": [
  {
   "byteLength": 168,
   "uri": "data:application/octet-stream;base64,"
  }
 ],
 "meshes": [
  {
   "name": "SM_Block_2800x2400x300",
   "primitives": [
    {
     "attributes": {
      "POSITION": 0
     },
     "indices": 1
    }
   ]
  }
 ],
 "nodes": [
  {
   "mesh": 0,
   "name": "SM_Block_2800x2400x300"
  }
 ],
 "scene": 0,
 "scenes": [
  {
   "nodes": [
    0
   ]
  }
 ]
}
