{
 "accessors": [
  {
   "bufferView": 0,
   "componentType": 5126,
   "count": 2601,
   "max": [
    200,
    0,
    200
   ],
   "min": [
    -200,
    0,
    -200
   ],
   "type": "VEC3"
  },
  {
   "bufferView": 1,
   "componentType": 5123,
   "count": 15000,
   "type": "SCALAR"
  }
 ],
 "asset": {
  "generator": "DarkArisenO3DE ocean grid + DarkArisenO3DE frame conversion",
  "version": "2.0"
 },
 "bufferViews": [
  {
   "buffer": 0,
   "byteLength": 31212,
   "byteOffset": 0
  },
  {
   "buffer": 0,
   "byteLength": 30000,
   "byteOffset": 31212
  }
 ],
 "buffers": [
  {
   "byteLength": 61212,
   "uri": "data:application/octet-stream;base64,"
  }
 ],
 "meshes": [
  {
   "name": "SM_OceanTile_Far",
   "primitives": [
    {
     "attributes": {
      "POSITION": 0
     },
     "indices": 1
    }
   ]
  }
 ],
 "nodes": [
  {
   "mesh": 0,
   "name": "SM_OceanTile_Far"
  }
 ],
 "scene": 0,
 "scenes": [
  {
   "nodes": [
    0
   ]
  }
 ]
}
