{
 "accessors": [
  {
   "bufferView": 0,
   "componentType": 5126,
   "count": 18,
   "max": [
    0.3499999940395355,
    1.7999999523162842,
    0.3499999940395355
   ],
   "min": [
    -0.3499999940395355,
    0,
    -0.3499999940395355
   ],
   "type": "VEC3"
  },
  {
   "bufferView": 1,
   "componentType": 5123,
   "count": 96,
   "type": "SCALAR"
  }
 ],
 "asset": {
  "generator": "DarkArisenO3DE placeholder figure + DarkArisenO3DE frame conversion",
  "version": "2.0"
 },
 "bufferViews": [
  {
   "buffer": 0,
   "byteLength": 216,
   "byteOffset": 0
  },
  {
   "buffer": 0,
   "byteLength": 192,
   "byteOffset": 216
  }
 ],
 "buffers": [
  {
   "byteLength": 408,
   "uri": "data:application/octet-stream;base64,"
  }
 ],
 "meshes": [
  {
   "name": "SM_Placeholder_Figure",
   "primitives": [
    {
     "attributes": {
      "POSITION": 0
     },
     "indices": 1
    }
   ]
  }
 ],
 "nodes": [
  {
   "mesh": 0,
   "name": "SM_Placeholder_Figure"
  }
 ],
 "scene": 0,
 "scenes": [
  {
   "nodes": [
    0
   ]
  }
 ]
}
