{"asset":{"generator":"DarkArisen OpenSource3D alpha prop generator","version":"2.0"},"scene":0,"scenes":[{"nodes":[0]}],"nodes":[{"name":"weapon.forge_hammer","children":[1]},{"name":"root","mesh":0}],"meshes":[{"name":"root","primitives":[{"attributes":{"POSITION":1,"NORMAL":2,"TEXCOORD_0":3},"indices":0,"material":0,"mode":4},{"attributes":{"POSITION":5,"NORMAL":6,"TEXCOORD_0":7},"indices":4,"material":1,"mode":4},{"attributes":{"POSITION":9,"NORMAL":10,"TEXCOORD_0":11},"indices":8,"material":2,"mode":4},{"attributes":{"POSITION":13,"NORMAL":14,"TEXCOORD_0":15},"indices":12,"material":3,"mode":4}]}],"materials":[{"name":"oak","pbrMetallicRoughness":{"baseColorTexture":{"index":0},"metallicFactor":0.0,"roughnessFactor":0.83},"doubleSided":false},{"name":"iron","pbrMetallicRoughness":{"baseColorTexture":{"index":1},"metallicFactor":0.72,"roughnessFactor":0.62},"doubleSided":false},{"name":"steel","pbrMetallicRoughness":{"baseColorTexture":{"index":2},"metallicFactor":0.84,"roughnessFactor":0.36},"doubleSided":false},{"name":"rope","pbrMetallicRoughness":{"baseColorTexture":{"index":3},"metallicFactor":0.0,"roughnessFactor":0.95},"doubleSided":false}],"textures":[{"source":0},{"source":1},{"source":2},{"source":3}],"images":[{"name":"oak_grain","bufferView":0,"mimeType":"image/png"},{"name":"iron_grain","bufferView":1,"mimeType":"image/png"},{"name":"steel_grain","bufferView":2,"mimeType":"image/png"},{"name":"rope_grain","bufferView":3,"mimeType":"image/png"}],"samplers":[{"wrapS":10497,"wrapT":10497}],"buffers":[{"byteLength":114352,"uri":"data:application/octet-stream;base64,"}],"bufferViews":[{"buffer":0,"byteOffset":0,"byteLength":792},{"buffer":0,"byteOffset":792,"byteLength":481},{"buffer":0,"byteOffset":1276,"byteLength":578},{"buffer":0,"byteOffset":1856,"byteLength":608},{"buffer":0,"byteOffset":2464,"byteLength":480,"target":34963},{"buffer":0,"byteOffset":2944,"byteLength":1440,"target":34962},{"buffer":0,"byteOffset":4384,"byteLength":1440,"target":34962},{"buffer":0,"byteOffset":5824,"byteLength":960,"target":34962},{"buffer":0,"byteOffset":6784,"byteLength":144,"target":34963},{"buffer":0,"byteOffset":6928,"byteLength":432,"target":34962},{"buffer":0,"byteOffset":7360,"byteLength":432,"target":34962},{"buffer":0,"byteOffset":7792,"byteLength":288,"target":34962},{"buffer":0,"byteOffset":8080,"byteLength":288,"target":34963},{"buffer":0,"byteOffset":8368,"byteLength":864,"target":34962},{"buffer":0,"byteOffset":9232,"byteLength":864,"target":34962},{"buffer":0,"byteOffset":10096,"byteLength":576,"target":34962},{"buffer":0,"byteOffset":10672,"byteLength":11520,"target":34963},{"buffer":0,"byteOffset":22192,"byteLength":34560,"target":34962},{"buffer":0,"byteOffset":56752,"byteLength":34560,"target":34962},{"buffer":0,"byteOffset":91312,"byteLength":23040,"target":34962}],"accessors":[{"bufferView":4,"componentType":5125,"count":120,"type":"SCALAR"},{"bufferView":5,"componentType":5126,"count":120,"type":"VEC3","min":[-0.04945493884734799,0.0,-0.052],"max":[0.04945493884734799,1.16,0.052]},{"bufferView":6,"componentType":5126,"count":120,"type":"VEC3"},{"bufferView":7,"componentType":5126,"count":120,"type":"VEC2"},{"bufferView":8,"componentType":5125,"count":36,"type":"SCALAR"},{"bufferView":9,"componentType":5126,"count":36,"type":"VEC3","min":[-0.215,0.925,-0.11],"max":[0.215,1.135,0.11]},{"bufferView":10,"componentType":5126,"count":36,"type":"VEC3"},{"bufferView":11,"componentType":5126,"count":36,"type":"VEC2"},{"bufferView":12,"componentType":5125,"count":72,"type":"SCALAR"},{"bufferView":13,"componentType":5126,"count":72,"type":"VEC3","min":[-0.245,0.905,-0.125],"max":[0.245,1.155,0.125]},{"bufferView":14,"componentType":5126,"count":72,"type":"VEC3"},{"bufferView":15,"componentType":5126,"count":72,"type":"VEC2"},{"bufferView":16,"componentType":5125,"count":2880,"type":"SCALAR"},{"bufferView":17,"componentType":5126,"count":2880,"type":"VEC3","min":[-0.05345493884734799,0.21653589838486226,-0.05580422606518061],"max":[0.05345493884734799,0.5234641016151378,0.05580422606518061]},{"bufferView":18,"componentType":5126,"count":2880,"type":"VEC3"},{"bufferView":19,"componentType":5126,"count":2880,"type":"VEC2"}]}
