{"asset":{"generator":"DarkArisen OpenSource3D alpha prop generator","version":"2.0"},"scene":0,"scenes":[{"nodes":[0]}],"nodes":[{"name":"weapon.grappling_hook","children":[1]},{"name":"root","mesh":0}],"meshes":[{"name":"root","primitives":[{"attributes":{"POSITION":1,"NORMAL":2,"TEXCOORD_0":3},"indices":0,"material":0,"mode":4},{"attributes":{"POSITION":5,"NORMAL":6,"TEXCOORD_0":7},"indices":4,"material":1,"mode":4},{"attributes":{"POSITION":9,"NORMAL":10,"TEXCOORD_0":11},"indices":8,"material":2,"mode":4}]}],"materials":[{"name":"iron","pbrMetallicRoughness":{"baseColorTexture":{"index":0},"metallicFactor":0.72,"roughnessFactor":0.62},"doubleSided":false},{"name":"steel","pbrMetallicRoughness":{"baseColorTexture":{"index":1},"metallicFactor":0.84,"roughnessFactor":0.36},"doubleSided":false},{"name":"rope","pbrMetallicRoughness":{"baseColorTexture":{"index":2},"metallicFactor":0.0,"roughnessFactor":0.95},"doubleSided":false}],"textures":[{"source":0},{"source":1},{"source":2}],"images":[{"name":"iron_grain","bufferView":0,"mimeType":"image/png"},{"name":"steel_grain","bufferView":1,"mimeType":"image/png"},{"name":"rope_grain","bufferView":2,"mimeType":"image/png"}],"samplers":[{"wrapS":10497,"wrapT":10497}],"buffers":[{"byteLength":91096,"uri":"data:application/octet-stream;base64,"}],"bufferViews":[{"buffer":0,"byteOffset":0,"byteLength":481},{"buffer":0,"byteOffset":484,"byteLength":578},{"buffer":0,"byteOffset":1064,"byteLength":608},{"buffer":0,"byteOffset":1672,"byteLength":7344,"target":34963},{"buffer":0,"byteOffset":9016,"byteLength":22032,"target":34962},{"buffer":0,"byteOffset":31048,"byteLength":22032,"target":34962},{"buffer":0,"byteOffset":53080,"byteLength":14688,"target":34962},{"buffer":0,"byteOffset":67768,"byteLength":1728,"target":34963},{"buffer":0,"byteOffset":69496,"byteLength":5184,"target":34962},{"buffer":0,"byteOffset":74680,"byteLength":5184,"target":34962},{"buffer":0,"byteOffset":79864,"byteLength":3456,"target":34962},{"buffer":0,"byteOffset":83320,"byteLength":864,"target":34963},{"buffer":0,"byteOffset":84184,"byteLength":2592,"target":34962},{"buffer":0,"byteOffset":86776,"byteLength":2592,"target":34962},{"buffer":0,"byteOffset":89368,"byteLength":1728,"target":34962}],"accessors":[{"bufferView":3,"componentType":5125,"count":1836,"type":"SCALAR"},{"bufferView":4,"componentType":5126,"count":1836,"type":"VEC3","min":[-0.1054550958552227,-0.0454550958552227,-0.04],"max":[0.1054550958552227,0.49,0.037587704831436336]},{"bufferView":5,"componentType":5126,"count":1836,"type":"VEC3"},{"bufferView":6,"componentType":5126,"count":1836,"type":"VEC2"},{"bufferView":7,"componentType":5125,"count":432,"type":"SCALAR"},{"bufferView":8,"componentType":5126,"count":432,"type":"VEC3","min":[-0.3392174868608089,0.3763478141423989,-0.034],"max":[0.3392174868608089,0.6076720892877181,0.034]},{"bufferView":9,"componentType":5126,"count":432,"type":"VEC3"},{"bufferView":10,"componentType":5126,"count":432,"type":"VEC2"},{"bufferView":11,"componentType":5125,"count":216,"type":"SCALAR"},{"bufferView":12,"componentType":5126,"count":216,"type":"VEC3","min":[-0.016893316023161957,-0.44465832827695034,-0.01788854381999832],"max":[0.1670647359114164,0.030350983390135314,0.08979898987322334]},{"bufferView":13,"componentType":5126,"count":216,"type":"VEC3"},{"bufferView":14,"componentType":5126,"count":216,"type":"VEC2"}]}
