{"asset":{"generator":"DarkArisen OpenSource3D alpha prop generator","version":"2.0"},"scene":0,"scenes":[{"nodes":[0]}],"nodes":[{"name":"weapon.iron_cleaver","children":[1]},{"name":"root","mesh":0}],"meshes":[{"name":"root","primitives":[{"attributes":{"POSITION":1,"NORMAL":2,"TEXCOORD_0":3},"indices":0,"material":0,"mode":4},{"attributes":{"POSITION":5,"NORMAL":6,"TEXCOORD_0":7},"indices":4,"material":1,"mode":4},{"attributes":{"POSITION":9,"NORMAL":10,"TEXCOORD_0":11},"indices":8,"material":2,"mode":4}]}],"materials":[{"name":"leather","pbrMetallicRoughness":{"baseColorTexture":{"index":0},"metallicFactor":0.0,"roughnessFactor":0.83},"doubleSided":false},{"name":"brass","pbrMetallicRoughness":{"baseColorTexture":{"index":1},"metallicFactor":0.78,"roughnessFactor":0.36},"doubleSided":false},{"name":"steel","pbrMetallicRoughness":{"baseColorTexture":{"index":2},"metallicFactor":0.84,"roughnessFactor":0.36},"doubleSided":false}],"textures":[{"source":0},{"source":1},{"source":2}],"images":[{"name":"leather_grain","bufferView":0,"mimeType":"image/png"},{"name":"brass_grain","bufferView":1,"mimeType":"image/png"},{"name":"steel_grain","bufferView":2,"mimeType":"image/png"}],"samplers":[{"wrapS":10497,"wrapT":10497}],"buffers":[{"byteLength":70752,"uri":"data:application/octet-stream;base64,"}],"bufferViews":[{"buffer":0,"byteOffset":0,"byteLength":465},{"buffer":0,"byteOffset":468,"byteLength":584},{"buffer":0,"byteOffset":1052,"byteLength":578},{"buffer":0,"byteOffset":1632,"byteLength":480,"target":34963},{"buffer":0,"byteOffset":2112,"byteLength":1440,"target":34962},{"buffer":0,"byteOffset":3552,"byteLength":1440,"target":34962},{"buffer":0,"byteOffset":4992,"byteLength":960,"target":34962},{"buffer":0,"byteOffset":5952,"byteLength":6912,"target":34963},{"buffer":0,"byteOffset":12864,"byteLength":20736,"target":34962},{"buffer":0,"byteOffset":33600,"byteLength":20736,"target":34962},{"buffer":0,"byteOffset":54336,"byteLength":13824,"target":34962},{"buffer":0,"byteOffset":68160,"byteLength":288,"target":34963},{"buffer":0,"byteOffset":68448,"byteLength":864,"target":34962},{"buffer":0,"byteOffset":69312,"byteLength":864,"target":34962},{"buffer":0,"byteOffset":70176,"byteLength":576,"target":34962}],"accessors":[{"bufferView":3,"componentType":5125,"count":120,"type":"SCALAR"},{"bufferView":4,"componentType":5126,"count":120,"type":"VEC3","min":[-0.044699656265872224,0.0,-0.047],"max":[0.044699656265872224,0.25,0.047]},{"bufferView":5,"componentType":5126,"count":120,"type":"VEC3"},{"bufferView":6,"componentType":5126,"count":120,"type":"VEC2"},{"bufferView":7,"componentType":5125,"count":1728,"type":"SCALAR"},{"bufferView":8,"componentType":5126,"count":1728,"type":"VEC3","min":[-0.06589733833648573,0.24960769515458675,-0.06589733833648573],"max":[0.06589733833648573,0.27039230484541327,0.06589733833648573]},{"bufferView":9,"componentType":5126,"count":1728,"type":"VEC3"},{"bufferView":10,"componentType":5126,"count":1728,"type":"VEC2"},{"bufferView":11,"componentType":5125,"count":72,"type":"SCALAR"},{"bufferView":12,"componentType":5126,"count":72,"type":"VEC3","min":[-0.08,0.259525592639033,-0.07999999999999999],"max":[0.09,0.749,0.07999999999999999]},{"bufferView":13,"componentType":5126,"count":72,"type":"VEC3"},{"bufferView":14,"componentType":5126,"count":72,"type":"VEC2"}]}
