{"asset":{"generator":"DarkArisen OpenSource3D alpha prop generator","version":"2.0"},"scene":0,"scenes":[{"nodes":[0]}],"nodes":[{"name":"boss.jungle_warden","children":[1,2,3]},{"name":"root","mesh":0},{"name":"jaw","mesh":1,"translation":[0,1.02,-1.3]},{"name":"tail","mesh":2,"translation":[0,1.13,1.0]}],"meshes":[{"name":"root","primitives":[{"attributes":{"POSITION":1,"NORMAL":2,"TEXCOORD_0":3},"indices":0,"material":0,"mode":4},{"attributes":{"POSITION":5,"NORMAL":6,"TEXCOORD_0":7},"indices":4,"material":1,"mode":4},{"attributes":{"POSITION":9,"NORMAL":10,"TEXCOORD_0":11},"indices":8,"material":3,"mode":4},{"attributes":{"POSITION":13,"NORMAL":14,"TEXCOORD_0":15},"indices":12,"material":4,"mode":4}]},{"name":"jaw","primitives":[{"attributes":{"POSITION":17,"NORMAL":18,"TEXCOORD_0":19},"indices":16,"material":2,"mode":4}]},{"name":"tail","primitives":[{"attributes":{"POSITION":21,"NORMAL":22,"TEXCOORD_0":23},"indices":20,"material":0,"mode":4}]}],"materials":[{"name":"basalt","pbrMetallicRoughness":{"baseColorTexture":{"index":0},"metallicFactor":0.0,"roughnessFactor":0.98},"doubleSided":false},{"name":"ember","pbrMetallicRoughness":{"baseColorTexture":{"index":1},"metallicFactor":0.0,"roughnessFactor":0.5},"doubleSided":false,"emissiveFactor":[1.0,0.56,0.12],"emissiveTexture":{"index":1}},{"name":"iron","pbrMetallicRoughness":{"baseColorTexture":{"index":2},"metallicFactor":0.72,"roughnessFactor":0.62},"doubleSided":false},{"name":"moss","pbrMetallicRoughness":{"baseColorTexture":{"index":3},"metallicFactor":0.0,"roughnessFactor":0.95},"doubleSided":false},{"name":"oak","pbrMetallicRoughness":{"baseColorTexture":{"index":4},"metallicFactor":0.0,"roughnessFactor":0.83},"doubleSided":false}],"textures":[{"source":0},{"source":1},{"source":2},{"source":3},{"source":4}],"images":[{"name":"basalt_grain","bufferView":0,"mimeType":"image/png"},{"name":"ember_grain","bufferView":1,"mimeType":"image/png"},{"name":"iron_grain","bufferView":2,"mimeType":"image/png"},{"name":"moss_grain","bufferView":3,"mimeType":"image/png"},{"name":"oak_grain","bufferView":4,"mimeType":"image/png"}],"samplers":[{"wrapS":10497,"wrapT":10497}],"buffers":[{"byteLength":156360,"uri":"data:application/octet-stream;base64,"}],"bufferViews":[{"buffer":0,"byteOffset":0,"byteLength":381},{"buffer":0,"byteOffset":384,"byteLength":639},{"buffer":0,"byteOffset":1024,"byteLength":481},{"buffer":0,"byteOffset":1508,"byteLength":499},{"buffer":0,"byteOffset":2008,"byteLength":792},{"buffer":0,"byteOffset":2800,"byteLength":9600,"target":34963},{"buffer":0,"byteOffset":12400,"byteLength":28800,"target":34962},{"buffer":0,"byteOffset":41200,"byteLength":28800,"target":34962},{"buffer":0,"byteOffset":70000,"byteLength":19200,"target":34962},{"buffer":0,"byteOffset":89200,"byteLength":1536,"target":34963},{"buffer":0,"byteOffset":90736,"byteLength":4608,"target":34962},{"buffer":0,"byteOffset":95344,"byteLength":4608,"target":34962},{"buffer":0,"byteOffset":99952,"byteLength":3072,"target":34962},{"buffer":0,"byteOffset":103024,"byteLength":2880,"target":34963},{"buffer":0,"byteOffset":105904,"byteLength":8640,"target":34962},{"buffer":0,"byteOffset":114544,"byteLength":8640,"target":34962},{"buffer":0,"byteOffset":123184,"byteLength":5760,"target":34962},{"buffer":0,"byteOffset":128944,"byteLength":2304,"target":34963},{"buffer":0,"byteOffset":131248,"byteLength":6912,"target":34962},{"buffer":0,"byteOffset":138160,"byteLength":6912,"target":34962},{"buffer":0,"byteOffset":145072,"byteLength":4608,"target":34962},{"buffer":0,"byteOffset":149680,"byteLength":144,"target":34963},{"buffer":0,"byteOffset":149824,"byteLength":432,"target":34962},{"buffer":0,"byteOffset":150256,"byteLength":432,"target":34962},{"buffer":0,"byteOffset":150688,"byteLength":288,"target":34962},{"buffer":0,"byteOffset":150976,"byteLength":576,"target":34963},{"buffer":0,"byteOffset":151552,"byteLength":1728,"target":34962},{"buffer":0,"byteOffset":153280,"byteLength":1728,"target":34962},{"buffer":0,"byteOffset":155008,"byteLength":1152,"target":34962},{"buffer":0,"byteOffset":156160,"byteLength":20},{"buffer":0,"byteOffset":156180,"byteLength":80},{"buffer":0,"byteOffset":156260,"byteLength":20},{"buffer":0,"byteOffset":156280,"byteLength":80}],"accessors":[{"bufferView":5,"componentType":5125,"count":2400,"type":"SCALAR"},{"bufferView":6,"componentType":5126,"count":2400,"type":"VEC3","min":[-0.9573354503650408,-0.010000000000000009,-1.72],"max":[0.97,1.7799999999999998,1.209746873846278]},{"bufferView":7,"componentType":5126,"count":2400,"type":"VEC3"},{"bufferView":8,"componentType":5126,"count":2400,"type":"VEC2"},{"bufferView":9,"componentType":5125,"count":384,"type":"SCALAR"},{"bufferView":10,"componentType":5126,"count":384,"type":"VEC3","min":[-0.27230810839623343,1.3050000000000002,-1.5970633909777092],"max":[0.27230810839623343,1.435,-1.4829366090222909]},{"bufferView":11,"componentType":5126,"count":384,"type":"VEC3"},{"bufferView":12,"componentType":5126,"count":384,"type":"VEC2"},{"bufferView":13,"componentType":5125,"count":720,"type":"SCALAR"},{"bufferView":14,"componentType":5126,"count":720,"type":"VEC3","min":[-0.31,1.5799999999999998,-0.8300000000000001],"max":[0.31,1.78,0.95]},{"bufferView":15,"componentType":5126,"count":720,"type":"VEC3"},{"bufferView":16,"componentType":5126,"count":720,"type":"VEC2"},{"bufferView":17,"componentType":5125,"count":576,"type":"SCALAR"},{"bufferView":18,"componentType":5126,"count":576,"type":"VEC3","min":[-0.5635082745454687,1.3008725840751942,-0.69],"max":[0.5635082745454687,1.9265212359874675,0.89]},{"bufferView":19,"componentType":5126,"count":576,"type":"VEC3"},{"bufferView":20,"componentType":5126,"count":576,"type":"VEC2"},{"bufferView":21,"componentType":5125,"count":36,"type":"SCALAR"},{"bufferView":22,"componentType":5126,"count":36,"type":"VEC3","min":[-0.285,-0.12000000000000001,-0.8200000000000001],"max":[0.285,-0.020000000000000004,-0.019999999999999962]},{"bufferView":23,"componentType":5126,"count":36,"type":"VEC3"},{"bufferView":24,"componentType":5126,"count":36,"type":"VEC2"},{"bufferView":25,"componentType":5125,"count":144,"type":"SCALAR"},{"bufferView":26,"componentType":5126,"count":144,"type":"VEC3","min":[-0.22,-0.21977599295987432,-0.009925367423994325],"max":[0.22,0.21977599295987432,1.5511278826618176]},{"bufferView":27,"componentType":5126,"count":144,"type":"VEC3"},{"bufferView":28,"componentType":5126,"count":144,"type":"VEC2"},{"bufferView":29,"componentType":5126,"count":5,"type":"SCALAR","min":[0.0],"max":[2]},{"bufferView":30,"componentType":5126,"count":5,"type":"VEC4"},{"bufferView":31,"componentType":5126,"count":5,"type":"SCALAR","min":[0.0],"max":[2.7]},{"bufferView":32,"componentType":5126,"count":5,"type":"VEC4"}],"animations":[{"name":"jaw_preview","samplers":[{"input":24,"output":25,"interpolation":"LINEAR"}],"channels":[{"sampler":0,"target":{"node":2,"path":"rotation"}}]},{"name":"tail_preview","samplers":[{"input":26,"output":27,"interpolation":"LINEAR"}],"channels":[{"sampler":0,"target":{"node":3,"path":"rotation"}}]}]}
