{"asset":{"generator":"DarkArisen OpenSource3D alpha prop generator","version":"2.0"},"scene":0,"scenes":[{"nodes":[0]}],"nodes":[{"name":"boss.havfrue_modor","children":[1,2]},{"name":"root","mesh":0},{"name":"fin_tail","mesh":1,"translation":[0,1.03,1.83]}],"meshes":[{"name":"root","primitives":[{"attributes":{"POSITION":1,"NORMAL":2,"TEXCOORD_0":3},"indices":0,"material":0,"mode":4},{"attributes":{"POSITION":5,"NORMAL":6,"TEXCOORD_0":7},"indices":4,"material":1,"mode":4},{"attributes":{"POSITION":9,"NORMAL":10,"TEXCOORD_0":11},"indices":8,"material":2,"mode":4},{"attributes":{"POSITION":13,"NORMAL":14,"TEXCOORD_0":15},"indices":12,"material":3,"mode":4},{"attributes":{"POSITION":17,"NORMAL":18,"TEXCOORD_0":19},"indices":16,"material":4,"mode":4}]},{"name":"fin_tail","primitives":[{"attributes":{"POSITION":21,"NORMAL":22,"TEXCOORD_0":23},"indices":20,"material":0,"mode":4}]}],"materials":[{"name":"water","pbrMetallicRoughness":{"baseColorTexture":{"index":0},"metallicFactor":0.0,"roughnessFactor":0.29},"doubleSided":true},{"name":"coral","pbrMetallicRoughness":{"baseColorTexture":{"index":1},"metallicFactor":0.0,"roughnessFactor":0.89},"doubleSided":false},{"name":"black_iron","pbrMetallicRoughness":{"baseColorTexture":{"index":2},"metallicFactor":0.65,"roughnessFactor":0.73},"doubleSided":false},{"name":"ember","pbrMetallicRoughness":{"baseColorTexture":{"index":3},"metallicFactor":0.0,"roughnessFactor":0.5},"doubleSided":false,"emissiveFactor":[1.0,0.56,0.12],"emissiveTexture":{"index":3}},{"name":"rope","pbrMetallicRoughness":{"baseColorTexture":{"index":4},"metallicFactor":0.0,"roughnessFactor":0.95},"doubleSided":false}],"textures":[{"source":0},{"source":1},{"source":2},{"source":3},{"source":4}],"images":[{"name":"water_grain","bufferView":0,"mimeType":"image/png"},{"name":"coral_grain","bufferView":1,"mimeType":"image/png"},{"name":"black_iron_grain","bufferView":2,"mimeType":"image/png"},{"name":"ember_grain","bufferView":3,"mimeType":"image/png"},{"name":"rope_grain","bufferView":4,"mimeType":"image/png"}],"samplers":[{"wrapS":10497,"wrapT":10497}],"buffers":[{"byteLength":178592,"uri":"data:application/octet-stream;base64,"}],"bufferViews":[{"buffer":0,"byteOffset":0,"byteLength":533},{"buffer":0,"byteOffset":536,"byteLength":551},{"buffer":0,"byteOffset":1088,"byteLength":329},{"buffer":0,"byteOffset":1420,"byteLength":639},{"buffer":0,"byteOffset":2060,"byteLength":608},{"buffer":0,"byteOffset":2668,"byteLength":13920,"target":34963},{"buffer":0,"byteOffset":16588,"byteLength":41760,"target":34962},{"buffer":0,"byteOffset":58348,"byteLength":41760,"target":34962},{"buffer":0,"byteOffset":100108,"byteLength":27840,"target":34962},{"buffer":0,"byteOffset":127948,"byteLength":288,"target":34963},{"buffer":0,"byteOffset":128236,"byteLength":864,"target":34962},{"buffer":0,"byteOffset":129100,"byteLength":864,"target":34962},{"buffer":0,"byteOffset":129964,"byteLength":576,"target":34962},{"buffer":0,"byteOffset":130540,"byteLength":2016,"target":34963},{"buffer":0,"byteOffset":132556,"byteLength":6048,"target":34962},{"buffer":0,"byteOffset":138604,"byteLength":6048,"target":34962},{"buffer":0,"byteOffset":144652,"byteLength":4032,"target":34962},{"buffer":0,"byteOffset":148684,"byteLength":1536,"target":34963},{"buffer":0,"byteOffset":150220,"byteLength":4608,"target":34962},{"buffer":0,"byteOffset":154828,"byteLength":4608,"target":34962},{"buffer":0,"byteOffset":159436,"byteLength":3072,"target":34962},{"buffer":0,"byteOffset":162508,"byteLength":1152,"target":34963},{"buffer":0,"byteOffset":163660,"byteLength":3456,"target":34962},{"buffer":0,"byteOffset":167116,"byteLength":3456,"target":34962},{"buffer":0,"byteOffset":170572,"byteLength":2304,"target":34962},{"buffer":0,"byteOffset":172876,"byteLength":624,"target":34963},{"buffer":0,"byteOffset":173500,"byteLength":1872,"target":34962},{"buffer":0,"byteOffset":175372,"byteLength":1872,"target":34962},{"buffer":0,"byteOffset":177244,"byteLength":1248,"target":34962},{"buffer":0,"byteOffset":178492,"byteLength":20},{"buffer":0,"byteOffset":178512,"byteLength":80}],"accessors":[{"bufferView":5,"componentType":5125,"count":3480,"type":"SCALAR"},{"bufferView":6,"componentType":5126,"count":3480,"type":"VEC3","min":[-0.96,0.5771348015616893,-2.214553589918002],"max":[0.96,1.7496178207697284,2.214553589918002]},{"bufferView":7,"componentType":5126,"count":3480,"type":"VEC3"},{"bufferView":8,"componentType":5126,"count":3480,"type":"VEC2"},{"bufferView":9,"componentType":5125,"count":72,"type":"SCALAR"},{"bufferView":10,"componentType":5126,"count":72,"type":"VEC3","min":[0,1.3233272382326782,-1.605],"max":[0.03,2.0996178207697285,1.715]},{"bufferView":11,"componentType":5126,"count":72,"type":"VEC3"},{"bufferView":12,"componentType":5126,"count":72,"type":"VEC2"},{"bufferView":13,"componentType":5125,"count":504,"type":"SCALAR"},{"bufferView":14,"componentType":5126,"count":504,"type":"VEC3","min":[-0.41,1.12,-2.95],"max":[0.41,1.98,-1.75]},{"bufferView":15,"componentType":5126,"count":504,"type":"VEC3"},{"bufferView":16,"componentType":5126,"count":504,"type":"VEC2"},{"bufferView":17,"componentType":5125,"count":384,"type":"SCALAR"},{"bufferView":18,"componentType":5126,"count":384,"type":"VEC3","min":[-0.3465739561406608,1.5799999999999998,-2.6165739561406607],"max":[0.3465739561406608,1.7,-2.483426043859339]},{"bufferView":19,"componentType":5126,"count":384,"type":"VEC3"},{"bufferView":20,"componentType":5126,"count":384,"type":"VEC2"},{"bufferView":21,"componentType":5125,"count":288,"type":"SCALAR"},{"bufferView":22,"componentType":5126,"count":288,"type":"VEC3","min":[-0.6669682487140509,1.080969686677393,-2.961184056058496],"max":[0.6669682487140509,1.299949408585687,-2.680748458980475]},{"bufferView":23,"componentType":5126,"count":288,"type":"VEC3"},{"bufferView":24,"componentType":5126,"count":288,"type":"VEC2"},{"bufferView":25,"componentType":5125,"count":156,"type":"SCALAR"},{"bufferView":26,"componentType":5126,"count":156,"type":"VEC3","min":[-0.92,-0.2298070825514835,-0.009418323055388669],"max":[0.92,0.2298070825514835,1.82]},{"bufferView":27,"componentType":5126,"count":156,"type":"VEC3"},{"bufferView":28,"componentType":5126,"count":156,"type":"VEC2"},{"bufferView":29,"componentType":5126,"count":5,"type":"SCALAR","min":[0.0],"max":[2.8]},{"bufferView":30,"componentType":5126,"count":5,"type":"VEC4"}],"animations":[{"name":"fin_tail_preview","samplers":[{"input":24,"output":25,"interpolation":"LINEAR"}],"channels":[{"sampler":0,"target":{"node":2,"path":"rotation"}}]}]}
