{"asset":{"version":"2.0","generator":"Dark Arisen offline DCC alpha"},"scene":0,"scenes":[{"nodes":[0]}],"nodes":[{"mesh":0,"name":"SM_HarlowMerchantShip_Alpha"}],"materials":[{"name":"M_Alpha","pbrMetallicRoughness":{"baseColorFactor":[0.18,0.1,0.045,1],"metallicFactor":0,"roughnessFactor":0.78}}],"meshes":[{"name":"SM_HarlowMerchantShip_Alpha","primitives":[{"attributes":{"POSITION":0},"indices":1,"material":0}]}],"buffers":[{"byteLength":6048,"uri":"data:application/octet-stream;base64,"}],"bufferViews":[{"buffer":0,"byteOffset":0,"byteLength":3456,"target":34962},{"buffer":0,"byteOffset":3456,"byteLength":2592,"target":34963}],"accessors":[{"bufferView":0,"componentType":5126,"count":288,"type":"VEC3","min":[-17.5,-5.2,-1.0],"max":[14.0,5.2,10.7]},{"bufferView":1,"componentType":5123,"count":1296,"type":"SCALAR"}]}