{"asset":{"version":"2.0","generator":"Dark Arisen offline DCC alpha"},"scene":0,"scenes":[{"nodes":[0]}],"nodes":[{"mesh":0,"name":"SM_HarlowShip_WalkableCollision_Alpha"}],"materials":[{"name":"M_Alpha","pbrMetallicRoughness":{"baseColorFactor":[0.25,0.25,0.25,1],"metallicFactor":0,"roughnessFactor":0.78}}],"meshes":[{"name":"SM_HarlowShip_WalkableCollision_Alpha","primitives":[{"attributes":{"POSITION":0},"indices":1,"material":0}]}],"buffers":[{"byteLength":504,"uri":"data:application/octet-stream;base64,"}],"bufferViews":[{"buffer":0,"byteOffset":0,"byteLength":288,"target":34962},{"buffer":0,"byteOffset":288,"byteLength":216,"target":34963}],"accessors":[{"bufferView":0,"componentType":5126,"count":24,"type":"VEC3","min":[-12.0,-3.1,1.93],"max":[14.0,3.1,3.25]},{"bufferView":1,"componentType":5123,"count":108,"type":"SCALAR"}]}