{"asset":{"version":"2.0","generator":"Dark Arisen offline DCC alpha"},"scene":0,"scenes":[{"nodes":[0]}],"nodes":[{"mesh":0,"name":"SM_HarlowWreckage_Alpha"}],"materials":[{"name":"M_Alpha","pbrMetallicRoughness":{"baseColorFactor":[0.12,0.07,0.035,1],"metallicFactor":0,"roughnessFactor":0.78}}],"meshes":[{"name":"SM_HarlowWreckage_Alpha","primitives":[{"attributes":{"POSITION":0},"indices":1,"material":0}]}],"buffers":[{"byteLength":672,"uri":"data:application/octet-stream;base64,"}],"bufferViews":[{"buffer":0,"byteOffset":0,"byteLength":384,"target":34962},{"buffer":0,"byteOffset":384,"byteLength":288,"target":34963}],"accessors":[{"bufferView":0,"componentType":5126,"count":32,"type":"VEC3","min":[-3.3,-1.25,-0.05],"max":[3.35,1.45,3.15]},{"bufferView":1,"componentType":5123,"count":144,"type":"SCALAR"}]}