{
 "accessors": [
  {
   "bufferView": 0,
   "componentType": 5126,
   "count": 32,
   "max": [
    3.299999952316284,
    3.1500000953674316,
    1.25
   ],
   "min": [
    -3.3499999046325684,
    -0.05000000074505806,
    -1.4500000476837158
   ],
   "type": "VEC3"
  },
  {
   "bufferView": 1,
   "componentType": 5123,
   "count": 144,
   "type": "SCALAR"
  }
 ],
 "asset": {
  "generator": "Dark Arisen offline DCC alpha + DarkArisenO3DE frame conversion",
  "version": "2.0"
 },
 "bufferViews": [
  {
   "buffer": 0,
   "byteLength": 384,
   "byteOffset": 0,
   "target": 34962
  },
  {
   "buffer": 0,
   "byteLength": 288,
   "byteOffset": 384,
   "target": 34963
  }
 ],
 "buffers": [
  {
   "byteLength": 672,
   "uri": "data:application/octet-stream;base64,"
  }
 ],
 "materials": [
  {
   "name": "M_Alpha",
   "pbrMetallicRoughness": {
    "baseColorFactor": [
     0.12,
     0.07,
     0.035,
     1
    ],
    "metallicFactor": 0,
    "roughnessFactor": 0.78
   }
  }
 ],
 "meshes": [
  {
   "name": "SM_HarlowWreckage_Alpha",
   "primitives": [
    {
     "attributes": {
      "POSITION": 0
     },
     "indices": 1,
     "material": 0
    }
   ]
  }
 ],
 "nodes": [
  {
   "mesh": 0,
   "name": "SM_HarlowWreckage_Alpha"
  }
 ],
 "scene": 0,
 "scenes": [
  {
   "nodes": [
    0
   ]
  }
 ]
}
