{
 "accessors": [
  {
   "bufferView": 0,
   "componentType": 5126,
   "count": 288,
   "max": [
    17.5,
    10.699999809265137,
    5.199999809265137
   ],
   "min": [
    -14,
    -1,
    -5.199999809265137
   ],
   "type": "VEC3"
  },
  {
   "bufferView": 1,
   "componentType": 5123,
   "count": 1296,
   "type": "SCALAR"
  }
 ],
 "asset": {
  "generator": "Dark Arisen offline DCC alpha + DarkArisenO3DE frame conversion",
  "version": "2.0"
 },
 "bufferViews": [
  {
   "buffer": 0,
   "byteLength": 3456,
   "byteOffset": 0,
   "target": 34962
  },
  {
   "buffer": 0,
   "byteLength": 2592,
   "byteOffset": 3456,
   "target": 34963
  }
 ],
 "buffers": [
  {
   "byteLength": 6048,
   "uri": "data:application/octet-stream;base64,"
  }
 ],
 "materials": [
  {
   "name": "M_Alpha",
   "pbrMetallicRoughness": {
    "baseColorFactor": [
     0.18,
     0.1,
     0.045,
     1
    ],
    "metallicFactor": 0,
    "roughnessFactor": 0.78
   }
  }
 ],
 "meshes": [
  {
   "name": "SM_HarlowMerchantShip_Alpha",
   "primitives": [
    {
     "attributes": {
      "POSITION": 0
     },
     "indices": 1,
     "material": 0
    }
   ]
  }
 ],
 "nodes": [
  {
   "mesh": 0,
   "name": "SM_HarlowMerchantShip_Alpha"
  }
 ],
 "scene": 0,
 "scenes": [
  {
   "nodes": [
    0
   ]
  }
 ]
}
