{"asset":{"version":"2.0","generator":"Dark Arisen Alpha source"},"scene":0,"scenes":[{"nodes":[0]}],"nodes":[{"name":"SM_OuterReef_Alpha","mesh":0}],"meshes":[{"primitives":[{"attributes":{"POSITION":0},"indices":1,"material":0}]}],"materials":[{"pbrMetallicRoughness":{"baseColorFactor":[0.12,0.18,0.17,1],"roughnessFactor":0.82}}],"buffers":[{"byteLength":1008,"uri":"data:application/octet-stream;base64,"}],"bufferViews":[{"buffer":0,"byteOffset":0,"byteLength":576},{"buffer":0,"byteOffset":576,"byteLength":432}],"accessors":[{"bufferView":0,"componentType":5126,"count":48,"type":"VEC3","min":[-6.1,-2.555,-0.5950000000000001],"max":[0.8,2.2199999999999998,0.395]},{"bufferView":1,"componentType":5123,"count":216,"type":"SCALAR"}]}