{"asset":{"version":"2.0","generator":"Dark Arisen Alpha source"},"scene":0,"scenes":[{"nodes":[0]}],"nodes":[{"name":"SM_DravenRaidSilhouette_Alpha","mesh":0}],"meshes":[{"primitives":[{"attributes":{"POSITION":0},"indices":1,"material":0}]}],"materials":[{"pbrMetallicRoughness":{"baseColorFactor":[0.025,0.025,0.03,1],"roughnessFactor":0.82}}],"buffers":[{"byteLength":840,"uri":"data:application/octet-stream;base64,"}],"bufferViews":[{"buffer":0,"byteOffset":0,"byteLength":480},{"buffer":0,"byteOffset":480,"byteLength":360}],"accessors":[{"bufferView":0,"componentType":5126,"count":40,"type":"VEC3","min":[-3.6,-0.75,0.44999999999999996],"max":[3.6,0.75,5.6]},{"bufferView":1,"componentType":5123,"count":180,"type":"SCALAR"}]}