{"asset":{"generator":"DarkArisen OpenSource3D alpha prop generator","version":"2.0"},"scene":0,"scenes":[{"nodes":[0]}],"nodes":[{"name":"boarding_axe","children":[1]},{"name":"root","mesh":0}],"meshes":[{"name":"root","primitives":[{"attributes":{"POSITION":1,"NORMAL":2,"TEXCOORD_0":3},"indices":0,"material":0,"mode":4},{"attributes":{"POSITION":5,"NORMAL":6,"TEXCOORD_0":7},"indices":4,"material":1,"mode":4},{"attributes":{"POSITION":9,"NORMAL":10,"TEXCOORD_0":11},"indices":8,"material":2,"mode":4}]}],"materials":[{"name":"oak","pbrMetallicRoughness":{"baseColorTexture":{"index":0},"metallicFactor":0.0,"roughnessFactor":0.83},"doubleSided":false},{"name":"iron","pbrMetallicRoughness":{"baseColorTexture":{"index":1},"metallicFactor":0.72,"roughnessFactor":0.62},"doubleSided":false},{"name":"steel","pbrMetallicRoughness":{"baseColorTexture":{"index":2},"metallicFactor":0.84,"roughnessFactor":0.36},"doubleSided":false}],"textures":[{"source":0},{"source":1},{"source":2}],"images":[{"name":"oak_grain","bufferView":0,"mimeType":"image/png"},{"name":"iron_grain","bufferView":1,"mimeType":"image/png"},{"name":"steel_grain","bufferView":2,"mimeType":"image/png"}],"samplers":[{"wrapS":10497,"wrapT":10497}],"buffers":[{"byteLength":16112,"uri":"data:application/octet-stream;base64,"}],"bufferViews":[{"buffer":0,"byteOffset":0,"byteLength":792},{"buffer":0,"byteOffset":792,"byteLength":481},{"buffer":0,"byteOffset":1276,"byteLength":578},{"buffer":0,"byteOffset":1856,"byteLength":576,"target":34963},{"buffer":0,"byteOffset":2432,"byteLength":1728,"target":34962},{"buffer":0,"byteOffset":4160,"byteLength":1728,"target":34962},{"buffer":0,"byteOffset":5888,"byteLength":1152,"target":34962},{"buffer":0,"byteOffset":7040,"byteLength":576,"target":34963},{"buffer":0,"byteOffset":7616,"byteLength":1728,"target":34962},{"buffer":0,"byteOffset":9344,"byteLength":1728,"target":34962},{"buffer":0,"byteOffset":11072,"byteLength":1152,"target":34962},{"buffer":0,"byteOffset":12224,"byteLength":432,"target":34963},{"buffer":0,"byteOffset":12656,"byteLength":1296,"target":34962},{"buffer":0,"byteOffset":13952,"byteLength":1296,"target":34962},{"buffer":0,"byteOffset":15248,"byteLength":864,"target":34962}],"accessors":[{"bufferView":3,"componentType":5125,"count":144,"type":"SCALAR"},{"bufferView":4,"componentType":5126,"count":144,"type":"VEC3","min":[-0.043,0.0,-0.043],"max":[0.043,1.15,0.043]},{"bufferView":5,"componentType":5126,"count":144,"type":"VEC3"},{"bufferView":6,"componentType":5126,"count":144,"type":"VEC2"},{"bufferView":7,"componentType":5125,"count":144,"type":"SCALAR"},{"bufferView":8,"componentType":5126,"count":144,"type":"VEC3","min":[-0.049,0.93,-0.049],"max":[0.049,1.13,0.049]},{"bufferView":9,"componentType":5126,"count":144,"type":"VEC3"},{"bufferView":10,"componentType":5126,"count":144,"type":"VEC2"},{"bufferView":11,"componentType":5125,"count":108,"type":"SCALAR"},{"bufferView":12,"componentType":5126,"count":108,"type":"VEC3","min":[-0.19,1.0000690250730002,-0.09],"max":[0.47,1.0999309749269999,0.09]},{"bufferView":13,"componentType":5126,"count":108,"type":"VEC3"},{"bufferView":14,"componentType":5126,"count":108,"type":"VEC2"}]}
