{"asset":{"generator":"DarkArisen OpenSource3D alpha prop generator","version":"2.0"},"scene":0,"scenes":[{"nodes":[0]}],"nodes":[{"name":"cargo_crate","children":[1]},{"name":"root","mesh":0}],"meshes":[{"name":"root","primitives":[{"attributes":{"POSITION":1,"NORMAL":2,"TEXCOORD_0":3},"indices":0,"material":0,"mode":4},{"attributes":{"POSITION":5,"NORMAL":6,"TEXCOORD_0":7},"indices":4,"material":1,"mode":4},{"attributes":{"POSITION":9,"NORMAL":10,"TEXCOORD_0":11},"indices":8,"material":2,"mode":4}]}],"materials":[{"name":"oak","pbrMetallicRoughness":{"baseColorTexture":{"index":0},"metallicFactor":0.0,"roughnessFactor":0.83},"doubleSided":false},{"name":"oak_light","pbrMetallicRoughness":{"baseColorTexture":{"index":1},"metallicFactor":0.0,"roughnessFactor":0.78},"doubleSided":false},{"name":"iron","pbrMetallicRoughness":{"baseColorTexture":{"index":2},"metallicFactor":0.72,"roughnessFactor":0.62},"doubleSided":false}],"textures":[{"source":0},{"source":1},{"source":2}],"images":[{"name":"oak_grain","bufferView":0,"mimeType":"image/png"},{"name":"oak_light_grain","bufferView":1,"mimeType":"image/png"},{"name":"iron_grain","bufferView":2,"mimeType":"image/png"}],"samplers":[{"wrapS":10497,"wrapT":10497}],"buffers":[{"byteLength":26788,"uri":"data:application/octet-stream;base64,"}],"bufferViews":[{"buffer":0,"byteOffset":0,"byteLength":792},{"buffer":0,"byteOffset":792,"byteLength":887},{"buffer":0,"byteOffset":1680,"byteLength":481},{"buffer":0,"byteOffset":2164,"byteLength":2016,"target":34963},{"buffer":0,"byteOffset":4180,"byteLength":6048,"target":34962},{"buffer":0,"byteOffset":10228,"byteLength":6048,"target":34962},{"buffer":0,"byteOffset":16276,"byteLength":4032,"target":34962},{"buffer":0,"byteOffset":20308,"byteLength":432,"target":34963},{"buffer":0,"byteOffset":20740,"byteLength":1296,"target":34962},{"buffer":0,"byteOffset":22036,"byteLength":1296,"target":34962},{"buffer":0,"byteOffset":23332,"byteLength":864,"target":34962},{"buffer":0,"byteOffset":24196,"byteLength":288,"target":34963},{"buffer":0,"byteOffset":24484,"byteLength":864,"target":34962},{"buffer":0,"byteOffset":25348,"byteLength":864,"target":34962},{"buffer":0,"byteOffset":26212,"byteLength":576,"target":34962}],"accessors":[{"bufferView":3,"componentType":5125,"count":504,"type":"SCALAR"},{"bufferView":4,"componentType":5126,"count":504,"type":"VEC3","min":[-0.42000000000000004,0.0050000000000000044,-0.39],"max":[0.42000000000000004,0.585,0.39]},{"bufferView":5,"componentType":5126,"count":504,"type":"VEC3"},{"bufferView":6,"componentType":5126,"count":504,"type":"VEC2"},{"bufferView":7,"componentType":5125,"count":108,"type":"SCALAR"},{"bufferView":8,"componentType":5126,"count":108,"type":"VEC3","min":[-0.41,0.455,-0.39],"max":[0.41,0.62,0.39]},{"bufferView":9,"componentType":5126,"count":108,"type":"VEC3"},{"bufferView":10,"componentType":5126,"count":108,"type":"VEC2"},{"bufferView":11,"componentType":5125,"count":72,"type":"SCALAR"},{"bufferView":12,"componentType":5126,"count":72,"type":"VEC3","min":[-0.3975,0.010489575600511425,-0.3481118325760344],"max":[0.3975,0.6095104243994885,0.3481118325760344]},{"bufferView":13,"componentType":5126,"count":72,"type":"VEC3"},{"bufferView":14,"componentType":5126,"count":72,"type":"VEC2"}]}
