{"asset":{"generator":"DarkArisen OpenSource3D alpha prop generator","version":"2.0"},"scene":0,"scenes":[{"nodes":[0]}],"nodes":[{"name":"chart_table","children":[1]},{"name":"root","mesh":0}],"meshes":[{"name":"root","primitives":[{"attributes":{"POSITION":1,"NORMAL":2,"TEXCOORD_0":3},"indices":0,"material":0,"mode":4},{"attributes":{"POSITION":5,"NORMAL":6,"TEXCOORD_0":7},"indices":4,"material":1,"mode":4},{"attributes":{"POSITION":9,"NORMAL":10,"TEXCOORD_0":11},"indices":8,"material":2,"mode":4},{"attributes":{"POSITION":13,"NORMAL":14,"TEXCOORD_0":15},"indices":12,"material":3,"mode":4},{"attributes":{"POSITION":17,"NORMAL":18,"TEXCOORD_0":19},"indices":16,"material":4,"mode":4}]}],"materials":[{"name":"oak","pbrMetallicRoughness":{"baseColorTexture":{"index":0},"metallicFactor":0.0,"roughnessFactor":0.83},"doubleSided":false},{"name":"oak_light","pbrMetallicRoughness":{"baseColorTexture":{"index":1},"metallicFactor":0.0,"roughnessFactor":0.78},"doubleSided":false},{"name":"paper","pbrMetallicRoughness":{"baseColorTexture":{"index":2},"metallicFactor":0.0,"roughnessFactor":1.0},"doubleSided":true},{"name":"rope","pbrMetallicRoughness":{"baseColorTexture":{"index":3},"metallicFactor":0.0,"roughnessFactor":0.95},"doubleSided":false},{"name":"brass","pbrMetallicRoughness":{"baseColorTexture":{"index":4},"metallicFactor":0.78,"roughnessFactor":0.36},"doubleSided":false}],"textures":[{"source":0},{"source":1},{"source":2},{"source":3},{"source":4}],"images":[{"name":"oak_grain","bufferView":0,"mimeType":"image/png"},{"name":"oak_light_grain","bufferView":1,"mimeType":"image/png"},{"name":"paper_grain","bufferView":2,"mimeType":"image/png"},{"name":"rope_grain","bufferView":3,"mimeType":"image/png"},{"name":"brass_grain","bufferView":4,"mimeType":"image/png"}],"samplers":[{"wrapS":10497,"wrapT":10497}],"buffers":[{"byteLength":45460,"uri":"data:application/octet-stream;base64,"}],"bufferViews":[{"buffer":0,"byteOffset":0,"byteLength":792},{"buffer":0,"byteOffset":792,"byteLength":887},{"buffer":0,"byteOffset":1680,"byteLength":681},{"buffer":0,"byteOffset":2364,"byteLength":608},{"buffer":0,"byteOffset":2972,"byteLength":584},{"buffer":0,"byteOffset":3556,"byteLength":720,"target":34963},{"buffer":0,"byteOffset":4276,"byteLength":2160,"target":34962},{"buffer":0,"byteOffset":6436,"byteLength":2160,"target":34962},{"buffer":0,"byteOffset":8596,"byteLength":1440,"target":34962},{"buffer":0,"byteOffset":10036,"byteLength":144,"target":34963},{"buffer":0,"byteOffset":10180,"byteLength":432,"target":34962},{"buffer":0,"byteOffset":10612,"byteLength":432,"target":34962},{"buffer":0,"byteOffset":11044,"byteLength":288,"target":34962},{"buffer":0,"byteOffset":11332,"byteLength":144,"target":34963},{"buffer":0,"byteOffset":11476,"byteLength":432,"target":34962},{"buffer":0,"byteOffset":11908,"byteLength":432,"target":34962},{"buffer":0,"byteOffset":12340,"byteLength":288,"target":34962},{"buffer":0,"byteOffset":12628,"byteLength":2880,"target":34963},{"buffer":0,"byteOffset":15508,"byteLength":8640,"target":34962},{"buffer":0,"byteOffset":24148,"byteLength":8640,"target":34962},{"buffer":0,"byteOffset":32788,"byteLength":5760,"target":34962},{"buffer":0,"byteOffset":38548,"byteLength":768,"target":34963},{"buffer":0,"byteOffset":39316,"byteLength":2304,"target":34962},{"buffer":0,"byteOffset":41620,"byteLength":2304,"target":34962},{"buffer":0,"byteOffset":43924,"byteLength":1536,"target":34962}],"accessors":[{"bufferView":5,"componentType":5125,"count":180,"type":"SCALAR"},{"bufferView":6,"componentType":5126,"count":180,"type":"VEC3","min":[-0.675,0.0,-0.41],"max":[0.675,0.8475,0.41]},{"bufferView":7,"componentType":5126,"count":180,"type":"VEC3"},{"bufferView":8,"componentType":5126,"count":180,"type":"VEC2"},{"bufferView":9,"componentType":5125,"count":36,"type":"SCALAR"},{"bufferView":10,"componentType":5126,"count":36,"type":"VEC3","min":[-0.53,0.5750000000000001,-0.29],"max":[0.53,0.745,0.29]},{"bufferView":11,"componentType":5126,"count":36,"type":"VEC3"},{"bufferView":12,"componentType":5126,"count":36,"type":"VEC2"},{"bufferView":13,"componentType":5125,"count":36,"type":"SCALAR"},{"bufferView":14,"componentType":5126,"count":36,"type":"VEC3","min":[-0.535,0.8555,-0.24],"max":[0.135,0.8604999999999999,0.24]},{"bufferView":15,"componentType":5126,"count":36,"type":"VEC3"},{"bufferView":16,"componentType":5126,"count":36,"type":"VEC2"},{"bufferView":17,"componentType":5125,"count":720,"type":"SCALAR"},{"bufferView":18,"componentType":5126,"count":720,"type":"VEC3","min":[-0.49329616769679746,0.8595359316930512,-0.16226611529154827],"max":[0.10366462933960874,0.8674640683069488,0.18245576245405967]},{"bufferView":19,"componentType":5126,"count":720,"type":"VEC3"},{"bufferView":20,"componentType":5126,"count":720,"type":"VEC2"},{"bufferView":21,"componentType":5125,"count":192,"type":"SCALAR"},{"bufferView":22,"componentType":5126,"count":192,"type":"VEC3","min":[0.37,0.85,-0.07],"max":[0.51,0.875,0.07]},{"bufferView":23,"componentType":5126,"count":192,"type":"VEC3"},{"bufferView":24,"componentType":5126,"count":192,"type":"VEC2"}]}
