{"asset":{"generator":"DarkArisen OpenSource3D alpha prop generator","version":"2.0"},"scene":0,"scenes":[{"nodes":[0]}],"nodes":[{"name":"dock_crane","children":[1,2]},{"name":"root","mesh":0},{"name":"hook","mesh":1,"translation":[2.15,2.25,0]}],"meshes":[{"name":"root","primitives":[{"attributes":{"POSITION":1,"NORMAL":2,"TEXCOORD_0":3},"indices":0,"material":0,"mode":4},{"attributes":{"POSITION":5,"NORMAL":6,"TEXCOORD_0":7},"indices":4,"material":1,"mode":4},{"attributes":{"POSITION":9,"NORMAL":10,"TEXCOORD_0":11},"indices":8,"material":2,"mode":4},{"attributes":{"POSITION":13,"NORMAL":14,"TEXCOORD_0":15},"indices":12,"material":3,"mode":4}]},{"name":"hook","primitives":[{"attributes":{"POSITION":17,"NORMAL":18,"TEXCOORD_0":19},"indices":16,"material":2,"mode":4}]}],"materials":[{"name":"stone","pbrMetallicRoughness":{"baseColorTexture":{"index":0},"metallicFactor":0.0,"roughnessFactor":1.0},"doubleSided":false},{"name":"oak","pbrMetallicRoughness":{"baseColorTexture":{"index":1},"metallicFactor":0.0,"roughnessFactor":0.83},"doubleSided":false},{"name":"iron","pbrMetallicRoughness":{"baseColorTexture":{"index":2},"metallicFactor":0.72,"roughnessFactor":0.62},"doubleSided":false},{"name":"rope","pbrMetallicRoughness":{"baseColorTexture":{"index":3},"metallicFactor":0.0,"roughnessFactor":0.95},"doubleSided":false}],"textures":[{"source":0},{"source":1},{"source":2},{"source":3}],"images":[{"name":"stone_grain","bufferView":0,"mimeType":"image/png"},{"name":"oak_grain","bufferView":1,"mimeType":"image/png"},{"name":"iron_grain","bufferView":2,"mimeType":"image/png"},{"name":"rope_grain","bufferView":3,"mimeType":"image/png"}],"samplers":[{"wrapS":10497,"wrapT":10497}],"buffers":[{"byteLength":139852,"uri":"data:application/octet-stream;base64,"}],"bufferViews":[{"buffer":0,"byteOffset":0,"byteLength":490},{"buffer":0,"byteOffset":492,"byteLength":792},{"buffer":0,"byteOffset":1284,"byteLength":481},{"buffer":0,"byteOffset":1768,"byteLength":608},{"buffer":0,"byteOffset":2376,"byteLength":144,"target":34963},{"buffer":0,"byteOffset":2520,"byteLength":432,"target":34962},{"buffer":0,"byteOffset":2952,"byteLength":432,"target":34962},{"buffer":0,"byteOffset":3384,"byteLength":288,"target":34962},{"buffer":0,"byteOffset":3672,"byteLength":432,"target":34963},{"buffer":0,"byteOffset":4104,"byteLength":1296,"target":34962},{"buffer":0,"byteOffset":5400,"byteLength":1296,"target":34962},{"buffer":0,"byteOffset":6696,"byteLength":864,"target":34962},{"buffer":0,"byteOffset":7560,"byteLength":6912,"target":34963},{"buffer":0,"byteOffset":14472,"byteLength":20736,"target":34962},{"buffer":0,"byteOffset":35208,"byteLength":20736,"target":34962},{"buffer":0,"byteOffset":55944,"byteLength":13824,"target":34962},{"buffer":0,"byteOffset":69768,"byteLength":288,"target":34963},{"buffer":0,"byteOffset":70056,"byteLength":864,"target":34962},{"buffer":0,"byteOffset":70920,"byteLength":864,"target":34962},{"buffer":0,"byteOffset":71784,"byteLength":576,"target":34962},{"buffer":0,"byteOffset":72360,"byteLength":7488,"target":34963},{"buffer":0,"byteOffset":79848,"byteLength":22464,"target":34962},{"buffer":0,"byteOffset":102312,"byteLength":22464,"target":34962},{"buffer":0,"byteOffset":124776,"byteLength":14976,"target":34962},{"buffer":0,"byteOffset":139752,"byteLength":20},{"buffer":0,"byteOffset":139772,"byteLength":80}],"accessors":[{"bufferView":4,"componentType":5125,"count":36,"type":"SCALAR"},{"bufferView":5,"componentType":5126,"count":36,"type":"VEC3","min":[-0.5,0.0,-0.5],"max":[0.5,0.2,0.5]},{"bufferView":6,"componentType":5126,"count":36,"type":"VEC3"},{"bufferView":7,"componentType":5126,"count":36,"type":"VEC2"},{"bufferView":8,"componentType":5125,"count":108,"type":"SCALAR"},{"bufferView":9,"componentType":5126,"count":108,"type":"VEC3","min":[-0.12,0.15,-0.105],"max":[2.332852062494127,3.794449679670616,0.105]},{"bufferView":10,"componentType":5126,"count":108,"type":"VEC3"},{"bufferView":11,"componentType":5126,"count":108,"type":"VEC2"},{"bufferView":12,"componentType":5125,"count":1728,"type":"SCALAR"},{"bufferView":13,"componentType":5126,"count":1728,"type":"VEC3","min":[2.008534589089969,3.448534589089969,-0.025],"max":[2.3514654109100315,3.7914654109100314,0.025]},{"bufferView":14,"componentType":5126,"count":1728,"type":"VEC3"},{"bufferView":15,"componentType":5126,"count":1728,"type":"VEC2"},{"bufferView":16,"componentType":5125,"count":72,"type":"SCALAR"},{"bufferView":17,"componentType":5126,"count":72,"type":"VEC3","min":[2.134415278830769,2.2496587287335204,-0.017999999999999995],"max":[2.195584721169231,3.6203412712664798,0.017999999999999995]},{"bufferView":18,"componentType":5126,"count":72,"type":"VEC3"},{"bufferView":19,"componentType":5126,"count":72,"type":"VEC2"},{"bufferView":20,"componentType":5125,"count":1872,"type":"SCALAR"},{"bufferView":21,"componentType":5126,"count":1872,"type":"VEC3","min":[-0.15318264378283405,-0.3617232594239447,-0.027],"max":[0.15318264378283405,0.06318264378283406,0.027]},{"bufferView":22,"componentType":5126,"count":1872,"type":"VEC3"},{"bufferView":23,"componentType":5126,"count":1872,"type":"VEC2"},{"bufferView":24,"componentType":5126,"count":5,"type":"SCALAR","min":[0.0],"max":[2]},{"bufferView":25,"componentType":5126,"count":5,"type":"VEC4"}],"animations":[{"name":"hook_preview","samplers":[{"input":20,"output":21,"interpolation":"LINEAR"}],"channels":[{"sampler":0,"target":{"node":2,"path":"rotation"}}]}]}
