{"asset":{"generator":"DarkArisen OpenSource3D alpha prop generator","version":"2.0"},"scene":0,"scenes":[{"nodes":[0]}],"nodes":[{"name":"forge_anvil","children":[1]},{"name":"root","mesh":0}],"meshes":[{"name":"root","primitives":[{"attributes":{"POSITION":1,"NORMAL":2,"TEXCOORD_0":3},"indices":0,"material":0,"mode":4},{"attributes":{"POSITION":5,"NORMAL":6,"TEXCOORD_0":7},"indices":4,"material":1,"mode":4},{"attributes":{"POSITION":9,"NORMAL":10,"TEXCOORD_0":11},"indices":8,"material":2,"mode":4}]}],"materials":[{"name":"iron","pbrMetallicRoughness":{"baseColorTexture":{"index":0},"metallicFactor":0.72,"roughnessFactor":0.62},"doubleSided":false},{"name":"black_iron","pbrMetallicRoughness":{"baseColorTexture":{"index":1},"metallicFactor":0.65,"roughnessFactor":0.73},"doubleSided":false},{"name":"steel","pbrMetallicRoughness":{"baseColorTexture":{"index":2},"metallicFactor":0.84,"roughnessFactor":0.36},"doubleSided":false}],"textures":[{"source":0},{"source":1},{"source":2}],"images":[{"name":"iron_grain","bufferView":0,"mimeType":"image/png"},{"name":"black_iron_grain","bufferView":1,"mimeType":"image/png"},{"name":"steel_grain","bufferView":2,"mimeType":"image/png"}],"samplers":[{"wrapS":10497,"wrapT":10497}],"buffers":[{"byteLength":13060,"uri":"data:application/octet-stream;base64,"}],"bufferViews":[{"buffer":0,"byteOffset":0,"byteLength":481},{"buffer":0,"byteOffset":484,"byteLength":329},{"buffer":0,"byteOffset":816,"byteLength":578},{"buffer":0,"byteOffset":1396,"byteLength":432,"target":34963},{"buffer":0,"byteOffset":1828,"byteLength":1296,"target":34962},{"buffer":0,"byteOffset":3124,"byteLength":1296,"target":34962},{"buffer":0,"byteOffset":4420,"byteLength":864,"target":34962},{"buffer":0,"byteOffset":5284,"byteLength":144,"target":34963},{"buffer":0,"byteOffset":5428,"byteLength":432,"target":34962},{"buffer":0,"byteOffset":5860,"byteLength":432,"target":34962},{"buffer":0,"byteOffset":6292,"byteLength":288,"target":34962},{"buffer":0,"byteOffset":6580,"byteLength":720,"target":34963},{"buffer":0,"byteOffset":7300,"byteLength":2160,"target":34962},{"buffer":0,"byteOffset":9460,"byteLength":2160,"target":34962},{"buffer":0,"byteOffset":11620,"byteLength":1440,"target":34962}],"accessors":[{"bufferView":3,"componentType":5125,"count":108,"type":"SCALAR"},{"bufferView":4,"componentType":5126,"count":108,"type":"VEC3","min":[-0.345,-0.020000000000000004,-0.24],"max":[0.345,0.275,0.24]},{"bufferView":5,"componentType":5126,"count":108,"type":"VEC3"},{"bufferView":6,"componentType":5126,"count":108,"type":"VEC2"},{"bufferView":7,"componentType":5125,"count":36,"type":"SCALAR"},{"bufferView":8,"componentType":5126,"count":36,"type":"VEC3","min":[-0.23,0.23,-0.165],"max":[0.23,0.53,0.165]},{"bufferView":9,"componentType":5126,"count":36,"type":"VEC3"},{"bufferView":10,"componentType":5126,"count":36,"type":"VEC2"},{"bufferView":11,"componentType":5125,"count":180,"type":"SCALAR"},{"bufferView":12,"componentType":5126,"count":180,"type":"VEC3","min":[-0.48,0.40003025180200114,-0.18],"max":[0.6902829685042141,0.7399697481979988,0.18]},{"bufferView":13,"componentType":5126,"count":180,"type":"VEC3"},{"bufferView":14,"componentType":5126,"count":180,"type":"VEC2"}]}
