{"asset":{"generator":"DarkArisen OpenSource3D alpha prop generator","version":"2.0"},"scene":0,"scenes":[{"nodes":[0]}],"nodes":[{"name":"hammock","children":[1]},{"name":"root","mesh":0}],"meshes":[{"name":"root","primitives":[{"attributes":{"POSITION":1,"NORMAL":2,"TEXCOORD_0":3},"indices":0,"material":0,"mode":4},{"attributes":{"POSITION":5,"NORMAL":6,"TEXCOORD_0":7},"indices":4,"material":1,"mode":4},{"attributes":{"POSITION":9,"NORMAL":10,"TEXCOORD_0":11},"indices":8,"material":2,"mode":4}]}],"materials":[{"name":"oak","pbrMetallicRoughness":{"baseColorTexture":{"index":0},"metallicFactor":0.0,"roughnessFactor":0.83},"doubleSided":false},{"name":"canvas","pbrMetallicRoughness":{"baseColorTexture":{"index":1},"metallicFactor":0.0,"roughnessFactor":0.96},"doubleSided":true},{"name":"rope","pbrMetallicRoughness":{"baseColorTexture":{"index":2},"metallicFactor":0.0,"roughnessFactor":0.95},"doubleSided":false}],"textures":[{"source":0},{"source":1},{"source":2}],"images":[{"name":"oak_grain","bufferView":0,"mimeType":"image/png"},{"name":"canvas_grain","bufferView":1,"mimeType":"image/png"},{"name":"rope_grain","bufferView":2,"mimeType":"image/png"}],"samplers":[{"wrapS":10497,"wrapT":10497}],"buffers":[{"byteLength":38340,"uri":"data:application/octet-stream;base64,"}],"bufferViews":[{"buffer":0,"byteOffset":0,"byteLength":792},{"buffer":0,"byteOffset":792,"byteLength":649},{"buffer":0,"byteOffset":1444,"byteLength":608},{"buffer":0,"byteOffset":2052,"byteLength":1536,"target":34963},{"buffer":0,"byteOffset":3588,"byteLength":4608,"target":34962},{"buffer":0,"byteOffset":8196,"byteLength":4608,"target":34962},{"buffer":0,"byteOffset":12804,"byteLength":3072,"target":34962},{"buffer":0,"byteOffset":15876,"byteLength":768,"target":34963},{"buffer":0,"byteOffset":16644,"byteLength":2304,"target":34962},{"buffer":0,"byteOffset":18948,"byteLength":2304,"target":34962},{"buffer":0,"byteOffset":21252,"byteLength":1536,"target":34962},{"buffer":0,"byteOffset":22788,"byteLength":1728,"target":34963},{"buffer":0,"byteOffset":24516,"byteLength":5184,"target":34962},{"buffer":0,"byteOffset":29700,"byteLength":5184,"target":34962},{"buffer":0,"byteOffset":34884,"byteLength":3456,"target":34962}],"accessors":[{"bufferView":3,"componentType":5125,"count":384,"type":"SCALAR"},{"bufferView":4,"componentType":5126,"count":384,"type":"VEC3","min":[-1.2349999999999999,0.67,-0.055],"max":[1.2349999999999999,1.53,0.055]},{"bufferView":5,"componentType":5126,"count":384,"type":"VEC3"},{"bufferView":6,"componentType":5126,"count":384,"type":"VEC2"},{"bufferView":7,"componentType":5125,"count":192,"type":"SCALAR"},{"bufferView":8,"componentType":5126,"count":192,"type":"VEC3","min":[-0.96,0.62,-0.45],"max":[0.9599999999999999,0.9241280000000001,0.45]},{"bufferView":9,"componentType":5126,"count":192,"type":"VEC3"},{"bufferView":10,"componentType":5126,"count":192,"type":"VEC2"},{"bufferView":11,"componentType":5125,"count":432,"type":"SCALAR"},{"bufferView":12,"componentType":5126,"count":432,"type":"VEC3","min":[-1.1905251552140979,0.9224269192765243,-0.42912398218436715],"max":[1.1905251552140979,1.3875730807234756,0.42912398218436715]},{"bufferView":13,"componentType":5126,"count":432,"type":"VEC3"},{"bufferView":14,"componentType":5126,"count":432,"type":"VEC2"}]}
