{"asset":{"generator":"DarkArisen OpenSource3D alpha prop generator","version":"2.0"},"scene":0,"scenes":[{"nodes":[0]}],"nodes":[{"name":"jake_saber","children":[1]},{"name":"root","mesh":0}],"meshes":[{"name":"root","primitives":[{"attributes":{"POSITION":1,"NORMAL":2,"TEXCOORD_0":3},"indices":0,"material":0,"mode":4},{"attributes":{"POSITION":5,"NORMAL":6,"TEXCOORD_0":7},"indices":4,"material":1,"mode":4},{"attributes":{"POSITION":9,"NORMAL":10,"TEXCOORD_0":11},"indices":8,"material":2,"mode":4}]}],"materials":[{"name":"leather","pbrMetallicRoughness":{"baseColorTexture":{"index":0},"metallicFactor":0.0,"roughnessFactor":0.83},"doubleSided":false},{"name":"brass","pbrMetallicRoughness":{"baseColorTexture":{"index":1},"metallicFactor":0.78,"roughnessFactor":0.36},"doubleSided":false},{"name":"steel","pbrMetallicRoughness":{"baseColorTexture":{"index":2},"metallicFactor":0.84,"roughnessFactor":0.36},"doubleSided":false}],"textures":[{"source":0},{"source":1},{"source":2}],"images":[{"name":"leather_grain","bufferView":0,"mimeType":"image/png"},{"name":"brass_grain","bufferView":1,"mimeType":"image/png"},{"name":"steel_grain","bufferView":2,"mimeType":"image/png"}],"samplers":[{"wrapS":10497,"wrapT":10497}],"buffers":[{"byteLength":313320,"uri":"data:application/octet-stream;base64,"}],"bufferViews":[{"buffer":0,"byteOffset":0,"byteLength":465},{"buffer":0,"byteOffset":468,"byteLength":584},{"buffer":0,"byteOffset":1052,"byteLength":578},{"buffer":0,"byteOffset":1632,"byteLength":576,"target":34963},{"buffer":0,"byteOffset":2208,"byteLength":1728,"target":34962},{"buffer":0,"byteOffset":3936,"byteLength":1728,"target":34962},{"buffer":0,"byteOffset":5664,"byteLength":1152,"target":34962},{"buffer":0,"byteOffset":6816,"byteLength":33840,"target":34963},{"buffer":0,"byteOffset":40656,"byteLength":101520,"target":34962},{"buffer":0,"byteOffset":142176,"byteLength":101520,"target":34962},{"buffer":0,"byteOffset":243696,"byteLength":67680,"target":34962},{"buffer":0,"byteOffset":311376,"byteLength":216,"target":34963},{"buffer":0,"byteOffset":311592,"byteLength":648,"target":34962},{"buffer":0,"byteOffset":312240,"byteLength":648,"target":34962},{"buffer":0,"byteOffset":312888,"byteLength":432,"target":34962}],"accessors":[{"bufferView":3,"componentType":5125,"count":144,"type":"SCALAR"},{"bufferView":4,"componentType":5126,"count":144,"type":"VEC3","min":[-0.055,-0.12,-0.055],"max":[0.055,0.27,0.055]},{"bufferView":5,"componentType":5126,"count":144,"type":"VEC3"},{"bufferView":6,"componentType":5126,"count":144,"type":"VEC2"},{"bufferView":7,"componentType":5125,"count":8460,"type":"SCALAR"},{"bufferView":8,"componentType":5126,"count":8460,"type":"VEC3","min":[-0.16,-0.215,-0.075],"max":[0.27872812612767667,0.3126646850821198,0.075]},{"bufferView":9,"componentType":5126,"count":8460,"type":"VEC3"},{"bufferView":10,"componentType":5126,"count":8460,"type":"VEC2"},{"bufferView":11,"componentType":5125,"count":54,"type":"SCALAR"},{"bufferView":12,"componentType":5126,"count":54,"type":"VEC3","min":[-0.045,0.3,-0.027],"max":[0.125,1.12,0]},{"bufferView":13,"componentType":5126,"count":54,"type":"VEC3"},{"bufferView":14,"componentType":5126,"count":54,"type":"VEC2"}]}
