{"asset":{"generator":"DarkArisen OpenSource3D alpha prop generator","version":"2.0"},"scene":0,"scenes":[{"nodes":[0]}],"nodes":[{"name":"medicine_satchel","children":[1]},{"name":"root","mesh":0}],"meshes":[{"name":"root","primitives":[{"attributes":{"POSITION":1,"NORMAL":2,"TEXCOORD_0":3},"indices":0,"material":0,"mode":4},{"attributes":{"POSITION":5,"NORMAL":6,"TEXCOORD_0":7},"indices":4,"material":1,"mode":4},{"attributes":{"POSITION":9,"NORMAL":10,"TEXCOORD_0":11},"indices":8,"material":2,"mode":4}]}],"materials":[{"name":"leather","pbrMetallicRoughness":{"baseColorTexture":{"index":0},"metallicFactor":0.0,"roughnessFactor":0.83},"doubleSided":false},{"name":"oak","pbrMetallicRoughness":{"baseColorTexture":{"index":1},"metallicFactor":0.0,"roughnessFactor":0.83},"doubleSided":false},{"name":"brass","pbrMetallicRoughness":{"baseColorTexture":{"index":2},"metallicFactor":0.78,"roughnessFactor":0.36},"doubleSided":false}],"textures":[{"source":0},{"source":1},{"source":2}],"images":[{"name":"leather_grain","bufferView":0,"mimeType":"image/png"},{"name":"oak_grain","bufferView":1,"mimeType":"image/png"},{"name":"brass_grain","bufferView":2,"mimeType":"image/png"}],"samplers":[{"wrapS":10497,"wrapT":10497}],"buffers":[{"byteLength":25604,"uri":"data:application/octet-stream;base64,"}],"bufferViews":[{"buffer":0,"byteOffset":0,"byteLength":465},{"buffer":0,"byteOffset":468,"byteLength":792},{"buffer":0,"byteOffset":1260,"byteLength":584},{"buffer":0,"byteOffset":1844,"byteLength":1584,"target":34963},{"buffer":0,"byteOffset":3428,"byteLength":4752,"target":34962},{"buffer":0,"byteOffset":8180,"byteLength":4752,"target":34962},{"buffer":0,"byteOffset":12932,"byteLength":3168,"target":34962},{"buffer":0,"byteOffset":16100,"byteLength":144,"target":34963},{"buffer":0,"byteOffset":16244,"byteLength":432,"target":34962},{"buffer":0,"byteOffset":16676,"byteLength":432,"target":34962},{"buffer":0,"byteOffset":17108,"byteLength":288,"target":34962},{"buffer":0,"byteOffset":17396,"byteLength":912,"target":34963},{"buffer":0,"byteOffset":18308,"byteLength":2736,"target":34962},{"buffer":0,"byteOffset":21044,"byteLength":2736,"target":34962},{"buffer":0,"byteOffset":23780,"byteLength":1824,"target":34962}],"accessors":[{"bufferView":3,"componentType":5125,"count":396,"type":"SCALAR"},{"bufferView":4,"componentType":5126,"count":396,"type":"VEC3","min":[-0.41021039689022293,0.04500000000000004,-0.155],"max":[0.41021039689022293,1.2003108891324552,0.155]},{"bufferView":5,"componentType":5126,"count":396,"type":"VEC3"},{"bufferView":6,"componentType":5126,"count":396,"type":"VEC2"},{"bufferView":7,"componentType":5125,"count":36,"type":"SCALAR"},{"bufferView":8,"componentType":5126,"count":36,"type":"VEC3","min":[-0.365,0.55,0.14],"max":[0.365,0.75,0.2]},{"bufferView":9,"componentType":5126,"count":36,"type":"VEC3"},{"bufferView":10,"componentType":5126,"count":36,"type":"VEC2"},{"bufferView":11,"componentType":5125,"count":228,"type":"SCALAR"},{"bufferView":12,"componentType":5126,"count":228,"type":"VEC3","min":[-0.275,0.3198437530516684,0.14100048826694536],"max":[0.275,0.64,0.221]},{"bufferView":13,"componentType":5126,"count":228,"type":"VEC3"},{"bufferView":14,"componentType":5126,"count":228,"type":"VEC2"}]}
