{"asset":{"generator":"DarkArisen OpenSource3D alpha prop generator","version":"2.0"},"scene":0,"scenes":[{"nodes":[0]}],"nodes":[{"name":"marine_compass","children":[1,2]},{"name":"root","mesh":0},{"name":"needle","mesh":1,"translation":[0,0.18,0]}],"meshes":[{"name":"root","primitives":[{"attributes":{"POSITION":1,"NORMAL":2,"TEXCOORD_0":3},"indices":0,"material":0,"mode":4},{"attributes":{"POSITION":5,"NORMAL":6,"TEXCOORD_0":7},"indices":4,"material":1,"mode":4},{"attributes":{"POSITION":9,"NORMAL":10,"TEXCOORD_0":11},"indices":8,"material":2,"mode":4}]},{"name":"needle","primitives":[{"attributes":{"POSITION":13,"NORMAL":14,"TEXCOORD_0":15},"indices":12,"material":0,"mode":4},{"attributes":{"POSITION":17,"NORMAL":18,"TEXCOORD_0":19},"indices":16,"material":3,"mode":4},{"attributes":{"POSITION":21,"NORMAL":22,"TEXCOORD_0":23},"indices":20,"material":4,"mode":4}]}],"materials":[{"name":"brass","pbrMetallicRoughness":{"baseColorTexture":{"index":0},"metallicFactor":0.78,"roughnessFactor":0.36},"doubleSided":false},{"name":"paper","pbrMetallicRoughness":{"baseColorTexture":{"index":1},"metallicFactor":0.0,"roughnessFactor":1.0},"doubleSided":true},{"name":"iron","pbrMetallicRoughness":{"baseColorTexture":{"index":2},"metallicFactor":0.72,"roughnessFactor":0.62},"doubleSided":false},{"name":"black_iron","pbrMetallicRoughness":{"baseColorTexture":{"index":3},"metallicFactor":0.65,"roughnessFactor":0.73},"doubleSided":false},{"name":"red_canvas","pbrMetallicRoughness":{"baseColorTexture":{"index":4},"metallicFactor":0.0,"roughnessFactor":0.92},"doubleSided":true}],"textures":[{"source":0},{"source":1},{"source":2},{"source":3},{"source":4}],"images":[{"name":"brass_grain","bufferView":0,"mimeType":"image/png"},{"name":"paper_grain","bufferView":1,"mimeType":"image/png"},{"name":"iron_grain","bufferView":2,"mimeType":"image/png"},{"name":"black_iron_grain","bufferView":3,"mimeType":"image/png"},{"name":"red_canvas_grain","bufferView":4,"mimeType":"image/png"}],"samplers":[{"wrapS":10497,"wrapT":10497}],"buffers":[{"byteLength":116720,"uri":"data:application/octet-stream;base64,"}],"bufferViews":[{"buffer":0,"byteOffset":0,"byteLength":584},{"buffer":0,"byteOffset":584,"byteLength":681},{"buffer":0,"byteOffset":1268,"byteLength":481},{"buffer":0,"byteOffset":1752,"byteLength":329},{"buffer":0,"byteOffset":2084,"byteLength":488},{"buffer":0,"byteOffset":2572,"byteLength":8064,"target":34963},{"buffer":0,"byteOffset":10636,"byteLength":24192,"target":34962},{"buffer":0,"byteOffset":34828,"byteLength":24192,"target":34962},{"buffer":0,"byteOffset":59020,"byteLength":16128,"target":34962},{"buffer":0,"byteOffset":75148,"byteLength":1152,"target":34963},{"buffer":0,"byteOffset":76300,"byteLength":3456,"target":34962},{"buffer":0,"byteOffset":79756,"byteLength":3456,"target":34962},{"buffer":0,"byteOffset":83212,"byteLength":2304,"target":34962},{"buffer":0,"byteOffset":85516,"byteLength":1152,"target":34963},{"buffer":0,"byteOffset":86668,"byteLength":3456,"target":34962},{"buffer":0,"byteOffset":90124,"byteLength":3456,"target":34962},{"buffer":0,"byteOffset":93580,"byteLength":2304,"target":34962},{"buffer":0,"byteOffset":95884,"byteLength":2016,"target":34963},{"buffer":0,"byteOffset":97900,"byteLength":6048,"target":34962},{"buffer":0,"byteOffset":103948,"byteLength":6048,"target":34962},{"buffer":0,"byteOffset":109996,"byteLength":4032,"target":34962},{"buffer":0,"byteOffset":114028,"byteLength":144,"target":34963},{"buffer":0,"byteOffset":114172,"byteLength":432,"target":34962},{"buffer":0,"byteOffset":114604,"byteLength":432,"target":34962},{"buffer":0,"byteOffset":115036,"byteLength":288,"target":34962},{"buffer":0,"byteOffset":115324,"byteLength":144,"target":34963},{"buffer":0,"byteOffset":115468,"byteLength":432,"target":34962},{"buffer":0,"byteOffset":115900,"byteLength":432,"target":34962},{"buffer":0,"byteOffset":116332,"byteLength":288,"target":34962},{"buffer":0,"byteOffset":116620,"byteLength":20},{"buffer":0,"byteOffset":116640,"byteLength":80}],"accessors":[{"bufferView":5,"componentType":5125,"count":2016,"type":"SCALAR"},{"bufferView":6,"componentType":5126,"count":2016,"type":"VEC3","min":[-0.2947861215343453,0.04,-0.2947861215343453],"max":[0.2947861215343453,0.18165063509461096,0.2947861215343453]},{"bufferView":7,"componentType":5126,"count":2016,"type":"VEC3"},{"bufferView":8,"componentType":5126,"count":2016,"type":"VEC2"},{"bufferView":9,"componentType":5125,"count":288,"type":"SCALAR"},{"bufferView":10,"componentType":5126,"count":288,"type":"VEC3","min":[-0.25,0.151,-0.25],"max":[0.25,0.155,0.25]},{"bufferView":11,"componentType":5126,"count":288,"type":"VEC3"},{"bufferView":12,"componentType":5126,"count":288,"type":"VEC2"},{"bufferView":13,"componentType":5125,"count":288,"type":"SCALAR"},{"bufferView":14,"componentType":5126,"count":288,"type":"VEC3","min":[-0.24,0.1555,-0.24],"max":[0.24,0.1645,0.24]},{"bufferView":15,"componentType":5126,"count":288,"type":"VEC3"},{"bufferView":16,"componentType":5126,"count":288,"type":"VEC2"},{"bufferView":17,"componentType":5125,"count":504,"type":"SCALAR"},{"bufferView":18,"componentType":5126,"count":504,"type":"VEC3","min":[-0.027,-0.01,-0.027],"max":[0.027,0.03,0.027]},{"bufferView":19,"componentType":5126,"count":504,"type":"VEC3"},{"bufferView":20,"componentType":5126,"count":504,"type":"VEC2"},{"bufferView":21,"componentType":5125,"count":36,"type":"SCALAR"},{"bufferView":22,"componentType":5126,"count":36,"type":"VEC3","min":[-0.0175,-0.004,-0.21],"max":[0.0175,0.004,0.21]},{"bufferView":23,"componentType":5126,"count":36,"type":"VEC3"},{"bufferView":24,"componentType":5126,"count":36,"type":"VEC2"},{"bufferView":25,"componentType":5125,"count":36,"type":"SCALAR"},{"bufferView":26,"componentType":5126,"count":36,"type":"VEC3","min":[-0.016,-0.004,-0.21],"max":[0.016,0.004,0.0]},{"bufferView":27,"componentType":5126,"count":36,"type":"VEC3"},{"bufferView":28,"componentType":5126,"count":36,"type":"VEC2"},{"bufferView":29,"componentType":5126,"count":5,"type":"SCALAR","min":[0.0],"max":[7]},{"bufferView":30,"componentType":5126,"count":5,"type":"VEC4"}],"animations":[{"name":"needle_preview","samplers":[{"input":24,"output":25,"interpolation":"LINEAR"}],"channels":[{"sampler":0,"target":{"node":2,"path":"rotation"}}]}]}
