{"asset":{"generator":"DarkArisen OpenSource3D alpha prop generator","version":"2.0"},"scene":0,"scenes":[{"nodes":[0]}],"nodes":[{"name":"market_stall","children":[1]},{"name":"root","mesh":0}],"meshes":[{"name":"root","primitives":[{"attributes":{"POSITION":1,"NORMAL":2,"TEXCOORD_0":3},"indices":0,"material":0,"mode":4},{"attributes":{"POSITION":5,"NORMAL":6,"TEXCOORD_0":7},"indices":4,"material":1,"mode":4}]}],"materials":[{"name":"oak","pbrMetallicRoughness":{"baseColorTexture":{"index":0},"metallicFactor":0.0,"roughnessFactor":0.83},"doubleSided":false},{"name":"red_canvas","pbrMetallicRoughness":{"baseColorTexture":{"index":1},"metallicFactor":0.0,"roughnessFactor":0.92},"doubleSided":true}],"textures":[{"source":0},{"source":1}],"images":[{"name":"oak_grain","bufferView":0,"mimeType":"image/png"},{"name":"red_canvas_grain","bufferView":1,"mimeType":"image/png"}],"samplers":[{"wrapS":10497,"wrapT":10497}],"buffers":[{"byteLength":24176,"uri":"data:application/octet-stream;base64,"}],"bufferViews":[{"buffer":0,"byteOffset":0,"byteLength":792},{"buffer":0,"byteOffset":792,"byteLength":488},{"buffer":0,"byteOffset":1280,"byteLength":2160,"target":34963},{"buffer":0,"byteOffset":3440,"byteLength":6480,"target":34962},{"buffer":0,"byteOffset":9920,"byteLength":6480,"target":34962},{"buffer":0,"byteOffset":16400,"byteLength":4320,"target":34962},{"buffer":0,"byteOffset":20720,"byteLength":384,"target":34963},{"buffer":0,"byteOffset":21104,"byteLength":1152,"target":34962},{"buffer":0,"byteOffset":22256,"byteLength":1152,"target":34962},{"buffer":0,"byteOffset":23408,"byteLength":768,"target":34962}],"accessors":[{"bufferView":2,"componentType":5125,"count":540,"type":"SCALAR"},{"bufferView":3,"componentType":5126,"count":540,"type":"VEC3","min":[-1.075,0.0,-0.7282002922242603],"max":[1.075,2.4736168416058697,0.7282002922242603]},{"bufferView":4,"componentType":5126,"count":540,"type":"VEC3"},{"bufferView":5,"componentType":5126,"count":540,"type":"VEC2"},{"bufferView":6,"componentType":5125,"count":96,"type":"SCALAR"},{"bufferView":7,"componentType":5126,"count":96,"type":"VEC3","min":[-1.1,2.2,-0.75],"max":[1.1,2.45,0.75]},{"bufferView":8,"componentType":5126,"count":96,"type":"VEC3"},{"bufferView":9,"componentType":5126,"count":96,"type":"VEC2"}]}
