{"asset":{"generator":"DarkArisen OpenSource3D alpha prop generator","version":"2.0"},"scene":0,"scenes":[{"nodes":[0]}],"nodes":[{"name":"salazar_pocket_watch","children":[1,2]},{"name":"root","mesh":0},{"name":"watch_hands","mesh":1,"translation":[0,0,0.084]}],"meshes":[{"name":"root","primitives":[{"attributes":{"POSITION":1,"NORMAL":2,"TEXCOORD_0":3},"indices":0,"material":0,"mode":4},{"attributes":{"POSITION":5,"NORMAL":6,"TEXCOORD_0":7},"indices":4,"material":1,"mode":4},{"attributes":{"POSITION":9,"NORMAL":10,"TEXCOORD_0":11},"indices":8,"material":2,"mode":4}]},{"name":"watch_hands","primitives":[{"attributes":{"POSITION":13,"NORMAL":14,"TEXCOORD_0":15},"indices":12,"material":3,"mode":4}]}],"materials":[{"name":"brass","pbrMetallicRoughness":{"baseColorTexture":{"index":0},"metallicFactor":0.78,"roughnessFactor":0.36},"doubleSided":false},{"name":"paper","pbrMetallicRoughness":{"baseColorTexture":{"index":1},"metallicFactor":0.0,"roughnessFactor":1.0},"doubleSided":true},{"name":"iron","pbrMetallicRoughness":{"baseColorTexture":{"index":2},"metallicFactor":0.72,"roughnessFactor":0.62},"doubleSided":false},{"name":"black_iron","pbrMetallicRoughness":{"baseColorTexture":{"index":3},"metallicFactor":0.65,"roughnessFactor":0.73},"doubleSided":false}],"textures":[{"source":0},{"source":1},{"source":2},{"source":3}],"images":[{"name":"brass_grain","bufferView":0,"mimeType":"image/png"},{"name":"paper_grain","bufferView":1,"mimeType":"image/png"},{"name":"iron_grain","bufferView":2,"mimeType":"image/png"},{"name":"black_iron_grain","bufferView":3,"mimeType":"image/png"}],"samplers":[{"wrapS":10497,"wrapT":10497}],"buffers":[{"byteLength":173256,"uri":"data:application/octet-stream;base64,"}],"bufferViews":[{"buffer":0,"byteOffset":0,"byteLength":584},{"buffer":0,"byteOffset":584,"byteLength":681},{"buffer":0,"byteOffset":1268,"byteLength":481},{"buffer":0,"byteOffset":1752,"byteLength":329},{"buffer":0,"byteOffset":2084,"byteLength":15840,"target":34963},{"buffer":0,"byteOffset":17924,"byteLength":47520,"target":34962},{"buffer":0,"byteOffset":65444,"byteLength":47520,"target":34962},{"buffer":0,"byteOffset":112964,"byteLength":31680,"target":34962},{"buffer":0,"byteOffset":144644,"byteLength":1152,"target":34963},{"buffer":0,"byteOffset":145796,"byteLength":3456,"target":34962},{"buffer":0,"byteOffset":149252,"byteLength":3456,"target":34962},{"buffer":0,"byteOffset":152708,"byteLength":2304,"target":34962},{"buffer":0,"byteOffset":155012,"byteLength":1728,"target":34963},{"buffer":0,"byteOffset":156740,"byteLength":5184,"target":34962},{"buffer":0,"byteOffset":161924,"byteLength":5184,"target":34962},{"buffer":0,"byteOffset":167108,"byteLength":3456,"target":34962},{"buffer":0,"byteOffset":170564,"byteLength":288,"target":34963},{"buffer":0,"byteOffset":170852,"byteLength":864,"target":34962},{"buffer":0,"byteOffset":171716,"byteLength":864,"target":34962},{"buffer":0,"byteOffset":172580,"byteLength":576,"target":34962},{"buffer":0,"byteOffset":173156,"byteLength":20},{"buffer":0,"byteOffset":173176,"byteLength":80}],"accessors":[{"bufferView":4,"componentType":5125,"count":3960,"type":"SCALAR"},{"bufferView":5,"componentType":5126,"count":3960,"type":"VEC3","min":[-0.22,-0.22,-0.018],"max":[0.43145445209704286,0.43057334039727035,0.08800000000000001]},{"bufferView":6,"componentType":5126,"count":3960,"type":"VEC3"},{"bufferView":7,"componentType":5126,"count":3960,"type":"VEC2"},{"bufferView":8,"componentType":5125,"count":288,"type":"SCALAR"},{"bufferView":9,"componentType":5126,"count":288,"type":"VEC3","min":[-0.18,-0.18,0.071],"max":[0.18,0.18,0.073]},{"bufferView":10,"componentType":5126,"count":288,"type":"VEC3"},{"bufferView":11,"componentType":5126,"count":288,"type":"VEC2"},{"bufferView":12,"componentType":5125,"count":432,"type":"SCALAR"},{"bufferView":13,"componentType":5126,"count":432,"type":"VEC3","min":[-0.17023281653683323,-0.17023281653683323,0.07239545006632223],"max":[0.17023281653683323,0.17023281653683323,0.08060454993367777]},{"bufferView":14,"componentType":5126,"count":432,"type":"VEC3"},{"bufferView":15,"componentType":5126,"count":432,"type":"VEC2"},{"bufferView":16,"componentType":5125,"count":72,"type":"SCALAR"},{"bufferView":17,"componentType":5126,"count":72,"type":"VEC3","min":[-0.09,-0.0025,-0.009],"max":[0.0025,0.125,0.009]},{"bufferView":18,"componentType":5126,"count":72,"type":"VEC3"},{"bufferView":19,"componentType":5126,"count":72,"type":"VEC2"},{"bufferView":20,"componentType":5126,"count":5,"type":"SCALAR","min":[0.0],"max":[12]},{"bufferView":21,"componentType":5126,"count":5,"type":"VEC4"}],"animations":[{"name":"watch_hands_preview","samplers":[{"input":16,"output":17,"interpolation":"LINEAR"}],"channels":[{"sampler":0,"target":{"node":2,"path":"rotation"}}]}]}
