{"asset":{"generator":"DarkArisen OpenSource3D alpha prop generator","version":"2.0"},"scene":0,"scenes":[{"nodes":[0]}],"nodes":[{"name":"shackles","children":[1]},{"name":"root","mesh":0}],"meshes":[{"name":"root","primitives":[{"attributes":{"POSITION":1,"NORMAL":2,"TEXCOORD_0":3},"indices":0,"material":0,"mode":4}]}],"materials":[{"name":"iron","pbrMetallicRoughness":{"baseColorTexture":{"index":0},"metallicFactor":0.72,"roughnessFactor":0.62},"doubleSided":false}],"textures":[{"source":0}],"images":[{"name":"iron_grain","bufferView":0,"mimeType":"image/png"}],"samplers":[{"wrapS":10497,"wrapT":10497}],"buffers":[{"byteLength":137860,"uri":"data:application/octet-stream;base64,"}],"bufferViews":[{"buffer":0,"byteOffset":0,"byteLength":481},{"buffer":0,"byteOffset":484,"byteLength":15264,"target":34963},{"buffer":0,"byteOffset":15748,"byteLength":45792,"target":34962},{"buffer":0,"byteOffset":61540,"byteLength":45792,"target":34962},{"buffer":0,"byteOffset":107332,"byteLength":30528,"target":34962}],"accessors":[{"bufferView":1,"componentType":5125,"count":3816,"type":"SCALAR"},{"bufferView":2,"componentType":5126,"count":3816,"type":"VEC3","min":[-0.6356920150094572,0.04701180196120992,-0.2056920150094572],"max":[0.6356920150094572,0.15117691453623977,0.2056920150094572]},{"bufferView":3,"componentType":5126,"count":3816,"type":"VEC3"},{"bufferView":4,"componentType":5126,"count":3816,"type":"VEC2"}]}
