{"asset":{"generator":"DarkArisen OpenSource3D alpha prop generator","version":"2.0"},"scene":0,"scenes":[{"nodes":[0]}],"nodes":[{"name":"weapon_rack","children":[1]},{"name":"root","mesh":0}],"meshes":[{"name":"root","primitives":[{"attributes":{"POSITION":1,"NORMAL":2,"TEXCOORD_0":3},"indices":0,"material":0,"mode":4},{"attributes":{"POSITION":5,"NORMAL":6,"TEXCOORD_0":7},"indices":4,"material":1,"mode":4}]}],"materials":[{"name":"oak","pbrMetallicRoughness":{"baseColorTexture":{"index":0},"metallicFactor":0.0,"roughnessFactor":0.83},"doubleSided":false},{"name":"iron","pbrMetallicRoughness":{"baseColorTexture":{"index":1},"metallicFactor":0.72,"roughnessFactor":0.62},"doubleSided":false}],"textures":[{"source":0},{"source":1}],"images":[{"name":"oak_grain","bufferView":0,"mimeType":"image/png"},{"name":"iron_grain","bufferView":1,"mimeType":"image/png"}],"samplers":[{"wrapS":10497,"wrapT":10497}],"buffers":[{"byteLength":20716,"uri":"data:application/octet-stream;base64,"}],"bufferViews":[{"buffer":0,"byteOffset":0,"byteLength":792},{"buffer":0,"byteOffset":792,"byteLength":481},{"buffer":0,"byteOffset":1276,"byteLength":1008,"target":34963},{"buffer":0,"byteOffset":2284,"byteLength":3024,"target":34962},{"buffer":0,"byteOffset":5308,"byteLength":3024,"target":34962},{"buffer":0,"byteOffset":8332,"byteLength":2016,"target":34962},{"buffer":0,"byteOffset":10348,"byteLength":1152,"target":34963},{"buffer":0,"byteOffset":11500,"byteLength":3456,"target":34962},{"buffer":0,"byteOffset":14956,"byteLength":3456,"target":34962},{"buffer":0,"byteOffset":18412,"byteLength":2304,"target":34962}],"accessors":[{"bufferView":2,"componentType":5125,"count":252,"type":"SCALAR"},{"bufferView":3,"componentType":5126,"count":252,"type":"VEC3","min":[-0.725,0.0,-0.12],"max":[0.725,1.8,0.524143727298767]},{"bufferView":4,"componentType":5126,"count":252,"type":"VEC3"},{"bufferView":5,"componentType":5126,"count":252,"type":"VEC2"},{"bufferView":6,"componentType":5125,"count":288,"type":"SCALAR"},{"bufferView":7,"componentType":5126,"count":288,"type":"VEC3","min":[-0.4675,0.7825000000000001,-0.42],"max":[0.4675,1.5175,-0.11]},{"bufferView":8,"componentType":5126,"count":288,"type":"VEC3"},{"bufferView":9,"componentType":5126,"count":288,"type":"VEC2"}]}
