{"asset":{"version":"2.0","generator":"Dark Arisen authored Alpha Chapter 03 source"},"scene":0,"scenes":[{"nodes":[0]}],"nodes":[{"name":"SM_CrownCitadelApproach_Alpha","mesh":0}],"meshes":[{"name":"SM_CrownCitadelApproach_Alpha","primitives":[{"attributes":{"POSITION":0},"indices":1,"material":0}]}],"materials":[{"pbrMetallicRoughness":{"baseColorFactor":[0.42,0.38,0.31,1],"roughnessFactor":0.86}}],"buffers":[{"byteLength":1176,"uri":"data:application/octet-stream;base64,"}],"bufferViews":[{"buffer":0,"byteOffset":0,"byteLength":672,"target":34962},{"buffer":0,"byteOffset":672,"byteLength":504,"target":34963}],"accessors":[{"bufferView":0,"componentType":5126,"count":56,"type":"VEC3","min":[-17.5,-10.5,0.0],"max":[12.5,18.0,6.0]},{"bufferView":1,"componentType":5123,"count":252,"type":"SCALAR"}]}
