{"asset":{"version":"2.0","generator":"Dark Arisen art kit (MakeHuman CC0 + CMU mocap)"},"scene":0,"scenes":[{"nodes":[0]}],"nodes":[{"name":"root","translation":[0.061279297,0.9440918,0],"children":[1,2,3]},{"name":"spine05","translation":[-0.068359375,0.005859375,0],"children":[4]},{"name":"pelvis.L","translation":[-0.068359375,0.005859375,0],"children":[5]},{"name":"pelvis.R","translation":[-0.068359375,0.005859375,0],"children":[6]},{"name":"spine04","translation":[0.031982422,0.08496094,0],"children":[13]},{"name":"upperleg01.L","translation":[0.010498047,-0.006591797,0.109375],"children":[7]},{"name":"upperleg01.R","translation":[0.010498047,-0.006591797,-0.109375],"children":[8]},{"name":"upperleg02.L","translation":[-0.025634766,-0.079833984,-0.008544922],"children":[9]},{"name":"upperleg02.R","translation":[-0.025634766,-0.079833984,0.008544922],"children":[10]},{"name":"lowerleg01.L","translation":[-0.0087890625,-0.34960938,0.045654297],"children":[11]},{"name":"lowerleg01.R","translation":[-0.0087890625,-0.34960938,-0.045654297],"children":[12]},{"name":"lowerleg02.L","translation":[0.005859375,-0.22094727,0.024658203],"children":[14]},{"name":"lowerleg02.R","translation":[0.005859375,-0.22094727,-0.024658203],"children":[15]},{"name":"spine03","translation":[-0.009277344,0.060546875,0],"children":[16]},{"name":"foot.L","translation":[0.005859375,-0.22094727,0.024658203],"children":[17,21,27,33,39]},{"name":"foot.R","translation":[0.005859375,-0.22094727,-0.024658203],"children":[18,22,28,34,40]},{"name":"spine02","translation":[0.008300781,0.059814453,0],"children":[45,46,47]},{"name":"toe1-1.L","translation":[-0.14257812,-0.038085938,-0.028564453],"children":[19]},{"name":"toe1-1.R","translation":[-0.14257812,-0.038085938,0.028564453],"children":[20]},{"name":"toe1-2.L","translation":[-0.02709961,-0.008056641,0.0021972656]},{"name":"toe1-2.R","translation":[-0.02709961,-0.008056641,-0.0021972656]},{"name":"toe2-1.L","translation":[-0.14550781,-0.041992188,-0.00390625],"children":[23]},{"name":"toe2-1.R","translation":[-0.14550781,-0.041992188,0.00390625],"children":[24]},{"name":"toe2-2.L","translation":[-0.022705078,-0.0034179688,0.0014648438],"children":[25]},{"name":"toe2-2.R","translation":[-0.022705078,-0.0034179688,-0.0014648438],"children":[26]},{"name":"toe2-3.L","translation":[-0.014160156,-0.005859375,0.00024414062]},{"name":"toe2-3.R","translation":[-0.014160156,-0.005859375,-0.00024414062]},{"name":"toe3-1.L","translation":[-0.14257812,-0.045166016,0.013427734],"children":[29]},{"name":"toe3-1.R","translation":[-0.14257812,-0.045166016,-0.013427734],"children":[30]},{"name":"toe3-2.L","translation":[-0.020751953,-0.0026855469,0.00048828125],"children":[31]},{"name":"toe3-2.R","translation":[-0.020751953,-0.0026855469,-0.00048828125],"children":[32]},{"name":"toe3-3.L","translation":[-0.012939453,-0.004638672,-0.00048828125]},{"name":"toe3-3.R","translation":[-0.012939453,-0.004638672,0.00048828125]},{"name":"toe4-1.L","translation":[-0.13427734,-0.046142578,0.028808594],"children":[35]},{"name":"toe4-1.R","translation":[-0.13427734,-0.046142578,-0.028808594],"children":[36]},{"name":"toe4-2.L","translation":[-0.016113281,-0.0024414062,0.00024414062],"children":[37]},{"name":"toe4-2.R","translation":[-0.016113281,-0.0024414062,-0.00024414062],"children":[38]},{"name":"toe4-3.L","translation":[-0.0126953125,-0.0043945312,-0.0012207031]},{"name":"toe4-3.R","translation":[-0.0126953125,-0.0043945312,0.0012207031]},{"name":"toe5-1.L","translation":[-0.13061523,-0.047851562,0.043701172],"children":[41]},{"name":"toe5-1.R","translation":[-0.13061523,-0.047851562,-0.043701172],"children":[42]},{"name":"toe5-2.L","translation":[-0.011962891,-0.0029296875,0],"children":[43]},{"name":"toe5-2.R","translation":[-0.011962891,-0.0029296875,0],"children":[44]},{"name":"toe5-3.L","translation":[-0.008544922,-0.0026855469,-0.0014648438]},{"name":"toe5-3.R","translation":[-0.008544922,-0.0026855469,0.0014648438]},{"name":"breast.L","translation":[0.021972656,0.13769531,0]},{"name":"breast.R","translation":[0.021972656,0.13769531,0]},{"name":"spine01","translation":[0.021972656,0.13769531,0],"children":[48,49,50]},{"name":"clavicle.L","translation":[-0.072753906,0.13452148,0.022949219],"children":[53]},{"name":"clavicle.R","translation":[-0.072753906,0.13452148,-0.022949219],"children":[54]},{"name":"neck01","translation":[-0.061035156,0.2097168,0],"children":[51]},{"name":"neck02","translation":[-0.0036621094,0.022705078,0],"children":[52]},{"name":"neck03","translation":[-0.010498047,0.036132812,0],"children":[59]},{"name":"shoulder01.L","translation":[0.00048828125,0.014892578,0.095703125],"children":[55]},{"name":"shoulder01.R","translation":[0.00048828125,0.014892578,-0.095703125],"children":[56]},{"name":"upperarm01.L","translation":[0.0041503906,-0.044433594,0.1015625],"children":[57]},{"name":"upperarm01.R","translation":[0.0041503906,-0.044433594,-0.1015625],"children":[58]},{"name":"upperarm02.L","translation":[0.0041503906,-0.052734375,0.036865234],"children":[69]},{"name":"upperarm02.R","translation":[0.0041503906,-0.052734375,-0.036865234],"children":[70]},{"name":"head","translation":[-0.017822266,0.037353516,0],"children":[60,61,62,73,74,76,77,78,79,80,81]},{"name":"jaw","translation":[-0.017089844,0.006591797,0],"children":[75,82]},{"name":"levator02.L","translation":[-0.11743164,0.01928711,0.0026855469],"children":[63]},{"name":"levator02.R","translation":[-0.11743164,0.01928711,-0.0026855469],"children":[64]},{"name":"levator03.L","translation":[0.01586914,-0.010498047,0.01586914],"children":[65]},{"name":"levator03.R","translation":[0.01586914,-0.010498047,-0.01586914],"children":[66]},{"name":"levator04.L","translation":[0.0007324219,-0.01953125,0.005859375],"children":[67]},{"name":"levator04.R","translation":[0.0007324219,-0.01953125,-0.005859375],"children":[68]},{"name":"levator05.L","translation":[0.0026855469,-0.019042969,0.0029296875]},{"name":"levator05.R","translation":[0.0026855469,-0.019042969,-0.0029296875]},{"name":"lowerarm01.L","translation":[-0.0012207031,-0.13696289,0.12451172],"children":[71]},{"name":"lowerarm01.R","translation":[-0.0012207031,-0.13696289,-0.12451172],"children":[72]},{"name":"lowerarm02.L","translation":[-0.09375,-0.06323242,0.06640625],"children":[93]},{"name":"lowerarm02.R","translation":[-0.09375,-0.06323242,-0.06640625],"children":[94]},{"name":"special01","translation":[0.07714844,0.0024414062,0],"children":[114,115,116]},{"name":"special03","translation":[-0.017089844,0.006591797,0],"children":[101,102]},{"name":"special04","translation":[-0.05834961,-0.0847168,0],"children":[113,117,118]},{"name":"special06.L","translation":[0.00048828125,0.15356445,0],"children":[125]},{"name":"special06.R","translation":[0.00048828125,0.15356445,0],"children":[126]},{"name":"temporalis01.L","translation":[-0.06591797,0.04638672,0.064453125],"children":[111]},{"name":"temporalis01.R","translation":[-0.06591797,0.04638672,-0.064453125],"children":[112]},{"name":"temporalis02.L","translation":[-0.0625,0.0234375,0.06665039],"children":[121]},{"name":"temporalis02.R","translation":[-0.0625,0.0234375,-0.06665039],"children":[122]},{"name":"tongue00","translation":[-0.05834961,-0.0847168,0],"children":[83]},{"name":"tongue01","translation":[0.045166016,0.048339844,0],"children":[84,87,88]},{"name":"tongue02","translation":[-0.029541016,0.00390625,0],"children":[85,89,90]},{"name":"tongue03","translation":[-0.020751953,-0.0009765625,0],"children":[86,91,92]},{"name":"tongue04","translation":[-0.008056641,-0.0048828125,0]},{"name":"tongue05.L","translation":[-0.029541016,0.00390625,0]},{"name":"tongue05.R","translation":[-0.029541016,0.00390625,0]},{"name":"tongue06.L","translation":[-0.020751953,-0.0009765625,0]},{"name":"tongue06.R","translation":[-0.020751953,-0.0009765625,0]},{"name":"tongue07.L","translation":[-0.008056641,-0.0048828125,0]},{"name":"tongue07.R","translation":[-0.008056641,-0.0048828125,0]},{"name":"wrist.L","translation":[-0.09375,-0.06323242,0.06640625],"children":[95,103,105,107,109]},{"name":"wrist.R","translation":[-0.09375,-0.06323242,-0.06640625],"children":[96,104,106,108,110]},{"name":"finger1-1.L","translation":[-0.049316406,-0.005859375,0.0021972656],"children":[97]},{"name":"finger1-1.R","translation":[-0.049316406,-0.005859375,-0.0021972656],"children":[98]},{"name":"finger1-2.L","translation":[-0.02319336,-0.009033203,-0.02368164],"children":[99]},{"name":"finger1-2.R","translation":[-0.02319336,-0.009033203,0.02368164],"children":[100]},{"name":"finger1-3.L","translation":[-0.03540039,-0.013427734,-0.014160156]},{"name":"finger1-3.R","translation":[-0.03540039,-0.013427734,0.014160156]},{"name":"levator06.L","translation":[-0.10864258,-0.0073242188,0.005126953]},{"name":"levator06.R","translation":[-0.10864258,-0.0073242188,-0.005126953]},{"name":"metacarpal1.L","translation":[-0.030029297,-0.015625,0.0126953125],"children":[129]},{"name":"metacarpal1.R","translation":[-0.030029297,-0.015625,-0.0126953125],"children":[130]},{"name":"metacarpal2.L","translation":[-0.030029297,-0.015625,0.0126953125],"children":[135]},{"name":"metacarpal2.R","translation":[-0.030029297,-0.015625,-0.0126953125],"children":[136]},{"name":"metacarpal3.L","translation":[-0.01928711,-0.032958984,0.025634766],"children":[141]},{"name":"metacarpal3.R","translation":[-0.01928711,-0.032958984,-0.025634766],"children":[142]},{"name":"metacarpal4.L","translation":[-0.01928711,-0.032958984,0.025634766],"children":[147]},{"name":"metacarpal4.R","translation":[-0.01928711,-0.032958984,-0.025634766],"children":[148]},{"name":"oculi02.L","translation":[-0.01977539,-0.0014648438,-0.0087890625],"children":[153]},{"name":"oculi02.R","translation":[-0.01977539,-0.0014648438,0.0087890625],"children":[154]},{"name":"oris02","translation":[-0.021484375,0.022705078,0],"children":[159]},{"name":"oris04.L","translation":[-0.19140625,-0.0146484375,0],"children":[160]},{"name":"oris04.R","translation":[-0.19140625,-0.0146484375,0],"children":[161]},{"name":"oris06","translation":[-0.19140625,-0.0146484375,0],"children":[162]},{"name":"oris06.L","translation":[-0.021484375,0.022705078,0],"children":[119]},{"name":"oris06.R","translation":[-0.021484375,0.022705078,0],"children":[120]},{"name":"oris07.L","translation":[-0.0053710938,0.004638672,0.01171875]},{"name":"oris07.R","translation":[-0.0053710938,0.004638672,-0.01171875]},{"name":"risorius02.L","translation":[-0.020019531,0.0063476562,-0.011962891],"children":[123]},{"name":"risorius02.R","translation":[-0.020019531,0.0063476562,0.011962891],"children":[124]},{"name":"risorius03.L","translation":[-0.0041503906,-0.030517578,-0.007080078]},{"name":"risorius03.R","translation":[-0.0041503906,-0.030517578,0.007080078]},{"name":"special05.L","translation":[-0.061523438,-0.013671875,0.019042969],"children":[127,155,157]},{"name":"special05.R","translation":[-0.061523438,-0.013671875,-0.019042969],"children":[128,156,158]},{"name":"eye.L","translation":[-0.022460938,-0.10107422,0.010253906]},{"name":"eye.R","translation":[-0.022460938,-0.10107422,-0.010253906]},{"name":"finger2-1.L","translation":[-0.075927734,-0.024414062,0.018066406],"children":[131]},{"name":"finger2-1.R","translation":[-0.075927734,-0.024414062,-0.018066406],"children":[132]},{"name":"finger2-2.L","translation":[-0.0234375,-0.016113281,0.0034179688],"children":[133]},{"name":"finger2-2.R","translation":[-0.0234375,-0.016113281,-0.0034179688],"children":[134]},{"name":"finger2-3.L","translation":[-0.019042969,-0.017578125,-0.0007324219]},{"name":"finger2-3.R","translation":[-0.019042969,-0.017578125,0.0007324219]},{"name":"finger3-1.L","translation":[-0.057128906,-0.037109375,0.036376953],"children":[137]},{"name":"finger3-1.R","translation":[-0.057128906,-0.037109375,-0.036376953],"children":[138]},{"name":"finger3-2.L","translation":[-0.023925781,-0.028564453,0.0078125],"children":[139]},{"name":"finger3-2.R","translation":[-0.023925781,-0.028564453,-0.0078125],"children":[140]},{"name":"finger3-3.L","translation":[-0.01928711,-0.022705078,0.0026855469]},{"name":"finger3-3.R","translation":[-0.01928711,-0.022705078,-0.0026855469]},{"name":"finger4-1.L","translation":[-0.049072266,-0.029052734,0.03173828],"children":[143]},{"name":"finger4-1.R","translation":[-0.049072266,-0.029052734,-0.03173828],"children":[144]},{"name":"finger4-2.L","translation":[-0.016601562,-0.02709961,0.009765625],"children":[145]},{"name":"finger4-2.R","translation":[-0.016601562,-0.02709961,-0.009765625],"children":[146]},{"name":"finger4-3.L","translation":[-0.014892578,-0.022460938,0.005126953]},{"name":"finger4-3.R","translation":[-0.014892578,-0.022460938,-0.005126953]},{"name":"finger5-1.L","translation":[-0.027832031,-0.040039062,0.032958984],"children":[149]},{"name":"finger5-1.R","translation":[-0.027832031,-0.040039062,-0.032958984],"children":[150]},{"name":"finger5-2.L","translation":[-0.009033203,-0.020507812,0.006591797],"children":[151]},{"name":"finger5-2.R","translation":[-0.009033203,-0.020507812,-0.006591797],"children":[152]},{"name":"finger5-3.L","translation":[-0.007080078,-0.015625,0.0021972656]},{"name":"finger5-3.R","translation":[-0.007080078,-0.015625,-0.0021972656]},{"name":"oculi01.L","translation":[-0.020263672,0.014892578,-0.020751953]},{"name":"oculi01.R","translation":[-0.020263672,0.014892578,0.020751953]},{"name":"orbicularis03.L","translation":[-0.022460938,-0.10107422,0.010253906]},{"name":"orbicularis03.R","translation":[-0.022460938,-0.10107422,-0.010253906]},{"name":"orbicularis04.L","translation":[-0.022460938,-0.10107422,0.010253906]},{"name":"orbicularis04.R","translation":[-0.022460938,-0.10107422,-0.010253906]},{"name":"oris01","translation":[-0.009033203,0.01171875,0]},{"name":"oris03.L","translation":[0.0029296875,-0.0078125,0.013183594]},{"name":"oris03.R","translation":[0.0029296875,-0.0078125,-0.013183594]},{"name":"oris05","translation":[0.00024414062,-0.0063476562,0]}],"animations":[{"name":"AN_Art_Human_77_02","samplers":[{"input":0,"output":1,"interpolation":"LINEAR"},{"input":0,"output":2,"interpolation":"LINEAR"},{"input":0,"output":3,"interpolation":"LINEAR"},{"input":0,"output":4,"interpolation":"LINEAR"},{"input":0,"output":5,"interpolation":"LINEAR"},{"input":0,"output":6,"interpolation":"LINEAR"},{"input":0,"output":7,"interpolation":"LINEAR"},{"input":0,"output":8,"interpolation":"LINEAR"},{"input":0,"output":9,"interpolation":"LINEAR"},{"input":0,"output":10,"interpolation":"LINEAR"},{"input":0,"output":11,"interpolation":"LINEAR"},{"input":0,"output":12,"interpolation":"LINEAR"},{"input":0,"output":13,"interpolation":"LINEAR"},{"input":0,"output":14,"interpolation":"LINEAR"},{"input":0,"output":15,"interpolation":"LINEAR"},{"input":0,"output":16,"interpolation":"LINEAR"},{"input":0,"output":17,"interpolation":"LINEAR"},{"input":0,"output":18,"interpolation":"LINEAR"},{"input":0,"output":19,"interpolation":"LINEAR"},{"input":0,"output":20,"interpolation":"LINEAR"},{"input":0,"output":21,"interpolation":"LINEAR"},{"input":0,"output":22,"interpolation":"LINEAR"},{"input":0,"output":23,"interpolation":"LINEAR"},{"input":0,"output":24,"interpolation":"LINEAR"},{"input":0,"output":25,"interpolation":"LINEAR"},{"input":0,"output":26,"interpolation":"LINEAR"},{"input":0,"output":27,"interpolation":"LINEAR"},{"input":0,"output":28,"interpolation":"LINEAR"},{"input":0,"output":29,"interpolation":"LINEAR"},{"input":0,"output":30,"interpolation":"LINEAR"},{"input":0,"output":31,"interpolation":"LINEAR"},{"input":0,"output":32,"interpolation":"LINEAR"},{"input":0,"output":33,"interpolation":"LINEAR"},{"input":0,"output":34,"interpolation":"LINEAR"},{"input":0,"output":35,"interpolation":"LINEAR"},{"input":0,"output":36,"interpolation":"LINEAR"},{"input":0,"output":37,"interpolation":"LINEAR"},{"input":0,"output":38,"interpolation":"LINEAR"},{"input":0,"output":39,"interpolation":"LINEAR"},{"input":0,"output":40,"interpolation":"LINEAR"},{"input":0,"output":41,"interpolation":"LINEAR"},{"input":0,"output":42,"interpolation":"LINEAR"},{"input":0,"output":43,"interpolation":"LINEAR"},{"input":0,"output":44,"interpolation":"LINEAR"},{"input":0,"output":45,"interpolation":"LINEAR"},{"input":0,"output":46,"interpolation":"LINEAR"},{"input":0,"output":47,"interpolation":"LINEAR"},{"input":0,"output":48,"interpolation":"LINEAR"},{"input":0,"output":49,"interpolation":"LINEAR"},{"input":0,"output":50,"interpolation":"LINEAR"},{"input":0,"output":51,"interpolation":"LINEAR"},{"input":0,"output":52,"interpolation":"LINEAR"},{"input":0,"output":53,"interpolation":"LINEAR"},{"input":0,"output":54,"interpolation":"LINEAR"},{"input":0,"output":55,"interpolation":"LINEAR"}],"channels":[{"sampler":0,"target":{"node":0,"path":"rotation"}},{"sampler":1,"target":{"node":1,"path":"rotation"}},{"sampler":2,"target":{"node":5,"path":"rotation"}},{"sampler":3,"target":{"node":6,"path":"rotation"}},{"sampler":4,"target":{"node":7,"path":"rotation"}},{"sampler":5,"target":{"node":8,"path":"rotation"}},{"sampler":6,"target":{"node":9,"path":"rotation"}},{"sampler":7,"target":{"node":10,"path":"rotation"}},{"sampler":8,"target":{"node":13,"path":"rotation"}},{"sampler":9,"target":{"node":14,"path":"rotation"}},{"sampler":10,"target":{"node":15,"path":"rotation"}},{"sampler":11,"target":{"node":47,"path":"rotation"}},{"sampler":12,"target":{"node":48,"path":"rotation"}},{"sampler":13,"target":{"node":49,"path":"rotation"}},{"sampler":14,"target":{"node":51,"path":"rotation"}},{"sampler":15,"target":{"node":55,"path":"rotation"}},{"sampler":16,"target":{"node":56,"path":"rotation"}},{"sampler":17,"target":{"node":57,"path":"rotation"}},{"sampler":18,"target":{"node":58,"path":"rotation"}},{"sampler":19,"target":{"node":59,"path":"rotation"}},{"sampler":20,"target":{"node":69,"path":"rotation"}},{"sampler":21,"target":{"node":70,"path":"rotation"}},{"sampler":22,"target":{"node":93,"path":"rotation"}},{"sampler":23,"target":{"node":94,"path":"rotation"}},{"sampler":24,"target":{"node":95,"path":"rotation"}},{"sampler":25,"target":{"node":96,"path":"rotation"}},{"sampler":26,"target":{"node":97,"path":"rotation"}},{"sampler":27,"target":{"node":98,"path":"rotation"}},{"sampler":28,"target":{"node":99,"path":"rotation"}},{"sampler":29,"target":{"node":100,"path":"rotation"}},{"sampler":30,"target":{"node":129,"path":"rotation"}},{"sampler":31,"target":{"node":130,"path":"rotation"}},{"sampler":32,"target":{"node":131,"path":"rotation"}},{"sampler":33,"target":{"node":132,"path":"rotation"}},{"sampler":34,"target":{"node":133,"path":"rotation"}},{"sampler":35,"target":{"node":134,"path":"rotation"}},{"sampler":36,"target":{"node":135,"path":"rotation"}},{"sampler":37,"target":{"node":136,"path":"rotation"}},{"sampler":38,"target":{"node":137,"path":"rotation"}},{"sampler":39,"target":{"node":138,"path":"rotation"}},{"sampler":40,"target":{"node":139,"path":"rotation"}},{"sampler":41,"target":{"node":140,"path":"rotation"}},{"sampler":42,"target":{"node":141,"path":"rotation"}},{"sampler":43,"target":{"node":142,"path":"rotation"}},{"sampler":44,"target":{"node":143,"path":"rotation"}},{"sampler":45,"target":{"node":144,"path":"rotation"}},{"sampler":46,"target":{"node":145,"path":"rotation"}},{"sampler":47,"target":{"node":146,"path":"rotation"}},{"sampler":48,"target":{"node":147,"path":"rotation"}},{"sampler":49,"target":{"node":148,"path":"rotation"}},{"sampler":50,"target":{"node":149,"path":"rotation"}},{"sampler":51,"target":{"node":150,"path":"rotation"}},{"sampler":52,"target":{"node":151,"path":"rotation"}},{"sampler":53,"target":{"node":152,"path":"rotation"}},{"sampler":54,"target":{"node":0,"path":"translation"}}]}],"accessors":[{"bufferView":0,"componentType":5126,"count":181,"type":"SCALAR","min":[0],"max":[5.9999943]},{"bufferView":1,"componentType":5126,"count":181,"type":"VEC4"},{"bufferView":2,"componentType":5126,"count":181,"type":"VEC4"},{"bufferView":3,"componentType":5126,"count":181,"type":"VEC4"},{"bufferView":4,"componentType":5126,"count":181,"type":"VEC4"},{"bufferView":5,"componentType":5126,"count":181,"type":"VEC4"},{"bufferView":6,"componentType":5126,"count":181,"type":"VEC4"},{"bufferView":7,"componentType":5126,"count":181,"type":"VEC4"},{"bufferView":8,"componentType":5126,"count":181,"type":"VEC4"},{"bufferView":9,"componentType":5126,"count":181,"type":"VEC4"},{"bufferView":10,"componentType":5126,"count":181,"type":"VEC4"},{"bufferView":11,"componentType":5126,"count":181,"type":"VEC4"},{"bufferView":12,"componentType":5126,"count":181,"type":"VEC4"},{"bufferView":13,"componentType":5126,"count":181,"type":"VEC4"},{"bufferView":14,"componentType":5126,"count":181,"type":"VEC4"},{"bufferView":15,"componentType":5126,"count":181,"type":"VEC4"},{"bufferView":16,"componentType":5126,"count":181,"type":"VEC4"},{"bufferView":17,"componentType":5126,"count":181,"type":"VEC4"},{"bufferView":18,"componentType":5126,"count":181,"type":"VEC4"},{"bufferView":19,"componentType":5126,"count":181,"type":"VEC4"},{"bufferView":20,"componentType":5126,"count":181,"type":"VEC4"},{"bufferView":21,"componentType":5126,"count":181,"type":"VEC4"},{"bufferView":22,"componentType":5126,"count":181,"type":"VEC4"},{"bufferView":23,"componentType":5126,"count":181,"type":"VEC4"},{"bufferView":24,"componentType":5126,"count":181,"type":"VEC4"},{"bufferView":25,"componentType":5126,"count":181,"type":"VEC4"},{"bufferView":26,"componentType":5126,"count":181,"type":"VEC4"},{"bufferView":27,"componentType":5126,"count":181,"type":"VEC4"},{"bufferView":28,"componentType":5126,"count":181,"type":"VEC4"},{"bufferView":29,"componentType":5126,"count":181,"type":"VEC4"},{"bufferView":30,"componentType":5126,"count":181,"type":"VEC4"},{"bufferView":31,"componentType":5126,"count":181,"type":"VEC4"},{"bufferView":32,"componentType":5126,"count":181,"type":"VEC4"},{"bufferView":33,"componentType":5126,"count":181,"type":"VEC4"},{"bufferView":34,"componentType":5126,"count":181,"type":"VEC4"},{"bufferView":35,"componentType":5126,"count":181,"type":"VEC4"},{"bufferView":36,"componentType":5126,"count":181,"type":"VEC4"},{"bufferView":37,"componentType":5126,"count":181,"type":"VEC4"},{"bufferView":38,"componentType":5126,"count":181,"type":"VEC4"},{"bufferView":39,"componentType":5126,"count":181,"type":"VEC4"},{"bufferView":40,"componentType":5126,"count":181,"type":"VEC4"},{"bufferView":41,"componentType":5126,"count":181,"type":"VEC4"},{"bufferView":42,"componentType":5126,"count":181,"type":"VEC4"},{"bufferView":43,"componentType":5126,"count":181,"type":"VEC4"},{"bufferView":44,"componentType":5126,"count":181,"type":"VEC4"},{"bufferView":45,"componentType":5126,"count":181,"type":"VEC4"},{"bufferView":46,"componentType":5126,"count":181,"type":"VEC4"},{"bufferView":47,"componentType":5126,"count":181,"type":"VEC4"},{"bufferView":48,"componentType":5126,"count":181,"type":"VEC4"},{"bufferView":49,"componentType":5126,"count":181,"type":"VEC4"},{"bufferView":50,"componentType":5126,"count":181,"type":"VEC4"},{"bufferView":51,"componentType":5126,"count":181,"type":"VEC4"},{"bufferView":52,"componentType":5126,"count":181,"type":"VEC4"},{"bufferView":53,"componentType":5126,"count":181,"type":"VEC4"},{"bufferView":54,"componentType":5126,"count":181,"type":"VEC4"},{"bufferView":55,"componentType":5126,"count":181,"type":"VEC3"}],"bufferViews":[{"buffer":0,"byteOffset":0,"byteLength":724},{"buffer":0,"byteOffset":724,"byteLength":2896},{"buffer":0,"byteOffset":3620,"byteLength":2896},{"buffer":0,"byteOffset":6516,"byteLength":2896},{"buffer":0,"byteOffset":9412,"byteLength":2896},{"buffer":0,"byteOffset":12308,"byteLength":2896},{"buffer":0,"byteOffset":15204,"byteLength":2896},{"buffer":0,"byteOffset":18100,"byteLength":2896},{"buffer":0,"byteOffset":20996,"byteLength":2896},{"buffer":0,"byteOffset":23892,"byteLength":2896},{"buffer":0,"byteOffset":26788,"byteLength":2896},{"buffer":0,"byteOffset":29684,"byteLength":2896},{"buffer":0,"byteOffset":32580,"byteLength":2896},{"buffer":0,"byteOffset":35476,"byteLength":2896},{"buffer":0,"byteOffset":38372,"byteLength":2896},{"buffer":0,"byteOffset":41268,"byteLength":2896},{"buffer":0,"byteOffset":44164,"byteLength":2896},{"buffer":0,"byteOffset":47060,"byteLength":2896},{"buffer":0,"byteOffset":49956,"byteLength":2896},{"buffer":0,"byteOffset":52852,"byteLength":2896},{"buffer":0,"byteOffset":55748,"byteLength":2896},{"buffer":0,"byteOffset":58644,"byteLength":2896},{"buffer":0,"byteOffset":61540,"byteLength":2896},{"buffer":0,"byteOffset":64436,"byteLength":2896},{"buffer":0,"byteOffset":67332,"byteLength":2896},{"buffer":0,"byteOffset":70228,"byteLength":2896},{"buffer":0,"byteOffset":73124,"byteLength":2896},{"buffer":0,"byteOffset":76020,"byteLength":2896},{"buffer":0,"byteOffset":78916,"byteLength":2896},{"buffer":0,"byteOffset":81812,"byteLength":2896},{"buffer":0,"byteOffset":84708,"byteLength":2896},{"buffer":0,"byteOffset":87604,"byteLength":2896},{"buffer":0,"byteOffset":90500,"byteLength":2896},{"buffer":0,"byteOffset":93396,"byteLength":2896},{"buffer":0,"byteOffset":96292,"byteLength":2896},{"buffer":0,"byteOffset":99188,"byteLength":2896},{"buffer":0,"byteOffset":102084,"byteLength":2896},{"buffer":0,"byteOffset":104980,"byteLength":2896},{"buffer":0,"byteOffset":107876,"byteLength":2896},{"buffer":0,"byteOffset":110772,"byteLength":2896},{"buffer":0,"byteOffset":113668,"byteLength":2896},{"buffer":0,"byteOffset":116564,"byteLength":2896},{"buffer":0,"byteOffset":119460,"byteLength":2896},{"buffer":0,"byteOffset":122356,"byteLength":2896},{"buffer":0,"byteOffset":125252,"byteLength":2896},{"buffer":0,"byteOffset":128148,"byteLength":2896},{"buffer":0,"byteOffset":131044,"byteLength":2896},{"buffer":0,"byteOffset":133940,"byteLength":2896},{"buffer":0,"byteOffset":136836,"byteLength":2896},{"buffer":0,"byteOffset":139732,"byteLength":2896},{"buffer":0,"byteOffset":142628,"byteLength":2896},{"buffer":0,"byteOffset":145524,"byteLength":2896},{"buffer":0,"byteOffset":148420,"byteLength":2896},{"buffer":0,"byteOffset":151316,"byteLength":2896},{"buffer":0,"byteOffset":154212,"byteLength":2896},{"buffer":0,"byteOffset":157108,"byteLength":2172}],"buffers":[{"byteLength":159280,"uri":"data:application/octet-stream;base64,"}]}
