{
 "accessors": [
  {
   "bufferView": 0,
   "componentType": 5126,
   "count": 48,
   "max": [
    14,
    7.199999809265137,
    10
   ],
   "min": [
    -12.5,
    0,
    -9.5
   ],
   "type": "VEC3"
  },
  {
   "bufferView": 1,
   "componentType": 5123,
   "count": 216,
   "type": "SCALAR"
  }
 ],
 "asset": {
  "generator": "Dark Arisen authored Alpha Chapter 03 source + DarkArisenO3DE frame conversion",
  "version": "2.0"
 },
 "bufferViews": [
  {
   "buffer": 0,
   "byteLength": 576,
   "byteOffset": 0,
   "target": 34962
  },
  {
   "buffer": 0,
   "byteLength": 432,
   "byteOffset": 576,
   "target": 34963
  }
 ],
 "buffers": [
  {
   "byteLength": 1008,
   "uri": "data:application/octet-stream;base64,"
  }
 ],
 "materials": [
  {
   "pbrMetallicRoughness": {
    "baseColorFactor": [
     0.22,
     0.2,
     0.18,
     1
    ],
    "roughnessFactor": 0.86
   }
  }
 ],
 "meshes": [
  {
   "name": "SM_ArmadaTenderWreckCove_Alpha",
   "primitives": [
    {
     "attributes": {
      "POSITION": 0
     },
     "indices": 1,
     "material": 0
    }
   ]
  }
 ],
 "nodes": [
  {
   "mesh": 0,
   "name": "SM_ArmadaTenderWreckCove_Alpha"
  }
 ],
 "scene": 0,
 "scenes": [
  {
   "nodes": [
    0
   ]
  }
 ]
}
