{
 "accessors": [
  {
   "bufferView": 0,
   "componentType": 5126,
   "count": 40,
   "max": [
    12,
    5.199999809265137,
    8
   ],
   "min": [
    -13,
    0,
    -9
   ],
   "type": "VEC3"
  },
  {
   "bufferView": 1,
   "componentType": 5123,
   "count": 180,
   "type": "SCALAR"
  }
 ],
 "asset": {
  "generator": "Dark Arisen authored Alpha Chapter 03 source + DarkArisenO3DE frame conversion",
  "version": "2.0"
 },
 "bufferViews": [
  {
   "buffer": 0,
   "byteLength": 480,
   "byteOffset": 0,
   "target": 34962
  },
  {
   "buffer": 0,
   "byteLength": 360,
   "byteOffset": 480,
   "target": 34963
  }
 ],
 "buffers": [
  {
   "byteLength": 840,
   "uri": "data:application/octet-stream;base64,"
  }
 ],
 "materials": [
  {
   "pbrMetallicRoughness": {
    "baseColorFactor": [
     0.34,
     0.29,
     0.22,
     1
    ],
    "roughnessFactor": 0.86
   }
  }
 ],
 "meshes": [
  {
   "name": "SM_RexaWarehouseQuarter_Alpha",
   "primitives": [
    {
     "attributes": {
      "POSITION": 0
     },
     "indices": 1,
     "material": 0
    }
   ]
  }
 ],
 "nodes": [
  {
   "mesh": 0,
   "name": "SM_RexaWarehouseQuarter_Alpha"
  }
 ],
 "scene": 0,
 "scenes": [
  {
   "nodes": [
    0
   ]
  }
 ]
}
