{"asset":{"version":"2.0","generator":"Dark Arisen art kit (procedural, hand-authored)"},"scene":0,"scenes":[{"nodes":[0]}],"nodes":[{"mesh":0,"name":"SM_Art_HarlowMerchantShip"}],"meshes":[{"name":"SM_Art_HarlowMerchantShip","primitives":[{"attributes":{"POSITION":0,"NORMAL":1,"TEXCOORD_0":2},"indices":3,"material":0},{"attributes":{"POSITION":4,"NORMAL":5,"TEXCOORD_0":6},"indices":7,"material":1},{"attributes":{"POSITION":8,"NORMAL":9,"TEXCOORD_0":10},"indices":11,"material":2},{"attributes":{"POSITION":12,"NORMAL":13,"TEXCOORD_0":14},"indices":15,"material":3},{"attributes":{"POSITION":16,"NORMAL":17,"TEXCOORD_0":18},"indices":19,"material":4},{"attributes":{"POSITION":20,"NORMAL":21,"TEXCOORD_0":22},"indices":23,"material":5},{"attributes":{"POSITION":24,"NORMAL":25,"TEXCOORD_0":26},"indices":27,"material":6},{"attributes":{"POSITION":28,"NORMAL":29,"TEXCOORD_0":30},"indices":31,"material":7},{"attributes":{"POSITION":32,"NORMAL":33,"TEXCOORD_0":34},"indices":35,"material":8},{"attributes":{"POSITION":36,"NORMAL":37,"TEXCOORD_0":38},"indices":39,"material":9},{"attributes":{"POSITION":40,"NORMAL":41,"TEXCOORD_0":42},"indices":43,"material":10}]}],"materials":[{"name":"M_Art_HullBelow","pbrMetallicRoughness":{"baseColorFactor":[0.4482421875,0.1416015625,0.06640625,1],"metallicFactor":0,"roughnessFactor":0.8,"baseColorTexture":{"index":0}},"normalTexture":{"index":1}},{"name":"M_Art_Hull","pbrMetallicRoughness":{"baseColorFactor":[0.2939453125,0.126953125,0.052734375,1],"metallicFactor":0,"roughnessFactor":0.72,"baseColorTexture":{"index":2}},"normalTexture":{"index":3}},{"name":"M_Art_HullBand","pbrMetallicRoughness":{"baseColorFactor":[1,0.7119140625,0.166015625,1],"metallicFactor":0,"roughnessFactor":0.6,"baseColorTexture":{"index":4}},"normalTexture":{"index":5}},{"name":"M_Art_Glass","pbrMetallicRoughness":{"baseColorFactor":[0.0009765625,0.0029296875,0.0029296875,1],"metallicFactor":0,"roughnessFactor":0.12}},{"name":"M_Art_TimberDark","pbrMetallicRoughness":{"baseColorFactor":[0.2294921875,0.1064453125,0.0478515625,1],"metallicFactor":0,"roughnessFactor":0.75,"baseColorTexture":{"index":6}}},{"name":"M_Art_Iron","pbrMetallicRoughness":{"baseColorFactor":[1,1,1,1],"metallicFactor":0.7,"roughnessFactor":0.62,"baseColorTexture":{"index":7}}},{"name":"M_Art_Brass","pbrMetallicRoughness":{"baseColorFactor":[0.4775390625,0.271484375,0.056640625,1],"metallicFactor":1,"roughnessFactor":0.35}},{"name":"M_Art_Deck","pbrMetallicRoughness":{"baseColorFactor":[1,1,1,1],"metallicFactor":0,"roughnessFactor":0.8,"baseColorTexture":{"index":8}},"normalTexture":{"index":9}},{"name":"M_Art_Timber","pbrMetallicRoughness":{"baseColorFactor":[0.890625,0.4482421875,0.173828125,1],"metallicFactor":0,"roughnessFactor":0.78,"baseColorTexture":{"index":10}}},{"name":"M_Art_Canvas","pbrMetallicRoughness":{"baseColorFactor":[1,1,1,1],"metallicFactor":0,"roughnessFactor":0.92,"baseColorTexture":{"index":11}},"doubleSided":true},{"name":"M_Art_Rope","pbrMetallicRoughness":{"baseColorFactor":[1,1,1,1],"metallicFactor":0,"roughnessFactor":0.95,"baseColorTexture":{"index":12}}}],"samplers":[{"magFilter":9729,"minFilter":9987,"wrapS":10497,"wrapT":10497}],"textures":[{"sampler":0,"source":0},{"sampler":0,"source":1},{"sampler":0,"source":0},{"sampler":0,"source":1},{"sampler":0,"source":0},{"sampler":0,"source":1},{"sampler":0,"source":2},{"sampler":0,"source":3},{"sampler":0,"source":4},{"sampler":0,"source":5},{"sampler":0,"source":2},{"sampler":0,"source":6},{"sampler":0,"source":7}],"images":[{"uri":"../Textures/T_HullPlanks_BaseColor.png"},{"uri":"../Textures/T_HullPlanks_Normal.png"},{"uri":"../Textures/T_Timber_BaseColor.png"},{"uri":"../Textures/T_Iron_BaseColor.png"},{"uri":"../Textures/T_WoodDeck_BaseColor.png"},{"uri":"../Textures/T_WoodDeck_Normal.png"},{"uri":"../Textures/T_Canvas_BaseColor.png"},{"uri":"../Textures/T_Rope_BaseColor.png"}],"accessors":[{"bufferView":0,"componentType":5126,"count":585,"type":"VEC3","min":[-14.199951,-2.3000488,-3.494873],"max":[13.5,1.8000488,3.494873]},{"bufferView":1,"componentType":5126,"count":585,"type":"VEC3"},{"bufferView":2,"componentType":5126,"count":585,"type":"VEC2"},{"bufferView":3,"componentType":5125,"count":3168,"type":"SCALAR"},{"bufferView":4,"componentType":5126,"count":864,"type":"VEC3","min":[-14.199951,-0.42504883,-3.9458008],"max":[13.5,4.050049,3.9458008]},{"bufferView":5,"componentType":5126,"count":864,"type":"VEC3"},{"bufferView":6,"componentType":5126,"count":864,"type":"VEC2"},{"bufferView":7,"componentType":5125,"count":3750,"type":"SCALAR"},{"bufferView":8,"componentType":5126,"count":228,"type":"VEC3","min":[-14.199951,0.8100586,-3.9458008],"max":[13.580078,1.8000488,3.9458008]},{"bufferView":9,"componentType":5126,"count":228,"type":"VEC3"},{"bufferView":10,"componentType":5126,"count":228,"type":"VEC2"},{"bufferView":11,"componentType":5125,"count":600,"type":"SCALAR"},{"bufferView":12,"componentType":5126,"count":16,"type":"VEC3","min":[13.52002,0.9499512,-1.6960449],"max":[13.52002,1.6499023,1.6960449]},{"bufferView":13,"componentType":5126,"count":16,"type":"VEC3"},{"bufferView":14,"componentType":5126,"count":16,"type":"VEC2"},{"bufferView":15,"componentType":5125,"count":24,"type":"SCALAR"},{"bufferView":16,"componentType":5126,"count":4410,"type":"VEC3","min":[-25.875244,-2.5100098,-7.504883],"max":[15.003174,23.199951,7.504883]},{"bufferView":17,"componentType":5126,"count":4410,"type":"VEC3"},{"bufferView":18,"componentType":5126,"count":4410,"type":"VEC2"},{"bufferView":19,"componentType":5125,"count":7512,"type":"SCALAR"},{"bufferView":20,"componentType":5126,"count":572,"type":"VEC3","min":[-6.620117,2.1999512,-3.128418],"max":[13.77002,4.449951,3.116455]},{"bufferView":21,"componentType":5126,"count":572,"type":"VEC3"},{"bufferView":22,"componentType":5126,"count":572,"type":"VEC2"},{"bufferView":23,"componentType":5125,"count":1500,"type":"SCALAR"},{"bufferView":24,"componentType":5126,"count":130,"type":"VEC3","min":[-10.620117,3.3200684,-1.7543945],"max":[13.879883,4.800049,1.7543945]},{"bufferView":25,"componentType":5126,"count":130,"type":"VEC3"},{"bufferView":26,"componentType":5126,"count":130,"type":"VEC2"},{"bufferView":27,"componentType":5125,"count":192,"type":"SCALAR"},{"bufferView":28,"componentType":5126,"count":74,"type":"VEC3","min":[-13.850098,2.1999512,-3.7946777],"max":[13.379883,2.1999512,3.7946777]},{"bufferView":29,"componentType":5126,"count":74,"type":"VEC3"},{"bufferView":30,"componentType":5126,"count":74,"type":"VEC2"},{"bufferView":31,"componentType":5125,"count":216,"type":"SCALAR"},{"bufferView":32,"componentType":5126,"count":1018,"type":"VEC3","min":[-14,2.1999512,-3.7949219],"max":[13.379883,4.0270996,3.7949219]},{"bufferView":33,"componentType":5126,"count":1018,"type":"VEC3"},{"bufferView":34,"componentType":5126,"count":1018,"type":"VEC2"},{"bufferView":35,"componentType":5125,"count":3144,"type":"SCALAR"},{"bufferView":36,"componentType":5126,"count":596,"type":"VEC3","min":[-25.456055,4.550049,-7.705078],"max":[14.800049,22.050049,7.705078]},{"bufferView":37,"componentType":5126,"count":596,"type":"VEC3"},{"bufferView":38,"componentType":5126,"count":596,"type":"VEC2"},{"bufferView":39,"componentType":5125,"count":2676,"type":"SCALAR"},{"bufferView":40,"componentType":5126,"count":1510,"type":"VEC3","min":[-25.869629,-1.1020508,-3.8771973],"max":[10.219238,22.913818,3.8771973]},{"bufferView":41,"componentType":5126,"count":1510,"type":"VEC3"},{"bufferView":42,"componentType":5126,"count":1510,"type":"VEC2"},{"bufferView":43,"componentType":5125,"count":3624,"type":"SCALAR"}],"bufferViews":[{"buffer":0,"byteOffset":0,"byteLength":7020,"target":34962},{"buffer":0,"byteOffset":7020,"byteLength":7020,"target":34962},{"buffer":0,"byteOffset":14040,"byteLength":4680,"target":34962},{"buffer":0,"byteOffset":18720,"byteLength":12672,"target":34963},{"buffer":0,"byteOffset":31392,"byteLength":10368,"target":34962},{"buffer":0,"byteOffset":41760,"byteLength":10368,"target":34962},{"buffer":0,"byteOffset":52128,"byteLength":6912,"target":34962},{"buffer":0,"byteOffset":59040,"byteLength":15000,"target":34963},{"buffer":0,"byteOffset":74040,"byteLength":2736,"target":34962},{"buffer":0,"byteOffset":76776,"byteLength":2736,"target":34962},{"buffer":0,"byteOffset":79512,"byteLength":1824,"target":34962},{"buffer":0,"byteOffset":81336,"byteLength":2400,"target":34963},{"buffer":0,"byteOffset":83736,"byteLength":192,"target":34962},{"buffer":0,"byteOffset":83928,"byteLength":192,"target":34962},{"buffer":0,"byteOffset":84120,"byteLength":128,"target":34962},{"buffer":0,"byteOffset":84248,"byteLength":96,"target":34963},{"buffer":0,"byteOffset":84344,"byteLength":52920,"target":34962},{"buffer":0,"byteOffset":137264,"byteLength":52920,"target":34962},{"buffer":0,"byteOffset":190184,"byteLength":35280,"target":34962},{"buffer":0,"byteOffset":225464,"byteLength":30048,"target":34963},{"buffer":0,"byteOffset":255512,"byteLength":6864,"target":34962},{"buffer":0,"byteOffset":262376,"byteLength":6864,"target":34962},{"buffer":0,"byteOffset":269240,"byteLength":4576,"target":34962},{"buffer":0,"byteOffset":273816,"byteLength":6000,"target":34963},{"buffer":0,"byteOffset":279816,"byteLength":1560,"target":34962},{"buffer":0,"byteOffset":281376,"byteLength":1560,"target":34962},{"buffer":0,"byteOffset":282936,"byteLength":1040,"target":34962},{"buffer":0,"byteOffset":283976,"byteLength":768,"target":34963},{"buffer":0,"byteOffset":284744,"byteLength":888,"target":34962},{"buffer":0,"byteOffset":285632,"byteLength":888,"target":34962},{"buffer":0,"byteOffset":286520,"byteLength":592,"target":34962},{"buffer":0,"byteOffset":287112,"byteLength":864,"target":34963},{"buffer":0,"byteOffset":287976,"byteLength":12216,"target":34962},{"buffer":0,"byteOffset":300192,"byteLength":12216,"target":34962},{"buffer":0,"byteOffset":312408,"byteLength":8144,"target":34962},{"buffer":0,"byteOffset":320552,"byteLength":12576,"target":34963},{"buffer":0,"byteOffset":333128,"byteLength":7152,"target":34962},{"buffer":0,"byteOffset":340280,"byteLength":7152,"target":34962},{"buffer":0,"byteOffset":347432,"byteLength":4768,"target":34962},{"buffer":0,"byteOffset":352200,"byteLength":10704,"target":34963},{"buffer":0,"byteOffset":362904,"byteLength":18120,"target":34962},{"buffer":0,"byteOffset":381024,"byteLength":18120,"target":34962},{"buffer":0,"byteOffset":399144,"byteLength":12080,"target":34962},{"buffer":0,"byteOffset":411224,"byteLength":14496,"target":34963}],"buffers":[{"byteLength":425720,"uri":"data:application/octet-stream;base64,"}]}
