{"asset":{"version":"2.0","generator":"Dark Arisen art kit (procedural, hand-authored)"},"scene":0,"scenes":[{"nodes":[0]}],"nodes":[{"mesh":0,"name":"SM_Art_HarborEdge_10000"}],"meshes":[{"name":"SM_Art_HarborEdge_10000","primitives":[{"attributes":{"POSITION":0,"NORMAL":1,"TEXCOORD_0":2},"indices":3,"material":0},{"attributes":{"POSITION":4,"NORMAL":5,"TEXCOORD_0":6},"indices":7,"material":1},{"attributes":{"POSITION":8,"NORMAL":9,"TEXCOORD_0":10},"indices":11,"material":2},{"attributes":{"POSITION":12,"NORMAL":13,"TEXCOORD_0":14},"indices":15,"material":3}]}],"materials":[{"name":"M_Art_Stone","pbrMetallicRoughness":{"baseColorFactor":[1,1,1,1],"metallicFactor":0,"roughnessFactor":0.85,"baseColorTexture":{"index":0}},"normalTexture":{"index":1}},{"name":"M_Art_StoneDark","pbrMetallicRoughness":{"baseColorFactor":[0.3408203125,0.31640625,0.2939453125,1],"metallicFactor":0,"roughnessFactor":0.85,"baseColorTexture":{"index":2}},"normalTexture":{"index":3}},{"name":"M_Art_HarborWater","pbrMetallicRoughness":{"baseColorFactor":[0.005859375,0.0263671875,0.033203125,1],"metallicFactor":0,"roughnessFactor":0.08}},{"name":"M_Art_Iron","pbrMetallicRoughness":{"baseColorFactor":[1,1,1,1],"metallicFactor":0.7,"roughnessFactor":0.62,"baseColorTexture":{"index":4}}}],"samplers":[{"magFilter":9729,"minFilter":9987,"wrapS":10497,"wrapT":10497}],"textures":[{"sampler":0,"source":0},{"sampler":0,"source":1},{"sampler":0,"source":0},{"sampler":0,"source":1},{"sampler":0,"source":2}],"images":[{"uri":"../Textures/T_Stone_BaseColor.png"},{"uri":"../Textures/T_Stone_Normal.png"},{"uri":"../Textures/T_Iron_BaseColor.png"}],"accessors":[{"bufferView":0,"componentType":5126,"count":24,"type":"VEC3","min":[-0.60009766,-2.3999023,-50],"max":[0.39990234,0.020019531,50]},{"bufferView":1,"componentType":5126,"count":24,"type":"VEC3"},{"bufferView":2,"componentType":5126,"count":24,"type":"VEC2"},{"bufferView":3,"componentType":5125,"count":36,"type":"SCALAR"},{"bufferView":4,"componentType":5126,"count":24,"type":"VEC3","min":[-0.64990234,-0.060058594,-50],"max":[0.44995117,0.040039062,50]},{"bufferView":5,"componentType":5126,"count":24,"type":"VEC3"},{"bufferView":6,"componentType":5126,"count":24,"type":"VEC2"},{"bufferView":7,"componentType":5125,"count":36,"type":"SCALAR"},{"bufferView":8,"componentType":5126,"count":4,"type":"VEC3","min":[0.39990234,-0.44995117,-130],"max":[160,-0.44995117,130]},{"bufferView":9,"componentType":5126,"count":4,"type":"VEC3"},{"bufferView":10,"componentType":5126,"count":4,"type":"VEC2"},{"bufferView":11,"componentType":5125,"count":6,"type":"SCALAR"},{"bufferView":12,"componentType":5126,"count":1804,"type":"VEC3","min":[-0.5,0,-46.190186],"max":[-0.100097656,0.6201172,44.190186]},{"bufferView":13,"componentType":5126,"count":1804,"type":"VEC3"},{"bufferView":14,"componentType":5126,"count":1804,"type":"VEC2"},{"bufferView":15,"componentType":5125,"count":2640,"type":"SCALAR"}],"bufferViews":[{"buffer":0,"byteOffset":0,"byteLength":288,"target":34962},{"buffer":0,"byteOffset":288,"byteLength":288,"target":34962},{"buffer":0,"byteOffset":576,"byteLength":192,"target":34962},{"buffer":0,"byteOffset":768,"byteLength":144,"target":34963},{"buffer":0,"byteOffset":912,"byteLength":288,"target":34962},{"buffer":0,"byteOffset":1200,"byteLength":288,"target":34962},{"buffer":0,"byteOffset":1488,"byteLength":192,"target":34962},{"buffer":0,"byteOffset":1680,"byteLength":144,"target":34963},{"buffer":0,"byteOffset":1824,"byteLength":48,"target":34962},{"buffer":0,"byteOffset":1872,"byteLength":48,"target":34962},{"buffer":0,"byteOffset":1920,"byteLength":32,"target":34962},{"buffer":0,"byteOffset":1952,"byteLength":24,"target":34963},{"buffer":0,"byteOffset":1976,"byteLength":21648,"target":34962},{"buffer":0,"byteOffset":23624,"byteLength":21648,"target":34962},{"buffer":0,"byteOffset":45272,"byteLength":14432,"target":34962},{"buffer":0,"byteOffset":59704,"byteLength":10560,"target":34963}],"buffers":[{"byteLength":70264,"uri":"data:application/octet-stream;base64,"}]}
