{"asset":{"version":"2.0","generator":"Dark Arisen art kit (procedural, hand-authored)"},"scene":0,"scenes":[{"nodes":[0]}],"nodes":[{"mesh":0,"name":"SM_Art_GroundTile_earth"}],"meshes":[{"name":"SM_Art_GroundTile_earth","primitives":[{"attributes":{"POSITION":0,"NORMAL":1,"TEXCOORD_0":2},"indices":3,"material":0},{"attributes":{"POSITION":4,"NORMAL":5,"TEXCOORD_0":6},"indices":7,"material":1}]}],"materials":[{"name":"M_Art_Grass","pbrMetallicRoughness":{"baseColorFactor":[1,1,1,1],"metallicFactor":0,"roughnessFactor":0.9,"baseColorTexture":{"index":0}}},{"name":"M_Art_Rock","pbrMetallicRoughness":{"baseColorFactor":[1,1,1,1],"metallicFactor":0,"roughnessFactor":0.86,"baseColorTexture":{"index":1}},"normalTexture":{"index":2}}],"samplers":[{"magFilter":9729,"minFilter":9987,"wrapS":10497,"wrapT":10497}],"textures":[{"sampler":0,"source":0},{"sampler":0,"source":1},{"sampler":0,"source":2}],"images":[{"uri":"../Textures/T_Grass_BaseColor.png"},{"uri":"../Textures/T_Rock_BaseColor.png"},{"uri":"../Textures/T_Rock_Normal.png"}],"accessors":[{"bufferView":0,"componentType":5126,"count":24,"type":"VEC3","min":[-25,-0.5,-25],"max":[25,0,25]},{"bufferView":1,"componentType":5126,"count":24,"type":"VEC3"},{"bufferView":2,"componentType":5126,"count":24,"type":"VEC2"},{"bufferView":3,"componentType":5125,"count":36,"type":"SCALAR"},{"bufferView":4,"componentType":5126,"count":672,"type":"VEC3","min":[-15.802246,-0.068359375,-18.594238],"max":[14.715088,0.5012207,9.036621]},{"bufferView":5,"componentType":5126,"count":672,"type":"VEC3"},{"bufferView":6,"componentType":5126,"count":672,"type":"VEC2"},{"bufferView":7,"componentType":5125,"count":3234,"type":"SCALAR"}],"bufferViews":[{"buffer":0,"byteOffset":0,"byteLength":288,"target":34962},{"buffer":0,"byteOffset":288,"byteLength":288,"target":34962},{"buffer":0,"byteOffset":576,"byteLength":192,"target":34962},{"buffer":0,"byteOffset":768,"byteLength":144,"target":34963},{"buffer":0,"byteOffset":912,"byteLength":8064,"target":34962},{"buffer":0,"byteOffset":8976,"byteLength":8064,"target":34962},{"buffer":0,"byteOffset":17040,"byteLength":5376,"target":34962},{"buffer":0,"byteOffset":22416,"byteLength":12936,"target":34963}],"buffers":[{"byteLength":35352,"uri":"data:application/octet-stream;base64,"}]}
