{"asset":{"version":"2.0","generator":"Dark Arisen art kit (procedural, hand-authored)"},"scene":0,"scenes":[{"nodes":[0]}],"nodes":[{"mesh":0,"name":"SM_Art_Pier_405x300x100_P225"}],"meshes":[{"name":"SM_Art_Pier_405x300x100_P225","primitives":[{"attributes":{"POSITION":0,"NORMAL":1,"TEXCOORD_0":2},"indices":3,"material":0},{"attributes":{"POSITION":4,"NORMAL":5,"TEXCOORD_0":6},"indices":7,"material":1},{"attributes":{"POSITION":8,"NORMAL":9,"TEXCOORD_0":10},"indices":11,"material":2}]}],"materials":[{"name":"M_Art_DeckWorn","pbrMetallicRoughness":{"baseColorFactor":[0.7119140625,0.7314453125,0.75,1],"metallicFactor":0,"roughnessFactor":0.85,"baseColorTexture":{"index":0}},"normalTexture":{"index":1}},{"name":"M_Art_TimberDark","pbrMetallicRoughness":{"baseColorFactor":[0.2294921875,0.1064453125,0.0478515625,1],"metallicFactor":0,"roughnessFactor":0.75,"baseColorTexture":{"index":2}}},{"name":"M_Art_Driftwood","pbrMetallicRoughness":{"baseColorFactor":[1,0.93359375,0.7890625,1],"metallicFactor":0,"roughnessFactor":0.92,"baseColorTexture":{"index":3}}}],"samplers":[{"magFilter":9729,"minFilter":9987,"wrapS":10497,"wrapT":10497}],"textures":[{"sampler":0,"source":0},{"sampler":0,"source":1},{"sampler":0,"source":2},{"sampler":0,"source":2}],"images":[{"uri":"../Textures/T_WoodDeck_BaseColor.png"},{"uri":"../Textures/T_WoodDeck_Normal.png"},{"uri":"../Textures/T_Timber_BaseColor.png"}],"accessors":[{"bufferView":0,"componentType":5126,"count":24,"type":"VEC3","min":[-2.0249023,0.89990234,-1.5],"max":[2.0249023,1,1.5]},{"bufferView":1,"componentType":5126,"count":24,"type":"VEC3"},{"bufferView":2,"componentType":5126,"count":24,"type":"VEC2"},{"bufferView":3,"componentType":5125,"count":36,"type":"SCALAR"},{"bufferView":4,"componentType":5126,"count":144,"type":"VEC3","min":[-2.0449219,0.67993164,-1.5200195],"max":[2.0449219,1.0100098,1.5200195]},{"bufferView":5,"componentType":5126,"count":144,"type":"VEC3"},{"bufferView":6,"componentType":5126,"count":144,"type":"VEC2"},{"bufferView":7,"componentType":5125,"count":216,"type":"SCALAR"},{"bufferView":8,"componentType":5126,"count":264,"type":"VEC3","min":[-1.8549805,-1.25,-1.3300781],"max":[1.8549805,0.89990234,1.3300781]},{"bufferView":9,"componentType":5126,"count":264,"type":"VEC3"},{"bufferView":10,"componentType":5126,"count":264,"type":"VEC2"},{"bufferView":11,"componentType":5125,"count":384,"type":"SCALAR"}],"bufferViews":[{"buffer":0,"byteOffset":0,"byteLength":288,"target":34962},{"buffer":0,"byteOffset":288,"byteLength":288,"target":34962},{"buffer":0,"byteOffset":576,"byteLength":192,"target":34962},{"buffer":0,"byteOffset":768,"byteLength":144,"target":34963},{"buffer":0,"byteOffset":912,"byteLength":1728,"target":34962},{"buffer":0,"byteOffset":2640,"byteLength":1728,"target":34962},{"buffer":0,"byteOffset":4368,"byteLength":1152,"target":34962},{"buffer":0,"byteOffset":5520,"byteLength":864,"target":34963},{"buffer":0,"byteOffset":6384,"byteLength":3168,"target":34962},{"buffer":0,"byteOffset":9552,"byteLength":3168,"target":34962},{"buffer":0,"byteOffset":12720,"byteLength":2112,"target":34962},{"buffer":0,"byteOffset":14832,"byteLength":1536,"target":34963}],"buffers":[{"byteLength":16368,"uri":"data:application/octet-stream;base64,"}]}
