{"asset":{"version":"2.0","generator":"Dark Arisen art kit (procedural, hand-authored)"},"scene":0,"scenes":[{"nodes":[0]}],"nodes":[{"mesh":0,"name":"SM_Art_Crate"}],"meshes":[{"name":"SM_Art_Crate","primitives":[{"attributes":{"POSITION":0,"NORMAL":1,"TEXCOORD_0":2},"indices":3,"material":0},{"attributes":{"POSITION":4,"NORMAL":5,"TEXCOORD_0":6},"indices":7,"material":1},{"attributes":{"POSITION":8,"NORMAL":9,"TEXCOORD_0":10},"indices":11,"material":2},{"attributes":{"POSITION":12,"NORMAL":13,"TEXCOORD_0":14},"indices":15,"material":3}]}],"materials":[{"name":"M_Art_Timber","pbrMetallicRoughness":{"baseColorFactor":[0.890625,0.4482421875,0.173828125,1],"metallicFactor":0,"roughnessFactor":0.78,"baseColorTexture":{"index":0}}},{"name":"M_Art_TimberDark","pbrMetallicRoughness":{"baseColorFactor":[0.2294921875,0.1064453125,0.0478515625,1],"metallicFactor":0,"roughnessFactor":0.75,"baseColorTexture":{"index":1}}},{"name":"M_Art_Leather","pbrMetallicRoughness":{"baseColorFactor":[0.166015625,0.056640625,0.0166015625,1],"metallicFactor":0,"roughnessFactor":0.55,"baseColorTexture":{"index":2}}},{"name":"M_Art_Linen","pbrMetallicRoughness":{"baseColorFactor":[1,0.93359375,0.7119140625,1],"metallicFactor":0,"roughnessFactor":0.9,"baseColorTexture":{"index":3}}}],"samplers":[{"magFilter":9729,"minFilter":9987,"wrapS":10497,"wrapT":10497}],"textures":[{"sampler":0,"source":0},{"sampler":0,"source":0},{"sampler":0,"source":1},{"sampler":0,"source":1}],"images":[{"uri":"../Textures/T_Timber_BaseColor.png"},{"uri":"../Textures/T_Fabric_BaseColor.png"}],"accessors":[{"bufferView":0,"componentType":5126,"count":24,"type":"VEC3","min":[-0.39990234,0,-0.30004883],"max":[0.39990234,0.5,0.30004883]},{"bufferView":1,"componentType":5126,"count":24,"type":"VEC3"},{"bufferView":2,"componentType":5126,"count":24,"type":"VEC2"},{"bufferView":3,"componentType":5125,"count":36,"type":"SCALAR"},{"bufferView":4,"componentType":5126,"count":288,"type":"VEC3","min":[-0.4099121,0,-0.3100586],"max":[0.4099121,0.5,0.3100586]},{"bufferView":5,"componentType":5126,"count":288,"type":"VEC3"},{"bufferView":6,"componentType":5126,"count":288,"type":"VEC2"},{"bufferView":7,"componentType":5125,"count":432,"type":"SCALAR"},{"bufferView":8,"componentType":5126,"count":24,"type":"VEC3","min":[-0.14990234,0.5,-0.12011719],"max":[0.14990234,0.54003906,0.12011719]},{"bufferView":9,"componentType":5126,"count":24,"type":"VEC3"},{"bufferView":10,"componentType":5126,"count":24,"type":"VEC2"},{"bufferView":11,"componentType":5125,"count":36,"type":"SCALAR"},{"bufferView":12,"componentType":5126,"count":24,"type":"VEC3","min":[-0.13989258,0.54003906,-0.11010742],"max":[0.13989258,0.5449219,0.11010742]},{"bufferView":13,"componentType":5126,"count":24,"type":"VEC3"},{"bufferView":14,"componentType":5126,"count":24,"type":"VEC2"},{"bufferView":15,"componentType":5125,"count":36,"type":"SCALAR"}],"bufferViews":[{"buffer":0,"byteOffset":0,"byteLength":288,"target":34962},{"buffer":0,"byteOffset":288,"byteLength":288,"target":34962},{"buffer":0,"byteOffset":576,"byteLength":192,"target":34962},{"buffer":0,"byteOffset":768,"byteLength":144,"target":34963},{"buffer":0,"byteOffset":912,"byteLength":3456,"target":34962},{"buffer":0,"byteOffset":4368,"byteLength":3456,"target":34962},{"buffer":0,"byteOffset":7824,"byteLength":2304,"target":34962},{"buffer":0,"byteOffset":10128,"byteLength":1728,"target":34963},{"buffer":0,"byteOffset":11856,"byteLength":288,"target":34962},{"buffer":0,"byteOffset":12144,"byteLength":288,"target":34962},{"buffer":0,"byteOffset":12432,"byteLength":192,"target":34962},{"buffer":0,"byteOffset":12624,"byteLength":144,"target":34963},{"buffer":0,"byteOffset":12768,"byteLength":288,"target":34962},{"buffer":0,"byteOffset":13056,"byteLength":288,"target":34962},{"buffer":0,"byteOffset":13344,"byteLength":192,"target":34962},{"buffer":0,"byteOffset":13536,"byteLength":144,"target":34963}],"buffers":[{"byteLength":13680,"uri":"data:application/octet-stream;base64,"}]}
