{"asset":{"version":"2.0","generator":"Dark Arisen art kit (procedural, hand-authored)"},"scene":0,"scenes":[{"nodes":[0]}],"nodes":[{"mesh":0,"name":"SM_Art_OuterReef"}],"meshes":[{"name":"SM_Art_OuterReef","primitives":[{"attributes":{"POSITION":0,"NORMAL":1,"TEXCOORD_0":2},"indices":3,"material":0},{"attributes":{"POSITION":4,"NORMAL":5,"TEXCOORD_0":6},"indices":7,"material":1},{"attributes":{"POSITION":8,"NORMAL":9,"TEXCOORD_0":10},"indices":11,"material":2}]}],"materials":[{"name":"M_Art_Rock","pbrMetallicRoughness":{"baseColorFactor":[1,1,1,1],"metallicFactor":0,"roughnessFactor":0.86,"baseColorTexture":{"index":0}},"normalTexture":{"index":1}},{"name":"M_Art_CoralRed","pbrMetallicRoughness":{"baseColorFactor":[0.8291015625,0.173828125,0.11328125,1],"metallicFactor":0,"roughnessFactor":0.8,"baseColorTexture":{"index":2}},"normalTexture":{"index":3}},{"name":"M_Art_Coral","pbrMetallicRoughness":{"baseColorFactor":[0.890625,0.4775390625,0.3662109375,1],"metallicFactor":0,"roughnessFactor":0.8,"baseColorTexture":{"index":4}},"normalTexture":{"index":5}}],"samplers":[{"magFilter":9729,"minFilter":9987,"wrapS":10497,"wrapT":10497}],"textures":[{"sampler":0,"source":0},{"sampler":0,"source":1},{"sampler":0,"source":2},{"sampler":0,"source":3},{"sampler":0,"source":2},{"sampler":0,"source":3}],"images":[{"uri":"../Textures/T_Rock_BaseColor.png"},{"uri":"../Textures/T_Rock_Normal.png"},{"uri":"../Textures/T_Sand_BaseColor.png"},{"uri":"../Textures/T_Sand_Normal.png"}],"accessors":[{"bufferView":0,"componentType":5126,"count":1344,"type":"VEC3","min":[-0.9140625,-1.052002,-2.3146973],"max":[5.680176,0.21533203,1.9816895]},{"bufferView":1,"componentType":5126,"count":1344,"type":"VEC3"},{"bufferView":2,"componentType":5126,"count":1344,"type":"VEC2"},{"bufferView":3,"componentType":5125,"count":6468,"type":"SCALAR"},{"bufferView":4,"componentType":5126,"count":1920,"type":"VEC3","min":[0.87060547,-0.5246582,-1.7995605],"max":[5.420166,-0.13891602,2.1794434]},{"bufferView":5,"componentType":5126,"count":1920,"type":"VEC3"},{"bufferView":6,"componentType":5126,"count":1920,"type":"VEC2"},{"bufferView":7,"componentType":5125,"count":3000,"type":"SCALAR"},{"bufferView":8,"componentType":5126,"count":2880,"type":"VEC3","min":[-0.9555664,-0.52319336,-2.2966309],"max":[3.7919922,-0.12036133,1.9960938]},{"bufferView":9,"componentType":5126,"count":2880,"type":"VEC3"},{"bufferView":10,"componentType":5126,"count":2880,"type":"VEC2"},{"bufferView":11,"componentType":5125,"count":4500,"type":"SCALAR"}],"bufferViews":[{"buffer":0,"byteOffset":0,"byteLength":16128,"target":34962},{"buffer":0,"byteOffset":16128,"byteLength":16128,"target":34962},{"buffer":0,"byteOffset":32256,"byteLength":10752,"target":34962},{"buffer":0,"byteOffset":43008,"byteLength":25872,"target":34963},{"buffer":0,"byteOffset":68880,"byteLength":23040,"target":34962},{"buffer":0,"byteOffset":91920,"byteLength":23040,"target":34962},{"buffer":0,"byteOffset":114960,"byteLength":15360,"target":34962},{"buffer":0,"byteOffset":130320,"byteLength":12000,"target":34963},{"buffer":0,"byteOffset":142320,"byteLength":34560,"target":34962},{"buffer":0,"byteOffset":176880,"byteLength":34560,"target":34962},{"buffer":0,"byteOffset":211440,"byteLength":23040,"target":34962},{"buffer":0,"byteOffset":234480,"byteLength":18000,"target":34963}],"buffers":[{"byteLength":252480,"uri":"data:application/octet-stream;base64,"}]}
