{"asset":{"version":"2.0","generator":"Dark Arisen art kit (procedural, hand-authored)"},"scene":0,"scenes":[{"nodes":[0]}],"nodes":[{"mesh":0,"name":"SM_Art_RouteMarker"}],"meshes":[{"name":"SM_Art_RouteMarker","primitives":[{"attributes":{"POSITION":0,"NORMAL":1,"TEXCOORD_0":2},"indices":3,"material":0},{"attributes":{"POSITION":4,"NORMAL":5,"TEXCOORD_0":6},"indices":7,"material":1},{"attributes":{"POSITION":8,"NORMAL":9,"TEXCOORD_0":10},"indices":11,"material":2},{"attributes":{"POSITION":12,"NORMAL":13,"TEXCOORD_0":14},"indices":15,"material":3}]}],"materials":[{"name":"M_Art_Driftwood","pbrMetallicRoughness":{"baseColorFactor":[1,0.93359375,0.7890625,1],"metallicFactor":0,"roughnessFactor":0.92,"baseColorTexture":{"index":0}}},{"name":"M_Art_Timber","pbrMetallicRoughness":{"baseColorFactor":[0.890625,0.4482421875,0.173828125,1],"metallicFactor":0,"roughnessFactor":0.78,"baseColorTexture":{"index":1}}},{"name":"M_Art_Sash","pbrMetallicRoughness":{"baseColorFactor":[0.5390625,0.013671875,0.005859375,1],"metallicFactor":0,"roughnessFactor":0.85,"baseColorTexture":{"index":2}}},{"name":"M_Art_Rock","pbrMetallicRoughness":{"baseColorFactor":[1,1,1,1],"metallicFactor":0,"roughnessFactor":0.86,"baseColorTexture":{"index":3}},"normalTexture":{"index":4}}],"samplers":[{"magFilter":9729,"minFilter":9987,"wrapS":10497,"wrapT":10497}],"textures":[{"sampler":0,"source":0},{"sampler":0,"source":0},{"sampler":0,"source":1},{"sampler":0,"source":2},{"sampler":0,"source":3}],"images":[{"uri":"../Textures/T_Timber_BaseColor.png"},{"uri":"../Textures/T_Fabric_BaseColor.png"},{"uri":"../Textures/T_Rock_BaseColor.png"},{"uri":"../Textures/T_Rock_Normal.png"}],"accessors":[{"bufferView":0,"componentType":5126,"count":58,"type":"VEC3","min":[-0.07006836,-0.19995117,-0.068359375],"max":[0.06298828,2,0.068359375]},{"bufferView":1,"componentType":5126,"count":58,"type":"VEC3"},{"bufferView":2,"componentType":5126,"count":58,"type":"VEC2"},{"bufferView":3,"componentType":5125,"count":84,"type":"SCALAR"},{"bufferView":4,"componentType":5126,"count":48,"type":"VEC3","min":[-0.6999512,1.3601074,-0.09790039],"max":[0.3840332,1.8000488,0.49804688]},{"bufferView":5,"componentType":5126,"count":48,"type":"VEC3"},{"bufferView":6,"componentType":5126,"count":48,"type":"VEC2"},{"bufferView":7,"componentType":5125,"count":72,"type":"SCALAR"},{"bufferView":8,"componentType":5126,"count":58,"type":"VEC3","min":[-0.07495117,1.9499512,-0.07299805],"max":[0.06762695,2.0800781,0.07299805]},{"bufferView":9,"componentType":5126,"count":58,"type":"VEC3"},{"bufferView":10,"componentType":5126,"count":58,"type":"VEC2"},{"bufferView":11,"componentType":5125,"count":84,"type":"SCALAR"},{"bufferView":12,"componentType":5126,"count":96,"type":"VEC3","min":[-0.24902344,-0.035888672,-0.21606445],"max":[0.32910156,0.26391602,0.23168945]},{"bufferView":13,"componentType":5126,"count":96,"type":"VEC3"},{"bufferView":14,"componentType":5126,"count":96,"type":"VEC2"},{"bufferView":15,"componentType":5125,"count":462,"type":"SCALAR"}],"bufferViews":[{"buffer":0,"byteOffset":0,"byteLength":696,"target":34962},{"buffer":0,"byteOffset":696,"byteLength":696,"target":34962},{"buffer":0,"byteOffset":1392,"byteLength":464,"target":34962},{"buffer":0,"byteOffset":1856,"byteLength":336,"target":34963},{"buffer":0,"byteOffset":2192,"byteLength":576,"target":34962},{"buffer":0,"byteOffset":2768,"byteLength":576,"target":34962},{"buffer":0,"byteOffset":3344,"byteLength":384,"target":34962},{"buffer":0,"byteOffset":3728,"byteLength":288,"target":34963},{"buffer":0,"byteOffset":4016,"byteLength":696,"target":34962},{"buffer":0,"byteOffset":4712,"byteLength":696,"target":34962},{"buffer":0,"byteOffset":5408,"byteLength":464,"target":34962},{"buffer":0,"byteOffset":5872,"byteLength":336,"target":34963},{"buffer":0,"byteOffset":6208,"byteLength":1152,"target":34962},{"buffer":0,"byteOffset":7360,"byteLength":1152,"target":34962},{"buffer":0,"byteOffset":8512,"byteLength":768,"target":34962},{"buffer":0,"byteOffset":9280,"byteLength":1848,"target":34963}],"buffers":[{"byteLength":11128,"uri":"data:application/octet-stream;base64,"}]}
