{"asset":{"version":"2.0","generator":"Dark Arisen art kit (procedural, hand-authored)"},"scene":0,"scenes":[{"nodes":[0]}],"nodes":[{"mesh":0,"name":"SM_Art_Figure_elder"}],"meshes":[{"name":"SM_Art_Figure_elder","primitives":[{"attributes":{"POSITION":0,"NORMAL":1,"TEXCOORD_0":2},"indices":3,"material":0},{"attributes":{"POSITION":4,"NORMAL":5,"TEXCOORD_0":6},"indices":7,"material":1},{"attributes":{"POSITION":8,"NORMAL":9,"TEXCOORD_0":10},"indices":11,"material":2},{"attributes":{"POSITION":12,"NORMAL":13,"TEXCOORD_0":14},"indices":15,"material":3},{"attributes":{"POSITION":16,"NORMAL":17,"TEXCOORD_0":18},"indices":19,"material":4}]}],"materials":[{"name":"M_Art_Leather","pbrMetallicRoughness":{"baseColorFactor":[0.166015625,0.056640625,0.0166015625,1],"metallicFactor":0,"roughnessFactor":0.55,"baseColorTexture":{"index":0}}},{"name":"M_Art_Ochre","pbrMetallicRoughness":{"baseColorFactor":[0.7119140625,0.353515625,0.056640625,1],"metallicFactor":0,"roughnessFactor":0.9,"baseColorTexture":{"index":1}}},{"name":"M_Art_Linen","pbrMetallicRoughness":{"baseColorFactor":[1,0.93359375,0.7119140625,1],"metallicFactor":0,"roughnessFactor":0.9,"baseColorTexture":{"index":2}}},{"name":"M_Art_SkinDark","pbrMetallicRoughness":{"baseColorFactor":[0.2099609375,0.087890625,0.0400390625,1],"metallicFactor":0,"roughnessFactor":0.55}},{"name":"M_Art_HairGrey","pbrMetallicRoughness":{"baseColorFactor":[0.2099609375,0.19140625,0.166015625,1],"metallicFactor":0,"roughnessFactor":0.6}}],"samplers":[{"magFilter":9729,"minFilter":9987,"wrapS":10497,"wrapT":10497}],"textures":[{"sampler":0,"source":0},{"sampler":0,"source":0},{"sampler":0,"source":0}],"images":[{"uri":"../Textures/T_Fabric_BaseColor.png"}],"accessors":[{"bufferView":0,"componentType":5126,"count":48,"type":"VEC3","min":[-0.17602539,0,-0.15136719],"max":[0.068359375,0.07324219,0.15136719]},{"bufferView":1,"componentType":5126,"count":48,"type":"VEC3"},{"bufferView":2,"componentType":5126,"count":48,"type":"VEC2"},{"bufferView":3,"componentType":5125,"count":72,"type":"SCALAR"},{"bufferView":4,"componentType":5126,"count":308,"type":"VEC3","min":[-0.27368164,0.029296875,-0.30297852],"max":[0.2541504,1.4853516,0.30297852]},{"bufferView":5,"componentType":5126,"count":308,"type":"VEC3"},{"bufferView":6,"componentType":5126,"count":308,"type":"VEC2"},{"bufferView":7,"componentType":5125,"count":1050,"type":"SCALAR"},{"bufferView":8,"componentType":5126,"count":452,"type":"VEC3","min":[-0.12890625,0.9277344,-0.2709961],"max":[0.051513672,1.453125,0.2709961]},{"bufferView":9,"componentType":5126,"count":452,"type":"VEC3"},{"bufferView":10,"componentType":5126,"count":452,"type":"VEC2"},{"bufferView":11,"componentType":5125,"count":1068,"type":"SCALAR"},{"bufferView":12,"componentType":5126,"count":412,"type":"VEC3","min":[-0.14331055,0.8227539,-0.25024414],"max":[0.07495117,1.7561035,0.25024414]},{"bufferView":13,"componentType":5126,"count":412,"type":"VEC3"},{"bufferView":14,"componentType":5126,"count":412,"type":"VEC2"},{"bufferView":15,"componentType":5125,"count":1464,"type":"SCALAR"},{"bufferView":16,"componentType":5126,"count":171,"type":"VEC3","min":[-0.115234375,1.5197754,-0.08203125],"max":[0.10961914,1.7648926,0.08203125]},{"bufferView":17,"componentType":5126,"count":171,"type":"VEC3"},{"bufferView":18,"componentType":5126,"count":171,"type":"VEC2"},{"bufferView":19,"componentType":5125,"count":804,"type":"SCALAR"}],"bufferViews":[{"buffer":0,"byteOffset":0,"byteLength":576,"target":34962},{"buffer":0,"byteOffset":576,"byteLength":576,"target":34962},{"buffer":0,"byteOffset":1152,"byteLength":384,"target":34962},{"buffer":0,"byteOffset":1536,"byteLength":288,"target":34963},{"buffer":0,"byteOffset":1824,"byteLength":3696,"target":34962},{"buffer":0,"byteOffset":5520,"byteLength":3696,"target":34962},{"buffer":0,"byteOffset":9216,"byteLength":2464,"target":34962},{"buffer":0,"byteOffset":11680,"byteLength":4200,"target":34963},{"buffer":0,"byteOffset":15880,"byteLength":5424,"target":34962},{"buffer":0,"byteOffset":21304,"byteLength":5424,"target":34962},{"buffer":0,"byteOffset":26728,"byteLength":3616,"target":34962},{"buffer":0,"byteOffset":30344,"byteLength":4272,"target":34963},{"buffer":0,"byteOffset":34616,"byteLength":4944,"target":34962},{"buffer":0,"byteOffset":39560,"byteLength":4944,"target":34962},{"buffer":0,"byteOffset":44504,"byteLength":3296,"target":34962},{"buffer":0,"byteOffset":47800,"byteLength":5856,"target":34963},{"buffer":0,"byteOffset":53656,"byteLength":2052,"target":34962},{"buffer":0,"byteOffset":55708,"byteLength":2052,"target":34962},{"buffer":0,"byteOffset":57760,"byteLength":1368,"target":34962},{"buffer":0,"byteOffset":59128,"byteLength":3216,"target":34963}],"buffers":[{"byteLength":62344,"uri":"data:application/octet-stream;base64,"}]}
