{"asset":{"version":"2.0","generator":"Dark Arisen art kit (procedural, hand-authored)"},"scene":0,"scenes":[{"nodes":[0]}],"nodes":[{"mesh":0,"name":"SM_Art_Figure_bigman"}],"meshes":[{"name":"SM_Art_Figure_bigman","primitives":[{"attributes":{"POSITION":0,"NORMAL":1,"TEXCOORD_0":2},"indices":3,"material":0},{"attributes":{"POSITION":4,"NORMAL":5,"TEXCOORD_0":6},"indices":7,"material":1},{"attributes":{"POSITION":8,"NORMAL":9,"TEXCOORD_0":10},"indices":11,"material":2},{"attributes":{"POSITION":12,"NORMAL":13,"TEXCOORD_0":14},"indices":15,"material":3},{"attributes":{"POSITION":16,"NORMAL":17,"TEXCOORD_0":18},"indices":19,"material":4},{"attributes":{"POSITION":20,"NORMAL":21,"TEXCOORD_0":22},"indices":23,"material":5},{"attributes":{"POSITION":24,"NORMAL":25,"TEXCOORD_0":26},"indices":27,"material":6}]}],"materials":[{"name":"M_Art_WoolBrown","pbrMetallicRoughness":{"baseColorFactor":[0.2294921875,0.1005859375,0.037109375,1],"metallicFactor":0,"roughnessFactor":0.92,"baseColorTexture":{"index":0}}},{"name":"M_Art_Leather","pbrMetallicRoughness":{"baseColorFactor":[0.166015625,0.056640625,0.0166015625,1],"metallicFactor":0,"roughnessFactor":0.55,"baseColorTexture":{"index":1}}},{"name":"M_Art_WoolGrey","pbrMetallicRoughness":{"baseColorFactor":[0.2099609375,0.2099609375,0.2294921875,1],"metallicFactor":0,"roughnessFactor":0.92,"baseColorTexture":{"index":2}}},{"name":"M_Art_Linen","pbrMetallicRoughness":{"baseColorFactor":[1,0.93359375,0.7119140625,1],"metallicFactor":0,"roughnessFactor":0.9,"baseColorTexture":{"index":3}}},{"name":"M_Art_Brass","pbrMetallicRoughness":{"baseColorFactor":[0.4775390625,0.271484375,0.056640625,1],"metallicFactor":1,"roughnessFactor":0.35}},{"name":"M_Art_SkinDark","pbrMetallicRoughness":{"baseColorFactor":[0.2099609375,0.087890625,0.0400390625,1],"metallicFactor":0,"roughnessFactor":0.55}},{"name":"M_Art_Hair","pbrMetallicRoughness":{"baseColorFactor":[0.0400390625,0.0166015625,0.005859375,1],"metallicFactor":0,"roughnessFactor":0.6}}],"samplers":[{"magFilter":9729,"minFilter":9987,"wrapS":10497,"wrapT":10497}],"textures":[{"sampler":0,"source":0},{"sampler":0,"source":0},{"sampler":0,"source":0},{"sampler":0,"source":0}],"images":[{"uri":"../Textures/T_Fabric_BaseColor.png"}],"accessors":[{"bufferView":0,"componentType":5126,"count":415,"type":"VEC3","min":[-0.1472168,0.31518555,-0.24609375],"max":[0.1472168,1.130127,0.24609375]},{"bufferView":1,"componentType":5126,"count":415,"type":"VEC3"},{"bufferView":2,"componentType":5126,"count":415,"type":"VEC2"},{"bufferView":3,"componentType":5125,"count":690,"type":"SCALAR"},{"bufferView":4,"componentType":5126,"count":242,"type":"VEC3","min":[-0.22094727,0,-0.23022461],"max":[0.14477539,1.1462402,0.23022461]},{"bufferView":5,"componentType":5126,"count":242,"type":"VEC3"},{"bufferView":6,"componentType":5126,"count":242,"type":"VEC2"},{"bufferView":7,"componentType":5125,"count":396,"type":"SCALAR"},{"bufferView":8,"componentType":5126,"count":105,"type":"VEC3","min":[-0.16796875,1.130127,-0.2619629],"max":[0.13867188,1.6357422,0.2619629]},{"bufferView":9,"componentType":5126,"count":105,"type":"VEC3"},{"bufferView":10,"componentType":5126,"count":105,"type":"VEC2"},{"bufferView":11,"componentType":5125,"count":504,"type":"SCALAR"},{"bufferView":12,"componentType":5126,"count":452,"type":"VEC3","min":[-0.16186523,1.0214844,-0.38208008],"max":[0.064697266,1.6003418,0.38208008]},{"bufferView":13,"componentType":5126,"count":452,"type":"VEC3"},{"bufferView":14,"componentType":5126,"count":452,"type":"VEC2"},{"bufferView":15,"componentType":5125,"count":1068,"type":"SCALAR"},{"bufferView":16,"componentType":5126,"count":24,"type":"VEC3","min":[-0.15454102,1.0891113,-0.03857422],"max":[-0.13745117,1.144043,0.03857422]},{"bufferView":17,"componentType":5126,"count":24,"type":"VEC3"},{"bufferView":18,"componentType":5126,"count":24,"type":"VEC2"},{"bufferView":19,"componentType":5125,"count":36,"type":"SCALAR"},{"bufferView":20,"componentType":5126,"count":412,"type":"VEC3","min":[-0.17993164,0.90625,-0.3527832],"max":[0.09399414,1.934082,0.3527832]},{"bufferView":21,"componentType":5126,"count":412,"type":"VEC3"},{"bufferView":22,"componentType":5126,"count":412,"type":"VEC2"},{"bufferView":23,"componentType":5125,"count":1464,"type":"SCALAR"},{"bufferView":24,"componentType":5126,"count":66,"type":"VEC3","min":[-0.14453125,1.673584,-0.07739258],"max":[-0.03930664,1.78125,0.07739258]},{"bufferView":25,"componentType":5126,"count":66,"type":"VEC3"},{"bufferView":26,"componentType":5126,"count":66,"type":"VEC2"},{"bufferView":27,"componentType":5125,"count":300,"type":"SCALAR"}],"bufferViews":[{"buffer":0,"byteOffset":0,"byteLength":4980,"target":34962},{"buffer":0,"byteOffset":4980,"byteLength":4980,"target":34962},{"buffer":0,"byteOffset":9960,"byteLength":3320,"target":34962},{"buffer":0,"byteOffset":13280,"byteLength":2760,"target":34963},{"buffer":0,"byteOffset":16040,"byteLength":2904,"target":34962},{"buffer":0,"byteOffset":18944,"byteLength":2904,"target":34962},{"buffer":0,"byteOffset":21848,"byteLength":1936,"target":34962},{"buffer":0,"byteOffset":23784,"byteLength":1584,"target":34963},{"buffer":0,"byteOffset":25368,"byteLength":1260,"target":34962},{"buffer":0,"byteOffset":26628,"byteLength":1260,"target":34962},{"buffer":0,"byteOffset":27888,"byteLength":840,"target":34962},{"buffer":0,"byteOffset":28728,"byteLength":2016,"target":34963},{"buffer":0,"byteOffset":30744,"byteLength":5424,"target":34962},{"buffer":0,"byteOffset":36168,"byteLength":5424,"target":34962},{"buffer":0,"byteOffset":41592,"byteLength":3616,"target":34962},{"buffer":0,"byteOffset":45208,"byteLength":4272,"target":34963},{"buffer":0,"byteOffset":49480,"byteLength":288,"target":34962},{"buffer":0,"byteOffset":49768,"byteLength":288,"target":34962},{"buffer":0,"byteOffset":50056,"byteLength":192,"target":34962},{"buffer":0,"byteOffset":50248,"byteLength":144,"target":34963},{"buffer":0,"byteOffset":50392,"byteLength":4944,"target":34962},{"buffer":0,"byteOffset":55336,"byteLength":4944,"target":34962},{"buffer":0,"byteOffset":60280,"byteLength":3296,"target":34962},{"buffer":0,"byteOffset":63576,"byteLength":5856,"target":34963},{"buffer":0,"byteOffset":69432,"byteLength":792,"target":34962},{"buffer":0,"byteOffset":70224,"byteLength":792,"target":34962},{"buffer":0,"byteOffset":71016,"byteLength":528,"target":34962},{"buffer":0,"byteOffset":71544,"byteLength":1200,"target":34963}],"buffers":[{"byteLength":72744,"uri":"data:application/octet-stream;base64,"}]}
