{"asset":{"version":"2.0","generator":"Dark Arisen art kit (procedural, hand-authored)"},"scene":0,"scenes":[{"nodes":[0]}],"nodes":[{"mesh":0,"name":"SM_Art_Figure_draven"}],"meshes":[{"name":"SM_Art_Figure_draven","primitives":[{"attributes":{"POSITION":0,"NORMAL":1,"TEXCOORD_0":2},"indices":3,"material":0},{"attributes":{"POSITION":4,"NORMAL":5,"TEXCOORD_0":6},"indices":7,"material":1},{"attributes":{"POSITION":8,"NORMAL":9,"TEXCOORD_0":10},"indices":11,"material":2},{"attributes":{"POSITION":12,"NORMAL":13,"TEXCOORD_0":14},"indices":15,"material":3},{"attributes":{"POSITION":16,"NORMAL":17,"TEXCOORD_0":18},"indices":19,"material":4},{"attributes":{"POSITION":20,"NORMAL":21,"TEXCOORD_0":22},"indices":23,"material":5},{"attributes":{"POSITION":24,"NORMAL":25,"TEXCOORD_0":26},"indices":27,"material":6}]}],"materials":[{"name":"M_Art_WoolBlack","pbrMetallicRoughness":{"baseColorFactor":[0.0166015625,0.0166015625,0.0185546875,1],"metallicFactor":0,"roughnessFactor":0.9,"baseColorTexture":{"index":0}}},{"name":"M_Art_Leather","pbrMetallicRoughness":{"baseColorFactor":[0.166015625,0.056640625,0.0166015625,1],"metallicFactor":0,"roughnessFactor":0.55,"baseColorTexture":{"index":1}}},{"name":"M_Art_Linen","pbrMetallicRoughness":{"baseColorFactor":[1,0.93359375,0.7119140625,1],"metallicFactor":0,"roughnessFactor":0.9,"baseColorTexture":{"index":2}}},{"name":"M_Art_Brass","pbrMetallicRoughness":{"baseColorFactor":[0.4775390625,0.271484375,0.056640625,1],"metallicFactor":1,"roughnessFactor":0.35}},{"name":"M_Art_Sash","pbrMetallicRoughness":{"baseColorFactor":[0.5390625,0.013671875,0.005859375,1],"metallicFactor":0,"roughnessFactor":0.85,"baseColorTexture":{"index":3}}},{"name":"M_Art_Skin","pbrMetallicRoughness":{"baseColorFactor":[0.60546875,0.31640625,0.1826171875,1],"metallicFactor":0,"roughnessFactor":0.55}},{"name":"M_Art_Hair","pbrMetallicRoughness":{"baseColorFactor":[0.0400390625,0.0166015625,0.005859375,1],"metallicFactor":0,"roughnessFactor":0.6}}],"samplers":[{"magFilter":9729,"minFilter":9987,"wrapS":10497,"wrapT":10497}],"textures":[{"sampler":0,"source":0},{"sampler":0,"source":0},{"sampler":0,"source":0},{"sampler":0,"source":0}],"images":[{"uri":"../Textures/T_Fabric_BaseColor.png"}],"accessors":[{"bufferView":0,"componentType":5126,"count":1132,"type":"VEC3","min":[-0.22924805,0.30029297,-0.3071289],"max":[0.19189453,1.9123535,0.3071289]},{"bufferView":1,"componentType":5126,"count":1132,"type":"VEC3"},{"bufferView":2,"componentType":5126,"count":1132,"type":"VEC2"},{"bufferView":3,"componentType":5125,"count":2658,"type":"SCALAR"},{"bufferView":4,"componentType":5126,"count":262,"type":"VEC3","min":[-0.19189453,0,-0.1850586],"max":[0.35742188,1.0148926,0.28198242]},{"bufferView":5,"componentType":5126,"count":262,"type":"VEC3"},{"bufferView":6,"componentType":5126,"count":262,"type":"VEC2"},{"bufferView":7,"componentType":5125,"count":384,"type":"SCALAR"},{"bufferView":8,"componentType":5126,"count":24,"type":"VEC3","min":[-0.14501953,1.3330078,-0.044189453],"max":[-0.12573242,1.5073242,0.044189453]},{"bufferView":9,"componentType":5126,"count":24,"type":"VEC3"},{"bufferView":10,"componentType":5126,"count":24,"type":"VEC2"},{"bufferView":11,"componentType":5125,"count":36,"type":"SCALAR"},{"bufferView":12,"componentType":5126,"count":170,"type":"VEC3","min":[-0.15136719,0.9946289,0.055419922],"max":[0.048095703,1.4150391,0.27685547]},{"bufferView":13,"componentType":5126,"count":170,"type":"VEC3"},{"bufferView":14,"componentType":5126,"count":170,"type":"VEC2"},{"bufferView":15,"componentType":5125,"count":252,"type":"SCALAR"},{"bufferView":16,"componentType":5126,"count":54,"type":"VEC3","min":[-0.13427734,0.7998047,-0.18579102],"max":[0.13427734,1.1279297,0.20483398]},{"bufferView":17,"componentType":5126,"count":54,"type":"VEC3"},{"bufferView":18,"componentType":5126,"count":54,"type":"VEC2"},{"bufferView":19,"componentType":5125,"count":120,"type":"SCALAR"},{"bufferView":20,"componentType":5126,"count":412,"type":"VEC3","min":[-0.15625,0.86328125,-0.28344727],"max":[0.08178711,1.8425293,0.28344727]},{"bufferView":21,"componentType":5126,"count":412,"type":"VEC3"},{"bufferView":22,"componentType":5126,"count":412,"type":"VEC2"},{"bufferView":23,"componentType":5125,"count":1464,"type":"SCALAR"},{"bufferView":24,"componentType":5126,"count":171,"type":"VEC3","min":[-0.12573242,1.5944824,-0.09301758],"max":[0.119628906,1.8518066,0.09301758]},{"bufferView":25,"componentType":5126,"count":171,"type":"VEC3"},{"bufferView":26,"componentType":5126,"count":171,"type":"VEC2"},{"bufferView":27,"componentType":5125,"count":804,"type":"SCALAR"}],"bufferViews":[{"buffer":0,"byteOffset":0,"byteLength":13584,"target":34962},{"buffer":0,"byteOffset":13584,"byteLength":13584,"target":34962},{"buffer":0,"byteOffset":27168,"byteLength":9056,"target":34962},{"buffer":0,"byteOffset":36224,"byteLength":10632,"target":34963},{"buffer":0,"byteOffset":46856,"byteLength":3144,"target":34962},{"buffer":0,"byteOffset":50000,"byteLength":3144,"target":34962},{"buffer":0,"byteOffset":53144,"byteLength":2096,"target":34962},{"buffer":0,"byteOffset":55240,"byteLength":1536,"target":34963},{"buffer":0,"byteOffset":56776,"byteLength":288,"target":34962},{"buffer":0,"byteOffset":57064,"byteLength":288,"target":34962},{"buffer":0,"byteOffset":57352,"byteLength":192,"target":34962},{"buffer":0,"byteOffset":57544,"byteLength":144,"target":34963},{"buffer":0,"byteOffset":57688,"byteLength":2040,"target":34962},{"buffer":0,"byteOffset":59728,"byteLength":2040,"target":34962},{"buffer":0,"byteOffset":61768,"byteLength":1360,"target":34962},{"buffer":0,"byteOffset":63128,"byteLength":1008,"target":34963},{"buffer":0,"byteOffset":64136,"byteLength":648,"target":34962},{"buffer":0,"byteOffset":64784,"byteLength":648,"target":34962},{"buffer":0,"byteOffset":65432,"byteLength":432,"target":34962},{"buffer":0,"byteOffset":65864,"byteLength":480,"target":34963},{"buffer":0,"byteOffset":66344,"byteLength":4944,"target":34962},{"buffer":0,"byteOffset":71288,"byteLength":4944,"target":34962},{"buffer":0,"byteOffset":76232,"byteLength":3296,"target":34962},{"buffer":0,"byteOffset":79528,"byteLength":5856,"target":34963},{"buffer":0,"byteOffset":85384,"byteLength":2052,"target":34962},{"buffer":0,"byteOffset":87436,"byteLength":2052,"target":34962},{"buffer":0,"byteOffset":89488,"byteLength":1368,"target":34962},{"buffer":0,"byteOffset":90856,"byteLength":3216,"target":34963}],"buffers":[{"byteLength":94072,"uri":"data:application/octet-stream;base64,"}]}
