{"asset":{"version":"2.0","generator":"Dark Arisen art kit (procedural, hand-authored)"},"scene":0,"scenes":[{"nodes":[0]}],"nodes":[{"mesh":0,"name":"SM_Art_BoardingStair_410x252x112"}],"meshes":[{"name":"SM_Art_BoardingStair_410x252x112","primitives":[{"attributes":{"POSITION":0,"NORMAL":1,"TEXCOORD_0":2},"indices":3,"material":0},{"attributes":{"POSITION":4,"NORMAL":5,"TEXCOORD_0":6},"indices":7,"material":1},{"attributes":{"POSITION":8,"NORMAL":9,"TEXCOORD_0":10},"indices":11,"material":2}]}],"materials":[{"name":"M_Art_DeckWorn","pbrMetallicRoughness":{"baseColorFactor":[0.7119140625,0.7314453125,0.75,1],"metallicFactor":0,"roughnessFactor":0.85,"baseColorTexture":{"index":0}},"normalTexture":{"index":1}},{"name":"M_Art_TimberDark","pbrMetallicRoughness":{"baseColorFactor":[0.2294921875,0.1064453125,0.0478515625,1],"metallicFactor":0,"roughnessFactor":0.75,"baseColorTexture":{"index":2}}},{"name":"M_Art_Rope","pbrMetallicRoughness":{"baseColorFactor":[1,1,1,1],"metallicFactor":0,"roughnessFactor":0.95,"baseColorTexture":{"index":3}}}],"samplers":[{"magFilter":9729,"minFilter":9987,"wrapS":10497,"wrapT":10497}],"textures":[{"sampler":0,"source":0},{"sampler":0,"source":1},{"sampler":0,"source":2},{"sampler":0,"source":3}],"images":[{"uri":"../Textures/T_WoodDeck_BaseColor.png"},{"uri":"../Textures/T_WoodDeck_Normal.png"},{"uri":"../Textures/T_Timber_BaseColor.png"},{"uri":"../Textures/T_Rope_BaseColor.png"}],"accessors":[{"bufferView":0,"componentType":5126,"count":336,"type":"VEC3","min":[-0.60009766,0.19189453,0],"max":[0.60009766,2.5200195,5.3999023]},{"bufferView":1,"componentType":5126,"count":336,"type":"VEC3"},{"bufferView":2,"componentType":5126,"count":336,"type":"VEC2"},{"bufferView":3,"componentType":5125,"count":504,"type":"SCALAR"},{"bufferView":4,"componentType":5126,"count":296,"type":"VEC3","min":[-0.6298828,-0.18408203,0],"max":[0.6298828,3.5200195,4.1345215]},{"bufferView":5,"componentType":5126,"count":296,"type":"VEC3"},{"bufferView":6,"componentType":5126,"count":296,"type":"VEC2"},{"bufferView":7,"componentType":5125,"count":432,"type":"SCALAR"},{"bufferView":8,"componentType":5126,"count":68,"type":"VEC3","min":[-0.6101074,0.93310547,0.03955078],"max":[0.6101074,3.4870605,4.1105957]},{"bufferView":9,"componentType":5126,"count":68,"type":"VEC3"},{"bufferView":10,"componentType":5126,"count":68,"type":"VEC2"},{"bufferView":11,"componentType":5125,"count":96,"type":"SCALAR"}],"bufferViews":[{"buffer":0,"byteOffset":0,"byteLength":4032,"target":34962},{"buffer":0,"byteOffset":4032,"byteLength":4032,"target":34962},{"buffer":0,"byteOffset":8064,"byteLength":2688,"target":34962},{"buffer":0,"byteOffset":10752,"byteLength":2016,"target":34963},{"buffer":0,"byteOffset":12768,"byteLength":3552,"target":34962},{"buffer":0,"byteOffset":16320,"byteLength":3552,"target":34962},{"buffer":0,"byteOffset":19872,"byteLength":2368,"target":34962},{"buffer":0,"byteOffset":22240,"byteLength":1728,"target":34963},{"buffer":0,"byteOffset":23968,"byteLength":816,"target":34962},{"buffer":0,"byteOffset":24784,"byteLength":816,"target":34962},{"buffer":0,"byteOffset":25600,"byteLength":544,"target":34962},{"buffer":0,"byteOffset":26144,"byteLength":384,"target":34963}],"buffers":[{"byteLength":26528,"uri":"data:application/octet-stream;base64,"}]}
