{"asset":{"version":"2.0","generator":"Dark Arisen art kit (procedural, hand-authored)"},"scene":0,"scenes":[{"nodes":[0]}],"nodes":[{"mesh":0,"name":"SM_Art_Masonry_6200x1800x300"}],"meshes":[{"name":"SM_Art_Masonry_6200x1800x300","primitives":[{"attributes":{"POSITION":0,"NORMAL":1,"TEXCOORD_0":2},"indices":3,"material":0},{"attributes":{"POSITION":4,"NORMAL":5,"TEXCOORD_0":6},"indices":7,"material":1}]}],"materials":[{"name":"M_Art_Stone","pbrMetallicRoughness":{"baseColorFactor":[1,1,1,1],"metallicFactor":0,"roughnessFactor":0.85,"baseColorTexture":{"index":0}},"normalTexture":{"index":1}},{"name":"M_Art_Paving","pbrMetallicRoughness":{"baseColorFactor":[0.849609375,0.7890625,0.67578125,1],"metallicFactor":0,"roughnessFactor":0.8,"baseColorTexture":{"index":2}},"normalTexture":{"index":3}}],"samplers":[{"magFilter":9729,"minFilter":9987,"wrapS":10497,"wrapT":10497}],"textures":[{"sampler":0,"source":0},{"sampler":0,"source":1},{"sampler":0,"source":0},{"sampler":0,"source":1}],"images":[{"uri":"../Textures/T_Stone_BaseColor.png"},{"uri":"../Textures/T_Stone_Normal.png"}],"accessors":[{"bufferView":0,"componentType":5126,"count":24,"type":"VEC3","min":[-31,0,-9],"max":[31,2.8601074,9]},{"bufferView":1,"componentType":5126,"count":24,"type":"VEC3"},{"bufferView":2,"componentType":5126,"count":24,"type":"VEC2"},{"bufferView":3,"componentType":5125,"count":36,"type":"SCALAR"},{"bufferView":4,"componentType":5126,"count":24,"type":"VEC3","min":[-31.050049,2.8601074,-9.050049],"max":[31.050049,3,9.050049]},{"bufferView":5,"componentType":5126,"count":24,"type":"VEC3"},{"bufferView":6,"componentType":5126,"count":24,"type":"VEC2"},{"bufferView":7,"componentType":5125,"count":36,"type":"SCALAR"}],"bufferViews":[{"buffer":0,"byteOffset":0,"byteLength":288,"target":34962},{"buffer":0,"byteOffset":288,"byteLength":288,"target":34962},{"buffer":0,"byteOffset":576,"byteLength":192,"target":34962},{"buffer":0,"byteOffset":768,"byteLength":144,"target":34963},{"buffer":0,"byteOffset":912,"byteLength":288,"target":34962},{"buffer":0,"byteOffset":1200,"byteLength":288,"target":34962},{"buffer":0,"byteOffset":1488,"byteLength":192,"target":34962},{"buffer":0,"byteOffset":1680,"byteLength":144,"target":34963}],"buffers":[{"byteLength":1824,"uri":"data:application/octet-stream;base64,"}]}
