{"asset":{"version":"2.0","generator":"Dark Arisen art kit (procedural, hand-authored)"},"scene":0,"scenes":[{"nodes":[0]}],"nodes":[{"mesh":0,"name":"SM_Art_Figure_woman"}],"meshes":[{"name":"SM_Art_Figure_woman","primitives":[{"attributes":{"POSITION":0,"NORMAL":1,"TEXCOORD_0":2},"indices":3,"material":0},{"attributes":{"POSITION":4,"NORMAL":5,"TEXCOORD_0":6},"indices":7,"material":1},{"attributes":{"POSITION":8,"NORMAL":9,"TEXCOORD_0":10},"indices":11,"material":2},{"attributes":{"POSITION":12,"NORMAL":13,"TEXCOORD_0":14},"indices":15,"material":3},{"attributes":{"POSITION":16,"NORMAL":17,"TEXCOORD_0":18},"indices":19,"material":4}]}],"materials":[{"name":"M_Art_Leather","pbrMetallicRoughness":{"baseColorFactor":[0.166015625,0.056640625,0.0166015625,1],"metallicFactor":0,"roughnessFactor":0.55,"baseColorTexture":{"index":0}}},{"name":"M_Art_DressGreen","pbrMetallicRoughness":{"baseColorFactor":[0.1005859375,0.19140625,0.1064453125,1],"metallicFactor":0,"roughnessFactor":0.9,"baseColorTexture":{"index":1}}},{"name":"M_Art_Linen","pbrMetallicRoughness":{"baseColorFactor":[1,0.93359375,0.7119140625,1],"metallicFactor":0,"roughnessFactor":0.9,"baseColorTexture":{"index":2}}},{"name":"M_Art_Skin","pbrMetallicRoughness":{"baseColorFactor":[0.60546875,0.31640625,0.1826171875,1],"metallicFactor":0,"roughnessFactor":0.55}},{"name":"M_Art_Hair","pbrMetallicRoughness":{"baseColorFactor":[0.0400390625,0.0166015625,0.005859375,1],"metallicFactor":0,"roughnessFactor":0.6}}],"samplers":[{"magFilter":9729,"minFilter":9987,"wrapS":10497,"wrapT":10497}],"textures":[{"sampler":0,"source":0},{"sampler":0,"source":0},{"sampler":0,"source":0}],"images":[{"uri":"../Textures/T_Fabric_BaseColor.png"}],"accessors":[{"bufferView":0,"componentType":5126,"count":48,"type":"VEC3","min":[-0.16210938,0,-0.13208008],"max":[0.06298828,0.07104492,0.13208008]},{"bufferView":1,"componentType":5126,"count":48,"type":"VEC3"},{"bufferView":2,"componentType":5126,"count":48,"type":"VEC2"},{"bufferView":3,"componentType":5125,"count":72,"type":"SCALAR"},{"bufferView":4,"componentType":5126,"count":308,"type":"VEC3","min":[-0.25195312,0.028320312,-0.2644043],"max":[0.23413086,1.4401855,0.2644043]},{"bufferView":5,"componentType":5126,"count":308,"type":"VEC3"},{"bufferView":6,"componentType":5126,"count":308,"type":"VEC2"},{"bufferView":7,"componentType":5125,"count":1050,"type":"SCALAR"},{"bufferView":8,"componentType":5126,"count":486,"type":"VEC3","min":[-0.18896484,0.58740234,-0.23657227],"max":[0.17993164,1.4089355,0.23657227]},{"bufferView":9,"componentType":5126,"count":486,"type":"VEC3"},{"bufferView":10,"componentType":5126,"count":486,"type":"VEC2"},{"bufferView":11,"componentType":5125,"count":1164,"type":"SCALAR"},{"bufferView":12,"componentType":5126,"count":412,"type":"VEC3","min":[-0.13208008,0.79785156,-0.21826172],"max":[0.0690918,1.7026367,0.21826172]},{"bufferView":13,"componentType":5126,"count":412,"type":"VEC3"},{"bufferView":14,"componentType":5126,"count":412,"type":"VEC2"},{"bufferView":15,"componentType":5125,"count":1464,"type":"SCALAR"},{"bufferView":16,"componentType":5126,"count":171,"type":"VEC3","min":[-0.0793457,1.5795898,-0.0715332],"max":[0.115234375,1.7111816,0.0715332]},{"bufferView":17,"componentType":5126,"count":171,"type":"VEC3"},{"bufferView":18,"componentType":5126,"count":171,"type":"VEC2"},{"bufferView":19,"componentType":5125,"count":804,"type":"SCALAR"}],"bufferViews":[{"buffer":0,"byteOffset":0,"byteLength":576,"target":34962},{"buffer":0,"byteOffset":576,"byteLength":576,"target":34962},{"buffer":0,"byteOffset":1152,"byteLength":384,"target":34962},{"buffer":0,"byteOffset":1536,"byteLength":288,"target":34963},{"buffer":0,"byteOffset":1824,"byteLength":3696,"target":34962},{"buffer":0,"byteOffset":5520,"byteLength":3696,"target":34962},{"buffer":0,"byteOffset":9216,"byteLength":2464,"target":34962},{"buffer":0,"byteOffset":11680,"byteLength":4200,"target":34963},{"buffer":0,"byteOffset":15880,"byteLength":5832,"target":34962},{"buffer":0,"byteOffset":21712,"byteLength":5832,"target":34962},{"buffer":0,"byteOffset":27544,"byteLength":3888,"target":34962},{"buffer":0,"byteOffset":31432,"byteLength":4656,"target":34963},{"buffer":0,"byteOffset":36088,"byteLength":4944,"target":34962},{"buffer":0,"byteOffset":41032,"byteLength":4944,"target":34962},{"buffer":0,"byteOffset":45976,"byteLength":3296,"target":34962},{"buffer":0,"byteOffset":49272,"byteLength":5856,"target":34963},{"buffer":0,"byteOffset":55128,"byteLength":2052,"target":34962},{"buffer":0,"byteOffset":57180,"byteLength":2052,"target":34962},{"buffer":0,"byteOffset":59232,"byteLength":1368,"target":34962},{"buffer":0,"byteOffset":60600,"byteLength":3216,"target":34963}],"buffers":[{"byteLength":63816,"uri":"data:application/octet-stream;base64,"}]}
