{"asset":{"version":"2.0","generator":"Dark Arisen art kit (procedural, hand-authored)"},"scene":0,"scenes":[{"nodes":[0]}],"nodes":[{"mesh":0,"name":"SM_Art_Figure_youth"}],"meshes":[{"name":"SM_Art_Figure_youth","primitives":[{"attributes":{"POSITION":0,"NORMAL":1,"TEXCOORD_0":2},"indices":3,"material":0},{"attributes":{"POSITION":4,"NORMAL":5,"TEXCOORD_0":6},"indices":7,"material":1},{"attributes":{"POSITION":8,"NORMAL":9,"TEXCOORD_0":10},"indices":11,"material":2},{"attributes":{"POSITION":12,"NORMAL":13,"TEXCOORD_0":14},"indices":15,"material":3},{"attributes":{"POSITION":16,"NORMAL":17,"TEXCOORD_0":18},"indices":19,"material":4},{"attributes":{"POSITION":20,"NORMAL":21,"TEXCOORD_0":22},"indices":23,"material":5}]}],"materials":[{"name":"M_Art_WoolBrown","pbrMetallicRoughness":{"baseColorFactor":[0.2294921875,0.1005859375,0.037109375,1],"metallicFactor":0,"roughnessFactor":0.92,"baseColorTexture":{"index":0}}},{"name":"M_Art_Leather","pbrMetallicRoughness":{"baseColorFactor":[0.166015625,0.056640625,0.0166015625,1],"metallicFactor":0,"roughnessFactor":0.55,"baseColorTexture":{"index":1}}},{"name":"M_Art_Linen","pbrMetallicRoughness":{"baseColorFactor":[1,0.93359375,0.7119140625,1],"metallicFactor":0,"roughnessFactor":0.9,"baseColorTexture":{"index":2}}},{"name":"M_Art_Brass","pbrMetallicRoughness":{"baseColorFactor":[0.4775390625,0.271484375,0.056640625,1],"metallicFactor":1,"roughnessFactor":0.35}},{"name":"M_Art_Skin","pbrMetallicRoughness":{"baseColorFactor":[0.60546875,0.31640625,0.1826171875,1],"metallicFactor":0,"roughnessFactor":0.55}},{"name":"M_Art_Hair","pbrMetallicRoughness":{"baseColorFactor":[0.0400390625,0.0166015625,0.005859375,1],"metallicFactor":0,"roughnessFactor":0.6}}],"samplers":[{"magFilter":9729,"minFilter":9987,"wrapS":10497,"wrapT":10497}],"textures":[{"sampler":0,"source":0},{"sampler":0,"source":0},{"sampler":0,"source":0}],"images":[{"uri":"../Textures/T_Fabric_BaseColor.png"}],"accessors":[{"bufferView":0,"componentType":5126,"count":415,"type":"VEC3","min":[-0.10986328,0.27807617,-0.15771484],"max":[0.10986328,0.9968262,0.15771484]},{"bufferView":1,"componentType":5126,"count":415,"type":"VEC3"},{"bufferView":2,"componentType":5126,"count":415,"type":"VEC2"},{"bufferView":3,"componentType":5125,"count":690,"type":"SCALAR"},{"bufferView":4,"componentType":5126,"count":242,"type":"VEC3","min":[-0.16479492,0,-0.14746094],"max":[0.1081543,1.0109863,0.14746094]},{"bufferView":5,"componentType":5126,"count":242,"type":"VEC3"},{"bufferView":6,"componentType":5126,"count":242,"type":"VEC2"},{"bufferView":7,"componentType":5125,"count":396,"type":"SCALAR"},{"bufferView":8,"componentType":5126,"count":533,"type":"VEC3","min":[-0.12548828,0.90112305,-0.24487305],"max":[0.103515625,1.4428711,0.24487305]},{"bufferView":9,"componentType":5126,"count":533,"type":"VEC3"},{"bufferView":10,"componentType":5126,"count":533,"type":"VEC2"},{"bufferView":11,"componentType":5125,"count":1536,"type":"SCALAR"},{"bufferView":12,"componentType":5126,"count":24,"type":"VEC3","min":[-0.115478516,0.96069336,-0.024658203],"max":[-0.10253906,1.0090332,0.024658203]},{"bufferView":13,"componentType":5126,"count":24,"type":"VEC3"},{"bufferView":14,"componentType":5126,"count":24,"type":"VEC2"},{"bufferView":15,"componentType":5125,"count":36,"type":"SCALAR"},{"bufferView":16,"componentType":5126,"count":412,"type":"VEC3","min":[-0.13427734,0.7993164,-0.22607422],"max":[0.0703125,1.7058105,0.22607422]},{"bufferView":17,"componentType":5126,"count":412,"type":"VEC3"},{"bufferView":18,"componentType":5126,"count":412,"type":"VEC2"},{"bufferView":19,"componentType":5125,"count":1464,"type":"SCALAR"},{"bufferView":20,"componentType":5126,"count":105,"type":"VEC3","min":[-0.08081055,1.5827637,-0.07421875],"max":[0.1027832,1.7143555,0.07421875]},{"bufferView":21,"componentType":5126,"count":105,"type":"VEC3"},{"bufferView":22,"componentType":5126,"count":105,"type":"VEC2"},{"bufferView":23,"componentType":5125,"count":504,"type":"SCALAR"}],"bufferViews":[{"buffer":0,"byteOffset":0,"byteLength":4980,"target":34962},{"buffer":0,"byteOffset":4980,"byteLength":4980,"target":34962},{"buffer":0,"byteOffset":9960,"byteLength":3320,"target":34962},{"buffer":0,"byteOffset":13280,"byteLength":2760,"target":34963},{"buffer":0,"byteOffset":16040,"byteLength":2904,"target":34962},{"buffer":0,"byteOffset":18944,"byteLength":2904,"target":34962},{"buffer":0,"byteOffset":21848,"byteLength":1936,"target":34962},{"buffer":0,"byteOffset":23784,"byteLength":1584,"target":34963},{"buffer":0,"byteOffset":25368,"byteLength":6396,"target":34962},{"buffer":0,"byteOffset":31764,"byteLength":6396,"target":34962},{"buffer":0,"byteOffset":38160,"byteLength":4264,"target":34962},{"buffer":0,"byteOffset":42424,"byteLength":6144,"target":34963},{"buffer":0,"byteOffset":48568,"byteLength":288,"target":34962},{"buffer":0,"byteOffset":48856,"byteLength":288,"target":34962},{"buffer":0,"byteOffset":49144,"byteLength":192,"target":34962},{"buffer":0,"byteOffset":49336,"byteLength":144,"target":34963},{"buffer":0,"byteOffset":49480,"byteLength":4944,"target":34962},{"buffer":0,"byteOffset":54424,"byteLength":4944,"target":34962},{"buffer":0,"byteOffset":59368,"byteLength":3296,"target":34962},{"buffer":0,"byteOffset":62664,"byteLength":5856,"target":34963},{"buffer":0,"byteOffset":68520,"byteLength":1260,"target":34962},{"buffer":0,"byteOffset":69780,"byteLength":1260,"target":34962},{"buffer":0,"byteOffset":71040,"byteLength":840,"target":34962},{"buffer":0,"byteOffset":71880,"byteLength":2016,"target":34963}],"buffers":[{"byteLength":73896,"uri":"data:application/octet-stream;base64,"}]}
