{"asset":{"version":"2.0","generator":"Dark Arisen art kit (procedural, hand-authored)"},"scene":0,"scenes":[{"nodes":[0]}],"nodes":[{"mesh":0,"name":"SM_Art_MangrovesRoute"}],"meshes":[{"name":"SM_Art_MangrovesRoute","primitives":[{"attributes":{"POSITION":0,"NORMAL":1,"TEXCOORD_0":2},"indices":3,"material":0},{"attributes":{"POSITION":4,"NORMAL":5,"TEXCOORD_0":6},"indices":7,"material":1},{"attributes":{"POSITION":8,"NORMAL":9,"TEXCOORD_0":10},"indices":11,"material":2}]}],"materials":[{"name":"M_Art_Driftwood","pbrMetallicRoughness":{"baseColorFactor":[1,0.93359375,0.7890625,1],"metallicFactor":0,"roughnessFactor":0.92,"baseColorTexture":{"index":0}}},{"name":"M_Art_Deck","pbrMetallicRoughness":{"baseColorFactor":[1,1,1,1],"metallicFactor":0,"roughnessFactor":0.8,"baseColorTexture":{"index":1}},"normalTexture":{"index":2}},{"name":"M_Art_TimberDark","pbrMetallicRoughness":{"baseColorFactor":[0.2294921875,0.1064453125,0.0478515625,1],"metallicFactor":0,"roughnessFactor":0.75,"baseColorTexture":{"index":3}}}],"samplers":[{"magFilter":9729,"minFilter":9987,"wrapS":10497,"wrapT":10497}],"textures":[{"sampler":0,"source":0},{"sampler":0,"source":1},{"sampler":0,"source":2},{"sampler":0,"source":0}],"images":[{"uri":"../Textures/T_Timber_BaseColor.png"},{"uri":"../Textures/T_WoodDeck_BaseColor.png"},{"uri":"../Textures/T_WoodDeck_Normal.png"}],"accessors":[{"bufferView":0,"componentType":5126,"count":594,"type":"VEC3","min":[-6.5200195,-0.44995117,-0.7199707],"max":[0.12011719,0.9499512,0.7199707]},{"bufferView":1,"componentType":5126,"count":594,"type":"VEC3"},{"bufferView":2,"componentType":5126,"count":594,"type":"VEC2"},{"bufferView":3,"componentType":5125,"count":864,"type":"SCALAR"},{"bufferView":4,"componentType":5126,"count":24,"type":"VEC3","min":[-7.800049,-0.010009766,-0.89990234],"max":[0.19995117,0.11010742,0.89990234]},{"bufferView":5,"componentType":5126,"count":24,"type":"VEC3"},{"bufferView":6,"componentType":5126,"count":24,"type":"VEC2"},{"bufferView":7,"componentType":5125,"count":36,"type":"SCALAR"},{"bufferView":8,"componentType":5126,"count":24,"type":"VEC3","min":[-7.699951,-0.4099121,-0.8000488],"max":[0.100097656,-0.010009766,0.8000488]},{"bufferView":9,"componentType":5126,"count":24,"type":"VEC3"},{"bufferView":10,"componentType":5126,"count":24,"type":"VEC2"},{"bufferView":11,"componentType":5125,"count":36,"type":"SCALAR"}],"bufferViews":[{"buffer":0,"byteOffset":0,"byteLength":7128,"target":34962},{"buffer":0,"byteOffset":7128,"byteLength":7128,"target":34962},{"buffer":0,"byteOffset":14256,"byteLength":4752,"target":34962},{"buffer":0,"byteOffset":19008,"byteLength":3456,"target":34963},{"buffer":0,"byteOffset":22464,"byteLength":288,"target":34962},{"buffer":0,"byteOffset":22752,"byteLength":288,"target":34962},{"buffer":0,"byteOffset":23040,"byteLength":192,"target":34962},{"buffer":0,"byteOffset":23232,"byteLength":144,"target":34963},{"buffer":0,"byteOffset":23376,"byteLength":288,"target":34962},{"buffer":0,"byteOffset":23664,"byteLength":288,"target":34962},{"buffer":0,"byteOffset":23952,"byteLength":192,"target":34962},{"buffer":0,"byteOffset":24144,"byteLength":144,"target":34963}],"buffers":[{"byteLength":24288,"uri":"data:application/octet-stream;base64,"}]}
