{"asset":{"version":"2.0","generator":"Dark Arisen art kit (procedural, hand-authored)"},"scene":0,"scenes":[{"nodes":[0]}],"nodes":[{"mesh":0,"name":"SM_Art_BrokenCompactSettlement"}],"meshes":[{"name":"SM_Art_BrokenCompactSettlement","primitives":[{"attributes":{"POSITION":0,"NORMAL":1,"TEXCOORD_0":2},"indices":3,"material":0},{"attributes":{"POSITION":4,"NORMAL":5,"TEXCOORD_0":6},"indices":7,"material":1},{"attributes":{"POSITION":8,"NORMAL":9,"TEXCOORD_0":10},"indices":11,"material":2},{"attributes":{"POSITION":12,"NORMAL":13,"TEXCOORD_0":14},"indices":15,"material":3},{"attributes":{"POSITION":16,"NORMAL":17,"TEXCOORD_0":18},"indices":19,"material":4},{"attributes":{"POSITION":20,"NORMAL":21,"TEXCOORD_0":22},"indices":23,"material":5},{"attributes":{"POSITION":24,"NORMAL":25,"TEXCOORD_0":26},"indices":27,"material":6},{"attributes":{"POSITION":28,"NORMAL":29,"TEXCOORD_0":30},"indices":31,"material":7},{"attributes":{"POSITION":32,"NORMAL":33,"TEXCOORD_0":34},"indices":35,"material":8}]}],"materials":[{"name":"M_Art_Stone","pbrMetallicRoughness":{"baseColorFactor":[1,1,1,1],"metallicFactor":0,"roughnessFactor":0.85,"baseColorTexture":{"index":0}},"normalTexture":{"index":1}},{"name":"M_Art_TimberDark","pbrMetallicRoughness":{"baseColorFactor":[0.2294921875,0.1064453125,0.0478515625,1],"metallicFactor":0,"roughnessFactor":0.75,"baseColorTexture":{"index":2}}},{"name":"M_Art_PlasterBlue","pbrMetallicRoughness":{"baseColorFactor":[0.392578125,0.5234375,0.67578125,1],"metallicFactor":0,"roughnessFactor":0.9,"baseColorTexture":{"index":3}},"normalTexture":{"index":4}},{"name":"M_Art_Glass","pbrMetallicRoughness":{"baseColorFactor":[0.0009765625,0.0029296875,0.0029296875,1],"metallicFactor":0,"roughnessFactor":0.12}},{"name":"M_Art_StoneDark","pbrMetallicRoughness":{"baseColorFactor":[0.3408203125,0.31640625,0.2939453125,1],"metallicFactor":0,"roughnessFactor":0.85,"baseColorTexture":{"index":5}},"normalTexture":{"index":6}},{"name":"M_Art_RoofTile","pbrMetallicRoughness":{"baseColorFactor":[1,1,1,1],"metallicFactor":0,"roughnessFactor":0.75,"baseColorTexture":{"index":7}},"normalTexture":{"index":8}},{"name":"M_Art_PlasterOchre","pbrMetallicRoughness":{"baseColorFactor":[0.912109375,0.5888671875,0.25,1],"metallicFactor":0,"roughnessFactor":0.9,"baseColorTexture":{"index":9}},"normalTexture":{"index":10}},{"name":"M_Art_Plaster","pbrMetallicRoughness":{"baseColorFactor":[1,1,1,1],"metallicFactor":0,"roughnessFactor":0.9,"baseColorTexture":{"index":11}},"normalTexture":{"index":12}},{"name":"M_Art_Paving","pbrMetallicRoughness":{"baseColorFactor":[0.849609375,0.7890625,0.67578125,1],"metallicFactor":0,"roughnessFactor":0.8,"baseColorTexture":{"index":13}},"normalTexture":{"index":14}}],"samplers":[{"magFilter":9729,"minFilter":9987,"wrapS":10497,"wrapT":10497}],"textures":[{"sampler":0,"source":0},{"sampler":0,"source":1},{"sampler":0,"source":2},{"sampler":0,"source":3},{"sampler":0,"source":4},{"sampler":0,"source":0},{"sampler":0,"source":1},{"sampler":0,"source":5},{"sampler":0,"source":6},{"sampler":0,"source":3},{"sampler":0,"source":4},{"sampler":0,"source":3},{"sampler":0,"source":4},{"sampler":0,"source":0},{"sampler":0,"source":1}],"images":[{"uri":"../Textures/T_Stone_BaseColor.png"},{"uri":"../Textures/T_Stone_Normal.png"},{"uri":"../Textures/T_Timber_BaseColor.png"},{"uri":"../Textures/T_Plaster_BaseColor.png"},{"uri":"../Textures/T_Plaster_Normal.png"},{"uri":"../Textures/T_RoofTile_BaseColor.png"},{"uri":"../Textures/T_RoofTile_Normal.png"}],"accessors":[{"bufferView":0,"componentType":5126,"count":152,"type":"VEC3","min":[-12.5,0,-18],"max":[17.5,1.4799805,10.5]},{"bufferView":1,"componentType":5126,"count":152,"type":"VEC3"},{"bufferView":2,"componentType":5126,"count":152,"type":"VEC2"},{"bufferView":3,"componentType":5125,"count":228,"type":"SCALAR"},{"bufferView":4,"componentType":5126,"count":7176,"type":"VEC3","min":[-12.850098,0,-18.350098],"max":[12.850098,5.9799805,1.8500977]},{"bufferView":5,"componentType":5126,"count":7176,"type":"VEC3"},{"bufferView":6,"componentType":5126,"count":7176,"type":"VEC2"},{"bufferView":7,"componentType":5125,"count":10692,"type":"SCALAR"},{"bufferView":8,"componentType":5126,"count":84,"type":"VEC3","min":[-12.5,0.5500488,-18],"max":[12.5,7.1049805,1.5]},{"bufferView":9,"componentType":5126,"count":84,"type":"VEC3"},{"bufferView":10,"componentType":5126,"count":84,"type":"VEC2"},{"bufferView":11,"componentType":5125,"count":108,"type":"SCALAR"},{"bufferView":12,"componentType":5126,"count":448,"type":"VEC3","min":[-12.514893,1.1999512,-18.014893],"max":[12.514893,5.25,1.5148926]},{"bufferView":13,"componentType":5126,"count":448,"type":"VEC3"},{"bufferView":14,"componentType":5126,"count":448,"type":"VEC2"},{"bufferView":15,"componentType":5125,"count":672,"type":"SCALAR"},{"bufferView":16,"componentType":5126,"count":480,"type":"VEC3","min":[-12.679932,0,-18.179932],"max":[12.679932,7.925049,1.6799316]},{"bufferView":17,"componentType":5126,"count":480,"type":"VEC3"},{"bufferView":18,"componentType":5126,"count":480,"type":"VEC2"},{"bufferView":19,"componentType":5125,"count":720,"type":"SCALAR"},{"bufferView":20,"componentType":5126,"count":232,"type":"VEC3","min":[-12.850098,3.8798828,-18.350098],"max":[12.850098,7.2351074,1.8500977]},{"bufferView":21,"componentType":5126,"count":232,"type":"VEC3"},{"bufferView":22,"componentType":5126,"count":232,"type":"VEC2"},{"bufferView":23,"componentType":5125,"count":336,"type":"SCALAR"},{"bufferView":24,"componentType":5126,"count":42,"type":"VEC3","min":[9.5,0.5500488,-16],"max":[12.5,6.1049805,0]},{"bufferView":25,"componentType":5126,"count":42,"type":"VEC3"},{"bufferView":26,"componentType":5126,"count":42,"type":"VEC2"},{"bufferView":27,"componentType":5125,"count":54,"type":"SCALAR"},{"bufferView":28,"componentType":5126,"count":42,"type":"VEC3","min":[-12.5,0.5500488,-16],"max":[-9.5,6.1049805,0]},{"bufferView":29,"componentType":5126,"count":42,"type":"VEC3"},{"bufferView":30,"componentType":5126,"count":42,"type":"VEC2"},{"bufferView":31,"componentType":5125,"count":54,"type":"SCALAR"},{"bufferView":32,"componentType":5126,"count":72,"type":"VEC3","min":[-11.540039,1.2800293,-5.040039],"max":[17.54004,1.6000977,10.540039]},{"bufferView":33,"componentType":5126,"count":72,"type":"VEC3"},{"bufferView":34,"componentType":5126,"count":72,"type":"VEC2"},{"bufferView":35,"componentType":5125,"count":108,"type":"SCALAR"}],"bufferViews":[{"buffer":0,"byteOffset":0,"byteLength":1824,"target":34962},{"buffer":0,"byteOffset":1824,"byteLength":1824,"target":34962},{"buffer":0,"byteOffset":3648,"byteLength":1216,"target":34962},{"buffer":0,"byteOffset":4864,"byteLength":912,"target":34963},{"buffer":0,"byteOffset":5776,"byteLength":86112,"target":34962},{"buffer":0,"byteOffset":91888,"byteLength":86112,"target":34962},{"buffer":0,"byteOffset":178000,"byteLength":57408,"target":34962},{"buffer":0,"byteOffset":235408,"byteLength":42768,"target":34963},{"buffer":0,"byteOffset":278176,"byteLength":1008,"target":34962},{"buffer":0,"byteOffset":279184,"byteLength":1008,"target":34962},{"buffer":0,"byteOffset":280192,"byteLength":672,"target":34962},{"buffer":0,"byteOffset":280864,"byteLength":432,"target":34963},{"buffer":0,"byteOffset":281296,"byteLength":5376,"target":34962},{"buffer":0,"byteOffset":286672,"byteLength":5376,"target":34962},{"buffer":0,"byteOffset":292048,"byteLength":3584,"target":34962},{"buffer":0,"byteOffset":295632,"byteLength":2688,"target":34963},{"buffer":0,"byteOffset":298320,"byteLength":5760,"target":34962},{"buffer":0,"byteOffset":304080,"byteLength":5760,"target":34962},{"buffer":0,"byteOffset":309840,"byteLength":3840,"target":34962},{"buffer":0,"byteOffset":313680,"byteLength":2880,"target":34963},{"buffer":0,"byteOffset":316560,"byteLength":2784,"target":34962},{"buffer":0,"byteOffset":319344,"byteLength":2784,"target":34962},{"buffer":0,"byteOffset":322128,"byteLength":1856,"target":34962},{"buffer":0,"byteOffset":323984,"byteLength":1344,"target":34963},{"buffer":0,"byteOffset":325328,"byteLength":504,"target":34962},{"buffer":0,"byteOffset":325832,"byteLength":504,"target":34962},{"buffer":0,"byteOffset":326336,"byteLength":336,"target":34962},{"buffer":0,"byteOffset":326672,"byteLength":216,"target":34963},{"buffer":0,"byteOffset":326888,"byteLength":504,"target":34962},{"buffer":0,"byteOffset":327392,"byteLength":504,"target":34962},{"buffer":0,"byteOffset":327896,"byteLength":336,"target":34962},{"buffer":0,"byteOffset":328232,"byteLength":216,"target":34963},{"buffer":0,"byteOffset":328448,"byteLength":864,"target":34962},{"buffer":0,"byteOffset":329312,"byteLength":864,"target":34962},{"buffer":0,"byteOffset":330176,"byteLength":576,"target":34962},{"buffer":0,"byteOffset":330752,"byteLength":432,"target":34963}],"buffers":[{"byteLength":331184,"uri":"data:application/octet-stream;base64,"}]}
