{"asset":{"version":"2.0","generator":"Dark Arisen art kit (procedural, hand-authored)"},"scene":0,"scenes":[{"nodes":[0]}],"nodes":[{"mesh":0,"name":"SM_Art_WarMarker"}],"meshes":[{"name":"SM_Art_WarMarker","primitives":[{"attributes":{"POSITION":0,"NORMAL":1,"TEXCOORD_0":2},"indices":3,"material":0},{"attributes":{"POSITION":4,"NORMAL":5,"TEXCOORD_0":6},"indices":7,"material":1},{"attributes":{"POSITION":8,"NORMAL":9,"TEXCOORD_0":10},"indices":11,"material":2}]}],"materials":[{"name":"M_Art_Stone","pbrMetallicRoughness":{"baseColorFactor":[1,1,1,1],"metallicFactor":0,"roughnessFactor":0.85,"baseColorTexture":{"index":0}},"normalTexture":{"index":1}},{"name":"M_Art_TimberDark","pbrMetallicRoughness":{"baseColorFactor":[0.2294921875,0.1064453125,0.0478515625,1],"metallicFactor":0,"roughnessFactor":0.75,"baseColorTexture":{"index":2}}},{"name":"M_Art_Sash","pbrMetallicRoughness":{"baseColorFactor":[0.5390625,0.013671875,0.005859375,1],"metallicFactor":0,"roughnessFactor":0.85,"baseColorTexture":{"index":3}}}],"samplers":[{"magFilter":9729,"minFilter":9987,"wrapS":10497,"wrapT":10497}],"textures":[{"sampler":0,"source":0},{"sampler":0,"source":1},{"sampler":0,"source":2},{"sampler":0,"source":3}],"images":[{"uri":"../Textures/T_Stone_BaseColor.png"},{"uri":"../Textures/T_Stone_Normal.png"},{"uri":"../Textures/T_Timber_BaseColor.png"},{"uri":"../Textures/T_Fabric_BaseColor.png"}],"accessors":[{"bufferView":0,"componentType":5126,"count":96,"type":"VEC3","min":[-0.3232422,-0.060058594,-0.28295898],"max":[0.3779297,0.4399414,0.30004883]},{"bufferView":1,"componentType":5126,"count":96,"type":"VEC3"},{"bufferView":2,"componentType":5126,"count":96,"type":"VEC2"},{"bufferView":3,"componentType":5125,"count":462,"type":"SCALAR"},{"bufferView":4,"componentType":5126,"count":58,"type":"VEC3","min":[-0.050048828,0,-0.048828125],"max":[0.045166016,3.1999512,0.048828125]},{"bufferView":5,"componentType":5126,"count":58,"type":"VEC3"},{"bufferView":6,"componentType":5126,"count":58,"type":"VEC2"},{"bufferView":7,"componentType":5125,"count":84,"type":"SCALAR"},{"bufferView":8,"componentType":5126,"count":24,"type":"VEC3","min":[-1.2299805,2.3500977,-0.114990234],"max":[-0.030029297,3.1000977,0.10913086]},{"bufferView":9,"componentType":5126,"count":24,"type":"VEC3"},{"bufferView":10,"componentType":5126,"count":24,"type":"VEC2"},{"bufferView":11,"componentType":5125,"count":60,"type":"SCALAR"}],"bufferViews":[{"buffer":0,"byteOffset":0,"byteLength":1152,"target":34962},{"buffer":0,"byteOffset":1152,"byteLength":1152,"target":34962},{"buffer":0,"byteOffset":2304,"byteLength":768,"target":34962},{"buffer":0,"byteOffset":3072,"byteLength":1848,"target":34963},{"buffer":0,"byteOffset":4920,"byteLength":696,"target":34962},{"buffer":0,"byteOffset":5616,"byteLength":696,"target":34962},{"buffer":0,"byteOffset":6312,"byteLength":464,"target":34962},{"buffer":0,"byteOffset":6776,"byteLength":336,"target":34963},{"buffer":0,"byteOffset":7112,"byteLength":288,"target":34962},{"buffer":0,"byteOffset":7400,"byteLength":288,"target":34962},{"buffer":0,"byteOffset":7688,"byteLength":192,"target":34962},{"buffer":0,"byteOffset":7880,"byteLength":240,"target":34963}],"buffers":[{"byteLength":8120,"uri":"data:application/octet-stream;base64,"}]}
