{"asset":{"version":"2.0","generator":"Dark Arisen compact DCC source"},"scene":0,"scenes":[{"nodes":[0]}],"nodes":[{"name":"root","translation":[0,0,0],"children":[1]},{"name":"pelvis","translation":[0,0,0.9],"children":[2,14,17]},{"name":"spine_01","translation":[0,0,0.18],"children":[3]},{"name":"spine_02","translation":[0,0,0.25],"children":[4,6,10]},{"name":"neck_01","translation":[0,0,0.22],"children":[5]},{"name":"head","translation":[0,0,0.18]},{"name":"clavicle_l","translation":[0,0.18,0.18],"children":[7]},{"name":"upperarm_l","translation":[0,0.25,0],"children":[8]},{"name":"lowerarm_l","translation":[0,0.32,-0.08],"children":[9]},{"name":"hand_l","translation":[0,0.27,-0.04]},{"name":"clavicle_r","translation":[0,-0.18,0.18],"children":[11]},{"name":"upperarm_r","translation":[0,-0.25,0],"children":[12]},{"name":"lowerarm_r","translation":[0,-0.32,-0.08],"children":[13]},{"name":"hand_r","translation":[0,-0.27,-0.04],"children":[20]},{"name":"thigh_l","translation":[0,0.13,-0.02],"children":[15]},{"name":"calf_l","translation":[0,0,-0.45],"children":[16]},{"name":"foot_l","translation":[0.12,0,-0.43]},{"name":"thigh_r","translation":[0,-0.13,-0.02],"children":[18]},{"name":"calf_r","translation":[0,0,-0.45],"children":[19]},{"name":"foot_r","translation":[0.12,0,-0.43]},{"name":"weapon_r","translation":[0.2,-0.02,-0.08]}],"skins":[{"name":"JakeSkeleton","inverseBindMatrices":0,"joints":[0,1,2,3,4,5,6,7,8,9,10,11,12,13,14,15,16,17,18,19],"skeleton":0}],"animations":[{"name":"Swim","samplers":[{"input":1,"output":2,"interpolation":"LINEAR"},{"input":3,"output":4,"interpolation":"LINEAR"}],"channels":[{"sampler":0,"target":{"node":7,"path":"rotation"}},{"sampler":1,"target":{"node":11,"path":"rotation"}}]},{"name":"StrugglingSwim","samplers":[{"input":5,"output":6,"interpolation":"LINEAR"},{"input":7,"output":8,"interpolation":"LINEAR"}],"channels":[{"sampler":0,"target":{"node":7,"path":"rotation"}},{"sampler":1,"target":{"node":11,"path":"rotation"}}]},{"name":"WaterExit","samplers":[{"input":9,"output":10,"interpolation":"LINEAR"},{"input":11,"output":12,"interpolation":"LINEAR"}],"channels":[{"sampler":0,"target":{"node":2,"path":"rotation"}},{"sampler":1,"target":{"node":0,"path":"translation"}}]},{"name":"BeachCrawl","samplers":[{"input":13,"output":14,"interpolation":"LINEAR"},{"input":15,"output":16,"interpolation":"LINEAR"},{"input":17,"output":18,"interpolation":"LINEAR"},{"input":19,"output":20,"interpolation":"LINEAR"}],"channels":[{"sampler":0,"target":{"node":14,"path":"rotation"}},{"sampler":1,"target":{"node":17,"path":"rotation"}},{"sampler":2,"target":{"node":7,"path":"rotation"}},{"sampler":3,"target":{"node":11,"path":"rotation"}}]},{"name":"BeachRecover","samplers":[{"input":21,"output":22,"interpolation":"LINEAR"},{"input":23,"output":24,"interpolation":"LINEAR"}],"channels":[{"sampler":0,"target":{"node":0,"path":"rotation"}},{"sampler":1,"target":{"node":0,"path":"translation"}}]},{"name":"InteractReach","samplers":[{"input":25,"output":26,"interpolation":"LINEAR"},{"input":27,"output":28,"interpolation":"LINEAR"},{"input":29,"output":30,"interpolation":"LINEAR"}],"channels":[{"sampler":0,"target":{"node":2,"path":"rotation"}},{"sampler":1,"target":{"node":11,"path":"rotation"}},{"sampler":2,"target":{"node":12,"path":"rotation"}}]},{"name":"Pickup","samplers":[{"input":31,"output":32,"interpolation":"LINEAR"},{"input":33,"output":34,"interpolation":"LINEAR"},{"input":35,"output":36,"interpolation":"LINEAR"}],"channels":[{"sampler":0,"target":{"node":2,"path":"rotation"}},{"sampler":1,"target":{"node":11,"path":"rotation"}},{"sampler":2,"target":{"node":12,"path":"rotation"}}]},{"name":"HelmIdle","samplers":[{"input":37,"output":38,"interpolation":"LINEAR"},{"input":39,"output":40,"interpolation":"LINEAR"}],"channels":[{"sampler":0,"target":{"node":7,"path":"rotation"}},{"sampler":1,"target":{"node":11,"path":"rotation"}}]}],"buffers":[{"byteLength":2520,"uri":"data:application/octet-stream;base64,"}],"bufferViews":[{"buffer":0,"byteOffset":0,"byteLength":1344},{"buffer":0,"byteOffset":1344,"byteLength":12},{"buffer":0,"byteOffset":1356,"byteLength":48},{"buffer":0,"byteOffset":1404,"byteLength":12},{"buffer":0,"byteOffset":1416,"byteLength":48},{"buffer":0,"byteOffset":1464,"byteLength":12},{"buffer":0,"byteOffset":1476,"byteLength":48},{"buffer":0,"byteOffset":1524,"byteLength":12},{"buffer":0,"byteOffset":1536,"byteLength":48},{"buffer":0,"byteOffset":1584,"byteLength":12},{"buffer":0,"byteOffset":1596,"byteLength":48},{"buffer":0,"byteOffset":1644,"byteLength":12},{"buffer":0,"byteOffset":1656,"byteLength":36},{"buffer":0,"byteOffset":1692,"byteLength":12},{"buffer":0,"byteOffset":1704,"byteLength":48},{"buffer":0,"byteOffset":1752,"byteLength":12},{"buffer":0,"byteOffset":1764,"byteLength":48},{"buffer":0,"byteOffset":1812,"byteLength":12},{"buffer":0,"byteOffset":1824,"byteLength":48},{"buffer":0,"byteOffset":1872,"byteLength":12},{"buffer":0,"byteOffset":1884,"byteLength":48},{"buffer":0,"byteOffset":1932,"byteLength":12},{"buffer":0,"byteOffset":1944,"byteLength":48},{"buffer":0,"byteOffset":1992,"byteLength":12},{"buffer":0,"byteOffset":2004,"byteLength":36},{"buffer":0,"byteOffset":2040,"byteLength":12},{"buffer":0,"byteOffset":2052,"byteLength":48},{"buffer":0,"byteOffset":2100,"byteLength":12},{"buffer":0,"byteOffset":2112,"byteLength":48},{"buffer":0,"byteOffset":2160,"byteLength":12},{"buffer":0,"byteOffset":2172,"byteLength":48},{"buffer":0,"byteOffset":2220,"byteLength":12},{"buffer":0,"byteOffset":2232,"byteLength":48},{"buffer":0,"byteOffset":2280,"byteLength":12},{"buffer":0,"byteOffset":2292,"byteLength":48},{"buffer":0,"byteOffset":2340,"byteLength":12},{"buffer":0,"byteOffset":2352,"byteLength":48},{"buffer":0,"byteOffset":2400,"byteLength":12},{"buffer":0,"byteOffset":2412,"byteLength":48},{"buffer":0,"byteOffset":2460,"byteLength":12},{"buffer":0,"byteOffset":2472,"byteLength":48}],"accessors":[{"bufferView":0,"componentType":5126,"count":21,"type":"MAT4"},{"bufferView":1,"componentType":5126,"count":3,"type":"SCALAR","min":[0],"max":[1.2]},{"bufferView":2,"componentType":5126,"count":3,"type":"VEC4"},{"bufferView":3,"componentType":5126,"count":3,"type":"SCALAR","min":[0],"max":[1.2]},{"bufferView":4,"componentType":5126,"count":3,"type":"VEC4"},{"bufferView":5,"componentType":5126,"count":3,"type":"SCALAR","min":[0],"max":[1.1]},{"bufferView":6,"componentType":5126,"count":3,"type":"VEC4"},{"bufferView":7,"componentType":5126,"count":3,"type":"SCALAR","min":[0],"max":[1.1]},{"bufferView":8,"componentType":5126,"count":3,"type":"VEC4"},{"bufferView":9,"componentType":5126,"count":3,"type":"SCALAR","min":[0],"max":[1.4]},{"bufferView":10,"componentType":5126,"count":3,"type":"VEC4"},{"bufferView":11,"componentType":5126,"count":3,"type":"SCALAR","min":[0],"max":[1.4]},{"bufferView":12,"componentType":5126,"count":3,"type":"VEC3"},{"bufferView":13,"componentType":5126,"count":3,"type":"SCALAR","min":[0],"max":[1.3]},{"bufferView":14,"componentType":5126,"count":3,"type":"VEC4"},{"bufferView":15,"componentType":5126,"count":3,"type":"SCALAR","min":[0],"max":[1.3]},{"bufferView":16,"componentType":5126,"count":3,"type":"VEC4"},{"bufferView":17,"componentType":5126,"count":3,"type":"SCALAR","min":[0],"max":[1.3]},{"bufferView":18,"componentType":5126,"count":3,"type":"VEC4"},{"bufferView":19,"componentType":5126,"count":3,"type":"SCALAR","min":[0],"max":[1.3]},{"bufferView":20,"componentType":5126,"count":3,"type":"VEC4"},{"bufferView":21,"componentType":5126,"count":3,"type":"SCALAR","min":[0],"max":[1.65]},{"bufferView":22,"componentType":5126,"count":3,"type":"VEC4"},{"bufferView":23,"componentType":5126,"count":3,"type":"SCALAR","min":[0],"max":[1.65]},{"bufferView":24,"componentType":5126,"count":3,"type":"VEC3"},{"bufferView":25,"componentType":5126,"count":3,"type":"SCALAR","min":[0],"max":[0.75]},{"bufferView":26,"componentType":5126,"count":3,"type":"VEC4"},{"bufferView":27,"componentType":5126,"count":3,"type":"SCALAR","min":[0],"max":[0.75]},{"bufferView":28,"componentType":5126,"count":3,"type":"VEC4"},{"bufferView":29,"componentType":5126,"count":3,"type":"SCALAR","min":[0],"max":[0.75]},{"bufferView":30,"componentType":5126,"count":3,"type":"VEC4"},{"bufferView":31,"componentType":5126,"count":3,"type":"SCALAR","min":[0],"max":[1]},{"bufferView":32,"componentType":5126,"count":3,"type":"VEC4"},{"bufferView":33,"componentType":5126,"count":3,"type":"SCALAR","min":[0],"max":[1]},{"bufferView":34,"componentType":5126,"count":3,"type":"VEC4"},{"bufferView":35,"componentType":5126,"count":3,"type":"SCALAR","min":[0],"max":[1]},{"bufferView":36,"componentType":5126,"count":3,"type":"VEC4"},{"bufferView":37,"componentType":5126,"count":3,"type":"SCALAR","min":[0],"max":[1.8]},{"bufferView":38,"componentType":5126,"count":3,"type":"VEC4"},{"bufferView":39,"componentType":5126,"count":3,"type":"SCALAR","min":[0],"max":[1.8]},{"bufferView":40,"componentType":5126,"count":3,"type":"VEC4"}]}