{"asset":{"version":"2.0","generator":"Dark Arisen compact DCC source"},"scene":0,"scenes":[{"nodes":[0]}],"nodes":[{"name":"root","translation":[0,0,0],"children":[1]},{"name":"pelvis","translation":[0,0,0.9],"children":[2,14,17]},{"name":"spine_01","translation":[0,0,0.18],"children":[3]},{"name":"spine_02","translation":[0,0,0.25],"children":[4,6,10]},{"name":"neck_01","translation":[0,0,0.22],"children":[5]},{"name":"head","translation":[0,0,0.18]},{"name":"clavicle_l","translation":[0,0.18,0.18],"children":[7]},{"name":"upperarm_l","translation":[0,0.25,0],"children":[8]},{"name":"lowerarm_l","translation":[0,0.32,-0.08],"children":[9]},{"name":"hand_l","translation":[0,0.27,-0.04]},{"name":"clavicle_r","translation":[0,-0.18,0.18],"children":[11]},{"name":"upperarm_r","translation":[0,-0.25,0],"children":[12]},{"name":"lowerarm_r","translation":[0,-0.32,-0.08],"children":[13]},{"name":"hand_r","translation":[0,-0.27,-0.04],"children":[20]},{"name":"thigh_l","translation":[0,0.13,-0.02],"children":[15]},{"name":"calf_l","translation":[0,0,-0.45],"children":[16]},{"name":"foot_l","translation":[0.12,0,-0.43]},{"name":"thigh_r","translation":[0,-0.13,-0.02],"children":[18]},{"name":"calf_r","translation":[0,0,-0.45],"children":[19]},{"name":"foot_r","translation":[0.12,0,-0.43]},{"name":"weapon_r","translation":[0.2,-0.02,-0.08]}],"skins":[{"name":"JakeSkeleton","inverseBindMatrices":0,"joints":[0,1,2,3,4,5,6,7,8,9,10,11,12,13,14,15,16,17,18,19],"skeleton":0}],"animations":[{"name":"CombatIdle","samplers":[{"input":1,"output":2,"interpolation":"LINEAR"},{"input":3,"output":4,"interpolation":"LINEAR"}],"channels":[{"sampler":0,"target":{"node":11,"path":"rotation"}},{"sampler":1,"target":{"node":7,"path":"rotation"}}]},{"name":"CombatForward","samplers":[{"input":5,"output":6,"interpolation":"LINEAR"},{"input":7,"output":8,"interpolation":"LINEAR"},{"input":9,"output":10,"interpolation":"LINEAR"},{"input":11,"output":12,"interpolation":"LINEAR"}],"channels":[{"sampler":0,"target":{"node":14,"path":"rotation"}},{"sampler":1,"target":{"node":17,"path":"rotation"}},{"sampler":2,"target":{"node":7,"path":"rotation"}},{"sampler":3,"target":{"node":11,"path":"rotation"}}]},{"name":"CombatBack","samplers":[{"input":13,"output":14,"interpolation":"LINEAR"},{"input":15,"output":16,"interpolation":"LINEAR"},{"input":17,"output":18,"interpolation":"LINEAR"},{"input":19,"output":20,"interpolation":"LINEAR"}],"channels":[{"sampler":0,"target":{"node":14,"path":"rotation"}},{"sampler":1,"target":{"node":17,"path":"rotation"}},{"sampler":2,"target":{"node":7,"path":"rotation"}},{"sampler":3,"target":{"node":11,"path":"rotation"}}]},{"name":"CombatStrafeLeft","samplers":[{"input":21,"output":22,"interpolation":"LINEAR"},{"input":23,"output":24,"interpolation":"LINEAR"},{"input":25,"output":26,"interpolation":"LINEAR"},{"input":27,"output":28,"interpolation":"LINEAR"}],"channels":[{"sampler":0,"target":{"node":14,"path":"rotation"}},{"sampler":1,"target":{"node":17,"path":"rotation"}},{"sampler":2,"target":{"node":7,"path":"rotation"}},{"sampler":3,"target":{"node":11,"path":"rotation"}}]},{"name":"CombatStrafeRight","samplers":[{"input":29,"output":30,"interpolation":"LINEAR"},{"input":31,"output":32,"interpolation":"LINEAR"},{"input":33,"output":34,"interpolation":"LINEAR"},{"input":35,"output":36,"interpolation":"LINEAR"}],"channels":[{"sampler":0,"target":{"node":14,"path":"rotation"}},{"sampler":1,"target":{"node":17,"path":"rotation"}},{"sampler":2,"target":{"node":7,"path":"rotation"}},{"sampler":3,"target":{"node":11,"path":"rotation"}}]}],"buffers":[{"byteLength":3672,"uri":"data:application/octet-stream;base64,"}],"bufferViews":[{"buffer":0,"byteOffset":0,"byteLength":1344},{"buffer":0,"byteOffset":1344,"byteLength":12},{"buffer":0,"byteOffset":1356,"byteLength":48},{"buffer":0,"byteOffset":1404,"byteLength":12},{"buffer":0,"byteOffset":1416,"byteLength":48},{"buffer":0,"byteOffset":1464,"byteLength":12},{"buffer":0,"byteOffset":1476,"byteLength":48},{"buffer":0,"byteOffset":1524,"byteLength":12},{"buffer":0,"byteOffset":1536,"byteLength":48},{"buffer":0,"byteOffset":1584,"byteLength":12},{"buffer":0,"byteOffset":1596,"byteLength":48},{"buffer":0,"byteOffset":1644,"byteLength":12},{"buffer":0,"byteOffset":1656,"byteLength":48},{"buffer":0,"byteOffset":1704,"byteLength":12},{"buffer":0,"byteOffset":1716,"byteLength":48},{"buffer":0,"byteOffset":1764,"byteLength":12},{"buffer":0,"byteOffset":1776,"byteLength":48},{"buffer":0,"byteOffset":1824,"byteLength":12},{"buffer":0,"byteOffset":1836,"byteLength":48},{"buffer":0,"byteOffset":1884,"byteLength":12},{"buffer":0,"byteOffset":1896,"byteLength":48},{"buffer":0,"byteOffset":1944,"byteLength":12},{"buffer":0,"byteOffset":1956,"byteLength":48},{"buffer":0,"byteOffset":2004,"byteLength":12},{"buffer":0,"byteOffset":2016,"byteLength":48},{"buffer":0,"byteOffset":2064,"byteLength":12},{"buffer":0,"byteOffset":2076,"byteLength":48},{"buffer":0,"byteOffset":2124,"byteLength":12},{"buffer":0,"byteOffset":2136,"byteLength":48},{"buffer":0,"byteOffset":2184,"byteLength":12},{"buffer":0,"byteOffset":2196,"byteLength":48},{"buffer":0,"byteOffset":2244,"byteLength":12},{"buffer":0,"byteOffset":2256,"byteLength":48},{"buffer":0,"byteOffset":2304,"byteLength":12},{"buffer":0,"byteOffset":2316,"byteLength":48},{"buffer":0,"byteOffset":2364,"byteLength":12},{"buffer":0,"byteOffset":2376,"byteLength":48},{"buffer":0,"byteOffset":2424,"byteLength":12},{"buffer":0,"byteOffset":2436,"byteLength":48},{"buffer":0,"byteOffset":2484,"byteLength":12},{"buffer":0,"byteOffset":2496,"byteLength":48},{"buffer":0,"byteOffset":2544,"byteLength":12},{"buffer":0,"byteOffset":2556,"byteLength":48},{"buffer":0,"byteOffset":2604,"byteLength":12},{"buffer":0,"byteOffset":2616,"byteLength":48},{"buffer":0,"byteOffset":2664,"byteLength":12},{"buffer":0,"byteOffset":2676,"byteLength":48},{"buffer":0,"byteOffset":2724,"byteLength":12},{"buffer":0,"byteOffset":2736,"byteLength":48},{"buffer":0,"byteOffset":2784,"byteLength":12},{"buffer":0,"byteOffset":2796,"byteLength":48},{"buffer":0,"byteOffset":2844,"byteLength":12},{"buffer":0,"byteOffset":2856,"byteLength":48},{"buffer":0,"byteOffset":2904,"byteLength":12},{"buffer":0,"byteOffset":2916,"byteLength":48},{"buffer":0,"byteOffset":2964,"byteLength":12},{"buffer":0,"byteOffset":2976,"byteLength":48},{"buffer":0,"byteOffset":3024,"byteLength":12},{"buffer":0,"byteOffset":3036,"byteLength":48},{"buffer":0,"byteOffset":3084,"byteLength":12},{"buffer":0,"byteOffset":3096,"byteLength":48},{"buffer":0,"byteOffset":3144,"byteLength":12},{"buffer":0,"byteOffset":3156,"byteLength":36},{"buffer":0,"byteOffset":3192,"byteLength":12},{"buffer":0,"byteOffset":3204,"byteLength":36},{"buffer":0,"byteOffset":3240,"byteLength":12},{"buffer":0,"byteOffset":3252,"byteLength":36},{"buffer":0,"byteOffset":3288,"byteLength":12},{"buffer":0,"byteOffset":3300,"byteLength":36},{"buffer":0,"byteOffset":3336,"byteLength":12},{"buffer":0,"byteOffset":3348,"byteLength":48},{"buffer":0,"byteOffset":3396,"byteLength":12},{"buffer":0,"byteOffset":3408,"byteLength":48},{"buffer":0,"byteOffset":3456,"byteLength":12},{"buffer":0,"byteOffset":3468,"byteLength":48},{"buffer":0,"byteOffset":3516,"byteLength":12},{"buffer":0,"byteOffset":3528,"byteLength":36},{"buffer":0,"byteOffset":3564,"byteLength":12},{"buffer":0,"byteOffset":3576,"byteLength":48},{"buffer":0,"byteOffset":3624,"byteLength":12},{"buffer":0,"byteOffset":3636,"byteLength":36}],"accessors":[{"bufferView":0,"componentType":5126,"count":21,"type":"MAT4"},{"bufferView":1,"componentType":5126,"count":3,"type":"SCALAR","min":[0],"max":[1.6]},{"bufferView":2,"componentType":5126,"count":3,"type":"VEC4"},{"bufferView":3,"componentType":5126,"count":3,"type":"SCALAR","min":[0],"max":[1.6]},{"bufferView":4,"componentType":5126,"count":3,"type":"VEC4"},{"bufferView":5,"componentType":5126,"count":3,"type":"SCALAR","min":[0],"max":[0.8]},{"bufferView":6,"componentType":5126,"count":3,"type":"VEC4"},{"bufferView":7,"componentType":5126,"count":3,"type":"SCALAR","min":[0],"max":[0.8]},{"bufferView":8,"componentType":5126,"count":3,"type":"VEC4"},{"bufferView":9,"componentType":5126,"count":3,"type":"SCALAR","min":[0],"max":[0.8]},{"bufferView":10,"componentType":5126,"count":3,"type":"VEC4"},{"bufferView":11,"componentType":5126,"count":3,"type":"SCALAR","min":[0],"max":[0.8]},{"bufferView":12,"componentType":5126,"count":3,"type":"VEC4"},{"bufferView":13,"componentType":5126,"count":3,"type":"SCALAR","min":[0],"max":[0.8]},{"bufferView":14,"componentType":5126,"count":3,"type":"VEC4"},{"bufferView":15,"componentType":5126,"count":3,"type":"SCALAR","min":[0],"max":[0.8]},{"bufferView":16,"componentType":5126,"count":3,"type":"VEC4"},{"bufferView":17,"componentType":5126,"count":3,"type":"SCALAR","min":[0],"max":[0.8]},{"bufferView":18,"componentType":5126,"count":3,"type":"VEC4"},{"bufferView":19,"componentType":5126,"count":3,"type":"SCALAR","min":[0],"max":[0.8]},{"bufferView":20,"componentType":5126,"count":3,"type":"VEC4"},{"bufferView":21,"componentType":5126,"count":3,"type":"SCALAR","min":[0],"max":[0.8]},{"bufferView":22,"componentType":5126,"count":3,"type":"VEC4"},{"bufferView":23,"componentType":5126,"count":3,"type":"SCALAR","min":[0],"max":[0.8]},{"bufferView":24,"componentType":5126,"count":3,"type":"VEC4"},{"bufferView":25,"componentType":5126,"count":3,"type":"SCALAR","min":[0],"max":[0.8]},{"bufferView":26,"componentType":5126,"count":3,"type":"VEC4"},{"bufferView":27,"componentType":5126,"count":3,"type":"SCALAR","min":[0],"max":[0.8]},{"bufferView":28,"componentType":5126,"count":3,"type":"VEC4"},{"bufferView":29,"componentType":5126,"count":3,"type":"SCALAR","min":[0],"max":[0.8]},{"bufferView":30,"componentType":5126,"count":3,"type":"VEC4"},{"bufferView":31,"componentType":5126,"count":3,"type":"SCALAR","min":[0],"max":[0.8]},{"bufferView":32,"componentType":5126,"count":3,"type":"VEC4"},{"bufferView":33,"componentType":5126,"count":3,"type":"SCALAR","min":[0],"max":[0.8]},{"bufferView":34,"componentType":5126,"count":3,"type":"VEC4"},{"bufferView":35,"componentType":5126,"count":3,"type":"SCALAR","min":[0],"max":[0.8]},{"bufferView":36,"componentType":5126,"count":3,"type":"VEC4"},{"bufferView":37,"componentType":5126,"count":3,"type":"SCALAR","min":[0],"max":[0.72]},{"bufferView":38,"componentType":5126,"count":3,"type":"VEC4"},{"bufferView":39,"componentType":5126,"count":3,"type":"SCALAR","min":[0],"max":[0.72]},{"bufferView":40,"componentType":5126,"count":3,"type":"VEC4"},{"bufferView":41,"componentType":5126,"count":3,"type":"SCALAR","min":[0],"max":[0.72]},{"bufferView":42,"componentType":5126,"count":3,"type":"VEC4"},{"bufferView":43,"componentType":5126,"count":3,"type":"SCALAR","min":[0],"max":[0.78]},{"bufferView":44,"componentType":5126,"count":3,"type":"VEC4"},{"bufferView":45,"componentType":5126,"count":3,"type":"SCALAR","min":[0],"max":[0.78]},{"bufferView":46,"componentType":5126,"count":3,"type":"VEC4"},{"bufferView":47,"componentType":5126,"count":3,"type":"SCALAR","min":[0],"max":[0.78]},{"bufferView":48,"componentType":5126,"count":3,"type":"VEC4"},{"bufferView":49,"componentType":5126,"count":3,"type":"SCALAR","min":[0],"max":[1.15]},{"bufferView":50,"componentType":5126,"count":3,"type":"VEC4"},{"bufferView":51,"componentType":5126,"count":3,"type":"SCALAR","min":[0],"max":[1.15]},{"bufferView":52,"componentType":5126,"count":3,"type":"VEC4"},{"bufferView":53,"componentType":5126,"count":3,"type":"SCALAR","min":[0],"max":[1.15]},{"bufferView":54,"componentType":5126,"count":3,"type":"VEC4"},{"bufferView":55,"componentType":5126,"count":3,"type":"SCALAR","min":[0],"max":[0.42]},{"bufferView":56,"componentType":5126,"count":3,"type":"VEC4"},{"bufferView":57,"componentType":5126,"count":3,"type":"SCALAR","min":[0],"max":[0.42]},{"bufferView":58,"componentType":5126,"count":3,"type":"VEC4"},{"bufferView":59,"componentType":5126,"count":3,"type":"SCALAR","min":[0],"max":[0.42]},{"bufferView":60,"componentType":5126,"count":3,"type":"VEC4"},{"bufferView":61,"componentType":5126,"count":3,"type":"SCALAR","min":[0],"max":[0.65]},{"bufferView":62,"componentType":5126,"count":3,"type":"VEC3"},{"bufferView":63,"componentType":5126,"count":3,"type":"SCALAR","min":[0],"max":[0.65]},{"bufferView":64,"componentType":5126,"count":3,"type":"VEC3"},{"bufferView":65,"componentType":5126,"count":3,"type":"SCALAR","min":[0],"max":[0.65]},{"bufferView":66,"componentType":5126,"count":3,"type":"VEC3"},{"bufferView":67,"componentType":5126,"count":3,"type":"SCALAR","min":[0],"max":[0.6]},{"bufferView":68,"componentType":5126,"count":3,"type":"VEC3"},{"bufferView":69,"componentType":5126,"count":3,"type":"SCALAR","min":[0],"max":[0.48]},{"bufferView":70,"componentType":5126,"count":3,"type":"VEC4"},{"bufferView":71,"componentType":5126,"count":3,"type":"SCALAR","min":[0],"max":[0.48]},{"bufferView":72,"componentType":5126,"count":3,"type":"VEC4"},{"bufferView":73,"componentType":5126,"count":3,"type":"SCALAR","min":[0],"max":[0.85]},{"bufferView":74,"componentType":5126,"count":3,"type":"VEC4"},{"bufferView":75,"componentType":5126,"count":3,"type":"SCALAR","min":[0],"max":[0.85]},{"bufferView":76,"componentType":5126,"count":3,"type":"VEC3"},{"bufferView":77,"componentType":5126,"count":3,"type":"SCALAR","min":[0],"max":[1.75]},{"bufferView":78,"componentType":5126,"count":3,"type":"VEC4"},{"bufferView":79,"componentType":5126,"count":3,"type":"SCALAR","min":[0],"max":[1.75]},{"bufferView":80,"componentType":5126,"count":3,"type":"VEC3"}]}