{
 "accessors": [
  {
   "bufferView": 0,
   "componentType": 5126,
   "count": 21,
   "type": "MAT4"
  },
  {
   "bufferView": 1,
   "componentType": 5126,
   "count": 56,
   "max": [
    0.20000000298023224,
    1.899999976158142,
    0.7799999713897705
   ],
   "min": [
    -0.20000000298023224,
    0.3400000035762787,
    -0.7799999713897705
   ],
   "type": "VEC3"
  },
  {
   "bufferView": 2,
   "componentType": 5121,
   "count": 56,
   "type": "VEC4"
  },
  {
   "bufferView": 3,
   "componentType": 5126,
   "count": 56,
   "type": "VEC4"
  },
  {
   "bufferView": 4,
   "componentType": 5123,
   "count": 252,
   "type": "SCALAR"
  }
 ],
 "asset": {
  "generator": "Dark Arisen Alpha DCC + DarkArisenO3DE frame conversion",
  "version": "2.0"
 },
 "bufferViews": [
  {
   "buffer": 0,
   "byteLength": 1344,
   "byteOffset": 0
  },
  {
   "buffer": 0,
   "byteLength": 672,
   "byteOffset": 1344
  },
  {
   "buffer": 0,
   "byteLength": 224,
   "byteOffset": 2016
  },
  {
   "buffer": 0,
   "byteLength": 896,
   "byteOffset": 2240
  },
  {
   "buffer": 0,
   "byteLength": 504,
   "byteOffset": 3136
  }
 ],
 "buffers": [
  {
   "byteLength": 3640,
   "uri": "data:application/octet-stream;base64,"
  }
 ],
 "materials": [
  {
   "pbrMetallicRoughness": {
    "baseColorFactor": [
     0.2,
     0.16,
     0.12,
     1
    ],
    "roughnessFactor": 0.75
   }
  }
 ],
 "meshes": [
  {
   "name": "JakeBody",
   "primitives": [
    {
     "attributes": {
      "POSITION": 1
     },
     "indices": 4,
     "material": 0
    }
   ]
  }
 ],
 "nodes": [
  {
   "mesh": 0,
   "name": "JakeBody"
  }
 ],
 "scene": 0,
 "scenes": [
  {
   "nodes": [
    0
   ]
  }
 ]
}
