{
 "accessors": [
  {
   "bufferView": 0,
   "componentType": 5126,
   "count": 40,
   "max": [
    3.5999999046325684,
    5.599999904632568,
    0.75
   ],
   "min": [
    -3.5999999046325684,
    0.44999998807907104,
    -0.75
   ],
   "type": "VEC3"
  },
  {
   "bufferView": 1,
   "componentType": 5123,
   "count": 180,
   "type": "SCALAR"
  }
 ],
 "asset": {
  "generator": "Dark Arisen Alpha source + DarkArisenO3DE frame conversion",
  "version": "2.0"
 },
 "bufferViews": [
  {
   "buffer": 0,
   "byteLength": 480,
   "byteOffset": 0
  },
  {
   "buffer": 0,
   "byteLength": 360,
   "byteOffset": 480
  }
 ],
 "buffers": [
  {
   "byteLength": 840,
   "uri": "data:application/octet-stream;base64,"
  }
 ],
 "materials": [
  {
   "pbrMetallicRoughness": {
    "baseColorFactor": [
     0.025,
     0.025,
     0.03,
     1
    ],
    "roughnessFactor": 0.82
   }
  }
 ],
 "meshes": [
  {
   "primitives": [
    {
     "attributes": {
      "POSITION": 0
     },
     "indices": 1,
     "material": 0
    }
   ]
  }
 ],
 "nodes": [
  {
   "mesh": 0,
   "name": "SM_DravenRaidSilhouette_Alpha"
  }
 ],
 "scene": 0,
 "scenes": [
  {
   "nodes": [
    0
   ]
  }
 ]
}
