{"asset":{"version":"2.0","generator":"Dark Arisen art kit collision"},"scene":0,"scenes":[{"nodes":[0]}],"nodes":[{"mesh":0,"name":"SM_Art_BoardingStair_410x252x112_Collision"}],"meshes":[{"name":"SM_Art_BoardingStair_410x252x112_Collision","primitives":[{"attributes":{"POSITION":0,"NORMAL":1,"TEXCOORD_0":2},"indices":3,"material":0}]}],"materials":[{"name":"Collision","pbrMetallicRoughness":{"baseColorFactor":[1,1,1,1],"metallicFactor":0,"roughnessFactor":0.8}}],"accessors":[{"bufferView":0,"componentType":5126,"count":504,"type":"VEC3","min":[-0.5500488,0,0],"max":[0.5500488,2.5200195,5.3999023]},{"bufferView":1,"componentType":5126,"count":504,"type":"VEC3"},{"bufferView":2,"componentType":5126,"count":504,"type":"VEC2"},{"bufferView":3,"componentType":5125,"count":504,"type":"SCALAR"}],"bufferViews":[{"buffer":0,"byteOffset":0,"byteLength":6048,"target":34962},{"buffer":0,"byteOffset":6048,"byteLength":6048,"target":34962},{"buffer":0,"byteOffset":12096,"byteLength":4032,"target":34962},{"buffer":0,"byteOffset":16128,"byteLength":2016,"target":34963}],"buffers":[{"byteLength":18144,"uri":"data:application/octet-stream;base64,"}]}
