{"asset":{"version":"2.0","generator":"Dark Arisen art kit collision"},"scene":0,"scenes":[{"nodes":[0]}],"nodes":[{"mesh":0,"name":"SM_Art_LaLiberacion_Collision"}],"meshes":[{"name":"SM_Art_LaLiberacion_Collision","primitives":[{"attributes":{"POSITION":0,"NORMAL":1,"TEXCOORD_0":2},"indices":3,"material":0}]}],"materials":[{"name":"Collision","pbrMetallicRoughness":{"baseColorFactor":[1,1,1,1],"metallicFactor":0,"roughnessFactor":0.8}}],"accessors":[{"bufferView":0,"componentType":5126,"count":3762,"type":"VEC3","min":[-15.5,-2.6000977,-4.2995605],"max":[13.100098,6.6000977,4.2995605]},{"bufferView":1,"componentType":5126,"count":3762,"type":"VEC3"},{"bufferView":2,"componentType":5126,"count":3762,"type":"VEC2"},{"bufferView":3,"componentType":5125,"count":3762,"type":"SCALAR"}],"bufferViews":[{"buffer":0,"byteOffset":0,"byteLength":45144,"target":34962},{"buffer":0,"byteOffset":45144,"byteLength":45144,"target":34962},{"buffer":0,"byteOffset":90288,"byteLength":30096,"target":34962},{"buffer":0,"byteOffset":120384,"byteLength":15048,"target":34963}],"buffers":[{"byteLength":135432,"uri":"data:application/octet-stream;base64,"}]}
