{
 "accessors": [
  {
   "bufferView": 0,
   "componentType": 5126,
   "count": 80,
   "max": [
    0.20000000298023224,
    0.949999988079071,
    0.8999999761581421
   ],
   "min": [
    -7.800000190734863,
    -0.44999998807907104,
    -0.8999999761581421
   ],
   "type": "VEC3"
  },
  {
   "bufferView": 1,
   "componentType": 5123,
   "count": 360,
   "type": "SCALAR"
  }
 ],
 "asset": {
  "generator": "Dark Arisen Alpha source + DarkArisenO3DE frame conversion",
  "version": "2.0"
 },
 "bufferViews": [
  {
   "buffer": 0,
   "byteLength": 960,
   "byteOffset": 0
  },
  {
   "buffer": 0,
   "byteLength": 720,
   "byteOffset": 960
  }
 ],
 "buffers": [
  {
   "byteLength": 1680,
   "uri": "data:application/octet-stream;base64,"
  }
 ],
 "materials": [
  {
   "pbrMetallicRoughness": {
    "baseColorFactor": [
     0.12,
     0.2,
     0.09,
     1
    ],
    "roughnessFactor": 0.8
   }
  }
 ],
 "meshes": [
  {
   "name": "SM_MangrovesRoute_Alpha",
   "primitives": [
    {
     "attributes": {
      "POSITION": 0
     },
     "indices": 1,
     "material": 0
    }
   ]
  }
 ],
 "nodes": [
  {
   "mesh": 0,
   "name": "SM_MangrovesRoute_Alpha"
  }
 ],
 "scene": 0,
 "scenes": [
  {
   "nodes": [
    0
   ]
  }
 ]
}
