{"asset":{"version":"2.0","generator":"Dark Arisen authored Alpha Chapter 03 source"},"scene":0,"scenes":[{"nodes":[0]}],"nodes":[{"name":"SM_ArmadaTenderWreckCove_Alpha","mesh":0}],"meshes":[{"name":"SM_ArmadaTenderWreckCove_Alpha","primitives":[{"attributes":{"POSITION":0},"indices":1,"material":0}]}],"materials":[{"pbrMetallicRoughness":{"baseColorFactor":[0.22,0.2,0.18,1],"roughnessFactor":0.86}}],"buffers":[{"byteLength":1008,"uri":"data:application/octet-stream;base64,"}],"bufferViews":[{"buffer":0,"byteOffset":0,"byteLength":576,"target":34962},{"buffer":0,"byteOffset":576,"byteLength":432,"target":34963}],"accessors":[{"bufferView":0,"componentType":5126,"count":48,"type":"VEC3","min":[-14.0,-10.0,0.0],"max":[12.5,9.5,7.2]},{"bufferView":1,"componentType":5123,"count":216,"type":"SCALAR"}]}
