{"asset":{"version":"2.0","generator":"Dark Arisen authored Alpha Chapter 03 source"},"scene":0,"scenes":[{"nodes":[0]}],"nodes":[{"name":"SM_RexaWarehouseQuarter_Alpha","mesh":0}],"meshes":[{"name":"SM_RexaWarehouseQuarter_Alpha","primitives":[{"attributes":{"POSITION":0},"indices":1,"material":0}]}],"materials":[{"pbrMetallicRoughness":{"baseColorFactor":[0.34,0.29,0.22,1],"roughnessFactor":0.86}}],"buffers":[{"byteLength":840,"uri":"data:application/octet-stream;base64,"}],"bufferViews":[{"buffer":0,"byteOffset":0,"byteLength":480,"target":34962},{"buffer":0,"byteOffset":480,"byteLength":360,"target":34963}],"accessors":[{"bufferView":0,"componentType":5126,"count":40,"type":"VEC3","min":[-12.0,-8.0,0.0],"max":[13.0,9.0,5.2]},{"bufferView":1,"componentType":5123,"count":180,"type":"SCALAR"}]}
