{"asset":{"generator":"DarkArisen OpenSource3D alpha prop generator","version":"2.0"},"scene":0,"scenes":[{"nodes":[0]}],"nodes":[{"name":"environment.koa_trading_post","children":[1,2,3]},{"name":"01_hut","mesh":0,"translation":[-5.5,0,0]},{"name":"02_palisade","mesh":1,"translation":[0.0,0,0]},{"name":"03_pier","mesh":2,"translation":[5.5,0,0]}],"meshes":[{"name":"01_hut","primitives":[{"attributes":{"POSITION":1,"NORMAL":2,"TEXCOORD_0":3},"indices":0,"material":0,"mode":4},{"attributes":{"POSITION":5,"NORMAL":6,"TEXCOORD_0":7},"indices":4,"material":1,"mode":4},{"attributes":{"POSITION":9,"NORMAL":10,"TEXCOORD_0":11},"indices":8,"material":2,"mode":4}]},{"name":"02_palisade","primitives":[{"attributes":{"POSITION":13,"NORMAL":14,"TEXCOORD_0":15},"indices":12,"material":1,"mode":4},{"attributes":{"POSITION":17,"NORMAL":18,"TEXCOORD_0":19},"indices":16,"material":3,"mode":4}]},{"name":"03_pier","primitives":[{"attributes":{"POSITION":21,"NORMAL":22,"TEXCOORD_0":23},"indices":20,"material":1,"mode":4},{"attributes":{"POSITION":25,"NORMAL":26,"TEXCOORD_0":27},"indices":24,"material":4,"mode":4}]}],"materials":[{"name":"plaster","pbrMetallicRoughness":{"baseColorTexture":{"index":0},"metallicFactor":0.0,"roughnessFactor":0.94},"doubleSided":false},{"name":"oak","pbrMetallicRoughness":{"baseColorTexture":{"index":1},"metallicFactor":0.0,"roughnessFactor":0.83},"doubleSided":false},{"name":"roof","pbrMetallicRoughness":{"baseColorTexture":{"index":2},"metallicFactor":0.0,"roughnessFactor":0.91},"doubleSided":false},{"name":"oak_light","pbrMetallicRoughness":{"baseColorTexture":{"index":3},"metallicFactor":0.0,"roughnessFactor":0.78},"doubleSided":false},{"name":"iron","pbrMetallicRoughness":{"baseColorTexture":{"index":4},"metallicFactor":0.72,"roughnessFactor":0.62},"doubleSided":false}],"textures":[{"source":0},{"source":1},{"source":2},{"source":3},{"source":4}],"images":[{"name":"plaster_grain","bufferView":0,"mimeType":"image/png"},{"name":"oak_grain","bufferView":1,"mimeType":"image/png"},{"name":"roof_grain","bufferView":2,"mimeType":"image/png"},{"name":"oak_light_grain","bufferView":3,"mimeType":"image/png"},{"name":"iron_grain","bufferView":4,"mimeType":"image/png"}],"samplers":[{"wrapS":10497,"wrapT":10497}],"buffers":[{"byteLength":68564,"uri":"data:application/octet-stream;base64,"}],"bufferViews":[{"buffer":0,"byteOffset":0,"byteLength":640},{"buffer":0,"byteOffset":640,"byteLength":792},{"buffer":0,"byteOffset":1432,"byteLength":527},{"buffer":0,"byteOffset":1960,"byteLength":887},{"buffer":0,"byteOffset":2848,"byteLength":481},{"buffer":0,"byteOffset":3332,"byteLength":144,"target":34963},{"buffer":0,"byteOffset":3476,"byteLength":432,"target":34962},{"buffer":0,"byteOffset":3908,"byteLength":432,"target":34962},{"buffer":0,"byteOffset":4340,"byteLength":288,"target":34962},{"buffer":0,"byteOffset":4628,"byteLength":1152,"target":34963},{"buffer":0,"byteOffset":5780,"byteLength":3456,"target":34962},{"buffer":0,"byteOffset":9236,"byteLength":3456,"target":34962},{"buffer":0,"byteOffset":12692,"byteLength":2304,"target":34962},{"buffer":0,"byteOffset":14996,"byteLength":96,"target":34963},{"buffer":0,"byteOffset":15092,"byteLength":288,"target":34962},{"buffer":0,"byteOffset":15380,"byteLength":288,"target":34962},{"buffer":0,"byteOffset":15668,"byteLength":192,"target":34962},{"buffer":0,"byteOffset":15860,"byteLength":2880,"target":34963},{"buffer":0,"byteOffset":18740,"byteLength":8640,"target":34962},{"buffer":0,"byteOffset":27380,"byteLength":8640,"target":34962},{"buffer":0,"byteOffset":36020,"byteLength":5760,"target":34962},{"buffer":0,"byteOffset":41780,"byteLength":288,"target":34963},{"buffer":0,"byteOffset":42068,"byteLength":864,"target":34962},{"buffer":0,"byteOffset":42932,"byteLength":864,"target":34962},{"buffer":0,"byteOffset":43796,"byteLength":576,"target":34962},{"buffer":0,"byteOffset":44372,"byteLength":2400,"target":34963},{"buffer":0,"byteOffset":46772,"byteLength":7200,"target":34962},{"buffer":0,"byteOffset":53972,"byteLength":7200,"target":34962},{"buffer":0,"byteOffset":61172,"byteLength":4800,"target":34962},{"buffer":0,"byteOffset":65972,"byteLength":288,"target":34963},{"buffer":0,"byteOffset":66260,"byteLength":864,"target":34962},{"buffer":0,"byteOffset":67124,"byteLength":864,"target":34962},{"buffer":0,"byteOffset":67988,"byteLength":576,"target":34962}],"accessors":[{"bufferView":5,"componentType":5125,"count":36,"type":"SCALAR"},{"bufferView":6,"componentType":5126,"count":36,"type":"VEC3","min":[-1.325,0.05999999999999994,-0.925],"max":[1.325,1.8599999999999999,0.925]},{"bufferView":7,"componentType":5126,"count":36,"type":"VEC3"},{"bufferView":8,"componentType":5126,"count":36,"type":"VEC2"},{"bufferView":9,"componentType":5125,"count":288,"type":"SCALAR"},{"bufferView":10,"componentType":5126,"count":288,"type":"VEC3","min":[-1.295,0.0,-1.1613597196555192],"max":[1.295,2.6538195561212388,0.9099999999999999]},{"bufferView":11,"componentType":5126,"count":288,"type":"VEC3"},{"bufferView":12,"componentType":5126,"count":288,"type":"VEC2"},{"bufferView":13,"componentType":5125,"count":24,"type":"SCALAR"},{"bufferView":14,"componentType":5126,"count":24,"type":"VEC3","min":[-1.46,1.88,-1.12],"max":[1.46,2.6,1.12]},{"bufferView":15,"componentType":5126,"count":24,"type":"VEC3"},{"bufferView":16,"componentType":5126,"count":24,"type":"VEC2"},{"bufferView":17,"componentType":5125,"count":720,"type":"SCALAR"},{"bufferView":18,"componentType":5126,"count":720,"type":"VEC3","min":[-1.5422243186433546,0.0,-0.17],"max":[1.5422243186433546,2.47,0.17]},{"bufferView":19,"componentType":5126,"count":720,"type":"VEC3"},{"bufferView":20,"componentType":5126,"count":720,"type":"VEC2"},{"bufferView":21,"componentType":5125,"count":72,"type":"SCALAR"},{"bufferView":22,"componentType":5126,"count":72,"type":"VEC3","min":[-1.55,0.33999999999999997,0.135],"max":[1.55,1.4300000000000002,0.265]},{"bufferView":23,"componentType":5126,"count":72,"type":"VEC3"},{"bufferView":24,"componentType":5126,"count":72,"type":"VEC2"},{"bufferView":25,"componentType":5125,"count":600,"type":"SCALAR"},{"bufferView":26,"componentType":5126,"count":600,"type":"VEC3","min":[-1.0,-0.35,-1.29],"max":[1.0,0.89,1.29]},{"bufferView":27,"componentType":5126,"count":600,"type":"VEC3"},{"bufferView":28,"componentType":5126,"count":600,"type":"VEC2"},{"bufferView":29,"componentType":5125,"count":72,"type":"SCALAR"},{"bufferView":30,"componentType":5126,"count":72,"type":"VEC3","min":[-0.8524999999999999,0.41000000000000003,-1.3],"max":[0.8524999999999999,0.49,1.3]},{"bufferView":31,"componentType":5126,"count":72,"type":"VEC3"},{"bufferView":32,"componentType":5126,"count":72,"type":"VEC2"}]}
