{"asset":{"generator":"DarkArisen OpenSource3D alpha prop generator","version":"2.0"},"scene":0,"scenes":[{"nodes":[0]}],"nodes":[{"name":"environment.quiet_coast","children":[1,2,3]},{"name":"01_house","mesh":0,"translation":[-5.5,0,0]},{"name":"02_pier","mesh":1,"translation":[0.0,0,0]},{"name":"03_palm","mesh":2,"translation":[5.5,0,0]}],"meshes":[{"name":"01_house","primitives":[{"attributes":{"POSITION":1,"NORMAL":2,"TEXCOORD_0":3},"indices":0,"material":0,"mode":4},{"attributes":{"POSITION":5,"NORMAL":6,"TEXCOORD_0":7},"indices":4,"material":1,"mode":4},{"attributes":{"POSITION":9,"NORMAL":10,"TEXCOORD_0":11},"indices":8,"material":2,"mode":4},{"attributes":{"POSITION":13,"NORMAL":14,"TEXCOORD_0":15},"indices":12,"material":3,"mode":4},{"attributes":{"POSITION":17,"NORMAL":18,"TEXCOORD_0":19},"indices":16,"material":4,"mode":4}]},{"name":"02_pier","primitives":[{"attributes":{"POSITION":21,"NORMAL":22,"TEXCOORD_0":23},"indices":20,"material":1,"mode":4},{"attributes":{"POSITION":25,"NORMAL":26,"TEXCOORD_0":27},"indices":24,"material":5,"mode":4}]},{"name":"03_palm","primitives":[{"attributes":{"POSITION":29,"NORMAL":30,"TEXCOORD_0":31},"indices":28,"material":1,"mode":4},{"attributes":{"POSITION":33,"NORMAL":34,"TEXCOORD_0":35},"indices":32,"material":6,"mode":4}]}],"materials":[{"name":"plaster","pbrMetallicRoughness":{"baseColorTexture":{"index":0},"metallicFactor":0.0,"roughnessFactor":0.94},"doubleSided":false},{"name":"oak","pbrMetallicRoughness":{"baseColorTexture":{"index":1},"metallicFactor":0.0,"roughnessFactor":0.83},"doubleSided":false},{"name":"black_iron","pbrMetallicRoughness":{"baseColorTexture":{"index":2},"metallicFactor":0.65,"roughnessFactor":0.73},"doubleSided":false},{"name":"roof","pbrMetallicRoughness":{"baseColorTexture":{"index":3},"metallicFactor":0.0,"roughnessFactor":0.91},"doubleSided":false},{"name":"stone","pbrMetallicRoughness":{"baseColorTexture":{"index":4},"metallicFactor":0.0,"roughnessFactor":1.0},"doubleSided":false},{"name":"iron","pbrMetallicRoughness":{"baseColorTexture":{"index":5},"metallicFactor":0.72,"roughnessFactor":0.62},"doubleSided":false},{"name":"leaf","pbrMetallicRoughness":{"baseColorTexture":{"index":6},"metallicFactor":0.0,"roughnessFactor":0.92},"doubleSided":true}],"textures":[{"source":0},{"source":1},{"source":2},{"source":3},{"source":4},{"source":5},{"source":6}],"images":[{"name":"plaster_grain","bufferView":0,"mimeType":"image/png"},{"name":"oak_grain","bufferView":1,"mimeType":"image/png"},{"name":"black_iron_grain","bufferView":2,"mimeType":"image/png"},{"name":"roof_grain","bufferView":3,"mimeType":"image/png"},{"name":"stone_grain","bufferView":4,"mimeType":"image/png"},{"name":"iron_grain","bufferView":5,"mimeType":"image/png"},{"name":"leaf_grain","bufferView":6,"mimeType":"image/png"}],"samplers":[{"wrapS":10497,"wrapT":10497}],"buffers":[{"byteLength":53924,"uri":"data:application/octet-stream;base64,"}],"bufferViews":[{"buffer":0,"byteOffset":0,"byteLength":640},{"buffer":0,"byteOffset":640,"byteLength":792},{"buffer":0,"byteOffset":1432,"byteLength":329},{"buffer":0,"byteOffset":1764,"byteLength":527},{"buffer":0,"byteOffset":2292,"byteLength":490},{"buffer":0,"byteOffset":2784,"byteLength":481},{"buffer":0,"byteOffset":3268,"byteLength":544},{"buffer":0,"byteOffset":3812,"byteLength":144,"target":34963},{"buffer":0,"byteOffset":3956,"byteLength":432,"target":34962},{"buffer":0,"byteOffset":4388,"byteLength":432,"target":34962},{"buffer":0,"byteOffset":4820,"byteLength":288,"target":34962},{"buffer":0,"byteOffset":5108,"byteLength":144,"target":34963},{"buffer":0,"byteOffset":5252,"byteLength":432,"target":34962},{"buffer":0,"byteOffset":5684,"byteLength":432,"target":34962},{"buffer":0,"byteOffset":6116,"byteLength":288,"target":34962},{"buffer":0,"byteOffset":6404,"byteLength":144,"target":34963},{"buffer":0,"byteOffset":6548,"byteLength":432,"target":34962},{"buffer":0,"byteOffset":6980,"byteLength":432,"target":34962},{"buffer":0,"byteOffset":7412,"byteLength":288,"target":34962},{"buffer":0,"byteOffset":7700,"byteLength":96,"target":34963},{"buffer":0,"byteOffset":7796,"byteLength":288,"target":34962},{"buffer":0,"byteOffset":8084,"byteLength":288,"target":34962},{"buffer":0,"byteOffset":8372,"byteLength":192,"target":34962},{"buffer":0,"byteOffset":8564,"byteLength":384,"target":34963},{"buffer":0,"byteOffset":8948,"byteLength":1152,"target":34962},{"buffer":0,"byteOffset":10100,"byteLength":1152,"target":34962},{"buffer":0,"byteOffset":11252,"byteLength":768,"target":34962},{"buffer":0,"byteOffset":12020,"byteLength":2400,"target":34963},{"buffer":0,"byteOffset":14420,"byteLength":7200,"target":34962},{"buffer":0,"byteOffset":21620,"byteLength":7200,"target":34962},{"buffer":0,"byteOffset":28820,"byteLength":4800,"target":34962},{"buffer":0,"byteOffset":33620,"byteLength":288,"target":34963},{"buffer":0,"byteOffset":33908,"byteLength":864,"target":34962},{"buffer":0,"byteOffset":34772,"byteLength":864,"target":34962},{"buffer":0,"byteOffset":35636,"byteLength":576,"target":34962},{"buffer":0,"byteOffset":36212,"byteLength":1584,"target":34963},{"buffer":0,"byteOffset":37796,"byteLength":4752,"target":34962},{"buffer":0,"byteOffset":42548,"byteLength":4752,"target":34962},{"buffer":0,"byteOffset":47300,"byteLength":3168,"target":34962},{"buffer":0,"byteOffset":50468,"byteLength":384,"target":34963},{"buffer":0,"byteOffset":50852,"byteLength":1152,"target":34962},{"buffer":0,"byteOffset":52004,"byteLength":1152,"target":34962},{"buffer":0,"byteOffset":53156,"byteLength":768,"target":34962}],"accessors":[{"bufferView":7,"componentType":5125,"count":36,"type":"SCALAR"},{"bufferView":8,"componentType":5126,"count":36,"type":"VEC3","min":[-1.05,0.025000000000000022,-0.875],"max":[1.05,1.6749999999999998,0.875]},{"bufferView":9,"componentType":5126,"count":36,"type":"VEC3"},{"bufferView":10,"componentType":5126,"count":36,"type":"VEC2"},{"bufferView":11,"componentType":5125,"count":36,"type":"SCALAR"},{"bufferView":12,"componentType":5126,"count":36,"type":"VEC3","min":[-0.275,0.125,-0.915],"max":[0.275,1.475,-0.865]},{"bufferView":13,"componentType":5126,"count":36,"type":"VEC3"},{"bufferView":14,"componentType":5126,"count":36,"type":"VEC2"},{"bufferView":15,"componentType":5125,"count":36,"type":"SCALAR"},{"bufferView":16,"componentType":5126,"count":36,"type":"VEC3","min":[-0.8500000000000001,0.96,-0.93],"max":[-0.47000000000000003,1.3599999999999999,-0.89]},{"bufferView":17,"componentType":5126,"count":36,"type":"VEC3"},{"bufferView":18,"componentType":5126,"count":36,"type":"VEC2"},{"bufferView":19,"componentType":5125,"count":24,"type":"SCALAR"},{"bufferView":20,"componentType":5126,"count":24,"type":"VEC3","min":[-1.2,1.68,-1],"max":[1.2,2.23,1]},{"bufferView":21,"componentType":5126,"count":24,"type":"VEC3"},{"bufferView":22,"componentType":5126,"count":24,"type":"VEC2"},{"bufferView":23,"componentType":5125,"count":96,"type":"SCALAR"},{"bufferView":24,"componentType":5126,"count":96,"type":"VEC3","min":[0.59,2.03,-0.020000000000000018],"max":[0.87,2.7,0.26]},{"bufferView":25,"componentType":5126,"count":96,"type":"VEC3"},{"bufferView":26,"componentType":5126,"count":96,"type":"VEC2"},{"bufferView":27,"componentType":5125,"count":600,"type":"SCALAR"},{"bufferView":28,"componentType":5126,"count":600,"type":"VEC3","min":[-1.0,-0.35,-1.29],"max":[1.0,0.89,1.29]},{"bufferView":29,"componentType":5126,"count":600,"type":"VEC3"},{"bufferView":30,"componentType":5126,"count":600,"type":"VEC2"},{"bufferView":31,"componentType":5125,"count":72,"type":"SCALAR"},{"bufferView":32,"componentType":5126,"count":72,"type":"VEC3","min":[-0.8524999999999999,0.41000000000000003,-1.3],"max":[0.8524999999999999,0.49,1.3]},{"bufferView":33,"componentType":5126,"count":72,"type":"VEC3"},{"bufferView":34,"componentType":5126,"count":72,"type":"VEC2"},{"bufferView":35,"componentType":5125,"count":396,"type":"SCALAR"},{"bufferView":36,"componentType":5126,"count":396,"type":"VEC3","min":[-1.1265574989323794,-0.007905444953131212,-1.2565574989323793],"max":[1.3865574989323792,2.754650261737136,1.2565574989323793]},{"bufferView":37,"componentType":5126,"count":396,"type":"VEC3"},{"bufferView":38,"componentType":5126,"count":396,"type":"VEC2"},{"bufferView":39,"componentType":5125,"count":96,"type":"SCALAR"},{"bufferView":40,"componentType":5126,"count":96,"type":"VEC3","min":[-1.2400000000000002,2.28,-1.37],"max":[1.5,2.72,1.37]},{"bufferView":41,"componentType":5126,"count":96,"type":"VEC3"},{"bufferView":42,"componentType":5126,"count":96,"type":"VEC2"}]}
