{"asset":{"generator":"DarkArisen OpenSource3D alpha prop generator","version":"2.0"},"scene":0,"scenes":[{"nodes":[0]}],"nodes":[{"name":"environment.moran_outer_reef","children":[1,2,3]},{"name":"01_reef","mesh":0,"translation":[-5.5,0,0]},{"name":"02_rock","mesh":1,"translation":[0.0,0,0]},{"name":"03_palm","mesh":2,"translation":[5.5,0,0]}],"meshes":[{"name":"01_reef","primitives":[{"attributes":{"POSITION":1,"NORMAL":2,"TEXCOORD_0":3},"indices":0,"material":0,"mode":4},{"attributes":{"POSITION":5,"NORMAL":6,"TEXCOORD_0":7},"indices":4,"material":1,"mode":4}]},{"name":"02_rock","primitives":[{"attributes":{"POSITION":9,"NORMAL":10,"TEXCOORD_0":11},"indices":8,"material":1,"mode":4},{"attributes":{"POSITION":13,"NORMAL":14,"TEXCOORD_0":15},"indices":12,"material":2,"mode":4}]},{"name":"03_palm","primitives":[{"attributes":{"POSITION":17,"NORMAL":18,"TEXCOORD_0":19},"indices":16,"material":3,"mode":4},{"attributes":{"POSITION":21,"NORMAL":22,"TEXCOORD_0":23},"indices":20,"material":4,"mode":4}]}],"materials":[{"name":"coral","pbrMetallicRoughness":{"baseColorTexture":{"index":0},"metallicFactor":0.0,"roughnessFactor":0.89},"doubleSided":false},{"name":"stone","pbrMetallicRoughness":{"baseColorTexture":{"index":1},"metallicFactor":0.0,"roughnessFactor":1.0},"doubleSided":false},{"name":"moss","pbrMetallicRoughness":{"baseColorTexture":{"index":2},"metallicFactor":0.0,"roughnessFactor":0.95},"doubleSided":false},{"name":"oak","pbrMetallicRoughness":{"baseColorTexture":{"index":3},"metallicFactor":0.0,"roughnessFactor":0.83},"doubleSided":false},{"name":"leaf","pbrMetallicRoughness":{"baseColorTexture":{"index":4},"metallicFactor":0.0,"roughnessFactor":0.92},"doubleSided":true}],"textures":[{"source":0},{"source":1},{"source":2},{"source":3},{"source":4}],"images":[{"name":"coral_grain","bufferView":0,"mimeType":"image/png"},{"name":"stone_grain","bufferView":1,"mimeType":"image/png"},{"name":"moss_grain","bufferView":2,"mimeType":"image/png"},{"name":"oak_grain","bufferView":3,"mimeType":"image/png"},{"name":"leaf_grain","bufferView":4,"mimeType":"image/png"}],"samplers":[{"wrapS":10497,"wrapT":10497}],"buffers":[{"byteLength":100296,"uri":"data:application/octet-stream;base64,"}],"bufferViews":[{"buffer":0,"byteOffset":0,"byteLength":551},{"buffer":0,"byteOffset":552,"byteLength":490},{"buffer":0,"byteOffset":1044,"byteLength":499},{"buffer":0,"byteOffset":1544,"byteLength":792},{"buffer":0,"byteOffset":2336,"byteLength":544},{"buffer":0,"byteOffset":2880,"byteLength":2592,"target":34963},{"buffer":0,"byteOffset":5472,"byteLength":7776,"target":34962},{"buffer":0,"byteOffset":13248,"byteLength":7776,"target":34962},{"buffer":0,"byteOffset":21024,"byteLength":5184,"target":34962},{"buffer":0,"byteOffset":26208,"byteLength":1728,"target":34963},{"buffer":0,"byteOffset":27936,"byteLength":5184,"target":34962},{"buffer":0,"byteOffset":33120,"byteLength":5184,"target":34962},{"buffer":0,"byteOffset":38304,"byteLength":3456,"target":34962},{"buffer":0,"byteOffset":41760,"byteLength":2592,"target":34963},{"buffer":0,"byteOffset":44352,"byteLength":7776,"target":34962},{"buffer":0,"byteOffset":52128,"byteLength":7776,"target":34962},{"buffer":0,"byteOffset":59904,"byteLength":5184,"target":34962},{"buffer":0,"byteOffset":65088,"byteLength":1944,"target":34963},{"buffer":0,"byteOffset":67032,"byteLength":5832,"target":34962},{"buffer":0,"byteOffset":72864,"byteLength":5832,"target":34962},{"buffer":0,"byteOffset":78696,"byteLength":3888,"target":34962},{"buffer":0,"byteOffset":82584,"byteLength":1584,"target":34963},{"buffer":0,"byteOffset":84168,"byteLength":4752,"target":34962},{"buffer":0,"byteOffset":88920,"byteLength":4752,"target":34962},{"buffer":0,"byteOffset":93672,"byteLength":3168,"target":34962},{"buffer":0,"byteOffset":96840,"byteLength":384,"target":34963},{"buffer":0,"byteOffset":97224,"byteLength":1152,"target":34962},{"buffer":0,"byteOffset":98376,"byteLength":1152,"target":34962},{"buffer":0,"byteOffset":99528,"byteLength":768,"target":34962}],"accessors":[{"bufferView":5,"componentType":5125,"count":648,"type":"SCALAR"},{"bufferView":6,"componentType":5126,"count":648,"type":"VEC3","min":[-0.9934373488899171,0.08,-0.29000000000000004],"max":[0.9442762523383318,1.05,0.4981401793549686]},{"bufferView":7,"componentType":5126,"count":648,"type":"VEC3"},{"bufferView":8,"componentType":5126,"count":648,"type":"VEC2"},{"bufferView":9,"componentType":5125,"count":432,"type":"SCALAR"},{"bufferView":10,"componentType":5126,"count":432,"type":"VEC3","min":[-0.9181102370938727,-0.07999999999999999,-0.5435180360080647],"max":[0.935316954888546,0.28,-0.056481963991935336]},{"bufferView":11,"componentType":5126,"count":432,"type":"VEC3"},{"bufferView":12,"componentType":5126,"count":432,"type":"VEC2"},{"bufferView":13,"componentType":5125,"count":648,"type":"SCALAR"},{"bufferView":14,"componentType":5126,"count":648,"type":"VEC3","min":[-1.367716537412778,-0.13,-0.5305940148580958],"max":[1.4230810839623347,1.225,0.7138379141417498]},{"bufferView":15,"componentType":5126,"count":648,"type":"VEC3"},{"bufferView":16,"componentType":5126,"count":648,"type":"VEC2"},{"bufferView":17,"componentType":5125,"count":486,"type":"SCALAR"},{"bufferView":18,"componentType":5126,"count":486,"type":"VEC3","min":[-1.1433945892806507,0.32699999999999996,-0.39082213207835725],"max":[1.23,0.9736,0.6234673337952494]},{"bufferView":19,"componentType":5126,"count":486,"type":"VEC3"},{"bufferView":20,"componentType":5126,"count":486,"type":"VEC2"},{"bufferView":21,"componentType":5125,"count":396,"type":"SCALAR"},{"bufferView":22,"componentType":5126,"count":396,"type":"VEC3","min":[-1.1265574989323794,-0.007905444953131212,-1.2565574989323793],"max":[1.3865574989323792,2.754650261737136,1.2565574989323793]},{"bufferView":23,"componentType":5126,"count":396,"type":"VEC3"},{"bufferView":24,"componentType":5126,"count":396,"type":"VEC2"},{"bufferView":25,"componentType":5125,"count":96,"type":"SCALAR"},{"bufferView":26,"componentType":5126,"count":96,"type":"VEC3","min":[-1.2400000000000002,2.28,-1.37],"max":[1.5,2.72,1.37]},{"bufferView":27,"componentType":5126,"count":96,"type":"VEC3"},{"bufferView":28,"componentType":5126,"count":96,"type":"VEC2"}]}
