{"asset":{"generator":"DarkArisen OpenSource3D alpha prop generator","version":"2.0"},"scene":0,"scenes":[{"nodes":[0]}],"nodes":[{"name":"environment.stormspire","children":[1,2,3]},{"name":"01_cliff","mesh":0,"translation":[-5.5,0,0]},{"name":"02_stairs","mesh":1,"translation":[0.0,0,0]},{"name":"03_tower","mesh":2,"translation":[5.5,0,0]}],"meshes":[{"name":"01_cliff","primitives":[{"attributes":{"POSITION":1,"NORMAL":2,"TEXCOORD_0":3},"indices":0,"material":0,"mode":4},{"attributes":{"POSITION":5,"NORMAL":6,"TEXCOORD_0":7},"indices":4,"material":1,"mode":4}]},{"name":"02_stairs","primitives":[{"attributes":{"POSITION":9,"NORMAL":10,"TEXCOORD_0":11},"indices":8,"material":2,"mode":4}]},{"name":"03_tower","primitives":[{"attributes":{"POSITION":13,"NORMAL":14,"TEXCOORD_0":15},"indices":12,"material":2,"mode":4},{"attributes":{"POSITION":17,"NORMAL":18,"TEXCOORD_0":19},"indices":16,"material":3,"mode":4},{"attributes":{"POSITION":21,"NORMAL":22,"TEXCOORD_0":23},"indices":20,"material":4,"mode":4}]}],"materials":[{"name":"basalt","pbrMetallicRoughness":{"baseColorTexture":{"index":0},"metallicFactor":0.0,"roughnessFactor":0.98},"doubleSided":false},{"name":"moss","pbrMetallicRoughness":{"baseColorTexture":{"index":1},"metallicFactor":0.0,"roughnessFactor":0.95},"doubleSided":false},{"name":"stone","pbrMetallicRoughness":{"baseColorTexture":{"index":2},"metallicFactor":0.0,"roughnessFactor":1.0},"doubleSided":false},{"name":"plaster","pbrMetallicRoughness":{"baseColorTexture":{"index":3},"metallicFactor":0.0,"roughnessFactor":0.94},"doubleSided":false},{"name":"black_iron","pbrMetallicRoughness":{"baseColorTexture":{"index":4},"metallicFactor":0.65,"roughnessFactor":0.73},"doubleSided":false}],"textures":[{"source":0},{"source":1},{"source":2},{"source":3},{"source":4}],"images":[{"name":"basalt_grain","bufferView":0,"mimeType":"image/png"},{"name":"moss_grain","bufferView":1,"mimeType":"image/png"},{"name":"stone_grain","bufferView":2,"mimeType":"image/png"},{"name":"plaster_grain","bufferView":3,"mimeType":"image/png"},{"name":"black_iron_grain","bufferView":4,"mimeType":"image/png"}],"samplers":[{"wrapS":10497,"wrapT":10497}],"buffers":[{"byteLength":58076,"uri":"data:application/octet-stream;base64,"}],"bufferViews":[{"buffer":0,"byteOffset":0,"byteLength":381},{"buffer":0,"byteOffset":384,"byteLength":499},{"buffer":0,"byteOffset":884,"byteLength":490},{"buffer":0,"byteOffset":1376,"byteLength":640},{"buffer":0,"byteOffset":2016,"byteLength":329},{"buffer":0,"byteOffset":2348,"byteLength":1440,"target":34963},{"buffer":0,"byteOffset":3788,"byteLength":4320,"target":34962},{"buffer":0,"byteOffset":8108,"byteLength":4320,"target":34962},{"buffer":0,"byteOffset":12428,"byteLength":2880,"target":34962},{"buffer":0,"byteOffset":15308,"byteLength":1296,"target":34963},{"buffer":0,"byteOffset":16604,"byteLength":3888,"target":34962},{"buffer":0,"byteOffset":20492,"byteLength":3888,"target":34962},{"buffer":0,"byteOffset":24380,"byteLength":2592,"target":34962},{"buffer":0,"byteOffset":26972,"byteLength":1296,"target":34963},{"buffer":0,"byteOffset":28268,"byteLength":3888,"target":34962},{"buffer":0,"byteOffset":32156,"byteLength":3888,"target":34962},{"buffer":0,"byteOffset":36044,"byteLength":2592,"target":34962},{"buffer":0,"byteOffset":38636,"byteLength":1440,"target":34963},{"buffer":0,"byteOffset":40076,"byteLength":4320,"target":34962},{"buffer":0,"byteOffset":44396,"byteLength":4320,"target":34962},{"buffer":0,"byteOffset":48716,"byteLength":2880,"target":34962},{"buffer":0,"byteOffset":51596,"byteLength":576,"target":34963},{"buffer":0,"byteOffset":52172,"byteLength":1728,"target":34962},{"buffer":0,"byteOffset":53900,"byteLength":1728,"target":34962},{"buffer":0,"byteOffset":55628,"byteLength":1152,"target":34962},{"buffer":0,"byteOffset":56780,"byteLength":144,"target":34963},{"buffer":0,"byteOffset":56924,"byteLength":432,"target":34962},{"buffer":0,"byteOffset":57356,"byteLength":432,"target":34962},{"buffer":0,"byteOffset":57788,"byteLength":288,"target":34962}],"accessors":[{"bufferView":5,"componentType":5125,"count":360,"type":"SCALAR"},{"bufferView":6,"componentType":5126,"count":360,"type":"VEC3","min":[-1.5604293994002423,0.0,-0.37],"max":[1.5604293994002423,1.56,0.37]},{"bufferView":7,"componentType":5126,"count":360,"type":"VEC3"},{"bufferView":8,"componentType":5126,"count":360,"type":"VEC2"},{"bufferView":9,"componentType":5125,"count":324,"type":"SCALAR"},{"bufferView":10,"componentType":5126,"count":324,"type":"VEC3","min":[-1.0258770483143635,-0.12,0.09577305385536089],"max":[0.9,0.38,0.844226946144639]},{"bufferView":11,"componentType":5126,"count":324,"type":"VEC3"},{"bufferView":12,"componentType":5126,"count":324,"type":"VEC2"},{"bufferView":13,"componentType":5125,"count":324,"type":"SCALAR"},{"bufferView":14,"componentType":5126,"count":324,"type":"VEC3","min":[-0.855,0.0,-1.3542694014280752],"max":[0.855,2.2,1.254269401428075]},{"bufferView":15,"componentType":5126,"count":324,"type":"VEC3"},{"bufferView":16,"componentType":5126,"count":324,"type":"VEC2"},{"bufferView":17,"componentType":5125,"count":360,"type":"SCALAR"},{"bufferView":18,"componentType":5126,"count":360,"type":"VEC3","min":[-1.05,0.0,-0.9357626093681504],"max":[1.05,3.835,0.9357626093681505]},{"bufferView":19,"componentType":5126,"count":360,"type":"VEC3"},{"bufferView":20,"componentType":5126,"count":360,"type":"VEC2"},{"bufferView":21,"componentType":5125,"count":144,"type":"SCALAR"},{"bufferView":22,"componentType":5126,"count":144,"type":"VEC3","min":[-1.05,3.2,-1.05],"max":[1.05,3.38,1.05]},{"bufferView":23,"componentType":5126,"count":144,"type":"VEC3"},{"bufferView":24,"componentType":5126,"count":144,"type":"VEC2"},{"bufferView":25,"componentType":5125,"count":36,"type":"SCALAR"},{"bufferView":26,"componentType":5126,"count":36,"type":"VEC3","min":[-0.215,0.2300000000000001,-0.9525],"max":[0.215,1.9100000000000001,-0.9075000000000001]},{"bufferView":27,"componentType":5126,"count":36,"type":"VEC3"},{"bufferView":28,"componentType":5126,"count":36,"type":"VEC2"}]}
