{"asset":{"generator":"DarkArisen OpenSource3D alpha prop generator","version":"2.0"},"scene":0,"scenes":[{"nodes":[0]}],"nodes":[{"name":"environment.fort_carrion","children":[1,2,3]},{"name":"01_arch","mesh":0,"translation":[-5.5,0,0]},{"name":"02_tower","mesh":1,"translation":[0.0,0,0]},{"name":"03_palisade","mesh":2,"translation":[5.5,0,0]}],"meshes":[{"name":"01_arch","primitives":[{"attributes":{"POSITION":1,"NORMAL":2,"TEXCOORD_0":3},"indices":0,"material":0,"mode":4},{"attributes":{"POSITION":5,"NORMAL":6,"TEXCOORD_0":7},"indices":4,"material":1,"mode":4}]},{"name":"02_tower","primitives":[{"attributes":{"POSITION":9,"NORMAL":10,"TEXCOORD_0":11},"indices":8,"material":0,"mode":4},{"attributes":{"POSITION":13,"NORMAL":14,"TEXCOORD_0":15},"indices":12,"material":1,"mode":4},{"attributes":{"POSITION":17,"NORMAL":18,"TEXCOORD_0":19},"indices":16,"material":2,"mode":4}]},{"name":"03_palisade","primitives":[{"attributes":{"POSITION":21,"NORMAL":22,"TEXCOORD_0":23},"indices":20,"material":3,"mode":4},{"attributes":{"POSITION":25,"NORMAL":26,"TEXCOORD_0":27},"indices":24,"material":4,"mode":4}]}],"materials":[{"name":"stone","pbrMetallicRoughness":{"baseColorTexture":{"index":0},"metallicFactor":0.0,"roughnessFactor":1.0},"doubleSided":false},{"name":"plaster","pbrMetallicRoughness":{"baseColorTexture":{"index":1},"metallicFactor":0.0,"roughnessFactor":0.94},"doubleSided":false},{"name":"black_iron","pbrMetallicRoughness":{"baseColorTexture":{"index":2},"metallicFactor":0.65,"roughnessFactor":0.73},"doubleSided":false},{"name":"oak","pbrMetallicRoughness":{"baseColorTexture":{"index":3},"metallicFactor":0.0,"roughnessFactor":0.83},"doubleSided":false},{"name":"oak_light","pbrMetallicRoughness":{"baseColorTexture":{"index":4},"metallicFactor":0.0,"roughnessFactor":0.78},"doubleSided":false}],"textures":[{"source":0},{"source":1},{"source":2},{"source":3},{"source":4}],"images":[{"name":"stone_grain","bufferView":0,"mimeType":"image/png"},{"name":"plaster_grain","bufferView":1,"mimeType":"image/png"},{"name":"black_iron_grain","bufferView":2,"mimeType":"image/png"},{"name":"oak_grain","bufferView":3,"mimeType":"image/png"},{"name":"oak_light_grain","bufferView":4,"mimeType":"image/png"}],"samplers":[{"wrapS":10497,"wrapT":10497}],"buffers":[{"byteLength":64056,"uri":"data:application/octet-stream;base64,"}],"bufferViews":[{"buffer":0,"byteOffset":0,"byteLength":490},{"buffer":0,"byteOffset":492,"byteLength":640},{"buffer":0,"byteOffset":1132,"byteLength":329},{"buffer":0,"byteOffset":1464,"byteLength":792},{"buffer":0,"byteOffset":2256,"byteLength":887},{"buffer":0,"byteOffset":3144,"byteLength":576,"target":34963},{"buffer":0,"byteOffset":3720,"byteLength":1728,"target":34962},{"buffer":0,"byteOffset":5448,"byteLength":1728,"target":34962},{"buffer":0,"byteOffset":7176,"byteLength":1152,"target":34962},{"buffer":0,"byteOffset":8328,"byteLength":864,"target":34963},{"buffer":0,"byteOffset":9192,"byteLength":2592,"target":34962},{"buffer":0,"byteOffset":11784,"byteLength":2592,"target":34962},{"buffer":0,"byteOffset":14376,"byteLength":1728,"target":34962},{"buffer":0,"byteOffset":16104,"byteLength":1440,"target":34963},{"buffer":0,"byteOffset":17544,"byteLength":4320,"target":34962},{"buffer":0,"byteOffset":21864,"byteLength":4320,"target":34962},{"buffer":0,"byteOffset":26184,"byteLength":2880,"target":34962},{"buffer":0,"byteOffset":29064,"byteLength":576,"target":34963},{"buffer":0,"byteOffset":29640,"byteLength":1728,"target":34962},{"buffer":0,"byteOffset":31368,"byteLength":1728,"target":34962},{"buffer":0,"byteOffset":33096,"byteLength":1152,"target":34962},{"buffer":0,"byteOffset":34248,"byteLength":144,"target":34963},{"buffer":0,"byteOffset":34392,"byteLength":432,"target":34962},{"buffer":0,"byteOffset":34824,"byteLength":432,"target":34962},{"buffer":0,"byteOffset":35256,"byteLength":288,"target":34962},{"buffer":0,"byteOffset":35544,"byteLength":2880,"target":34963},{"buffer":0,"byteOffset":38424,"byteLength":8640,"target":34962},{"buffer":0,"byteOffset":47064,"byteLength":8640,"target":34962},{"buffer":0,"byteOffset":55704,"byteLength":5760,"target":34962},{"buffer":0,"byteOffset":61464,"byteLength":288,"target":34963},{"buffer":0,"byteOffset":61752,"byteLength":864,"target":34962},{"buffer":0,"byteOffset":62616,"byteLength":864,"target":34962},{"buffer":0,"byteOffset":63480,"byteLength":576,"target":34962}],"accessors":[{"bufferView":5,"componentType":5125,"count":144,"type":"SCALAR"},{"bufferView":6,"componentType":5126,"count":144,"type":"VEC3","min":[-1.275,0.0,-0.44],"max":[1.275,3.005,0.44]},{"bufferView":7,"componentType":5126,"count":144,"type":"VEC3"},{"bufferView":8,"componentType":5126,"count":144,"type":"VEC2"},{"bufferView":9,"componentType":5125,"count":216,"type":"SCALAR"},{"bufferView":10,"componentType":5126,"count":216,"type":"VEC3","min":[-1.08,0.14,-0.42],"max":[1.08,2.31,0.42]},{"bufferView":11,"componentType":5126,"count":216,"type":"VEC3"},{"bufferView":12,"componentType":5126,"count":216,"type":"VEC2"},{"bufferView":13,"componentType":5125,"count":360,"type":"SCALAR"},{"bufferView":14,"componentType":5126,"count":360,"type":"VEC3","min":[-1.05,0.0,-0.9357626093681504],"max":[1.05,3.835,0.9357626093681505]},{"bufferView":15,"componentType":5126,"count":360,"type":"VEC3"},{"bufferView":16,"componentType":5126,"count":360,"type":"VEC2"},{"bufferView":17,"componentType":5125,"count":144,"type":"SCALAR"},{"bufferView":18,"componentType":5126,"count":144,"type":"VEC3","min":[-1.05,3.2,-1.05],"max":[1.05,3.38,1.05]},{"bufferView":19,"componentType":5126,"count":144,"type":"VEC3"},{"bufferView":20,"componentType":5126,"count":144,"type":"VEC2"},{"bufferView":21,"componentType":5125,"count":36,"type":"SCALAR"},{"bufferView":22,"componentType":5126,"count":36,"type":"VEC3","min":[-0.215,0.2300000000000001,-0.9525],"max":[0.215,1.9100000000000001,-0.9075000000000001]},{"bufferView":23,"componentType":5126,"count":36,"type":"VEC3"},{"bufferView":24,"componentType":5126,"count":36,"type":"VEC2"},{"bufferView":25,"componentType":5125,"count":720,"type":"SCALAR"},{"bufferView":26,"componentType":5126,"count":720,"type":"VEC3","min":[-1.5422243186433546,0.0,-0.17],"max":[1.5422243186433546,2.47,0.17]},{"bufferView":27,"componentType":5126,"count":720,"type":"VEC3"},{"bufferView":28,"componentType":5126,"count":720,"type":"VEC2"},{"bufferView":29,"componentType":5125,"count":72,"type":"SCALAR"},{"bufferView":30,"componentType":5126,"count":72,"type":"VEC3","min":[-1.55,0.33999999999999997,0.135],"max":[1.55,1.4300000000000002,0.265]},{"bufferView":31,"componentType":5126,"count":72,"type":"VEC3"},{"bufferView":32,"componentType":5126,"count":72,"type":"VEC2"}]}
