{"asset":{"generator":"DarkArisen OpenSource3D alpha prop generator","version":"2.0"},"scene":0,"scenes":[{"nodes":[0]}],"nodes":[{"name":"environment.the_maw","children":[1,2,3]},{"name":"01_basalt","mesh":0,"translation":[-5.5,0,0]},{"name":"02_arch","mesh":1,"translation":[0.0,0,0]},{"name":"03_brazier","mesh":2,"translation":[5.5,0,0]}],"meshes":[{"name":"01_basalt","primitives":[{"attributes":{"POSITION":1,"NORMAL":2,"TEXCOORD_0":3},"indices":0,"material":0,"mode":4},{"attributes":{"POSITION":5,"NORMAL":6,"TEXCOORD_0":7},"indices":4,"material":1,"mode":4}]},{"name":"02_arch","primitives":[{"attributes":{"POSITION":9,"NORMAL":10,"TEXCOORD_0":11},"indices":8,"material":2,"mode":4},{"attributes":{"POSITION":13,"NORMAL":14,"TEXCOORD_0":15},"indices":12,"material":3,"mode":4}]},{"name":"03_brazier","primitives":[{"attributes":{"POSITION":17,"NORMAL":18,"TEXCOORD_0":19},"indices":16,"material":1,"mode":4},{"attributes":{"POSITION":21,"NORMAL":22,"TEXCOORD_0":23},"indices":20,"material":4,"mode":4},{"attributes":{"POSITION":25,"NORMAL":26,"TEXCOORD_0":27},"indices":24,"material":5,"mode":4}]}],"materials":[{"name":"basalt","pbrMetallicRoughness":{"baseColorTexture":{"index":0},"metallicFactor":0.0,"roughnessFactor":0.98},"doubleSided":false},{"name":"lava","pbrMetallicRoughness":{"baseColorTexture":{"index":1},"metallicFactor":0.0,"roughnessFactor":0.44},"doubleSided":true,"emissiveFactor":[1.0,0.22,0.03],"emissiveTexture":{"index":1}},{"name":"stone","pbrMetallicRoughness":{"baseColorTexture":{"index":2},"metallicFactor":0.0,"roughnessFactor":1.0},"doubleSided":false},{"name":"plaster","pbrMetallicRoughness":{"baseColorTexture":{"index":3},"metallicFactor":0.0,"roughnessFactor":0.94},"doubleSided":false},{"name":"iron","pbrMetallicRoughness":{"baseColorTexture":{"index":4},"metallicFactor":0.72,"roughnessFactor":0.62},"doubleSided":false},{"name":"black_iron","pbrMetallicRoughness":{"baseColorTexture":{"index":5},"metallicFactor":0.65,"roughnessFactor":0.73},"doubleSided":false}],"textures":[{"source":0},{"source":1},{"source":2},{"source":3},{"source":4},{"source":5}],"images":[{"name":"basalt_grain","bufferView":0,"mimeType":"image/png"},{"name":"lava_grain","bufferView":1,"mimeType":"image/png"},{"name":"stone_grain","bufferView":2,"mimeType":"image/png"},{"name":"plaster_grain","bufferView":3,"mimeType":"image/png"},{"name":"iron_grain","bufferView":4,"mimeType":"image/png"},{"name":"black_iron_grain","bufferView":5,"mimeType":"image/png"}],"samplers":[{"wrapS":10497,"wrapT":10497}],"buffers":[{"byteLength":61640,"uri":"data:application/octet-stream;base64,"}],"bufferViews":[{"buffer":0,"byteOffset":0,"byteLength":381},{"buffer":0,"byteOffset":384,"byteLength":556},{"buffer":0,"byteOffset":940,"byteLength":490},{"buffer":0,"byteOffset":1432,"byteLength":640},{"buffer":0,"byteOffset":2072,"byteLength":481},{"buffer":0,"byteOffset":2556,"byteLength":329},{"buffer":0,"byteOffset":2888,"byteLength":1728,"target":34963},{"buffer":0,"byteOffset":4616,"byteLength":5184,"target":34962},{"buffer":0,"byteOffset":9800,"byteLength":5184,"target":34962},{"buffer":0,"byteOffset":14984,"byteLength":3456,"target":34962},{"buffer":0,"byteOffset":18440,"byteLength":48,"target":34963},{"buffer":0,"byteOffset":18488,"byteLength":144,"target":34962},{"buffer":0,"byteOffset":18632,"byteLength":144,"target":34962},{"buffer":0,"byteOffset":18776,"byteLength":96,"target":34962},{"buffer":0,"byteOffset":18872,"byteLength":576,"target":34963},{"buffer":0,"byteOffset":19448,"byteLength":1728,"target":34962},{"buffer":0,"byteOffset":21176,"byteLength":1728,"target":34962},{"buffer":0,"byteOffset":22904,"byteLength":1152,"target":34962},{"buffer":0,"byteOffset":24056,"byteLength":864,"target":34963},{"buffer":0,"byteOffset":24920,"byteLength":2592,"target":34962},{"buffer":0,"byteOffset":27512,"byteLength":2592,"target":34962},{"buffer":0,"byteOffset":30104,"byteLength":1728,"target":34962},{"buffer":0,"byteOffset":31832,"byteLength":2304,"target":34963},{"buffer":0,"byteOffset":34136,"byteLength":6912,"target":34962},{"buffer":0,"byteOffset":41048,"byteLength":6912,"target":34962},{"buffer":0,"byteOffset":47960,"byteLength":4608,"target":34962},{"buffer":0,"byteOffset":52568,"byteLength":432,"target":34963},{"buffer":0,"byteOffset":53000,"byteLength":1296,"target":34962},{"buffer":0,"byteOffset":54296,"byteLength":1296,"target":34962},{"buffer":0,"byteOffset":55592,"byteLength":864,"target":34962},{"buffer":0,"byteOffset":56456,"byteLength":576,"target":34963},{"buffer":0,"byteOffset":57032,"byteLength":1728,"target":34962},{"buffer":0,"byteOffset":58760,"byteLength":1728,"target":34962},{"buffer":0,"byteOffset":60488,"byteLength":1152,"target":34962}],"accessors":[{"bufferView":6,"componentType":5125,"count":432,"type":"SCALAR"},{"bufferView":7,"componentType":5126,"count":432,"type":"VEC3","min":[-0.8898076211353316,0.0,-0.8455960043841964],"max":[0.8898076211353316,1.92,0.8455960043841964]},{"bufferView":8,"componentType":5126,"count":432,"type":"VEC3"},{"bufferView":9,"componentType":5126,"count":432,"type":"VEC2"},{"bufferView":10,"componentType":5125,"count":12,"type":"SCALAR"},{"bufferView":11,"componentType":5126,"count":12,"type":"VEC3","min":[-0.85,0.03,-0.75],"max":[0.85,0.03,0.75]},{"bufferView":12,"componentType":5126,"count":12,"type":"VEC3"},{"bufferView":13,"componentType":5126,"count":12,"type":"VEC2"},{"bufferView":14,"componentType":5125,"count":144,"type":"SCALAR"},{"bufferView":15,"componentType":5126,"count":144,"type":"VEC3","min":[-1.275,0.0,-0.44],"max":[1.275,3.005,0.44]},{"bufferView":16,"componentType":5126,"count":144,"type":"VEC3"},{"bufferView":17,"componentType":5126,"count":144,"type":"VEC2"},{"bufferView":18,"componentType":5125,"count":216,"type":"SCALAR"},{"bufferView":19,"componentType":5126,"count":216,"type":"VEC3","min":[-1.08,0.14,-0.42],"max":[1.08,2.31,0.42]},{"bufferView":20,"componentType":5126,"count":216,"type":"VEC3"},{"bufferView":21,"componentType":5126,"count":216,"type":"VEC2"},{"bufferView":22,"componentType":5125,"count":576,"type":"SCALAR"},{"bufferView":23,"componentType":5126,"count":576,"type":"VEC3","min":[-0.23412678195541842,0.78,-0.09510565162951537],"max":[0.25412678195541843,1.24,0.23510565162951538]},{"bufferView":24,"componentType":5126,"count":576,"type":"VEC3"},{"bufferView":25,"componentType":5126,"count":576,"type":"VEC2"},{"bufferView":26,"componentType":5125,"count":108,"type":"SCALAR"},{"bufferView":27,"componentType":5126,"count":108,"type":"VEC3","min":[-0.30236047301099045,0.03459229345854724,-0.49770370145559323],"max":[0.5596876250251897,0.7554077065414527,0.49770370145559345]},{"bufferView":28,"componentType":5126,"count":108,"type":"VEC3"},{"bufferView":29,"componentType":5126,"count":108,"type":"VEC2"},{"bufferView":30,"componentType":5125,"count":144,"type":"SCALAR"},{"bufferView":31,"componentType":5126,"count":144,"type":"VEC3","min":[-0.43,0.72,-0.43],"max":[0.43,0.88,0.43]},{"bufferView":32,"componentType":5126,"count":144,"type":"VEC3"},{"bufferView":33,"componentType":5126,"count":144,"type":"VEC2"}]}
