{"asset":{"generator":"DarkArisen OpenSource3D alpha prop generator","version":"2.0"},"scene":0,"scenes":[{"nodes":[0]}],"nodes":[{"name":"environment.broken_compact_settlement","children":[1,2,3]},{"name":"01_house","mesh":0,"translation":[-5.5,0,0]},{"name":"02_brazier","mesh":1,"translation":[0.0,0,0]},{"name":"03_palisade","mesh":2,"translation":[5.5,0,0]}],"meshes":[{"name":"01_house","primitives":[{"attributes":{"POSITION":1,"NORMAL":2,"TEXCOORD_0":3},"indices":0,"material":0,"mode":4},{"attributes":{"POSITION":5,"NORMAL":6,"TEXCOORD_0":7},"indices":4,"material":1,"mode":4},{"attributes":{"POSITION":9,"NORMAL":10,"TEXCOORD_0":11},"indices":8,"material":2,"mode":4},{"attributes":{"POSITION":13,"NORMAL":14,"TEXCOORD_0":15},"indices":12,"material":3,"mode":4},{"attributes":{"POSITION":17,"NORMAL":18,"TEXCOORD_0":19},"indices":16,"material":4,"mode":4}]},{"name":"02_brazier","primitives":[{"attributes":{"POSITION":21,"NORMAL":22,"TEXCOORD_0":23},"indices":20,"material":2,"mode":4},{"attributes":{"POSITION":25,"NORMAL":26,"TEXCOORD_0":27},"indices":24,"material":5,"mode":4},{"attributes":{"POSITION":29,"NORMAL":30,"TEXCOORD_0":31},"indices":28,"material":6,"mode":4}]},{"name":"03_palisade","primitives":[{"attributes":{"POSITION":33,"NORMAL":34,"TEXCOORD_0":35},"indices":32,"material":1,"mode":4},{"attributes":{"POSITION":37,"NORMAL":38,"TEXCOORD_0":39},"indices":36,"material":7,"mode":4}]}],"materials":[{"name":"plaster","pbrMetallicRoughness":{"baseColorTexture":{"index":0},"metallicFactor":0.0,"roughnessFactor":0.94},"doubleSided":false},{"name":"oak","pbrMetallicRoughness":{"baseColorTexture":{"index":1},"metallicFactor":0.0,"roughnessFactor":0.83},"doubleSided":false},{"name":"black_iron","pbrMetallicRoughness":{"baseColorTexture":{"index":2},"metallicFactor":0.65,"roughnessFactor":0.73},"doubleSided":false},{"name":"roof","pbrMetallicRoughness":{"baseColorTexture":{"index":3},"metallicFactor":0.0,"roughnessFactor":0.91},"doubleSided":false},{"name":"stone","pbrMetallicRoughness":{"baseColorTexture":{"index":4},"metallicFactor":0.0,"roughnessFactor":1.0},"doubleSided":false},{"name":"iron","pbrMetallicRoughness":{"baseColorTexture":{"index":5},"metallicFactor":0.72,"roughnessFactor":0.62},"doubleSided":false},{"name":"lava","pbrMetallicRoughness":{"baseColorTexture":{"index":6},"metallicFactor":0.0,"roughnessFactor":0.44},"doubleSided":true,"emissiveFactor":[1.0,0.22,0.03],"emissiveTexture":{"index":6}},{"name":"oak_light","pbrMetallicRoughness":{"baseColorTexture":{"index":7},"metallicFactor":0.0,"roughnessFactor":0.78},"doubleSided":false}],"textures":[{"source":0},{"source":1},{"source":2},{"source":3},{"source":4},{"source":5},{"source":6},{"source":7}],"images":[{"name":"plaster_grain","bufferView":0,"mimeType":"image/png"},{"name":"oak_grain","bufferView":1,"mimeType":"image/png"},{"name":"black_iron_grain","bufferView":2,"mimeType":"image/png"},{"name":"roof_grain","bufferView":3,"mimeType":"image/png"},{"name":"stone_grain","bufferView":4,"mimeType":"image/png"},{"name":"iron_grain","bufferView":5,"mimeType":"image/png"},{"name":"lava_grain","bufferView":6,"mimeType":"image/png"},{"name":"oak_light_grain","bufferView":7,"mimeType":"image/png"}],"samplers":[{"wrapS":10497,"wrapT":10497}],"buffers":[{"byteLength":71240,"uri":"data:application/octet-stream;base64,"}],"bufferViews":[{"buffer":0,"byteOffset":0,"byteLength":640},{"buffer":0,"byteOffset":640,"byteLength":792},{"buffer":0,"byteOffset":1432,"byteLength":329},{"buffer":0,"byteOffset":1764,"byteLength":527},{"buffer":0,"byteOffset":2292,"byteLength":490},{"buffer":0,"byteOffset":2784,"byteLength":481},{"buffer":0,"byteOffset":3268,"byteLength":556},{"buffer":0,"byteOffset":3824,"byteLength":887},{"buffer":0,"byteOffset":4712,"byteLength":144,"target":34963},{"buffer":0,"byteOffset":4856,"byteLength":432,"target":34962},{"buffer":0,"byteOffset":5288,"byteLength":432,"target":34962},{"buffer":0,"byteOffset":5720,"byteLength":288,"target":34962},{"buffer":0,"byteOffset":6008,"byteLength":144,"target":34963},{"buffer":0,"byteOffset":6152,"byteLength":432,"target":34962},{"buffer":0,"byteOffset":6584,"byteLength":432,"target":34962},{"buffer":0,"byteOffset":7016,"byteLength":288,"target":34962},{"buffer":0,"byteOffset":7304,"byteLength":144,"target":34963},{"buffer":0,"byteOffset":7448,"byteLength":432,"target":34962},{"buffer":0,"byteOffset":7880,"byteLength":432,"target":34962},{"buffer":0,"byteOffset":8312,"byteLength":288,"target":34962},{"buffer":0,"byteOffset":8600,"byteLength":96,"target":34963},{"buffer":0,"byteOffset":8696,"byteLength":288,"target":34962},{"buffer":0,"byteOffset":8984,"byteLength":288,"target":34962},{"buffer":0,"byteOffset":9272,"byteLength":192,"target":34962},{"buffer":0,"byteOffset":9464,"byteLength":384,"target":34963},{"buffer":0,"byteOffset":9848,"byteLength":1152,"target":34962},{"buffer":0,"byteOffset":11000,"byteLength":1152,"target":34962},{"buffer":0,"byteOffset":12152,"byteLength":768,"target":34962},{"buffer":0,"byteOffset":12920,"byteLength":576,"target":34963},{"buffer":0,"byteOffset":13496,"byteLength":1728,"target":34962},{"buffer":0,"byteOffset":15224,"byteLength":1728,"target":34962},{"buffer":0,"byteOffset":16952,"byteLength":1152,"target":34962},{"buffer":0,"byteOffset":18104,"byteLength":432,"target":34963},{"buffer":0,"byteOffset":18536,"byteLength":1296,"target":34962},{"buffer":0,"byteOffset":19832,"byteLength":1296,"target":34962},{"buffer":0,"byteOffset":21128,"byteLength":864,"target":34962},{"buffer":0,"byteOffset":21992,"byteLength":2304,"target":34963},{"buffer":0,"byteOffset":24296,"byteLength":6912,"target":34962},{"buffer":0,"byteOffset":31208,"byteLength":6912,"target":34962},{"buffer":0,"byteOffset":38120,"byteLength":4608,"target":34962},{"buffer":0,"byteOffset":42728,"byteLength":2880,"target":34963},{"buffer":0,"byteOffset":45608,"byteLength":8640,"target":34962},{"buffer":0,"byteOffset":54248,"byteLength":8640,"target":34962},{"buffer":0,"byteOffset":62888,"byteLength":5760,"target":34962},{"buffer":0,"byteOffset":68648,"byteLength":288,"target":34963},{"buffer":0,"byteOffset":68936,"byteLength":864,"target":34962},{"buffer":0,"byteOffset":69800,"byteLength":864,"target":34962},{"buffer":0,"byteOffset":70664,"byteLength":576,"target":34962}],"accessors":[{"bufferView":8,"componentType":5125,"count":36,"type":"SCALAR"},{"bufferView":9,"componentType":5126,"count":36,"type":"VEC3","min":[-1.05,0.025000000000000022,-0.875],"max":[1.05,1.6749999999999998,0.875]},{"bufferView":10,"componentType":5126,"count":36,"type":"VEC3"},{"bufferView":11,"componentType":5126,"count":36,"type":"VEC2"},{"bufferView":12,"componentType":5125,"count":36,"type":"SCALAR"},{"bufferView":13,"componentType":5126,"count":36,"type":"VEC3","min":[-0.275,0.125,-0.915],"max":[0.275,1.475,-0.865]},{"bufferView":14,"componentType":5126,"count":36,"type":"VEC3"},{"bufferView":15,"componentType":5126,"count":36,"type":"VEC2"},{"bufferView":16,"componentType":5125,"count":36,"type":"SCALAR"},{"bufferView":17,"componentType":5126,"count":36,"type":"VEC3","min":[-0.8500000000000001,0.96,-0.93],"max":[-0.47000000000000003,1.3599999999999999,-0.89]},{"bufferView":18,"componentType":5126,"count":36,"type":"VEC3"},{"bufferView":19,"componentType":5126,"count":36,"type":"VEC2"},{"bufferView":20,"componentType":5125,"count":24,"type":"SCALAR"},{"bufferView":21,"componentType":5126,"count":24,"type":"VEC3","min":[-1.2,1.68,-1],"max":[1.2,2.23,1]},{"bufferView":22,"componentType":5126,"count":24,"type":"VEC3"},{"bufferView":23,"componentType":5126,"count":24,"type":"VEC2"},{"bufferView":24,"componentType":5125,"count":96,"type":"SCALAR"},{"bufferView":25,"componentType":5126,"count":96,"type":"VEC3","min":[0.59,2.03,-0.020000000000000018],"max":[0.87,2.7,0.26]},{"bufferView":26,"componentType":5126,"count":96,"type":"VEC3"},{"bufferView":27,"componentType":5126,"count":96,"type":"VEC2"},{"bufferView":28,"componentType":5125,"count":144,"type":"SCALAR"},{"bufferView":29,"componentType":5126,"count":144,"type":"VEC3","min":[-0.43,0.72,-0.43],"max":[0.43,0.88,0.43]},{"bufferView":30,"componentType":5126,"count":144,"type":"VEC3"},{"bufferView":31,"componentType":5126,"count":144,"type":"VEC2"},{"bufferView":32,"componentType":5125,"count":108,"type":"SCALAR"},{"bufferView":33,"componentType":5126,"count":108,"type":"VEC3","min":[-0.30236047301099045,0.03459229345854724,-0.49770370145559323],"max":[0.5596876250251897,0.7554077065414527,0.49770370145559345]},{"bufferView":34,"componentType":5126,"count":108,"type":"VEC3"},{"bufferView":35,"componentType":5126,"count":108,"type":"VEC2"},{"bufferView":36,"componentType":5125,"count":576,"type":"SCALAR"},{"bufferView":37,"componentType":5126,"count":576,"type":"VEC3","min":[-0.23412678195541842,0.78,-0.09510565162951537],"max":[0.25412678195541843,1.24,0.23510565162951538]},{"bufferView":38,"componentType":5126,"count":576,"type":"VEC3"},{"bufferView":39,"componentType":5126,"count":576,"type":"VEC2"},{"bufferView":40,"componentType":5125,"count":720,"type":"SCALAR"},{"bufferView":41,"componentType":5126,"count":720,"type":"VEC3","min":[-1.5422243186433546,0.0,-0.17],"max":[1.5422243186433546,2.47,0.17]},{"bufferView":42,"componentType":5126,"count":720,"type":"VEC3"},{"bufferView":43,"componentType":5126,"count":720,"type":"VEC2"},{"bufferView":44,"componentType":5125,"count":72,"type":"SCALAR"},{"bufferView":45,"componentType":5126,"count":72,"type":"VEC3","min":[-1.55,0.33999999999999997,0.135],"max":[1.55,1.4300000000000002,0.265]},{"bufferView":46,"componentType":5126,"count":72,"type":"VEC3"},{"bufferView":47,"componentType":5126,"count":72,"type":"VEC2"}]}
