{"asset":{"generator":"DarkArisen OpenSource3D alpha prop generator","version":"2.0"},"scene":0,"scenes":[{"nodes":[0]}],"nodes":[{"name":"environment.rexa_warehouse_quarter","children":[1,2,3]},{"name":"01_warehouse","mesh":0,"translation":[-5.5,0,0]},{"name":"02_pier","mesh":1,"translation":[0.0,0,0]},{"name":"03_rail","mesh":2,"translation":[5.5,0,0]}],"meshes":[{"name":"01_warehouse","primitives":[{"attributes":{"POSITION":1,"NORMAL":2,"TEXCOORD_0":3},"indices":0,"material":0,"mode":4},{"attributes":{"POSITION":5,"NORMAL":6,"TEXCOORD_0":7},"indices":4,"material":1,"mode":4},{"attributes":{"POSITION":9,"NORMAL":10,"TEXCOORD_0":11},"indices":8,"material":2,"mode":4},{"attributes":{"POSITION":13,"NORMAL":14,"TEXCOORD_0":15},"indices":12,"material":3,"mode":4},{"attributes":{"POSITION":17,"NORMAL":18,"TEXCOORD_0":19},"indices":16,"material":4,"mode":4}]},{"name":"02_pier","primitives":[{"attributes":{"POSITION":21,"NORMAL":22,"TEXCOORD_0":23},"indices":20,"material":0,"mode":4},{"attributes":{"POSITION":25,"NORMAL":26,"TEXCOORD_0":27},"indices":24,"material":1,"mode":4}]},{"name":"03_rail","primitives":[{"attributes":{"POSITION":29,"NORMAL":30,"TEXCOORD_0":31},"indices":28,"material":1,"mode":4}]}],"materials":[{"name":"oak","pbrMetallicRoughness":{"baseColorTexture":{"index":0},"metallicFactor":0.0,"roughnessFactor":0.83},"doubleSided":false},{"name":"iron","pbrMetallicRoughness":{"baseColorTexture":{"index":1},"metallicFactor":0.72,"roughnessFactor":0.62},"doubleSided":false},{"name":"black_iron","pbrMetallicRoughness":{"baseColorTexture":{"index":2},"metallicFactor":0.65,"roughnessFactor":0.73},"doubleSided":false},{"name":"roof","pbrMetallicRoughness":{"baseColorTexture":{"index":3},"metallicFactor":0.0,"roughnessFactor":0.91},"doubleSided":false},{"name":"stone","pbrMetallicRoughness":{"baseColorTexture":{"index":4},"metallicFactor":0.0,"roughnessFactor":1.0},"doubleSided":false}],"textures":[{"source":0},{"source":1},{"source":2},{"source":3},{"source":4}],"images":[{"name":"oak_grain","bufferView":0,"mimeType":"image/png"},{"name":"iron_grain","bufferView":1,"mimeType":"image/png"},{"name":"black_iron_grain","bufferView":2,"mimeType":"image/png"},{"name":"roof_grain","bufferView":3,"mimeType":"image/png"},{"name":"stone_grain","bufferView":4,"mimeType":"image/png"}],"samplers":[{"wrapS":10497,"wrapT":10497}],"buffers":[{"byteLength":64404,"uri":"data:application/octet-stream;base64,"}],"bufferViews":[{"buffer":0,"byteOffset":0,"byteLength":792},{"buffer":0,"byteOffset":792,"byteLength":481},{"buffer":0,"byteOffset":1276,"byteLength":329},{"buffer":0,"byteOffset":1608,"byteLength":527},{"buffer":0,"byteOffset":2136,"byteLength":490},{"buffer":0,"byteOffset":2628,"byteLength":144,"target":34963},{"buffer":0,"byteOffset":2772,"byteLength":432,"target":34962},{"buffer":0,"byteOffset":3204,"byteLength":432,"target":34962},{"buffer":0,"byteOffset":3636,"byteLength":288,"target":34962},{"buffer":0,"byteOffset":3924,"byteLength":432,"target":34963},{"buffer":0,"byteOffset":4356,"byteLength":1296,"target":34962},{"buffer":0,"byteOffset":5652,"byteLength":1296,"target":34962},{"buffer":0,"byteOffset":6948,"byteLength":864,"target":34962},{"buffer":0,"byteOffset":7812,"byteLength":144,"target":34963},{"buffer":0,"byteOffset":7956,"byteLength":432,"target":34962},{"buffer":0,"byteOffset":8388,"byteLength":432,"target":34962},{"buffer":0,"byteOffset":8820,"byteLength":288,"target":34962},{"buffer":0,"byteOffset":9108,"byteLength":144,"target":34963},{"buffer":0,"byteOffset":9252,"byteLength":432,"target":34962},{"buffer":0,"byteOffset":9684,"byteLength":432,"target":34962},{"buffer":0,"byteOffset":10116,"byteLength":288,"target":34962},{"buffer":0,"byteOffset":10404,"byteLength":288,"target":34963},{"buffer":0,"byteOffset":10692,"byteLength":864,"target":34962},{"buffer":0,"byteOffset":11556,"byteLength":864,"target":34962},{"buffer":0,"byteOffset":12420,"byteLength":576,"target":34962},{"buffer":0,"byteOffset":12996,"byteLength":2400,"target":34963},{"buffer":0,"byteOffset":15396,"byteLength":7200,"target":34962},{"buffer":0,"byteOffset":22596,"byteLength":7200,"target":34962},{"buffer":0,"byteOffset":29796,"byteLength":4800,"target":34962},{"buffer":0,"byteOffset":34596,"byteLength":288,"target":34963},{"buffer":0,"byteOffset":34884,"byteLength":864,"target":34962},{"buffer":0,"byteOffset":35748,"byteLength":864,"target":34962},{"buffer":0,"byteOffset":36612,"byteLength":576,"target":34962},{"buffer":0,"byteOffset":37188,"byteLength":3024,"target":34963},{"buffer":0,"byteOffset":40212,"byteLength":9072,"target":34962},{"buffer":0,"byteOffset":49284,"byteLength":9072,"target":34962},{"buffer":0,"byteOffset":58356,"byteLength":6048,"target":34962}],"accessors":[{"bufferView":5,"componentType":5125,"count":36,"type":"SCALAR"},{"bufferView":6,"componentType":5126,"count":36,"type":"VEC3","min":[-1.725,0.040000000000000036,-1.15],"max":[1.725,2.64,1.15]},{"bufferView":7,"componentType":5126,"count":36,"type":"VEC3"},{"bufferView":8,"componentType":5126,"count":36,"type":"VEC2"},{"bufferView":9,"componentType":5125,"count":108,"type":"SCALAR"},{"bufferView":10,"componentType":5126,"count":108,"type":"VEC3","min":[-1.3,0.050000000000000044,-1.21],"max":[1.3,2.6500000000000004,-1.13]},{"bufferView":11,"componentType":5126,"count":108,"type":"VEC3"},{"bufferView":12,"componentType":5126,"count":108,"type":"VEC2"},{"bufferView":13,"componentType":5125,"count":36,"type":"SCALAR"},{"bufferView":14,"componentType":5126,"count":36,"type":"VEC3","min":[-0.6,0.19999999999999996,-1.2349999999999999],"max":[0.6,2.0999999999999996,-1.145]},{"bufferView":15,"componentType":5126,"count":36,"type":"VEC3"},{"bufferView":16,"componentType":5126,"count":36,"type":"VEC2"},{"bufferView":17,"componentType":5125,"count":36,"type":"SCALAR"},{"bufferView":18,"componentType":5126,"count":36,"type":"VEC3","min":[-1.85,2.625,-1.265],"max":[1.85,2.875,1.265]},{"bufferView":19,"componentType":5126,"count":36,"type":"VEC3"},{"bufferView":20,"componentType":5126,"count":36,"type":"VEC2"},{"bufferView":21,"componentType":5125,"count":72,"type":"SCALAR"},{"bufferView":22,"componentType":5126,"count":72,"type":"VEC3","min":[-1.49,0.0,-1.25],"max":[1.49,0.24,1.25]},{"bufferView":23,"componentType":5126,"count":72,"type":"VEC3"},{"bufferView":24,"componentType":5126,"count":72,"type":"VEC2"},{"bufferView":25,"componentType":5125,"count":600,"type":"SCALAR"},{"bufferView":26,"componentType":5126,"count":600,"type":"VEC3","min":[-1.0,-0.35,-1.29],"max":[1.0,0.89,1.29]},{"bufferView":27,"componentType":5126,"count":600,"type":"VEC3"},{"bufferView":28,"componentType":5126,"count":600,"type":"VEC2"},{"bufferView":29,"componentType":5125,"count":72,"type":"SCALAR"},{"bufferView":30,"componentType":5126,"count":72,"type":"VEC3","min":[-0.8524999999999999,0.41000000000000003,-1.3],"max":[0.8524999999999999,0.49,1.3]},{"bufferView":31,"componentType":5126,"count":72,"type":"VEC3"},{"bufferView":32,"componentType":5126,"count":72,"type":"VEC2"},{"bufferView":33,"componentType":5125,"count":756,"type":"SCALAR"},{"bufferView":34,"componentType":5126,"count":756,"type":"VEC3","min":[-1.06,0.0,-0.09],"max":[1.06,3.0,0.09]},{"bufferView":35,"componentType":5126,"count":756,"type":"VEC3"},{"bufferView":36,"componentType":5126,"count":756,"type":"VEC2"}]}
