{"asset":{"generator":"DarkArisen OpenSource3D alpha prop generator","version":"2.0"},"scene":0,"scenes":[{"nodes":[0]}],"nodes":[{"name":"environment.crown_citadel_approach","children":[1,2,3]},{"name":"01_arch","mesh":0,"translation":[-5.5,0,0]},{"name":"02_tower","mesh":1,"translation":[0.0,0,0]},{"name":"03_stairs","mesh":2,"translation":[5.5,0,0]}],"meshes":[{"name":"01_arch","primitives":[{"attributes":{"POSITION":1,"NORMAL":2,"TEXCOORD_0":3},"indices":0,"material":0,"mode":4},{"attributes":{"POSITION":5,"NORMAL":6,"TEXCOORD_0":7},"indices":4,"material":1,"mode":4}]},{"name":"02_tower","primitives":[{"attributes":{"POSITION":9,"NORMAL":10,"TEXCOORD_0":11},"indices":8,"material":0,"mode":4},{"attributes":{"POSITION":13,"NORMAL":14,"TEXCOORD_0":15},"indices":12,"material":1,"mode":4},{"attributes":{"POSITION":17,"NORMAL":18,"TEXCOORD_0":19},"indices":16,"material":2,"mode":4}]},{"name":"03_stairs","primitives":[{"attributes":{"POSITION":21,"NORMAL":22,"TEXCOORD_0":23},"indices":20,"material":0,"mode":4}]}],"materials":[{"name":"stone","pbrMetallicRoughness":{"baseColorTexture":{"index":0},"metallicFactor":0.0,"roughnessFactor":1.0},"doubleSided":false},{"name":"plaster","pbrMetallicRoughness":{"baseColorTexture":{"index":1},"metallicFactor":0.0,"roughnessFactor":0.94},"doubleSided":false},{"name":"black_iron","pbrMetallicRoughness":{"baseColorTexture":{"index":2},"metallicFactor":0.65,"roughnessFactor":0.73},"doubleSided":false}],"textures":[{"source":0},{"source":1},{"source":2}],"images":[{"name":"stone_grain","bufferView":0,"mimeType":"image/png"},{"name":"plaster_grain","bufferView":1,"mimeType":"image/png"},{"name":"black_iron_grain","bufferView":2,"mimeType":"image/png"}],"samplers":[{"wrapS":10497,"wrapT":10497}],"buffers":[{"byteLength":45528,"uri":"data:application/octet-stream;base64,"}],"bufferViews":[{"buffer":0,"byteOffset":0,"byteLength":490},{"buffer":0,"byteOffset":492,"byteLength":640},{"buffer":0,"byteOffset":1132,"byteLength":329},{"buffer":0,"byteOffset":1464,"byteLength":576,"target":34963},{"buffer":0,"byteOffset":2040,"byteLength":1728,"target":34962},{"buffer":0,"byteOffset":3768,"byteLength":1728,"target":34962},{"buffer":0,"byteOffset":5496,"byteLength":1152,"target":34962},{"buffer":0,"byteOffset":6648,"byteLength":864,"target":34963},{"buffer":0,"byteOffset":7512,"byteLength":2592,"target":34962},{"buffer":0,"byteOffset":10104,"byteLength":2592,"target":34962},{"buffer":0,"byteOffset":12696,"byteLength":1728,"target":34962},{"buffer":0,"byteOffset":14424,"byteLength":1440,"target":34963},{"buffer":0,"byteOffset":15864,"byteLength":4320,"target":34962},{"buffer":0,"byteOffset":20184,"byteLength":4320,"target":34962},{"buffer":0,"byteOffset":24504,"byteLength":2880,"target":34962},{"buffer":0,"byteOffset":27384,"byteLength":576,"target":34963},{"buffer":0,"byteOffset":27960,"byteLength":1728,"target":34962},{"buffer":0,"byteOffset":29688,"byteLength":1728,"target":34962},{"buffer":0,"byteOffset":31416,"byteLength":1152,"target":34962},{"buffer":0,"byteOffset":32568,"byteLength":144,"target":34963},{"buffer":0,"byteOffset":32712,"byteLength":432,"target":34962},{"buffer":0,"byteOffset":33144,"byteLength":432,"target":34962},{"buffer":0,"byteOffset":33576,"byteLength":288,"target":34962},{"buffer":0,"byteOffset":33864,"byteLength":1296,"target":34963},{"buffer":0,"byteOffset":35160,"byteLength":3888,"target":34962},{"buffer":0,"byteOffset":39048,"byteLength":3888,"target":34962},{"buffer":0,"byteOffset":42936,"byteLength":2592,"target":34962}],"accessors":[{"bufferView":3,"componentType":5125,"count":144,"type":"SCALAR"},{"bufferView":4,"componentType":5126,"count":144,"type":"VEC3","min":[-1.275,0.0,-0.44],"max":[1.275,3.005,0.44]},{"bufferView":5,"componentType":5126,"count":144,"type":"VEC3"},{"bufferView":6,"componentType":5126,"count":144,"type":"VEC2"},{"bufferView":7,"componentType":5125,"count":216,"type":"SCALAR"},{"bufferView":8,"componentType":5126,"count":216,"type":"VEC3","min":[-1.08,0.14,-0.42],"max":[1.08,2.31,0.42]},{"bufferView":9,"componentType":5126,"count":216,"type":"VEC3"},{"bufferView":10,"componentType":5126,"count":216,"type":"VEC2"},{"bufferView":11,"componentType":5125,"count":360,"type":"SCALAR"},{"bufferView":12,"componentType":5126,"count":360,"type":"VEC3","min":[-1.05,0.0,-0.9357626093681504],"max":[1.05,3.835,0.9357626093681505]},{"bufferView":13,"componentType":5126,"count":360,"type":"VEC3"},{"bufferView":14,"componentType":5126,"count":360,"type":"VEC2"},{"bufferView":15,"componentType":5125,"count":144,"type":"SCALAR"},{"bufferView":16,"componentType":5126,"count":144,"type":"VEC3","min":[-1.05,3.2,-1.05],"max":[1.05,3.38,1.05]},{"bufferView":17,"componentType":5126,"count":144,"type":"VEC3"},{"bufferView":18,"componentType":5126,"count":144,"type":"VEC2"},{"bufferView":19,"componentType":5125,"count":36,"type":"SCALAR"},{"bufferView":20,"componentType":5126,"count":36,"type":"VEC3","min":[-0.215,0.2300000000000001,-0.9525],"max":[0.215,1.9100000000000001,-0.9075000000000001]},{"bufferView":21,"componentType":5126,"count":36,"type":"VEC3"},{"bufferView":22,"componentType":5126,"count":36,"type":"VEC2"},{"bufferView":23,"componentType":5125,"count":324,"type":"SCALAR"},{"bufferView":24,"componentType":5126,"count":324,"type":"VEC3","min":[-0.855,0.0,-1.3542694014280752],"max":[0.855,2.2,1.254269401428075]},{"bufferView":25,"componentType":5126,"count":324,"type":"VEC3"},{"bufferView":26,"componentType":5126,"count":324,"type":"VEC2"}]}
