{
 "accessors": [
  {
   "bufferView": 0,
   "componentType": 5126,
   "count": 48,
   "max": [
    6.099999904632568,
    0.39500001072883606,
    2.555000066757202
   ],
   "min": [
    -0.800000011920929,
    -0.5950000286102295,
    -2.2200000286102295
   ],
   "type": "VEC3"
  },
  {
   "bufferView": 1,
   "componentType": 5123,
   "count": 216,
   "type": "SCALAR"
  }
 ],
 "asset": {
  "generator": "Dark Arisen Alpha source + DarkArisenO3DE frame conversion",
  "version": "2.0"
 },
 "bufferViews": [
  {
   "buffer": 0,
   "byteLength": 576,
   "byteOffset": 0
  },
  {
   "buffer": 0,
   "byteLength": 432,
   "byteOffset": 576
  }
 ],
 "buffers": [
  {
   "byteLength": 1008,
   "uri": "data:application/octet-stream;base64,"
  }
 ],
 "materials": [
  {
   "pbrMetallicRoughness": {
    "baseColorFactor": [
     0.12,
     0.18,
     0.17,
     1
    ],
    "roughnessFactor": 0.82
   }
  }
 ],
 "meshes": [
  {
   "primitives": [
    {
     "attributes": {
      "POSITION": 0
     },
     "indices": 1,
     "material": 0
    }
   ]
  }
 ],
 "nodes": [
  {
   "mesh": 0,
   "name": "SM_OuterReef_Alpha"
  }
 ],
 "scene": 0,
 "scenes": [
  {
   "nodes": [
    0
   ]
  }
 ]
}
