{"asset":{"generator":"DarkArisen OpenSource3D alpha prop generator","version":"2.0"},"scene":0,"scenes":[{"nodes":[0]}],"nodes":[{"name":"light.harbor_lantern","children":[1,2]},{"name":"root","mesh":0},{"name":"harbor_lantern_light","translation":[0,2.31,0],"extensions":{"KHR_lights_punctual":{"light":0}}}],"meshes":[{"name":"root","primitives":[{"attributes":{"POSITION":1,"NORMAL":2,"TEXCOORD_0":3},"indices":0,"material":0,"mode":4},{"attributes":{"POSITION":5,"NORMAL":6,"TEXCOORD_0":7},"indices":4,"material":1,"mode":4},{"attributes":{"POSITION":9,"NORMAL":10,"TEXCOORD_0":11},"indices":8,"material":2,"mode":4},{"attributes":{"POSITION":13,"NORMAL":14,"TEXCOORD_0":15},"indices":12,"material":3,"mode":4}]}],"materials":[{"name":"iron","pbrMetallicRoughness":{"baseColorTexture":{"index":0},"metallicFactor":0.72,"roughnessFactor":0.62},"doubleSided":false},{"name":"brass","pbrMetallicRoughness":{"baseColorTexture":{"index":1},"metallicFactor":0.78,"roughnessFactor":0.36},"doubleSided":false},{"name":"glass","pbrMetallicRoughness":{"baseColorTexture":{"index":2},"metallicFactor":0.08,"roughnessFactor":0.25},"doubleSided":true},{"name":"ember","pbrMetallicRoughness":{"baseColorTexture":{"index":3},"metallicFactor":0.0,"roughnessFactor":0.5},"doubleSided":false,"emissiveFactor":[1.0,0.56,0.12],"emissiveTexture":{"index":3}}],"textures":[{"source":0},{"source":1},{"source":2},{"source":3}],"images":[{"name":"iron_grain","bufferView":0,"mimeType":"image/png"},{"name":"brass_grain","bufferView":1,"mimeType":"image/png"},{"name":"glass_grain","bufferView":2,"mimeType":"image/png"},{"name":"ember_grain","bufferView":3,"mimeType":"image/png"}],"samplers":[{"wrapS":10497,"wrapT":10497}],"buffers":[{"byteLength":95632,"uri":"data:application/octet-stream;base64,"}],"bufferViews":[{"buffer":0,"byteOffset":0,"byteLength":481},{"buffer":0,"byteOffset":484,"byteLength":584},{"buffer":0,"byteOffset":1068,"byteLength":609},{"buffer":0,"byteOffset":1680,"byteLength":639},{"buffer":0,"byteOffset":2320,"byteLength":7392,"target":34963},{"buffer":0,"byteOffset":9712,"byteLength":22176,"target":34962},{"buffer":0,"byteOffset":31888,"byteLength":22176,"target":34962},{"buffer":0,"byteOffset":54064,"byteLength":14784,"target":34962},{"buffer":0,"byteOffset":68848,"byteLength":864,"target":34963},{"buffer":0,"byteOffset":69712,"byteLength":2592,"target":34962},{"buffer":0,"byteOffset":72304,"byteLength":2592,"target":34962},{"buffer":0,"byteOffset":74896,"byteLength":1728,"target":34962},{"buffer":0,"byteOffset":76624,"byteLength":96,"target":34963},{"buffer":0,"byteOffset":76720,"byteLength":288,"target":34962},{"buffer":0,"byteOffset":77008,"byteLength":288,"target":34962},{"buffer":0,"byteOffset":77296,"byteLength":192,"target":34962},{"buffer":0,"byteOffset":77488,"byteLength":2016,"target":34963},{"buffer":0,"byteOffset":79504,"byteLength":6048,"target":34962},{"buffer":0,"byteOffset":85552,"byteLength":6048,"target":34962},{"buffer":0,"byteOffset":91600,"byteLength":4032,"target":34962}],"accessors":[{"bufferView":4,"componentType":5125,"count":1848,"type":"SCALAR"},{"bufferView":5,"componentType":5126,"count":1848,"type":"VEC3","min":[-0.1654550958552227,0.0,-0.09],"max":[0.1654550958552227,2.7154550958552224,0.09]},{"bufferView":6,"componentType":5126,"count":1848,"type":"VEC3"},{"bufferView":7,"componentType":5126,"count":1848,"type":"VEC2"},{"bufferView":8,"componentType":5125,"count":216,"type":"SCALAR"},{"bufferView":9,"componentType":5126,"count":216,"type":"VEC3","min":[-0.24,2.0349999999999997,-0.24],"max":[0.24,2.57,0.24]},{"bufferView":10,"componentType":5126,"count":216,"type":"VEC3"},{"bufferView":11,"componentType":5126,"count":216,"type":"VEC2"},{"bufferView":12,"componentType":5125,"count":24,"type":"SCALAR"},{"bufferView":13,"componentType":5126,"count":24,"type":"VEC3","min":[-0.18,2.13,-0.201],"max":[0.18,2.47,0.201]},{"bufferView":14,"componentType":5126,"count":24,"type":"VEC3"},{"bufferView":15,"componentType":5126,"count":24,"type":"VEC2"},{"bufferView":16,"componentType":5125,"count":504,"type":"SCALAR"},{"bufferView":17,"componentType":5126,"count":504,"type":"VEC3","min":[-0.085,2.15,-0.08],"max":[0.085,2.4499999999999997,0.08]},{"bufferView":18,"componentType":5126,"count":504,"type":"VEC3"},{"bufferView":19,"componentType":5126,"count":504,"type":"VEC2"}],"extensionsUsed":["KHR_lights_punctual"],"extensions":{"KHR_lights_punctual":{"lights":[{"name":"harbor_lantern","type":"point","color":[1.0,0.67,0.33],"intensity":38,"range":6.0}]}}}
