{
 "accessors": [
  {
   "bufferView": 0,
   "componentType": 5126,
   "count": 72,
   "max": [
    4.599999904632568,
    5.900000095367432,
    1.149999976158142
   ],
   "min": [
    -4.599999904632568,
    -0.27000001072883606,
    -1.149999976158142
   ],
   "type": "VEC3"
  },
  {
   "bufferView": 1,
   "componentType": 5123,
   "count": 324,
   "type": "SCALAR"
  }
 ],
 "asset": {
  "generator": "Dark Arisen Alpha source + DarkArisenO3DE frame conversion",
  "version": "2.0"
 },
 "bufferViews": [
  {
   "buffer": 0,
   "byteLength": 864,
   "byteOffset": 0
  },
  {
   "buffer": 0,
   "byteLength": 648,
   "byteOffset": 864
  }
 ],
 "buffers": [
  {
   "byteLength": 1512,
   "uri": "data:application/octet-stream;base64,"
  }
 ],
 "materials": [
  {
   "pbrMetallicRoughness": {
    "baseColorFactor": [
     0.16,
     0.08,
     0.035,
     1
    ],
    "roughnessFactor": 0.8
   }
  }
 ],
 "meshes": [
  {
   "name": "SM_LaLiberacion_Alpha",
   "primitives": [
    {
     "attributes": {
      "POSITION": 0
     },
     "indices": 1,
     "material": 0
    }
   ]
  }
 ],
 "nodes": [
  {
   "mesh": 0,
   "name": "SM_LaLiberacion_Alpha"
  }
 ],
 "scene": 0,
 "scenes": [
  {
   "nodes": [
    0
   ]
  }
 ]
}
