{"asset":{"generator":"DarkArisen OpenSource3D alpha prop generator","version":"2.0"},"scene":0,"scenes":[{"nodes":[0]}],"nodes":[{"name":"ship.longboat","children":[1,2]},{"name":"hull","mesh":0,"translation":[0,0,0]},{"name":"rudder","mesh":1,"translation":[0,0.64,3.5700000000000003]}],"meshes":[{"name":"hull","primitives":[{"attributes":{"POSITION":1,"NORMAL":2,"TEXCOORD_0":3},"indices":0,"material":0,"mode":4},{"attributes":{"POSITION":5,"NORMAL":6,"TEXCOORD_0":7},"indices":4,"material":1,"mode":4},{"attributes":{"POSITION":9,"NORMAL":10,"TEXCOORD_0":11},"indices":8,"material":2,"mode":4},{"attributes":{"POSITION":13,"NORMAL":14,"TEXCOORD_0":15},"indices":12,"material":3,"mode":4}]},{"name":"rudder","primitives":[{"attributes":{"POSITION":17,"NORMAL":18,"TEXCOORD_0":19},"indices":16,"material":0,"mode":4},{"attributes":{"POSITION":21,"NORMAL":22,"TEXCOORD_0":23},"indices":20,"material":3,"mode":4}]}],"materials":[{"name":"oak","pbrMetallicRoughness":{"baseColorTexture":{"index":0},"metallicFactor":0.0,"roughnessFactor":0.83},"doubleSided":false},{"name":"oak_light","pbrMetallicRoughness":{"baseColorTexture":{"index":1},"metallicFactor":0.0,"roughnessFactor":0.78},"doubleSided":false},{"name":"black_iron","pbrMetallicRoughness":{"baseColorTexture":{"index":2},"metallicFactor":0.65,"roughnessFactor":0.73},"doubleSided":false},{"name":"iron","pbrMetallicRoughness":{"baseColorTexture":{"index":3},"metallicFactor":0.72,"roughnessFactor":0.62},"doubleSided":false}],"textures":[{"source":0},{"source":1},{"source":2},{"source":3}],"images":[{"name":"oak_grain","bufferView":0,"mimeType":"image/png"},{"name":"oak_light_grain","bufferView":1,"mimeType":"image/png"},{"name":"black_iron_grain","bufferView":2,"mimeType":"image/png"},{"name":"iron_grain","bufferView":3,"mimeType":"image/png"}],"samplers":[{"wrapS":10497,"wrapT":10497}],"buffers":[{"byteLength":124636,"uri":"data:application/octet-stream;base64,"}],"bufferViews":[{"buffer":0,"byteOffset":0,"byteLength":792},{"buffer":0,"byteOffset":792,"byteLength":887},{"buffer":0,"byteOffset":1680,"byteLength":329},{"buffer":0,"byteOffset":2012,"byteLength":481},{"buffer":0,"byteOffset":2496,"byteLength":7800,"target":34963},{"buffer":0,"byteOffset":10296,"byteLength":23400,"target":34962},{"buffer":0,"byteOffset":33696,"byteLength":23400,"target":34962},{"buffer":0,"byteOffset":57096,"byteLength":15600,"target":34962},{"buffer":0,"byteOffset":72696,"byteLength":4656,"target":34963},{"buffer":0,"byteOffset":77352,"byteLength":13968,"target":34962},{"buffer":0,"byteOffset":91320,"byteLength":13968,"target":34962},{"buffer":0,"byteOffset":105288,"byteLength":9312,"target":34962},{"buffer":0,"byteOffset":114600,"byteLength":288,"target":34963},{"buffer":0,"byteOffset":114888,"byteLength":864,"target":34962},{"buffer":0,"byteOffset":115752,"byteLength":864,"target":34962},{"buffer":0,"byteOffset":116616,"byteLength":576,"target":34962},{"buffer":0,"byteOffset":117192,"byteLength":288,"target":34963},{"buffer":0,"byteOffset":117480,"byteLength":864,"target":34962},{"buffer":0,"byteOffset":118344,"byteLength":864,"target":34962},{"buffer":0,"byteOffset":119208,"byteLength":576,"target":34962},{"buffer":0,"byteOffset":119784,"byteLength":144,"target":34963},{"buffer":0,"byteOffset":119928,"byteLength":432,"target":34962},{"buffer":0,"byteOffset":120360,"byteLength":432,"target":34962},{"buffer":0,"byteOffset":120792,"byteLength":288,"target":34962},{"buffer":0,"byteOffset":121080,"byteLength":384,"target":34963},{"buffer":0,"byteOffset":121464,"byteLength":1152,"target":34962},{"buffer":0,"byteOffset":122616,"byteLength":1152,"target":34962},{"buffer":0,"byteOffset":123768,"byteLength":768,"target":34962},{"buffer":0,"byteOffset":124536,"byteLength":20},{"buffer":0,"byteOffset":124556,"byteLength":80}],"accessors":[{"bufferView":4,"componentType":5125,"count":1950,"type":"SCALAR"},{"bufferView":5,"componentType":5126,"count":1950,"type":"VEC3","min":[-1.8055228438370536,-1.12,-3.7472653955421977],"max":[1.8055228438370536,1.51,3.52]},{"bufferView":6,"componentType":5126,"count":1950,"type":"VEC3"},{"bufferView":7,"componentType":5126,"count":1950,"type":"VEC2"},{"bufferView":8,"componentType":5125,"count":1164,"type":"SCALAR"},{"bufferView":9,"componentType":5126,"count":1164,"type":"VEC3","min":[-1.05,-0.57,-4.779278075805136],"max":[1.05,1.7220754040925346,3.5]},{"bufferView":10,"componentType":5126,"count":1164,"type":"VEC3"},{"bufferView":11,"componentType":5126,"count":1164,"type":"VEC2"},{"bufferView":12,"componentType":5125,"count":72,"type":"SCALAR"},{"bufferView":13,"componentType":5126,"count":72,"type":"VEC3","min":[-0.6799960942077041,-0.635,-3.2906249511775965],"max":[0.6799960942077041,-0.5449999999999999,3.430624951177596]},{"bufferView":14,"componentType":5126,"count":72,"type":"VEC3"},{"bufferView":15,"componentType":5126,"count":72,"type":"VEC2"},{"bufferView":16,"componentType":5125,"count":72,"type":"SCALAR"},{"bufferView":17,"componentType":5126,"count":72,"type":"VEC3","min":[-1.0319965804236004,1.125,-2.100554752361387],"max":[1.0319965804236004,1.1949999999999998,3.0105547523613865]},{"bufferView":18,"componentType":5126,"count":72,"type":"VEC3"},{"bufferView":19,"componentType":5126,"count":72,"type":"VEC2"},{"bufferView":20,"componentType":5125,"count":36,"type":"SCALAR"},{"bufferView":21,"componentType":5126,"count":36,"type":"VEC3","min":[-0.075,-0.575,-0.07999999999999999],"max":[0.075,0.09500000000000003,0.28]},{"bufferView":22,"componentType":5126,"count":36,"type":"VEC3"},{"bufferView":23,"componentType":5126,"count":36,"type":"VEC2"},{"bufferView":24,"componentType":5125,"count":96,"type":"SCALAR"},{"bufferView":25,"componentType":5126,"count":96,"type":"VEC3","min":[-0.065,0.05,-0.065],"max":[0.065,0.75,0.065]},{"bufferView":26,"componentType":5126,"count":96,"type":"VEC3"},{"bufferView":27,"componentType":5126,"count":96,"type":"VEC2"},{"bufferView":28,"componentType":5126,"count":5,"type":"SCALAR","min":[0.0],"max":[2.4]},{"bufferView":29,"componentType":5126,"count":5,"type":"VEC4"}],"animations":[{"name":"rudder_preview","samplers":[{"input":24,"output":25,"interpolation":"LINEAR"}],"channels":[{"sampler":0,"target":{"node":2,"path":"rotation"}}]}]}
