{"asset":{"generator":"DarkArisen OpenSource3D alpha prop generator","version":"2.0"},"scene":0,"scenes":[{"nodes":[0]}],"nodes":[{"name":"ship.merchant_sloop","children":[1,2,3]},{"name":"hull","mesh":0,"translation":[0,0,0]},{"name":"sail_01","mesh":1,"translation":[0,4.567599999999999,0.0]},{"name":"rudder","mesh":2,"translation":[0,0.64,6.12]}],"meshes":[{"name":"hull","primitives":[{"attributes":{"POSITION":1,"NORMAL":2,"TEXCOORD_0":3},"indices":0,"material":0,"mode":4},{"attributes":{"POSITION":5,"NORMAL":6,"TEXCOORD_0":7},"indices":4,"material":1,"mode":4},{"attributes":{"POSITION":9,"NORMAL":10,"TEXCOORD_0":11},"indices":8,"material":2,"mode":4},{"attributes":{"POSITION":13,"NORMAL":14,"TEXCOORD_0":15},"indices":12,"material":3,"mode":4},{"attributes":{"POSITION":17,"NORMAL":18,"TEXCOORD_0":19},"indices":16,"material":4,"mode":4},{"attributes":{"POSITION":21,"NORMAL":22,"TEXCOORD_0":23},"indices":20,"material":5,"mode":4}]},{"name":"sail_01","primitives":[{"attributes":{"POSITION":25,"NORMAL":26,"TEXCOORD_0":27},"indices":24,"material":5,"mode":4},{"attributes":{"POSITION":29,"NORMAL":30,"TEXCOORD_0":31},"indices":28,"material":6,"mode":4}]},{"name":"rudder","primitives":[{"attributes":{"POSITION":33,"NORMAL":34,"TEXCOORD_0":35},"indices":32,"material":0,"mode":4},{"attributes":{"POSITION":37,"NORMAL":38,"TEXCOORD_0":39},"indices":36,"material":3,"mode":4}]}],"materials":[{"name":"oak","pbrMetallicRoughness":{"baseColorTexture":{"index":0},"metallicFactor":0.0,"roughnessFactor":0.83},"doubleSided":false},{"name":"oak_light","pbrMetallicRoughness":{"baseColorTexture":{"index":1},"metallicFactor":0.0,"roughnessFactor":0.78},"doubleSided":false},{"name":"black_iron","pbrMetallicRoughness":{"baseColorTexture":{"index":2},"metallicFactor":0.65,"roughnessFactor":0.73},"doubleSided":false},{"name":"iron","pbrMetallicRoughness":{"baseColorTexture":{"index":3},"metallicFactor":0.72,"roughnessFactor":0.62},"doubleSided":false},{"name":"roof","pbrMetallicRoughness":{"baseColorTexture":{"index":4},"metallicFactor":0.0,"roughnessFactor":0.91},"doubleSided":false},{"name":"rope","pbrMetallicRoughness":{"baseColorTexture":{"index":5},"metallicFactor":0.0,"roughnessFactor":0.95},"doubleSided":false},{"name":"canvas","pbrMetallicRoughness":{"baseColorTexture":{"index":6},"metallicFactor":0.0,"roughnessFactor":0.96},"doubleSided":true}],"textures":[{"source":0},{"source":1},{"source":2},{"source":3},{"source":4},{"source":5},{"source":6}],"images":[{"name":"oak_grain","bufferView":0,"mimeType":"image/png"},{"name":"oak_light_grain","bufferView":1,"mimeType":"image/png"},{"name":"black_iron_grain","bufferView":2,"mimeType":"image/png"},{"name":"iron_grain","bufferView":3,"mimeType":"image/png"},{"name":"roof_grain","bufferView":4,"mimeType":"image/png"},{"name":"rope_grain","bufferView":5,"mimeType":"image/png"},{"name":"canvas_grain","bufferView":6,"mimeType":"image/png"}],"samplers":[{"wrapS":10497,"wrapT":10497}],"buffers":[{"byteLength":352892,"uri":"data:application/octet-stream;base64,"}],"bufferViews":[{"buffer":0,"byteOffset":0,"byteLength":792},{"buffer":0,"byteOffset":792,"byteLength":887},{"buffer":0,"byteOffset":1680,"byteLength":329},{"buffer":0,"byteOffset":2012,"byteLength":481},{"buffer":0,"byteOffset":2496,"byteLength":527},{"buffer":0,"byteOffset":3024,"byteLength":608},{"buffer":0,"byteOffset":3632,"byteLength":649},{"buffer":0,"byteOffset":4284,"byteLength":13224,"target":34963},{"buffer":0,"byteOffset":17508,"byteLength":39672,"target":34962},{"buffer":0,"byteOffset":57180,"byteLength":39672,"target":34962},{"buffer":0,"byteOffset":96852,"byteLength":26448,"target":34962},{"buffer":0,"byteOffset":123300,"byteLength":4512,"target":34963},{"buffer":0,"byteOffset":127812,"byteLength":13536,"target":34962},{"buffer":0,"byteOffset":141348,"byteLength":13536,"target":34962},{"buffer":0,"byteOffset":154884,"byteLength":9024,"target":34962},{"buffer":0,"byteOffset":163908,"byteLength":864,"target":34963},{"buffer":0,"byteOffset":164772,"byteLength":2592,"target":34962},{"buffer":0,"byteOffset":167364,"byteLength":2592,"target":34962},{"buffer":0,"byteOffset":169956,"byteLength":1728,"target":34962},{"buffer":0,"byteOffset":171684,"byteLength":17568,"target":34963},{"buffer":0,"byteOffset":189252,"byteLength":52704,"target":34962},{"buffer":0,"byteOffset":241956,"byteLength":52704,"target":34962},{"buffer":0,"byteOffset":294660,"byteLength":35136,"target":34962},{"buffer":0,"byteOffset":329796,"byteLength":144,"target":34963},{"buffer":0,"byteOffset":329940,"byteLength":432,"target":34962},{"buffer":0,"byteOffset":330372,"byteLength":432,"target":34962},{"buffer":0,"byteOffset":330804,"byteLength":288,"target":34962},{"buffer":0,"byteOffset":331092,"byteLength":1152,"target":34963},{"buffer":0,"byteOffset":332244,"byteLength":3456,"target":34962},{"buffer":0,"byteOffset":335700,"byteLength":3456,"target":34962},{"buffer":0,"byteOffset":339156,"byteLength":2304,"target":34962},{"buffer":0,"byteOffset":341460,"byteLength":432,"target":34963},{"buffer":0,"byteOffset":341892,"byteLength":1296,"target":34962},{"buffer":0,"byteOffset":343188,"byteLength":1296,"target":34962},{"buffer":0,"byteOffset":344484,"byteLength":864,"target":34962},{"buffer":0,"byteOffset":345348,"byteLength":288,"target":34963},{"buffer":0,"byteOffset":345636,"byteLength":864,"target":34962},{"buffer":0,"byteOffset":346500,"byteLength":864,"target":34962},{"buffer":0,"byteOffset":347364,"byteLength":576,"target":34962},{"buffer":0,"byteOffset":347940,"byteLength":144,"target":34963},{"buffer":0,"byteOffset":348084,"byteLength":432,"target":34962},{"buffer":0,"byteOffset":348516,"byteLength":432,"target":34962},{"buffer":0,"byteOffset":348948,"byteLength":288,"target":34962},{"buffer":0,"byteOffset":349236,"byteLength":384,"target":34963},{"buffer":0,"byteOffset":349620,"byteLength":1152,"target":34962},{"buffer":0,"byteOffset":350772,"byteLength":1152,"target":34962},{"buffer":0,"byteOffset":351924,"byteLength":768,"target":34962},{"buffer":0,"byteOffset":352692,"byteLength":20},{"buffer":0,"byteOffset":352712,"byteLength":80},{"buffer":0,"byteOffset":352792,"byteLength":20},{"buffer":0,"byteOffset":352812,"byteLength":80}],"accessors":[{"bufferView":7,"componentType":5125,"count":3306,"type":"SCALAR"},{"bufferView":8,"componentType":5126,"count":3306,"type":"VEC3","min":[-1.85,-1.12,-6.2972653955421976],"max":[1.85,8.27,6.0]},{"bufferView":9,"componentType":5126,"count":3306,"type":"VEC3"},{"bufferView":10,"componentType":5126,"count":3306,"type":"VEC2"},{"bufferView":11,"componentType":5125,"count":1128,"type":"SCALAR"},{"bufferView":12,"componentType":5126,"count":1128,"type":"VEC3","min":[-1.85,-0.57,-8.17158676570308],"max":[1.85,5.980399999999999,6.0]},{"bufferView":13,"componentType":5126,"count":1128,"type":"VEC3"},{"bufferView":14,"componentType":5126,"count":1128,"type":"VEC2"},{"bufferView":15,"componentType":5125,"count":216,"type":"SCALAR"},{"bufferView":16,"componentType":5126,"count":216,"type":"VEC3","min":[-1.1599958742327443,-0.635,-5.640642308106462],"max":[1.1599958742327443,1.59,5.880642308106462]},{"bufferView":17,"componentType":5126,"count":216,"type":"VEC3"},{"bufferView":18,"componentType":5126,"count":216,"type":"VEC2"},{"bufferView":19,"componentType":5125,"count":4392,"type":"SCALAR"},{"bufferView":20,"componentType":5126,"count":4392,"type":"VEC3","min":[-1.7839963878317628,1.125,-3.600570159708827],"max":[1.7839963878317628,1.461650635094611,5.160570159708827]},{"bufferView":21,"componentType":5126,"count":4392,"type":"VEC3"},{"bufferView":22,"componentType":5126,"count":4392,"type":"VEC2"},{"bufferView":23,"componentType":5125,"count":36,"type":"SCALAR"},{"bufferView":24,"componentType":5126,"count":36,"type":"VEC3","min":[-1.2025000000000001,1.75,2.88],"max":[1.2025000000000001,1.85,5.28]},{"bufferView":25,"componentType":5126,"count":36,"type":"VEC3"},{"bufferView":26,"componentType":5126,"count":36,"type":"VEC2"},{"bufferView":27,"componentType":5125,"count":288,"type":"SCALAR"},{"bufferView":28,"componentType":5126,"count":288,"type":"VEC3","min":[-1.7909642512895418,1.1837847852631789,-1.3375714784272443],"max":[1.7909642512895418,7.13701521473682,1.2176436575150076]},{"bufferView":29,"componentType":5126,"count":288,"type":"VEC3"},{"bufferView":30,"componentType":5126,"count":288,"type":"VEC2"},{"bufferView":31,"componentType":5125,"count":108,"type":"SCALAR"},{"bufferView":32,"componentType":5126,"count":108,"type":"VEC3","min":[-1.443,-1.2204,0.01],"max":[1.443,1.2915999999999999,0.03]},{"bufferView":33,"componentType":5126,"count":108,"type":"VEC3"},{"bufferView":34,"componentType":5126,"count":108,"type":"VEC2"},{"bufferView":35,"componentType":5125,"count":72,"type":"SCALAR"},{"bufferView":36,"componentType":5126,"count":72,"type":"VEC3","min":[-1.443,-1.2104,0],"max":[1.4430000000000005,1.2815999999999999,0.15]},{"bufferView":37,"componentType":5126,"count":72,"type":"VEC3"},{"bufferView":38,"componentType":5126,"count":72,"type":"VEC2"},{"bufferView":39,"componentType":5125,"count":36,"type":"SCALAR"},{"bufferView":40,"componentType":5126,"count":36,"type":"VEC3","min":[-0.075,-0.575,-0.07999999999999999],"max":[0.075,0.09500000000000003,0.28]},{"bufferView":41,"componentType":5126,"count":36,"type":"VEC3"},{"bufferView":42,"componentType":5126,"count":36,"type":"VEC2"},{"bufferView":43,"componentType":5125,"count":96,"type":"SCALAR"},{"bufferView":44,"componentType":5126,"count":96,"type":"VEC3","min":[-0.065,0.05,-0.065],"max":[0.065,0.75,0.065]},{"bufferView":45,"componentType":5126,"count":96,"type":"VEC3"},{"bufferView":46,"componentType":5126,"count":96,"type":"VEC2"},{"bufferView":47,"componentType":5126,"count":5,"type":"SCALAR","min":[0.0],"max":[2.8]},{"bufferView":48,"componentType":5126,"count":5,"type":"VEC4"},{"bufferView":49,"componentType":5126,"count":5,"type":"SCALAR","min":[0.0],"max":[2.4]},{"bufferView":50,"componentType":5126,"count":5,"type":"VEC4"}],"animations":[{"name":"sail_01_preview","samplers":[{"input":40,"output":41,"interpolation":"LINEAR"}],"channels":[{"sampler":0,"target":{"node":2,"path":"rotation"}}]},{"name":"rudder_preview","samplers":[{"input":42,"output":43,"interpolation":"LINEAR"}],"channels":[{"sampler":0,"target":{"node":3,"path":"rotation"}}]}]}
