{"asset":{"generator":"DarkArisen OpenSource3D alpha prop generator","version":"2.0"},"scene":0,"scenes":[{"nodes":[0]}],"nodes":[{"name":"ship.moran_fishing_boat","children":[1,2,3]},{"name":"hull","mesh":0,"translation":[0,0,0]},{"name":"sail_01","mesh":1,"translation":[0,4.0319199999999995,0.0]},{"name":"rudder","mesh":2,"translation":[0,0.64,4.284000000000001]}],"meshes":[{"name":"hull","primitives":[{"attributes":{"POSITION":1,"NORMAL":2,"TEXCOORD_0":3},"indices":0,"material":0,"mode":4},{"attributes":{"POSITION":5,"NORMAL":6,"TEXCOORD_0":7},"indices":4,"material":1,"mode":4},{"attributes":{"POSITION":9,"NORMAL":10,"TEXCOORD_0":11},"indices":8,"material":2,"mode":4},{"attributes":{"POSITION":13,"NORMAL":14,"TEXCOORD_0":15},"indices":12,"material":3,"mode":4},{"attributes":{"POSITION":17,"NORMAL":18,"TEXCOORD_0":19},"indices":16,"material":4,"mode":4}]},{"name":"sail_01","primitives":[{"attributes":{"POSITION":21,"NORMAL":22,"TEXCOORD_0":23},"indices":20,"material":4,"mode":4},{"attributes":{"POSITION":25,"NORMAL":26,"TEXCOORD_0":27},"indices":24,"material":5,"mode":4}]},{"name":"rudder","primitives":[{"attributes":{"POSITION":29,"NORMAL":30,"TEXCOORD_0":31},"indices":28,"material":0,"mode":4},{"attributes":{"POSITION":33,"NORMAL":34,"TEXCOORD_0":35},"indices":32,"material":3,"mode":4}]}],"materials":[{"name":"oak","pbrMetallicRoughness":{"baseColorTexture":{"index":0},"metallicFactor":0.0,"roughnessFactor":0.83},"doubleSided":false},{"name":"oak_light","pbrMetallicRoughness":{"baseColorTexture":{"index":1},"metallicFactor":0.0,"roughnessFactor":0.78},"doubleSided":false},{"name":"black_iron","pbrMetallicRoughness":{"baseColorTexture":{"index":2},"metallicFactor":0.65,"roughnessFactor":0.73},"doubleSided":false},{"name":"iron","pbrMetallicRoughness":{"baseColorTexture":{"index":3},"metallicFactor":0.72,"roughnessFactor":0.62},"doubleSided":false},{"name":"rope","pbrMetallicRoughness":{"baseColorTexture":{"index":4},"metallicFactor":0.0,"roughnessFactor":0.95},"doubleSided":false},{"name":"canvas","pbrMetallicRoughness":{"baseColorTexture":{"index":5},"metallicFactor":0.0,"roughnessFactor":0.96},"doubleSided":true}],"textures":[{"source":0},{"source":1},{"source":2},{"source":3},{"source":4},{"source":5}],"images":[{"name":"oak_grain","bufferView":0,"mimeType":"image/png"},{"name":"oak_light_grain","bufferView":1,"mimeType":"image/png"},{"name":"black_iron_grain","bufferView":2,"mimeType":"image/png"},{"name":"iron_grain","bufferView":3,"mimeType":"image/png"},{"name":"rope_grain","bufferView":4,"mimeType":"image/png"},{"name":"canvas_grain","bufferView":5,"mimeType":"image/png"}],"samplers":[{"wrapS":10497,"wrapT":10497}],"buffers":[{"byteLength":252140,"uri":"data:application/octet-stream;base64,"}],"bufferViews":[{"buffer":0,"byteOffset":0,"byteLength":792},{"buffer":0,"byteOffset":792,"byteLength":887},{"buffer":0,"byteOffset":1680,"byteLength":329},{"buffer":0,"byteOffset":2012,"byteLength":481},{"buffer":0,"byteOffset":2496,"byteLength":608},{"buffer":0,"byteOffset":3104,"byteLength":649},{"buffer":0,"byteOffset":3756,"byteLength":8280,"target":34963},{"buffer":0,"byteOffset":12036,"byteLength":24840,"target":34962},{"buffer":0,"byteOffset":36876,"byteLength":24840,"target":34962},{"buffer":0,"byteOffset":61716,"byteLength":16560,"target":34962},{"buffer":0,"byteOffset":78276,"byteLength":4224,"target":34963},{"buffer":0,"byteOffset":82500,"byteLength":12672,"target":34962},{"buffer":0,"byteOffset":95172,"byteLength":12672,"target":34962},{"buffer":0,"byteOffset":107844,"byteLength":8448,"target":34962},{"buffer":0,"byteOffset":116292,"byteLength":288,"target":34963},{"buffer":0,"byteOffset":116580,"byteLength":864,"target":34962},{"buffer":0,"byteOffset":117444,"byteLength":864,"target":34962},{"buffer":0,"byteOffset":118308,"byteLength":576,"target":34962},{"buffer":0,"byteOffset":118884,"byteLength":10656,"target":34963},{"buffer":0,"byteOffset":129540,"byteLength":31968,"target":34962},{"buffer":0,"byteOffset":161508,"byteLength":31968,"target":34962},{"buffer":0,"byteOffset":193476,"byteLength":21312,"target":34962},{"buffer":0,"byteOffset":214788,"byteLength":2880,"target":34963},{"buffer":0,"byteOffset":217668,"byteLength":8640,"target":34962},{"buffer":0,"byteOffset":226308,"byteLength":8640,"target":34962},{"buffer":0,"byteOffset":234948,"byteLength":5760,"target":34962},{"buffer":0,"byteOffset":240708,"byteLength":432,"target":34963},{"buffer":0,"byteOffset":241140,"byteLength":1296,"target":34962},{"buffer":0,"byteOffset":242436,"byteLength":1296,"target":34962},{"buffer":0,"byteOffset":243732,"byteLength":864,"target":34962},{"buffer":0,"byteOffset":244596,"byteLength":288,"target":34963},{"buffer":0,"byteOffset":244884,"byteLength":864,"target":34962},{"buffer":0,"byteOffset":245748,"byteLength":864,"target":34962},{"buffer":0,"byteOffset":246612,"byteLength":576,"target":34962},{"buffer":0,"byteOffset":247188,"byteLength":144,"target":34963},{"buffer":0,"byteOffset":247332,"byteLength":432,"target":34962},{"buffer":0,"byteOffset":247764,"byteLength":432,"target":34962},{"buffer":0,"byteOffset":248196,"byteLength":288,"target":34962},{"buffer":0,"byteOffset":248484,"byteLength":384,"target":34963},{"buffer":0,"byteOffset":248868,"byteLength":1152,"target":34962},{"buffer":0,"byteOffset":250020,"byteLength":1152,"target":34962},{"buffer":0,"byteOffset":251172,"byteLength":768,"target":34962},{"buffer":0,"byteOffset":251940,"byteLength":20},{"buffer":0,"byteOffset":251960,"byteLength":80},{"buffer":0,"byteOffset":252040,"byteLength":20},{"buffer":0,"byteOffset":252060,"byteLength":80}],"accessors":[{"bufferView":6,"componentType":5125,"count":2070,"type":"SCALAR"},{"bufferView":7,"componentType":5126,"count":2070,"type":"VEC3","min":[-1.3,-1.12,-4.461265395542198],"max":[1.3,7.154,4.213]},{"bufferView":8,"componentType":5126,"count":2070,"type":"VEC3"},{"bufferView":9,"componentType":5126,"count":2070,"type":"VEC2"},{"bufferView":10,"componentType":5125,"count":1056,"type":"SCALAR"},{"bufferView":11,"componentType":5126,"count":1056,"type":"VEC3","min":[-1.3,-0.57,-5.728285410408967],"max":[1.3,5.232679999999999,4.2]},{"bufferView":12,"componentType":5126,"count":1056,"type":"VEC3"},{"bufferView":13,"componentType":5126,"count":1056,"type":"VEC2"},{"bufferView":14,"componentType":5125,"count":72,"type":"SCALAR"},{"bufferView":15,"componentType":5126,"count":72,"type":"VEC3","min":[-0.8299958423160148,-0.635,-3.948644787648917],"max":[0.8299958423160148,-0.5449999999999999,4.116644787648917]},{"bufferView":16,"componentType":5126,"count":72,"type":"VEC3"},{"bufferView":17,"componentType":5126,"count":72,"type":"VEC2"},{"bufferView":18,"componentType":5125,"count":2664,"type":"SCALAR"},{"bufferView":19,"componentType":5126,"count":2664,"type":"VEC3","min":[-1.266996359888115,1.125,-2.5205723607422166],"max":[1.266996359888115,1.461650635094611,3.6125723607422167]},{"bufferView":20,"componentType":5126,"count":2664,"type":"VEC3"},{"bufferView":21,"componentType":5126,"count":2664,"type":"VEC2"},{"bufferView":22,"componentType":5125,"count":720,"type":"SCALAR"},{"bufferView":23,"componentType":5126,"count":720,"type":"VEC3","min":[-1.933514347825842,0.40248486956541063,-2.534],"max":[1.933514347825842,6.19864622522837,2.3659999999999997]},{"bufferView":24,"componentType":5126,"count":720,"type":"VEC3"},{"bufferView":25,"componentType":5126,"count":720,"type":"VEC2"},{"bufferView":26,"componentType":5125,"count":108,"type":"SCALAR"},{"bufferView":27,"componentType":5126,"count":108,"type":"VEC3","min":[-1.014,-1.03068,0.01],"max":[1.014,1.09072,0.03]},{"bufferView":28,"componentType":5126,"count":108,"type":"VEC3"},{"bufferView":29,"componentType":5126,"count":108,"type":"VEC2"},{"bufferView":30,"componentType":5125,"count":72,"type":"SCALAR"},{"bufferView":31,"componentType":5126,"count":72,"type":"VEC3","min":[-1.014,-1.02068,0],"max":[1.014,1.08072,0.15]},{"bufferView":32,"componentType":5126,"count":72,"type":"VEC3"},{"bufferView":33,"componentType":5126,"count":72,"type":"VEC2"},{"bufferView":34,"componentType":5125,"count":36,"type":"SCALAR"},{"bufferView":35,"componentType":5126,"count":36,"type":"VEC3","min":[-0.075,-0.575,-0.07999999999999999],"max":[0.075,0.09500000000000003,0.28]},{"bufferView":36,"componentType":5126,"count":36,"type":"VEC3"},{"bufferView":37,"componentType":5126,"count":36,"type":"VEC2"},{"bufferView":38,"componentType":5125,"count":96,"type":"SCALAR"},{"bufferView":39,"componentType":5126,"count":96,"type":"VEC3","min":[-0.065,0.05,-0.065],"max":[0.065,0.75,0.065]},{"bufferView":40,"componentType":5126,"count":96,"type":"VEC3"},{"bufferView":41,"componentType":5126,"count":96,"type":"VEC2"},{"bufferView":42,"componentType":5126,"count":5,"type":"SCALAR","min":[0.0],"max":[2.8]},{"bufferView":43,"componentType":5126,"count":5,"type":"VEC4"},{"bufferView":44,"componentType":5126,"count":5,"type":"SCALAR","min":[0.0],"max":[2.4]},{"bufferView":45,"componentType":5126,"count":5,"type":"VEC4"}],"animations":[{"name":"sail_01_preview","samplers":[{"input":36,"output":37,"interpolation":"LINEAR"}],"channels":[{"sampler":0,"target":{"node":2,"path":"rotation"}}]},{"name":"rudder_preview","samplers":[{"input":38,"output":39,"interpolation":"LINEAR"}],"channels":[{"sampler":0,"target":{"node":3,"path":"rotation"}}]}]}
