{"asset":{"generator":"DarkArisen OpenSource3D alpha prop generator","version":"2.0"},"scene":0,"scenes":[{"nodes":[0]}],"nodes":[{"name":"ship.armada_sloop","children":[1,2,3]},{"name":"hull","mesh":0,"translation":[0,0,0]},{"name":"sail_01","mesh":1,"translation":[0,4.6419999999999995,0.0]},{"name":"rudder","mesh":2,"translation":[0,0.64,6.375]}],"meshes":[{"name":"hull","primitives":[{"attributes":{"POSITION":1,"NORMAL":2,"TEXCOORD_0":3},"indices":0,"material":0,"mode":4},{"attributes":{"POSITION":5,"NORMAL":6,"TEXCOORD_0":7},"indices":4,"material":1,"mode":4},{"attributes":{"POSITION":9,"NORMAL":10,"TEXCOORD_0":11},"indices":8,"material":2,"mode":4},{"attributes":{"POSITION":13,"NORMAL":14,"TEXCOORD_0":15},"indices":12,"material":3,"mode":4},{"attributes":{"POSITION":17,"NORMAL":18,"TEXCOORD_0":19},"indices":16,"material":4,"mode":4},{"attributes":{"POSITION":21,"NORMAL":22,"TEXCOORD_0":23},"indices":20,"material":5,"mode":4},{"attributes":{"POSITION":25,"NORMAL":26,"TEXCOORD_0":27},"indices":24,"material":6,"mode":4}]},{"name":"sail_01","primitives":[{"attributes":{"POSITION":29,"NORMAL":30,"TEXCOORD_0":31},"indices":28,"material":5,"mode":4},{"attributes":{"POSITION":33,"NORMAL":34,"TEXCOORD_0":35},"indices":32,"material":6,"mode":4}]},{"name":"rudder","primitives":[{"attributes":{"POSITION":37,"NORMAL":38,"TEXCOORD_0":39},"indices":36,"material":0,"mode":4},{"attributes":{"POSITION":41,"NORMAL":42,"TEXCOORD_0":43},"indices":40,"material":3,"mode":4}]}],"materials":[{"name":"oak","pbrMetallicRoughness":{"baseColorTexture":{"index":0},"metallicFactor":0.0,"roughnessFactor":0.83},"doubleSided":false},{"name":"oak_light","pbrMetallicRoughness":{"baseColorTexture":{"index":1},"metallicFactor":0.0,"roughnessFactor":0.78},"doubleSided":false},{"name":"black_iron","pbrMetallicRoughness":{"baseColorTexture":{"index":2},"metallicFactor":0.65,"roughnessFactor":0.73},"doubleSided":false},{"name":"iron","pbrMetallicRoughness":{"baseColorTexture":{"index":3},"metallicFactor":0.72,"roughnessFactor":0.62},"doubleSided":false},{"name":"roof","pbrMetallicRoughness":{"baseColorTexture":{"index":4},"metallicFactor":0.0,"roughnessFactor":0.91},"doubleSided":false},{"name":"rope","pbrMetallicRoughness":{"baseColorTexture":{"index":5},"metallicFactor":0.0,"roughnessFactor":0.95},"doubleSided":false},{"name":"red_canvas","pbrMetallicRoughness":{"baseColorTexture":{"index":6},"metallicFactor":0.0,"roughnessFactor":0.92},"doubleSided":true}],"textures":[{"source":0},{"source":1},{"source":2},{"source":3},{"source":4},{"source":5},{"source":6}],"images":[{"name":"oak_grain","bufferView":0,"mimeType":"image/png"},{"name":"oak_light_grain","bufferView":1,"mimeType":"image/png"},{"name":"black_iron_grain","bufferView":2,"mimeType":"image/png"},{"name":"iron_grain","bufferView":3,"mimeType":"image/png"},{"name":"roof_grain","bufferView":4,"mimeType":"image/png"},{"name":"rope_grain","bufferView":5,"mimeType":"image/png"},{"name":"red_canvas_grain","bufferView":6,"mimeType":"image/png"}],"samplers":[{"wrapS":10497,"wrapT":10497}],"buffers":[{"byteLength":211896,"uri":"data:application/octet-stream;base64,"}],"bufferViews":[{"buffer":0,"byteOffset":0,"byteLength":792},{"buffer":0,"byteOffset":792,"byteLength":887},{"buffer":0,"byteOffset":1680,"byteLength":329},{"buffer":0,"byteOffset":2012,"byteLength":481},{"buffer":0,"byteOffset":2496,"byteLength":527},{"buffer":0,"byteOffset":3024,"byteLength":608},{"buffer":0,"byteOffset":3632,"byteLength":488},{"buffer":0,"byteOffset":4120,"byteLength":11208,"target":34963},{"buffer":0,"byteOffset":15328,"byteLength":33624,"target":34962},{"buffer":0,"byteOffset":48952,"byteLength":33624,"target":34962},{"buffer":0,"byteOffset":82576,"byteLength":22416,"target":34962},{"buffer":0,"byteOffset":104992,"byteLength":4512,"target":34963},{"buffer":0,"byteOffset":109504,"byteLength":13536,"target":34962},{"buffer":0,"byteOffset":123040,"byteLength":13536,"target":34962},{"buffer":0,"byteOffset":136576,"byteLength":9024,"target":34962},{"buffer":0,"byteOffset":145600,"byteLength":1728,"target":34963},{"buffer":0,"byteOffset":147328,"byteLength":5184,"target":34962},{"buffer":0,"byteOffset":152512,"byteLength":5184,"target":34962},{"buffer":0,"byteOffset":157696,"byteLength":3456,"target":34962},{"buffer":0,"byteOffset":161152,"byteLength":2592,"target":34963},{"buffer":0,"byteOffset":163744,"byteLength":7776,"target":34962},{"buffer":0,"byteOffset":171520,"byteLength":7776,"target":34962},{"buffer":0,"byteOffset":179296,"byteLength":5184,"target":34962},{"buffer":0,"byteOffset":184480,"byteLength":144,"target":34963},{"buffer":0,"byteOffset":184624,"byteLength":432,"target":34962},{"buffer":0,"byteOffset":185056,"byteLength":432,"target":34962},{"buffer":0,"byteOffset":185488,"byteLength":288,"target":34962},{"buffer":0,"byteOffset":185776,"byteLength":1584,"target":34963},{"buffer":0,"byteOffset":187360,"byteLength":4752,"target":34962},{"buffer":0,"byteOffset":192112,"byteLength":4752,"target":34962},{"buffer":0,"byteOffset":196864,"byteLength":3168,"target":34962},{"buffer":0,"byteOffset":200032,"byteLength":48,"target":34963},{"buffer":0,"byteOffset":200080,"byteLength":144,"target":34962},{"buffer":0,"byteOffset":200224,"byteLength":144,"target":34962},{"buffer":0,"byteOffset":200368,"byteLength":96,"target":34962},{"buffer":0,"byteOffset":200464,"byteLength":432,"target":34963},{"buffer":0,"byteOffset":200896,"byteLength":1296,"target":34962},{"buffer":0,"byteOffset":202192,"byteLength":1296,"target":34962},{"buffer":0,"byteOffset":203488,"byteLength":864,"target":34962},{"buffer":0,"byteOffset":204352,"byteLength":288,"target":34963},{"buffer":0,"byteOffset":204640,"byteLength":864,"target":34962},{"buffer":0,"byteOffset":205504,"byteLength":864,"target":34962},{"buffer":0,"byteOffset":206368,"byteLength":576,"target":34962},{"buffer":0,"byteOffset":206944,"byteLength":144,"target":34963},{"buffer":0,"byteOffset":207088,"byteLength":432,"target":34962},{"buffer":0,"byteOffset":207520,"byteLength":432,"target":34962},{"buffer":0,"byteOffset":207952,"byteLength":288,"target":34962},{"buffer":0,"byteOffset":208240,"byteLength":384,"target":34963},{"buffer":0,"byteOffset":208624,"byteLength":1152,"target":34962},{"buffer":0,"byteOffset":209776,"byteLength":1152,"target":34962},{"buffer":0,"byteOffset":210928,"byteLength":768,"target":34962},{"buffer":0,"byteOffset":211696,"byteLength":20},{"buffer":0,"byteOffset":211716,"byteLength":80},{"buffer":0,"byteOffset":211796,"byteLength":20},{"buffer":0,"byteOffset":211816,"byteLength":80}],"accessors":[{"bufferView":7,"componentType":5125,"count":2802,"type":"SCALAR"},{"bufferView":8,"componentType":5126,"count":2802,"type":"VEC3","min":[-1.9,-1.12,-6.5522653955421974],"max":[1.9,8.425,6.25]},{"bufferView":9,"componentType":5126,"count":2802,"type":"VEC3"},{"bufferView":10,"componentType":5126,"count":2802,"type":"VEC2"},{"bufferView":11,"componentType":5125,"count":1128,"type":"SCALAR"},{"bufferView":12,"componentType":5126,"count":1128,"type":"VEC3","min":[-1.9,-0.57,-8.511137176358831],"max":[1.9,6.08425,6.25]},{"bufferView":13,"componentType":5126,"count":1128,"type":"VEC3"},{"bufferView":14,"componentType":5126,"count":1128,"type":"VEC2"},{"bufferView":15,"componentType":5125,"count":432,"type":"SCALAR"},{"bufferView":16,"componentType":5126,"count":432,"type":"VEC3","min":[-1.8605999999999998,-0.635,-5.875633282532039],"max":[1.8605999999999998,1.59,6.125633282532039]},{"bufferView":17,"componentType":5126,"count":432,"type":"VEC3"},{"bufferView":18,"componentType":5126,"count":432,"type":"VEC2"},{"bufferView":19,"componentType":5125,"count":648,"type":"SCALAR"},{"bufferView":20,"componentType":5126,"count":648,"type":"VEC3","min":[-2.4724328946087106,0.656040003895194,-3.7505621479128437],"max":[2.4724328946087106,1.1949999999999998,5.375562147912844]},{"bufferView":21,"componentType":5126,"count":648,"type":"VEC3"},{"bufferView":22,"componentType":5126,"count":648,"type":"VEC2"},{"bufferView":23,"componentType":5125,"count":36,"type":"SCALAR"},{"bufferView":24,"componentType":5126,"count":36,"type":"VEC3","min":[-1.2349999999999999,1.75,3.0],"max":[1.2349999999999999,1.85,5.5]},{"bufferView":25,"componentType":5126,"count":36,"type":"VEC3"},{"bufferView":26,"componentType":5126,"count":36,"type":"VEC2"},{"bufferView":27,"componentType":5125,"count":396,"type":"SCALAR"},{"bufferView":28,"componentType":5126,"count":396,"type":"VEC3","min":[-1.838959452388377,1.13,-3.265],"max":[2.09,7.267263215689678,1.2676301761678]},{"bufferView":29,"componentType":5126,"count":396,"type":"VEC3"},{"bufferView":30,"componentType":5126,"count":396,"type":"VEC2"},{"bufferView":31,"componentType":5125,"count":12,"type":"SCALAR"},{"bufferView":32,"componentType":5126,"count":12,"type":"VEC3","min":[0,2.52,4.75],"max":[0.62,2.9,4.75]},{"bufferView":33,"componentType":5126,"count":12,"type":"VEC3"},{"bufferView":34,"componentType":5126,"count":12,"type":"VEC2"},{"bufferView":35,"componentType":5125,"count":108,"type":"SCALAR"},{"bufferView":36,"componentType":5126,"count":108,"type":"VEC3","min":[-1.482,-1.2467500000000002,0.01],"max":[1.482,1.3195000000000001,0.03]},{"bufferView":37,"componentType":5126,"count":108,"type":"VEC3"},{"bufferView":38,"componentType":5126,"count":108,"type":"VEC2"},{"bufferView":39,"componentType":5125,"count":72,"type":"SCALAR"},{"bufferView":40,"componentType":5126,"count":72,"type":"VEC3","min":[-1.482,-1.2367500000000002,0],"max":[1.482,1.3095,0.15]},{"bufferView":41,"componentType":5126,"count":72,"type":"VEC3"},{"bufferView":42,"componentType":5126,"count":72,"type":"VEC2"},{"bufferView":43,"componentType":5125,"count":36,"type":"SCALAR"},{"bufferView":44,"componentType":5126,"count":36,"type":"VEC3","min":[-0.075,-0.575,-0.07999999999999999],"max":[0.075,0.09500000000000003,0.28]},{"bufferView":45,"componentType":5126,"count":36,"type":"VEC3"},{"bufferView":46,"componentType":5126,"count":36,"type":"VEC2"},{"bufferView":47,"componentType":5125,"count":96,"type":"SCALAR"},{"bufferView":48,"componentType":5126,"count":96,"type":"VEC3","min":[-0.065,0.05,-0.065],"max":[0.065,0.75,0.065]},{"bufferView":49,"componentType":5126,"count":96,"type":"VEC3"},{"bufferView":50,"componentType":5126,"count":96,"type":"VEC2"},{"bufferView":51,"componentType":5126,"count":5,"type":"SCALAR","min":[0.0],"max":[2.8]},{"bufferView":52,"componentType":5126,"count":5,"type":"VEC4"},{"bufferView":53,"componentType":5126,"count":5,"type":"SCALAR","min":[0.0],"max":[2.4]},{"bufferView":54,"componentType":5126,"count":5,"type":"VEC4"}],"animations":[{"name":"sail_01_preview","samplers":[{"input":44,"output":45,"interpolation":"LINEAR"}],"channels":[{"sampler":0,"target":{"node":2,"path":"rotation"}}]},{"name":"rudder_preview","samplers":[{"input":46,"output":47,"interpolation":"LINEAR"}],"channels":[{"sampler":0,"target":{"node":3,"path":"rotation"}}]}]}
