{"asset":{"generator":"DarkArisen OpenSource3D alpha prop generator","version":"2.0"},"scene":0,"scenes":[{"nodes":[0]}],"nodes":[{"name":"ship.armada_brig","children":[1,2,3,4]},{"name":"hull","mesh":0,"translation":[0,0,0]},{"name":"sail_01","mesh":1,"translation":[0,4.761951999999999,-2.755]},{"name":"sail_02","mesh":2,"translation":[0,5.6091999999999995,2.755]},{"name":"rudder","mesh":3,"translation":[0,0.64,9.69]}],"meshes":[{"name":"hull","primitives":[{"attributes":{"POSITION":1,"NORMAL":2,"TEXCOORD_0":3},"indices":0,"material":0,"mode":4},{"attributes":{"POSITION":5,"NORMAL":6,"TEXCOORD_0":7},"indices":4,"material":1,"mode":4},{"attributes":{"POSITION":9,"NORMAL":10,"TEXCOORD_0":11},"indices":8,"material":2,"mode":4},{"attributes":{"POSITION":13,"NORMAL":14,"TEXCOORD_0":15},"indices":12,"material":3,"mode":4},{"attributes":{"POSITION":17,"NORMAL":18,"TEXCOORD_0":19},"indices":16,"material":4,"mode":4},{"attributes":{"POSITION":21,"NORMAL":22,"TEXCOORD_0":23},"indices":20,"material":5,"mode":4},{"attributes":{"POSITION":25,"NORMAL":26,"TEXCOORD_0":27},"indices":24,"material":6,"mode":4}]},{"name":"sail_01","primitives":[{"attributes":{"POSITION":29,"NORMAL":30,"TEXCOORD_0":31},"indices":28,"material":5,"mode":4},{"attributes":{"POSITION":33,"NORMAL":34,"TEXCOORD_0":35},"indices":32,"material":6,"mode":4}]},{"name":"sail_02","primitives":[{"attributes":{"POSITION":37,"NORMAL":38,"TEXCOORD_0":39},"indices":36,"material":5,"mode":4},{"attributes":{"POSITION":41,"NORMAL":42,"TEXCOORD_0":43},"indices":40,"material":6,"mode":4}]},{"name":"rudder","primitives":[{"attributes":{"POSITION":45,"NORMAL":46,"TEXCOORD_0":47},"indices":44,"material":0,"mode":4},{"attributes":{"POSITION":49,"NORMAL":50,"TEXCOORD_0":51},"indices":48,"material":3,"mode":4}]}],"materials":[{"name":"oak","pbrMetallicRoughness":{"baseColorTexture":{"index":0},"metallicFactor":0.0,"roughnessFactor":0.83},"doubleSided":false},{"name":"oak_light","pbrMetallicRoughness":{"baseColorTexture":{"index":1},"metallicFactor":0.0,"roughnessFactor":0.78},"doubleSided":false},{"name":"black_iron","pbrMetallicRoughness":{"baseColorTexture":{"index":2},"metallicFactor":0.65,"roughnessFactor":0.73},"doubleSided":false},{"name":"iron","pbrMetallicRoughness":{"baseColorTexture":{"index":3},"metallicFactor":0.72,"roughnessFactor":0.62},"doubleSided":false},{"name":"roof","pbrMetallicRoughness":{"baseColorTexture":{"index":4},"metallicFactor":0.0,"roughnessFactor":0.91},"doubleSided":false},{"name":"rope","pbrMetallicRoughness":{"baseColorTexture":{"index":5},"metallicFactor":0.0,"roughnessFactor":0.95},"doubleSided":false},{"name":"red_canvas","pbrMetallicRoughness":{"baseColorTexture":{"index":6},"metallicFactor":0.0,"roughnessFactor":0.92},"doubleSided":true}],"textures":[{"source":0},{"source":1},{"source":2},{"source":3},{"source":4},{"source":5},{"source":6}],"images":[{"name":"oak_grain","bufferView":0,"mimeType":"image/png"},{"name":"oak_light_grain","bufferView":1,"mimeType":"image/png"},{"name":"black_iron_grain","bufferView":2,"mimeType":"image/png"},{"name":"iron_grain","bufferView":3,"mimeType":"image/png"},{"name":"roof_grain","bufferView":4,"mimeType":"image/png"},{"name":"rope_grain","bufferView":5,"mimeType":"image/png"},{"name":"red_canvas_grain","bufferView":6,"mimeType":"image/png"}],"samplers":[{"wrapS":10497,"wrapT":10497}],"buffers":[{"byteLength":264268,"uri":"data:application/octet-stream;base64,"}],"bufferViews":[{"buffer":0,"byteOffset":0,"byteLength":792},{"buffer":0,"byteOffset":792,"byteLength":887},{"buffer":0,"byteOffset":1680,"byteLength":329},{"buffer":0,"byteOffset":2012,"byteLength":481},{"buffer":0,"byteOffset":2496,"byteLength":527},{"buffer":0,"byteOffset":3024,"byteLength":608},{"buffer":0,"byteOffset":3632,"byteLength":488},{"buffer":0,"byteOffset":4120,"byteLength":11688,"target":34963},{"buffer":0,"byteOffset":15808,"byteLength":35064,"target":34962},{"buffer":0,"byteOffset":50872,"byteLength":35064,"target":34962},{"buffer":0,"byteOffset":85936,"byteLength":23376,"target":34962},{"buffer":0,"byteOffset":109312,"byteLength":4800,"target":34963},{"buffer":0,"byteOffset":114112,"byteLength":14400,"target":34962},{"buffer":0,"byteOffset":128512,"byteLength":14400,"target":34962},{"buffer":0,"byteOffset":142912,"byteLength":9600,"target":34962},{"buffer":0,"byteOffset":152512,"byteLength":2592,"target":34963},{"buffer":0,"byteOffset":155104,"byteLength":7776,"target":34962},{"buffer":0,"byteOffset":162880,"byteLength":7776,"target":34962},{"buffer":0,"byteOffset":170656,"byteLength":5184,"target":34962},{"buffer":0,"byteOffset":175840,"byteLength":4896,"target":34963},{"buffer":0,"byteOffset":180736,"byteLength":14688,"target":34962},{"buffer":0,"byteOffset":195424,"byteLength":14688,"target":34962},{"buffer":0,"byteOffset":210112,"byteLength":9792,"target":34962},{"buffer":0,"byteOffset":219904,"byteLength":144,"target":34963},{"buffer":0,"byteOffset":220048,"byteLength":432,"target":34962},{"buffer":0,"byteOffset":220480,"byteLength":432,"target":34962},{"buffer":0,"byteOffset":220912,"byteLength":288,"target":34962},{"buffer":0,"byteOffset":221200,"byteLength":2736,"target":34963},{"buffer":0,"byteOffset":223936,"byteLength":8208,"target":34962},{"buffer":0,"byteOffset":232144,"byteLength":8208,"target":34962},{"buffer":0,"byteOffset":240352,"byteLength":5472,"target":34962},{"buffer":0,"byteOffset":245824,"byteLength":48,"target":34963},{"buffer":0,"byteOffset":245872,"byteLength":144,"target":34962},{"buffer":0,"byteOffset":246016,"byteLength":144,"target":34962},{"buffer":0,"byteOffset":246160,"byteLength":96,"target":34962},{"buffer":0,"byteOffset":246256,"byteLength":432,"target":34963},{"buffer":0,"byteOffset":246688,"byteLength":1296,"target":34962},{"buffer":0,"byteOffset":247984,"byteLength":1296,"target":34962},{"buffer":0,"byteOffset":249280,"byteLength":864,"target":34962},{"buffer":0,"byteOffset":250144,"byteLength":288,"target":34963},{"buffer":0,"byteOffset":250432,"byteLength":864,"target":34962},{"buffer":0,"byteOffset":251296,"byteLength":864,"target":34962},{"buffer":0,"byteOffset":252160,"byteLength":576,"target":34962},{"buffer":0,"byteOffset":252736,"byteLength":432,"target":34963},{"buffer":0,"byteOffset":253168,"byteLength":1296,"target":34962},{"buffer":0,"byteOffset":254464,"byteLength":1296,"target":34962},{"buffer":0,"byteOffset":255760,"byteLength":864,"target":34962},{"buffer":0,"byteOffset":256624,"byteLength":288,"target":34963},{"buffer":0,"byteOffset":256912,"byteLength":864,"target":34962},{"buffer":0,"byteOffset":257776,"byteLength":864,"target":34962},{"buffer":0,"byteOffset":258640,"byteLength":576,"target":34962},{"buffer":0,"byteOffset":259216,"byteLength":144,"target":34963},{"buffer":0,"byteOffset":259360,"byteLength":432,"target":34962},{"buffer":0,"byteOffset":259792,"byteLength":432,"target":34962},{"buffer":0,"byteOffset":260224,"byteLength":288,"target":34962},{"buffer":0,"byteOffset":260512,"byteLength":384,"target":34963},{"buffer":0,"byteOffset":260896,"byteLength":1152,"target":34962},{"buffer":0,"byteOffset":262048,"byteLength":1152,"target":34962},{"buffer":0,"byteOffset":263200,"byteLength":768,"target":34962},{"buffer":0,"byteOffset":263968,"byteLength":20},{"buffer":0,"byteOffset":263988,"byteLength":80},{"buffer":0,"byteOffset":264068,"byteLength":20},{"buffer":0,"byteOffset":264088,"byteLength":80},{"buffer":0,"byteOffset":264168,"byteLength":20},{"buffer":0,"byteOffset":264188,"byteLength":80}],"accessors":[{"bufferView":7,"componentType":5125,"count":2922,"type":"SCALAR"},{"bufferView":8,"componentType":5126,"count":2922,"type":"VEC3","min":[-2.75,-1.12,-9.867265395542198],"max":[2.75,10.44,9.5]},{"bufferView":9,"componentType":5126,"count":2922,"type":"VEC3"},{"bufferView":10,"componentType":5126,"count":2922,"type":"VEC2"},{"bufferView":11,"componentType":5125,"count":1200,"type":"SCALAR"},{"bufferView":12,"componentType":5126,"count":1200,"type":"VEC3","min":[-2.75,-0.57,-12.927388863907458],"max":[2.75,7.4342999999999995,9.5]},{"bufferView":13,"componentType":5126,"count":1200,"type":"VEC3"},{"bufferView":14,"componentType":5126,"count":1200,"type":"VEC2"},{"bufferView":15,"componentType":5125,"count":648,"type":"SCALAR"},{"bufferView":16,"componentType":5126,"count":648,"type":"VEC3","min":[-2.6885,-0.635,-8.930603026313667],"max":[2.6885,1.59,9.310603026313668]},{"bufferView":17,"componentType":5126,"count":648,"type":"VEC3"},{"bufferView":18,"componentType":5126,"count":648,"type":"VEC2"},{"bufferView":19,"componentType":5125,"count":1224,"type":"SCALAR"},{"bufferView":20,"componentType":5126,"count":1224,"type":"VEC3","min":[-3.576681383996144,0.6560191041696742,-5.700535290170599],"max":[3.576681383996144,1.1949999999999998,8.1705352901706]},{"bufferView":21,"componentType":5126,"count":1224,"type":"VEC3"},{"bufferView":22,"componentType":5126,"count":1224,"type":"VEC2"},{"bufferView":23,"componentType":5125,"count":36,"type":"SCALAR"},{"bufferView":24,"componentType":5126,"count":36,"type":"VEC3","min":[-1.7875,1.75,4.5600000000000005],"max":[1.7875,1.85,8.360000000000001]},{"bufferView":25,"componentType":5126,"count":36,"type":"VEC3"},{"bufferView":26,"componentType":5126,"count":36,"type":"VEC2"},{"bufferView":27,"componentType":5125,"count":684,"type":"SCALAR"},{"bufferView":28,"componentType":5126,"count":684,"type":"VEC3","min":[-2.6564925236646704,1.13,-4.955],"max":[3.0250000000000004,8.960635505999411,4.67248402249694]},{"bufferView":29,"componentType":5126,"count":684,"type":"VEC3"},{"bufferView":30,"componentType":5126,"count":684,"type":"VEC2"},{"bufferView":31,"componentType":5125,"count":12,"type":"SCALAR"},{"bufferView":32,"componentType":5126,"count":12,"type":"VEC3","min":[0,2.52,7.22],"max":[0.62,2.9,7.22]},{"bufferView":33,"componentType":5126,"count":12,"type":"VEC3"},{"bufferView":34,"componentType":5126,"count":12,"type":"VEC2"},{"bufferView":35,"componentType":5125,"count":108,"type":"SCALAR"},{"bufferView":36,"componentType":5126,"count":108,"type":"VEC3","min":[-2.145,-1.289233,0.01],"max":[2.145,1.364482,0.03]},{"bufferView":37,"componentType":5126,"count":108,"type":"VEC3"},{"bufferView":38,"componentType":5126,"count":108,"type":"VEC2"},{"bufferView":39,"componentType":5125,"count":72,"type":"SCALAR"},{"bufferView":40,"componentType":5126,"count":72,"type":"VEC3","min":[-2.145,-1.279233,0],"max":[2.145,1.354482,0.15]},{"bufferView":41,"componentType":5126,"count":72,"type":"VEC3"},{"bufferView":42,"componentType":5126,"count":72,"type":"VEC2"},{"bufferView":43,"componentType":5125,"count":108,"type":"SCALAR"},{"bufferView":44,"componentType":5126,"count":108,"type":"VEC3","min":[-2.145,-1.5893,0.01],"max":[2.145,1.6821999999999997,0.03]},{"bufferView":45,"componentType":5126,"count":108,"type":"VEC3"},{"bufferView":46,"componentType":5126,"count":108,"type":"VEC2"},{"bufferView":47,"componentType":5125,"count":72,"type":"SCALAR"},{"bufferView":48,"componentType":5126,"count":72,"type":"VEC3","min":[-2.145,-1.5793,0],"max":[2.145,1.6721999999999997,0.15]},{"bufferView":49,"componentType":5126,"count":72,"type":"VEC3"},{"bufferView":50,"componentType":5126,"count":72,"type":"VEC2"},{"bufferView":51,"componentType":5125,"count":36,"type":"SCALAR"},{"bufferView":52,"componentType":5126,"count":36,"type":"VEC3","min":[-0.075,-0.575,-0.07999999999999999],"max":[0.075,0.09500000000000003,0.28]},{"bufferView":53,"componentType":5126,"count":36,"type":"VEC3"},{"bufferView":54,"componentType":5126,"count":36,"type":"VEC2"},{"bufferView":55,"componentType":5125,"count":96,"type":"SCALAR"},{"bufferView":56,"componentType":5126,"count":96,"type":"VEC3","min":[-0.065,0.05,-0.065],"max":[0.065,0.75,0.065]},{"bufferView":57,"componentType":5126,"count":96,"type":"VEC3"},{"bufferView":58,"componentType":5126,"count":96,"type":"VEC2"},{"bufferView":59,"componentType":5126,"count":5,"type":"SCALAR","min":[0.0],"max":[2.8]},{"bufferView":60,"componentType":5126,"count":5,"type":"VEC4"},{"bufferView":61,"componentType":5126,"count":5,"type":"SCALAR","min":[0.0],"max":[2.8]},{"bufferView":62,"componentType":5126,"count":5,"type":"VEC4"},{"bufferView":63,"componentType":5126,"count":5,"type":"SCALAR","min":[0.0],"max":[2.4]},{"bufferView":64,"componentType":5126,"count":5,"type":"VEC4"}],"animations":[{"name":"sail_01_preview","samplers":[{"input":52,"output":53,"interpolation":"LINEAR"}],"channels":[{"sampler":0,"target":{"node":2,"path":"rotation"}}]},{"name":"sail_02_preview","samplers":[{"input":54,"output":55,"interpolation":"LINEAR"}],"channels":[{"sampler":0,"target":{"node":3,"path":"rotation"}}]},{"name":"rudder_preview","samplers":[{"input":56,"output":57,"interpolation":"LINEAR"}],"channels":[{"sampler":0,"target":{"node":4,"path":"rotation"}}]}]}
