{"asset":{"generator":"DarkArisen OpenSource3D alpha prop generator","version":"2.0"},"scene":0,"scenes":[{"nodes":[0]}],"nodes":[{"name":"ship.prison_transport","children":[1,2,3,4]},{"name":"hull","mesh":0,"translation":[0,0,0]},{"name":"sail_01","mesh":1,"translation":[0,4.882479999999999,-2.9]},{"name":"sail_02","mesh":2,"translation":[0,5.757999999999999,2.9]},{"name":"rudder","mesh":3,"translation":[0,0.64,10.2]}],"meshes":[{"name":"hull","primitives":[{"attributes":{"POSITION":1,"NORMAL":2,"TEXCOORD_0":3},"indices":0,"material":0,"mode":4},{"attributes":{"POSITION":5,"NORMAL":6,"TEXCOORD_0":7},"indices":4,"material":1,"mode":4},{"attributes":{"POSITION":9,"NORMAL":10,"TEXCOORD_0":11},"indices":8,"material":2,"mode":4},{"attributes":{"POSITION":13,"NORMAL":14,"TEXCOORD_0":15},"indices":12,"material":3,"mode":4},{"attributes":{"POSITION":17,"NORMAL":18,"TEXCOORD_0":19},"indices":16,"material":4,"mode":4},{"attributes":{"POSITION":21,"NORMAL":22,"TEXCOORD_0":23},"indices":20,"material":5,"mode":4}]},{"name":"sail_01","primitives":[{"attributes":{"POSITION":25,"NORMAL":26,"TEXCOORD_0":27},"indices":24,"material":5,"mode":4},{"attributes":{"POSITION":29,"NORMAL":30,"TEXCOORD_0":31},"indices":28,"material":6,"mode":4}]},{"name":"sail_02","primitives":[{"attributes":{"POSITION":33,"NORMAL":34,"TEXCOORD_0":35},"indices":32,"material":5,"mode":4},{"attributes":{"POSITION":37,"NORMAL":38,"TEXCOORD_0":39},"indices":36,"material":6,"mode":4}]},{"name":"rudder","primitives":[{"attributes":{"POSITION":41,"NORMAL":42,"TEXCOORD_0":43},"indices":40,"material":0,"mode":4},{"attributes":{"POSITION":45,"NORMAL":46,"TEXCOORD_0":47},"indices":44,"material":3,"mode":4}]}],"materials":[{"name":"oak","pbrMetallicRoughness":{"baseColorTexture":{"index":0},"metallicFactor":0.0,"roughnessFactor":0.83},"doubleSided":false},{"name":"oak_light","pbrMetallicRoughness":{"baseColorTexture":{"index":1},"metallicFactor":0.0,"roughnessFactor":0.78},"doubleSided":false},{"name":"black_iron","pbrMetallicRoughness":{"baseColorTexture":{"index":2},"metallicFactor":0.65,"roughnessFactor":0.73},"doubleSided":false},{"name":"iron","pbrMetallicRoughness":{"baseColorTexture":{"index":3},"metallicFactor":0.72,"roughnessFactor":0.62},"doubleSided":false},{"name":"roof","pbrMetallicRoughness":{"baseColorTexture":{"index":4},"metallicFactor":0.0,"roughnessFactor":0.91},"doubleSided":false},{"name":"rope","pbrMetallicRoughness":{"baseColorTexture":{"index":5},"metallicFactor":0.0,"roughnessFactor":0.95},"doubleSided":false},{"name":"canvas","pbrMetallicRoughness":{"baseColorTexture":{"index":6},"metallicFactor":0.0,"roughnessFactor":0.96},"doubleSided":true}],"textures":[{"source":0},{"source":1},{"source":2},{"source":3},{"source":4},{"source":5},{"source":6}],"images":[{"name":"oak_grain","bufferView":0,"mimeType":"image/png"},{"name":"oak_light_grain","bufferView":1,"mimeType":"image/png"},{"name":"black_iron_grain","bufferView":2,"mimeType":"image/png"},{"name":"iron_grain","bufferView":3,"mimeType":"image/png"},{"name":"roof_grain","bufferView":4,"mimeType":"image/png"},{"name":"rope_grain","bufferView":5,"mimeType":"image/png"},{"name":"canvas_grain","bufferView":6,"mimeType":"image/png"}],"samplers":[{"wrapS":10497,"wrapT":10497}],"buffers":[{"byteLength":257088,"uri":"data:application/octet-stream;base64,"}],"bufferViews":[{"buffer":0,"byteOffset":0,"byteLength":792},{"buffer":0,"byteOffset":792,"byteLength":887},{"buffer":0,"byteOffset":1680,"byteLength":329},{"buffer":0,"byteOffset":2012,"byteLength":481},{"buffer":0,"byteOffset":2496,"byteLength":527},{"buffer":0,"byteOffset":3024,"byteLength":608},{"buffer":0,"byteOffset":3632,"byteLength":649},{"buffer":0,"byteOffset":4284,"byteLength":11304,"target":34963},{"buffer":0,"byteOffset":15588,"byteLength":33912,"target":34962},{"buffer":0,"byteOffset":49500,"byteLength":33912,"target":34962},{"buffer":0,"byteOffset":83412,"byteLength":22608,"target":34962},{"buffer":0,"byteOffset":106020,"byteLength":4800,"target":34963},{"buffer":0,"byteOffset":110820,"byteLength":14400,"target":34962},{"buffer":0,"byteOffset":125220,"byteLength":14400,"target":34962},{"buffer":0,"byteOffset":139620,"byteLength":9600,"target":34962},{"buffer":0,"byteOffset":149220,"byteLength":2448,"target":34963},{"buffer":0,"byteOffset":151668,"byteLength":7344,"target":34962},{"buffer":0,"byteOffset":159012,"byteLength":7344,"target":34962},{"buffer":0,"byteOffset":166356,"byteLength":4896,"target":34962},{"buffer":0,"byteOffset":171252,"byteLength":5088,"target":34963},{"buffer":0,"byteOffset":176340,"byteLength":15264,"target":34962},{"buffer":0,"byteOffset":191604,"byteLength":15264,"target":34962},{"buffer":0,"byteOffset":206868,"byteLength":10176,"target":34962},{"buffer":0,"byteOffset":217044,"byteLength":144,"target":34963},{"buffer":0,"byteOffset":217188,"byteLength":432,"target":34962},{"buffer":0,"byteOffset":217620,"byteLength":432,"target":34962},{"buffer":0,"byteOffset":218052,"byteLength":288,"target":34962},{"buffer":0,"byteOffset":218340,"byteLength":2304,"target":34963},{"buffer":0,"byteOffset":220644,"byteLength":6912,"target":34962},{"buffer":0,"byteOffset":227556,"byteLength":6912,"target":34962},{"buffer":0,"byteOffset":234468,"byteLength":4608,"target":34962},{"buffer":0,"byteOffset":239076,"byteLength":432,"target":34963},{"buffer":0,"byteOffset":239508,"byteLength":1296,"target":34962},{"buffer":0,"byteOffset":240804,"byteLength":1296,"target":34962},{"buffer":0,"byteOffset":242100,"byteLength":864,"target":34962},{"buffer":0,"byteOffset":242964,"byteLength":288,"target":34963},{"buffer":0,"byteOffset":243252,"byteLength":864,"target":34962},{"buffer":0,"byteOffset":244116,"byteLength":864,"target":34962},{"buffer":0,"byteOffset":244980,"byteLength":576,"target":34962},{"buffer":0,"byteOffset":245556,"byteLength":432,"target":34963},{"buffer":0,"byteOffset":245988,"byteLength":1296,"target":34962},{"buffer":0,"byteOffset":247284,"byteLength":1296,"target":34962},{"buffer":0,"byteOffset":248580,"byteLength":864,"target":34962},{"buffer":0,"byteOffset":249444,"byteLength":288,"target":34963},{"buffer":0,"byteOffset":249732,"byteLength":864,"target":34962},{"buffer":0,"byteOffset":250596,"byteLength":864,"target":34962},{"buffer":0,"byteOffset":251460,"byteLength":576,"target":34962},{"buffer":0,"byteOffset":252036,"byteLength":144,"target":34963},{"buffer":0,"byteOffset":252180,"byteLength":432,"target":34962},{"buffer":0,"byteOffset":252612,"byteLength":432,"target":34962},{"buffer":0,"byteOffset":253044,"byteLength":288,"target":34962},{"buffer":0,"byteOffset":253332,"byteLength":384,"target":34963},{"buffer":0,"byteOffset":253716,"byteLength":1152,"target":34962},{"buffer":0,"byteOffset":254868,"byteLength":1152,"target":34962},{"buffer":0,"byteOffset":256020,"byteLength":768,"target":34962},{"buffer":0,"byteOffset":256788,"byteLength":20},{"buffer":0,"byteOffset":256808,"byteLength":80},{"buffer":0,"byteOffset":256888,"byteLength":20},{"buffer":0,"byteOffset":256908,"byteLength":80},{"buffer":0,"byteOffset":256988,"byteLength":20},{"buffer":0,"byteOffset":257008,"byteLength":80}],"accessors":[{"bufferView":7,"componentType":5125,"count":2826,"type":"SCALAR"},{"bufferView":8,"componentType":5126,"count":2826,"type":"VEC3","min":[-2.8,-1.12,-10.377265395542196],"max":[2.8,10.75,10.0]},{"bufferView":9,"componentType":5126,"count":2826,"type":"VEC3"},{"bufferView":10,"componentType":5126,"count":2826,"type":"VEC2"},{"bufferView":11,"componentType":5125,"count":1200,"type":"SCALAR"},{"bufferView":12,"componentType":5126,"count":1200,"type":"VEC3","min":[-2.8,-0.57,-13.607023846749948],"max":[2.8,7.642,10.0]},{"bufferView":13,"componentType":5126,"count":1200,"type":"VEC3"},{"bufferView":14,"componentType":5126,"count":1200,"type":"VEC2"},{"bufferView":15,"componentType":5125,"count":612,"type":"SCALAR"},{"bufferView":16,"componentType":5126,"count":612,"type":"VEC3","min":[-2.7371999999999996,-0.635,-9.40058329363831],"max":[2.7371999999999996,1.59,9.800583293638311]},{"bufferView":17,"componentType":5126,"count":612,"type":"VEC3"},{"bufferView":18,"componentType":5126,"count":612,"type":"VEC2"},{"bufferView":19,"componentType":5125,"count":1272,"type":"SCALAR"},{"bufferView":20,"componentType":5126,"count":1272,"type":"VEC3","min":[-3.6416513743700363,0.6560184282223608,-6.0005177739417155],"max":[3.6416513743700363,1.1975,8.600517773941714]},{"bufferView":21,"componentType":5126,"count":1272,"type":"VEC3"},{"bufferView":22,"componentType":5126,"count":1272,"type":"VEC2"},{"bufferView":23,"componentType":5125,"count":36,"type":"SCALAR"},{"bufferView":24,"componentType":5126,"count":36,"type":"VEC3","min":[-1.8199999999999998,1.75,4.800000000000001],"max":[1.8199999999999998,1.85,8.8]},{"bufferView":25,"componentType":5126,"count":36,"type":"VEC3"},{"bufferView":26,"componentType":5126,"count":36,"type":"VEC2"},{"bufferView":27,"componentType":5125,"count":576,"type":"SCALAR"},{"bufferView":28,"componentType":5126,"count":576,"type":"VEC3","min":[-2.704486046974372,1.1826457909822916,-5.115670052326476],"max":[2.704486046974372,9.22100150114879,4.917465633628332]},{"bufferView":29,"componentType":5126,"count":576,"type":"VEC3"},{"bufferView":30,"componentType":5126,"count":576,"type":"VEC2"},{"bufferView":31,"componentType":5125,"count":108,"type":"SCALAR"},{"bufferView":32,"componentType":5126,"count":108,"type":"VEC3","min":[-2.1839999999999997,-1.33192,0.01],"max":[2.1839999999999997,1.4096799999999998,0.03]},{"bufferView":33,"componentType":5126,"count":108,"type":"VEC3"},{"bufferView":34,"componentType":5126,"count":108,"type":"VEC2"},{"bufferView":35,"componentType":5125,"count":72,"type":"SCALAR"},{"bufferView":36,"componentType":5126,"count":72,"type":"VEC3","min":[-2.1839999999999997,-1.32192,0],"max":[2.1839999999999997,1.3996799999999998,0.15]},{"bufferView":37,"componentType":5126,"count":72,"type":"VEC3"},{"bufferView":38,"componentType":5126,"count":72,"type":"VEC2"},{"bufferView":39,"componentType":5125,"count":108,"type":"SCALAR"},{"bufferView":40,"componentType":5126,"count":108,"type":"VEC3","min":[-2.1839999999999997,-1.6420000000000001,0.01],"max":[2.1839999999999997,1.738,0.03]},{"bufferView":41,"componentType":5126,"count":108,"type":"VEC3"},{"bufferView":42,"componentType":5126,"count":108,"type":"VEC2"},{"bufferView":43,"componentType":5125,"count":72,"type":"SCALAR"},{"bufferView":44,"componentType":5126,"count":72,"type":"VEC3","min":[-2.1839999999999997,-1.6320000000000001,0],"max":[2.1839999999999997,1.728,0.15]},{"bufferView":45,"componentType":5126,"count":72,"type":"VEC3"},{"bufferView":46,"componentType":5126,"count":72,"type":"VEC2"},{"bufferView":47,"componentType":5125,"count":36,"type":"SCALAR"},{"bufferView":48,"componentType":5126,"count":36,"type":"VEC3","min":[-0.075,-0.575,-0.07999999999999999],"max":[0.075,0.09500000000000003,0.28]},{"bufferView":49,"componentType":5126,"count":36,"type":"VEC3"},{"bufferView":50,"componentType":5126,"count":36,"type":"VEC2"},{"bufferView":51,"componentType":5125,"count":96,"type":"SCALAR"},{"bufferView":52,"componentType":5126,"count":96,"type":"VEC3","min":[-0.065,0.05,-0.065],"max":[0.065,0.75,0.065]},{"bufferView":53,"componentType":5126,"count":96,"type":"VEC3"},{"bufferView":54,"componentType":5126,"count":96,"type":"VEC2"},{"bufferView":55,"componentType":5126,"count":5,"type":"SCALAR","min":[0.0],"max":[2.8]},{"bufferView":56,"componentType":5126,"count":5,"type":"VEC4"},{"bufferView":57,"componentType":5126,"count":5,"type":"SCALAR","min":[0.0],"max":[2.8]},{"bufferView":58,"componentType":5126,"count":5,"type":"VEC4"},{"bufferView":59,"componentType":5126,"count":5,"type":"SCALAR","min":[0.0],"max":[2.4]},{"bufferView":60,"componentType":5126,"count":5,"type":"VEC4"}],"animations":[{"name":"sail_01_preview","samplers":[{"input":48,"output":49,"interpolation":"LINEAR"}],"channels":[{"sampler":0,"target":{"node":2,"path":"rotation"}}]},{"name":"sail_02_preview","samplers":[{"input":50,"output":51,"interpolation":"LINEAR"}],"channels":[{"sampler":0,"target":{"node":3,"path":"rotation"}}]},{"name":"rudder_preview","samplers":[{"input":52,"output":53,"interpolation":"LINEAR"}],"channels":[{"sampler":0,"target":{"node":4,"path":"rotation"}}]}]}
